<svg width="40" height="40" viewBox="0 0 40 40" fill="none" xmlns="http://www.w3.org/2000/svg">
<path fill-rule="evenodd" clip-rule="evenodd" d="M20 40C31.0457 40 40 31.0457 40 20C40 8.9543 31.0457 0 20 0C8.9543 0 0 8.9543 0 20C0 31.0457 8.9543 40 20 40Z" fill="#FF4733"/>
<path fill-rule="evenodd" clip-rule="evenodd" d="M21.5556 29C21.5556 29 27 28.7286 27 23.2111C27 17.6935 23.4375 13.7437 18.5312 11C18.5 15.3116 13 18.2965 13 23.2714C13 28.2462 18.4444 29 18.4444 29C18.4444 29 16.3704 27.9246 16.3704 26.0251C16.3704 24.1256 17.9259 23.0201 17.9259 20.0151C17.9259 20.0151 20 22.5193 20 23.5209C20 23.5209 21.037 21.7873 21.037 17.5109C21.037 17.5109 24.1481 20.0151 24.1481 24.0218C24.1481 28.0285 21.5556 29 21.5556 29Z" fill="white"/>
</svg>
