<svg width="40" height="40" viewBox="0 0 40 40" fill="none" xmlns="http://www.w3.org/2000/svg">
<path fill-rule="evenodd" clip-rule="evenodd" d="M20 40C31.0457 40 40 31.0457 40 20C40 8.9543 31.0457 0 20 0C8.9543 0 0 8.9543 0 20C0 31.0457 8.9543 40 20 40Z" fill="#1281D3"/>
<path fill-rule="evenodd" clip-rule="evenodd" d="M11.0504 19.703C10.9832 19.5729 10.9832 19.4271 11.0504 19.297C11.6182 18.197 14.5846 13 19.9496 13C25.3146 13 28.281 18.197 28.8488 19.297C28.9159 19.4271 28.9159 19.5729 28.8488 19.703C28.281 20.803 25.3146 26 19.9496 26C14.5846 26 11.6182 20.803 11.0504 19.703ZM19.9496 23.5C22.1587 23.5 23.9496 21.7091 23.9496 19.5C23.9496 17.2909 22.1587 15.5 19.9496 15.5C17.7404 15.5 15.9496 17.2909 15.9496 19.5C15.9496 21.7091 17.7404 23.5 19.9496 23.5ZM21.9496 19.5C21.9496 20.6046 21.0541 21.5 19.9496 21.5C18.845 21.5 17.9496 20.6046 17.9496 19.5C17.9496 18.3954 18.845 17.5 19.9496 17.5C21.0541 17.5 21.9496 18.3954 21.9496 19.5Z" fill="white"/>
</svg>
