<svg width="72" height="72" viewBox="0 0 72 72" fill="none" xmlns="http://www.w3.org/2000/svg">
<path d="M26.6914 39C26.2593 37.9568 26 36.7531 26 35.5494C26 30.2531 30.5802 26 36.284 26C37.5802 26 38.8765 26.2407 40 26.642" stroke="#A4AEB8" stroke-width="3" stroke-miterlimit="10" stroke-linecap="round" stroke-linejoin="round"/>
<path d="M45.3086 32C45.7407 33.1235 46 34.4198 46 35.7161C46 41.4198 41.4198 46 35.716 46C34.4198 46 33.1235 45.7407 32 45.3086" stroke="#A4AEB8" stroke-width="3" stroke-miterlimit="10" stroke-linecap="round" stroke-linejoin="round"/>
<path d="M16.7 48.4999L2 36.4999L18.1 22.5999C26.7 15.0999 37.6 13.5999 47.2 17.8999" stroke="#A4AEB8" stroke-width="3" stroke-miterlimit="10" stroke-linecap="round" stroke-linejoin="round"/>
<path d="M55.2998 23.3L69.9998 35.3L53.8998 49.2C45.2998 56.7 34.3998 58.2 24.7998 53.8" stroke="#A4AEB8" stroke-width="3" stroke-miterlimit="10" stroke-linecap="round" stroke-linejoin="round"/>
<path d="M9 62.8L62.9 9" stroke="#A4AEB8" stroke-width="3" stroke-miterlimit="10" stroke-linecap="round" stroke-linejoin="round"/>
</svg>
