<svg width="40" height="40" viewBox="0 0 40 40" fill="none" xmlns="http://www.w3.org/2000/svg">
<path fill-rule="evenodd" clip-rule="evenodd" d="M38.7071 11.2929L28.7943 1.29589C28.6065 1.10652 28.3509 1 28.0842 1H13.5C11.0147 1 9 3.01472 9 5.5V17H4C2.34315 17 1 18.3431 1 20V29C1 30.6569 2.34315 32 4 32H9V34.5C9 36.9853 11.0147 39 13.5 39H34.5C36.9853 39 39 36.9853 39 34.5V12C39 11.7362 38.8958 11.4832 38.7101 11.2959L38.7071 11.2929ZM27 3H13.5C12.1193 3 11 4.11929 11 5.5V17H25C26.6569 17 28 18.3431 28 20V29C28 30.6569 26.6569 32 25 32H11V34.5C11 35.8807 12.1193 37 13.5 37H34.5C35.8807 37 37 35.8807 37 34.5V13H28C27.4477 13 27 12.5523 27 12V3ZM35.5858 11L29 4.41421V11H35.5858ZM26 20C26 19.4477 25.5523 19 25 19H4C3.44772 19 3 19.4477 3 20V29C3 29.5523 3.44772 30 4 30H25C25.5523 30 26 29.5523 26 29V20ZM23.748 26.9216C23.9922 26.5408 24.1257 26.1029 24.1484 25.6082H22.4443C22.4313 26.0118 22.3206 26.3064 22.1123 26.4919C21.904 26.6775 21.6029 26.7703 21.209 26.7703C20.7435 26.7703 20.4147 26.6075 20.2227 26.282C20.0339 25.9565 19.9395 25.4145 19.9395 24.656V24.1531C19.9492 23.4532 20.0534 22.9438 20.252 22.6248C20.4505 22.3057 20.763 22.1462 21.1895 22.1462C21.6094 22.1462 21.9219 22.2406 22.127 22.4294C22.332 22.6182 22.4411 22.9291 22.4541 23.3621H24.1631C24.0915 22.5645 23.7936 21.9395 23.2695 21.4871C22.7454 21.0313 22.0521 20.8035 21.1895 20.8035C20.5905 20.8035 20.0632 20.9467 19.6074 21.2332C19.1517 21.5164 18.8018 21.92 18.5576 22.4441C18.3167 22.9649 18.1963 23.5736 18.1963 24.2703V24.6218C18.1963 25.7319 18.4648 26.5912 19.002 27.2C19.5391 27.8087 20.2747 28.113 21.209 28.113C21.7754 28.113 22.2783 28.0089 22.7178 27.8005C23.1605 27.5922 23.5039 27.2992 23.748 26.9216ZM17.5127 24.6072C17.5127 25.3005 17.3841 25.9141 17.127 26.448C16.8698 26.9819 16.5036 27.3936 16.0283 27.6833C15.5563 27.9698 15.0176 28.113 14.4121 28.113C13.8066 28.113 13.2695 27.9747 12.8008 27.698C12.332 27.4181 11.9658 27.0193 11.7021 26.5017C11.4417 25.9841 11.305 25.3901 11.292 24.7195V24.3191C11.292 23.6225 11.4189 23.0089 11.6729 22.4783C11.93 21.9444 12.2962 21.5326 12.7715 21.2429C13.25 20.9532 13.7936 20.8083 14.4023 20.8083C15.0046 20.8083 15.5417 20.9516 16.0137 21.238C16.4857 21.5245 16.8519 21.933 17.1123 22.4636C17.376 22.991 17.5094 23.5964 17.5127 24.28V24.6072ZM15.7695 24.3093C15.7695 23.6029 15.6507 23.0675 15.4131 22.7029C15.1787 22.335 14.8418 22.1511 14.4023 22.1511C13.543 22.1511 13.0889 22.7957 13.04 24.0847L13.0352 24.6072C13.0352 25.3038 13.1507 25.8393 13.3818 26.2136C13.613 26.588 13.9564 26.7751 14.4121 26.7751C14.8451 26.7751 15.1787 26.5912 15.4131 26.2234C15.6475 25.8556 15.7663 25.3266 15.7695 24.6365V24.3093ZM5.02734 28.0154V20.906H7.31738C7.94564 20.906 8.51042 21.0492 9.01172 21.3357C9.51302 21.6189 9.90365 22.0209 10.1836 22.5417C10.4668 23.0593 10.61 23.6404 10.6133 24.2849V24.6121C10.6133 25.2631 10.4749 25.8474 10.1982 26.365C9.9248 26.8793 9.53743 27.283 9.03613 27.5759C8.53809 27.8656 7.98145 28.0121 7.36621 28.0154H5.02734ZM6.74121 22.2292V26.697H7.33691C7.82845 26.697 8.20605 26.5229 8.46973 26.1746C8.7334 25.823 8.86523 25.3022 8.86523 24.6121V24.3044C8.86523 23.6176 8.7334 23.1 8.46973 22.7517C8.20605 22.4034 7.82194 22.2292 7.31738 22.2292H6.74121Z" fill="#3396FF"/>
</svg>
