<svg width="40" height="40" viewBox="0 0 40 40" fill="none" xmlns="http://www.w3.org/2000/svg">
<path fill-rule="evenodd" clip-rule="evenodd" d="M7.25111 27.9999V25.5879H8.34511C9.21111 25.5879 9.89211 25.3799 10.3881 24.9649C10.8851 24.5499 11.1331 23.9959 11.1331 23.3029C11.1331 22.8339 11.0191 22.4149 10.7891 22.0449C10.5591 21.6759 10.2351 21.3909 9.81711 21.1899C9.39911 20.9899 8.91811 20.8899 8.37411 20.8899H5.53711V27.9999H7.25111ZM8.37411 24.2649H7.25111L7.25011 24.2639V22.2139H8.39411C8.70311 22.2169 8.94611 22.3179 9.12611 22.5169C9.30511 22.7149 9.39411 22.9799 9.39411 23.3119C9.39411 23.6149 9.30711 23.8499 9.13411 24.0149C8.95911 24.1819 8.70611 24.2649 8.37411 24.2649Z" fill="#FF4733"/>
<path fill-rule="evenodd" clip-rule="evenodd" d="M12.4461 27.9999V20.8899H14.7361C15.3641 20.8899 15.9291 21.0329 16.4301 21.3179C16.9321 21.6029 17.3231 22.0049 17.6051 22.5239C17.8861 23.0439 18.0291 23.6249 18.0321 24.2699V24.5969C18.0321 25.2469 17.8941 25.8309 17.6191 26.3469C17.3441 26.8629 16.9571 27.2669 16.4571 27.5579C15.9571 27.8489 15.4001 27.9969 14.7851 27.9999H12.4461ZM14.1601 26.6819V22.2139H14.7361C15.2401 22.2139 15.6251 22.3879 15.8881 22.7359C16.1521 23.0849 16.2841 23.6019 16.2841 24.2889V24.5969C16.2841 25.2869 16.1521 25.8069 15.8881 26.1569C15.6251 26.5069 15.2471 26.6819 14.7551 26.6819H14.1601Z" fill="#FF4733"/>
<path d="M23.7871 25.1679H21.0251V27.9999H19.3101V20.8899H24.0661V22.2139H21.0241V23.8499H23.7871V25.1679Z" fill="#FF4733"/>
<path fill-rule="evenodd" clip-rule="evenodd" d="M28.7943 1.29589L38.7071 11.2929L38.7101 11.2959C38.8958 11.4832 39 11.7362 39 12V34.5C39 36.9853 36.9853 39 34.5 39H13.5C11.0147 39 9 36.9853 9 34.5V32H4C2.34315 32 1 30.6569 1 29V20C1 18.3431 2.34315 17 4 17H9V5.5C9 3.01472 11.0147 1 13.5 1H28.0842C28.3509 1 28.6065 1.10652 28.7943 1.29589ZM13.5 3H27V12C27 12.5523 27.4477 13 28 13H37V34.5C37 35.8807 35.8807 37 34.5 37H13.5C12.1193 37 11 35.8807 11 34.5V32H25C26.6569 32 28 30.6569 28 29V20C28 18.3431 26.6569 17 25 17H11V5.5C11 4.11929 12.1193 3 13.5 3ZM29 4.41421L35.5858 11H29V4.41421ZM25 19C25.5523 19 26 19.4477 26 20V29C26 29.5523 25.5523 30 25 30H4C3.44772 30 3 29.5523 3 29V20C3 19.4477 3.44772 19 4 19H25Z" fill="#FF4733"/>
</svg>
