<svg width="24" height="24" viewBox="0 0 24 24" fill="none" xmlns="http://www.w3.org/2000/svg">
<path fill-rule="evenodd" clip-rule="evenodd" d="M12.1768 4.17773C12.3721 4.373 12.3721 4.68958 12.1768 4.88484L5.8107 11.251H20.5C20.7762 11.251 21 11.4748 21 11.751V12.251C21 12.5271 20.7762 12.751 20.5 12.751H5.8107L12.1768 19.1171C12.3721 19.3123 12.3721 19.6289 12.1768 19.8242L11.8233 20.1777C11.628 20.373 11.3114 20.373 11.1162 20.1777L3.29293 12.3545C3.09767 12.1592 3.09767 11.8427 3.29293 11.6474L11.1162 3.82418C11.3114 3.62892 11.628 3.62892 11.8233 3.82418L12.1768 4.17773Z" fill="#10002B"/>
</svg>
