<svg width="16" height="14" viewBox="0 0 16 14" fill="none" xmlns="http://www.w3.org/2000/svg">
<path fill-rule="evenodd" clip-rule="evenodd" d="M0 0.75C0 0.473858 0.223858 0.25 0.5 0.25H15.5C15.7761 0.25 16 0.473858 16 0.75V1.25C16 1.52614 15.7761 1.75 15.5 1.75H0.5C0.223858 1.75 0 1.52614 0 1.25V0.75ZM0 6.75C0 6.47386 0.223858 6.25 0.5 6.25H11.5C11.7761 6.25 12 6.47386 12 6.75V7.25C12 7.52614 11.7761 7.75 11.5 7.75H0.5C0.223858 7.75 0 7.52614 0 7.25V6.75ZM0.5 12.25C0.223858 12.25 0 12.4739 0 12.75V13.25C0 13.5261 0.223858 13.75 0.5 13.75H15.5C15.7761 13.75 16 13.5261 16 13.25V12.75C16 12.4739 15.7761 12.25 15.5 12.25H0.5Z" fill="black"/>
</svg>
