<svg width="16" height="16" viewBox="0 0 16 16" fill="none" xmlns="http://www.w3.org/2000/svg">
<path d="M15.6768 1.38389C15.872 1.18863 15.872 0.87205 15.6768 0.676788L15.3232 0.323234C15.128 0.127973 14.8114 0.127973 14.6161 0.323235L7.99998 6.93936L1.38386 0.323235C1.1886 0.127973 0.872019 0.127973 0.676757 0.323235L0.323204 0.676788C0.127942 0.872051 0.127942 1.18863 0.323204 1.38389L6.93932 8.00002L0.323205 14.6161C0.127943 14.8114 0.127942 15.128 0.323205 15.3232L0.676758 15.6768C0.87202 15.872 1.1886 15.872 1.38387 15.6768L7.99998 9.06068L14.6161 15.6768C14.8113 15.872 15.1279 15.872 15.3232 15.6768L15.6767 15.3232C15.872 15.128 15.872 14.8114 15.6767 14.6161L9.06064 8.00002L15.6768 1.38389Z" fill="#202326"/>
</svg>
