<svg width="16" height="16" viewBox="0 0 16 16" fill="none" xmlns="http://www.w3.org/2000/svg">
<path fill-rule="evenodd" clip-rule="evenodd" d="M10 3C10 2.44772 9.55228 2 9 2H7C6.44772 2 6 2.44772 6 3V4H4.53295H2.75C2.33579 4 2 4.33579 2 4.75C2 5.16421 2.33579 5.5 2.75 5.5H3.53295V13C3.53295 13.5523 3.98066 14 4.53295 14H11.4832C12.0355 14 12.4832 13.5523 12.4832 13V5.5H13.25C13.6642 5.5 14 5.16421 14 4.75C14 4.33579 13.6642 4 13.25 4H11.4832H10V3ZM8.5 4V3.5H7.5V4H8.5ZM6 5.5H5.03295V12.5H10.9832V5.5H10H8.5H7.5H6ZM6 7.75C6 7.33579 6.33579 7 6.75 7C7.16421 7 7.5 7.33579 7.5 7.75V10.25C7.5 10.6642 7.16421 11 6.75 11C6.33579 11 6 10.6642 6 10.25V7.75ZM8.5 7.75C8.5 7.33579 8.83579 7 9.25 7C9.66421 7 10 7.33579 10 7.75V10.25C10 10.6642 9.66421 11 9.25 11C8.83579 11 8.5 10.6642 8.5 10.25V7.75Z" fill="#A4AEB8"/>
</svg>
