<svg width="17" height="18" viewBox="0 0 17 18" fill="none" xmlns="http://www.w3.org/2000/svg">
<path fill-rule="evenodd" clip-rule="evenodd" d="M0 7.44922C0 11.0391 2.91015 13.9492 6.5 13.9492C8.02469 13.9492 9.42677 13.4243 10.5353 12.5452L15.1161 17.126C15.3114 17.3213 15.628 17.3213 15.8232 17.126L16.1768 16.7724C16.372 16.5772 16.372 16.2606 16.1768 16.0653L11.596 11.4846C12.475 10.376 13 8.97391 13 7.44922C13 3.85937 10.0899 0.949219 6.5 0.949219C2.91015 0.949219 0 3.85937 0 7.44922ZM11.5 7.44922C11.5 10.2106 9.26142 12.4492 6.5 12.4492C3.73858 12.4492 1.5 10.2106 1.5 7.44922C1.5 4.68779 3.73858 2.44922 6.5 2.44922C9.26142 2.44922 11.5 4.68779 11.5 7.44922Z" fill="#10002B"/>
</svg>
