<svg width="32" height="32" viewBox="0 0 32 32" fill="none" xmlns="http://www.w3.org/2000/svg">
<path fill-rule="evenodd" clip-rule="evenodd" d="M16 32C24.8366 32 32 24.8366 32 16C32 7.16344 24.8366 0 16 0C7.16344 0 0 7.16344 0 16C0 24.8366 7.16344 32 16 32Z" fill="#21B5FF"/>
<path fill-rule="evenodd" clip-rule="evenodd" d="M8.7998 11.9999C8.7998 11.1162 9.51615 10.3999 10.3998 10.3999H21.5998C22.4835 10.3999 23.1998 11.1162 23.1998 11.9999V19.9999C23.1998 20.8836 22.4835 21.5999 21.5998 21.5999H10.3998C9.51615 21.5999 8.7998 20.8836 8.7998 19.9999V11.9999ZM13.1998 15.7999C13.1998 15.579 13.3789 15.3999 13.5998 15.3999H15.3998V13.5999C15.3998 13.379 15.5789 13.1999 15.7998 13.1999H16.1998C16.4207 13.1999 16.5998 13.379 16.5998 13.5999V15.3999H18.3998C18.6207 15.3999 18.7998 15.579 18.7998 15.7999V16.1999C18.7998 16.4208 18.6207 16.5999 18.3998 16.5999H16.5998V18.3999C16.5998 18.6208 16.4207 18.7999 16.1998 18.7999H15.7998C15.5789 18.7999 15.3998 18.6208 15.3998 18.3999V16.5999H13.5998C13.3789 16.5999 13.1998 16.4208 13.1998 16.1999V15.7999Z" fill="white"/>
</svg>
