<svg width="32" height="32" viewBox="0 0 32 32" fill="none" xmlns="http://www.w3.org/2000/svg">
<path fill-rule="evenodd" clip-rule="evenodd" d="M16 32C24.8366 32 32 24.8366 32 16C32 7.16344 24.8366 0 16 0C7.16344 0 0 7.16344 0 16C0 24.8366 7.16344 32 16 32Z" fill="#FFD500"/>
<path fill-rule="evenodd" clip-rule="evenodd" d="M17.3639 8.38513C17.4958 7.9925 17.2845 7.56723 16.8919 7.43528C16.4992 7.30332 16.074 7.51464 15.942 7.90727C15.4858 9.26464 15.2506 10.7695 15.25 12.3409C15.1465 12.3132 15.041 12.2768 14.9329 12.233L14.9277 12.231C12.8386 11.418 10.4339 12.219 9.27507 14.1921C8.79381 14.9231 8.76652 15.9489 8.94549 16.9844C9.12854 18.0435 9.54325 19.2042 10.0535 20.2757C10.5641 21.3479 11.1799 22.3508 11.7784 23.0924C12.077 23.4625 12.38 23.7784 12.6723 24.0055C12.9521 24.223 13.2785 24.4037 13.6146 24.4037C14.5001 24.4037 14.9764 24.1766 15.3365 23.9366C15.4085 23.8885 15.469 23.8464 15.5217 23.8098C15.7328 23.6628 15.8177 23.6037 16.0146 23.6037C16.2116 23.6037 16.2964 23.6628 16.5076 23.8098C16.5603 23.8464 16.6207 23.8885 16.6928 23.9366C17.0529 24.1766 17.5292 24.4037 18.4146 24.4037C18.7508 24.4037 19.0772 24.223 19.357 24.0055C19.6493 23.7784 19.9523 23.4625 20.2509 23.0924C20.8494 22.3508 21.4652 21.3479 21.9758 20.2757C22.486 19.2042 22.9007 18.0435 23.0838 16.9844C23.2628 15.9489 23.2355 14.9231 22.7542 14.1921C21.5957 12.2196 19.1921 11.4185 17.1034 12.2303C16.9803 12.2768 16.863 12.316 16.7499 12.3452C16.7502 10.9238 16.9626 9.57914 17.3639 8.38513ZM14.403 10.3971C12.6568 8.65099 11.4535 8.26073 8.82983 9.6342C10.7069 11.5113 13.3274 10.9249 14.403 10.3971Z" fill="white"/>
</svg>
