<svg width="32" height="32" viewBox="0 0 32 32" fill="none" xmlns="http://www.w3.org/2000/svg">
<path fill-rule="evenodd" clip-rule="evenodd" d="M16 32C24.8366 32 32 24.8366 32 16C32 7.16344 24.8366 0 16 0C7.16344 0 0 7.16344 0 16C0 24.8366 7.16344 32 16 32Z" fill="#FF6E00"/>
<path fill-rule="evenodd" clip-rule="evenodd" d="M21.6569 21.6569C24.781 18.5327 24.781 13.4673 21.6569 10.3431C18.5327 7.21895 13.4673 7.21895 10.3431 10.3431C7.21895 13.4673 7.21895 18.5327 10.3431 21.6569C13.4673 24.781 18.5327 24.781 21.6569 21.6569ZM13.1716 14.3029C12.8592 13.9905 12.8592 13.484 13.1716 13.1716C13.484 12.8592 13.9905 12.8592 14.3029 13.1716L16 14.8686L17.6971 13.1716C18.0095 12.8592 18.516 12.8592 18.8284 13.1716C19.1408 13.484 19.1408 13.9905 18.8284 14.3029L17.1314 16L18.8284 17.6971C19.1408 18.0095 19.1408 18.516 18.8284 18.8284C18.516 19.1408 18.0095 19.1408 17.6971 18.8284L16 17.1314L14.3029 18.8284C13.9905 19.1408 13.484 19.1408 13.1716 18.8284C12.8592 18.516 12.8592 18.0095 13.1716 17.6971L14.8686 16L13.1716 14.3029Z" fill="white"/>
</svg>
