<svg width="32" height="32" viewBox="0 0 32 32" fill="none" xmlns="http://www.w3.org/2000/svg">
<path fill-rule="evenodd" clip-rule="evenodd" d="M16 32C24.8366 32 32 24.8366 32 16C32 7.16344 24.8366 0 16 0C7.16344 0 0 7.16344 0 16C0 24.8366 7.16344 32 16 32Z" fill="#EA501F"/>
<path fill-rule="evenodd" clip-rule="evenodd" d="M21.1999 8.7998C21.4208 8.7998 21.5999 8.97889 21.5999 9.1998V19.1998C21.5999 19.4207 21.4208 19.5998 21.1999 19.5998H12.8922C12.2295 19.5998 11.6922 20.1371 11.6922 20.7998C11.6922 21.4625 12.2295 21.9998 12.8922 21.9998H21.1999C21.4208 21.9998 21.5999 22.1789 21.5999 22.3998V22.7998C21.5999 23.0207 21.4208 23.1998 21.1999 23.1998H11.9999C11.1162 23.1998 10.3999 22.4835 10.3999 21.5998V10.3998C10.3999 9.51615 11.1162 8.7998 11.9999 8.7998H21.1999ZM12.9845 11.5998C12.9845 11.3789 13.1636 11.1998 13.3845 11.1998H19.0461C19.267 11.1998 19.4461 11.3789 19.4461 11.5998V13.1998C19.4461 13.4207 19.267 13.5998 19.0461 13.5998H13.3845C13.1636 13.5998 12.9845 13.4207 12.9845 13.1998V11.5998Z" fill="white"/>
<path d="M12.9537 20.3998C12.7328 20.3998 12.5537 20.5789 12.5537 20.7998C12.5537 21.0207 12.7328 21.1998 12.9537 21.1998H20.7691C20.99 21.1998 21.1691 21.0207 21.1691 20.7998C21.1691 20.5789 20.99 20.3998 20.7691 20.3998H12.9537Z" fill="white"/>
</svg>
