<svg width="32" height="32" viewBox="0 0 32 32" fill="none" xmlns="http://www.w3.org/2000/svg">
<path fill-rule="evenodd" clip-rule="evenodd" d="M16 32C24.8366 32 32 24.8366 32 16C32 7.16344 24.8366 0 16 0C7.16344 0 0 7.16344 0 16C0 24.8366 7.16344 32 16 32Z" fill="#A0CC1B"/>
<path fill-rule="evenodd" clip-rule="evenodd" d="M8 16C8 11.584 11.576 8 15.992 8C20.416 8 24 11.584 24 16C24 20.416 20.416 24 15.992 24C11.576 24 8 20.416 8 16ZM15.776 12H15.824C16.144 12 16.4 12.256 16.4 12.576V16.208L19.496 18.048C19.776 18.208 19.864 18.568 19.696 18.84C19.536 19.112 19.184 19.192 18.912 19.032L15.592 17.04C15.344 16.896 15.2 16.632 15.2 16.352V12.576C15.2 12.256 15.456 12 15.776 12Z" fill="white"/>
</svg>
