<svg width="32" height="32" viewBox="0 0 32 32" fill="none" xmlns="http://www.w3.org/2000/svg">
<path fill-rule="evenodd" clip-rule="evenodd" d="M16 32C24.8366 32 32 24.8366 32 16C32 7.16344 24.8366 0 16 0C7.16344 0 0 7.16344 0 16C0 24.8366 7.16344 32 16 32Z" fill="#8E70A6"/>
<path d="M16.1509 10.4321C16.2514 10.3892 16.3651 10.3892 16.4656 10.4321L22.9571 13.2093C23.2806 13.3477 23.2806 13.8064 22.9571 13.9448L16.4656 16.7219C16.3651 16.7649 16.2514 16.7649 16.1509 16.7219L10.4422 14.2797V18.0176C10.4422 18.2385 10.2632 18.4176 10.0422 18.4176H9.61045C9.38954 18.4176 9.21045 18.2385 9.21045 18.0176V13.6436H9.42217C9.39443 13.4741 9.47352 13.2888 9.65944 13.2093L16.1509 10.4321Z" fill="white"/>
<path d="M15.9936 17.8594L12.1368 16.2094V18.797C12.1368 19.9058 14.0044 20.8046 16.3082 20.8046C18.612 20.8046 20.4796 19.9058 20.4796 18.797V16.2095L16.6229 17.8594C16.422 17.9454 16.1946 17.9454 15.9936 17.8594Z" fill="white"/>
<path d="M10.8537 20.2079C10.8537 20.7572 9.82675 21.6003 9.82675 21.6003C9.82675 21.6003 8.7998 20.7572 8.7998 20.2079C8.7998 19.6586 9.25958 19.2133 9.82675 19.2133C10.3939 19.2133 10.8537 19.6586 10.8537 20.2079Z" fill="white"/>
</svg>
