<svg width="32" height="32" viewBox="0 0 32 32" fill="none" xmlns="http://www.w3.org/2000/svg">
<path fill-rule="evenodd" clip-rule="evenodd" d="M16 32C24.8366 32 32 24.8366 32 16C32 7.16344 24.8366 0 16 0C7.16344 0 0 7.16344 0 16C0 24.8366 7.16344 32 16 32Z" fill="#3396FF"/>
<path d="M15.0766 8.61983C15.4182 7.79854 16.5816 7.79854 16.9232 8.61983L18.3046 11.941C18.4486 12.2872 18.7742 12.5238 19.148 12.5538L22.7334 12.8412C23.6201 12.9123 23.9796 14.0188 23.3041 14.5975L20.5723 16.9375C20.2876 17.1815 20.1632 17.5642 20.2502 17.929L21.0848 21.4278C21.2912 22.293 20.3499 22.9769 19.5908 22.5132L16.5212 20.6383C16.2011 20.4428 15.7987 20.4428 15.4786 20.6383L12.409 22.5132C11.6499 22.9769 10.7086 22.293 10.915 21.4278L11.7496 17.929C11.8366 17.5642 11.7123 17.1815 11.4275 16.9375L8.69571 14.5975C8.02018 14.0188 8.3797 12.9123 9.26636 12.8412L12.8518 12.5538C13.2256 12.5238 13.5512 12.2872 13.6952 11.941L15.0766 8.61983Z" fill="white"/>
</svg>
