<svg width="32" height="32" viewBox="0 0 32 32" fill="none" xmlns="http://www.w3.org/2000/svg">
<path fill-rule="evenodd" clip-rule="evenodd" d="M16 32C24.8366 32 32 24.8366 32 16C32 7.16344 24.8366 0 16 0C7.16344 0 0 7.16344 0 16C0 24.8366 7.16344 32 16 32Z" fill="#E62D73"/>
<path fill-rule="evenodd" clip-rule="evenodd" d="M19.175 8.87029C19.0244 8.71966 18.7669 8.82644 18.7669 9.03957V11.6438C18.7669 11.8623 18.9412 12.033 19.1562 12.033H21.7604C21.9735 12.033 22.0801 11.7751 21.9294 11.6244L19.175 8.87029ZM17.5714 8.84244H10.3985C10.1784 8.84244 10 9.021 10 9.24126V22.801C10 23.0212 10.1784 23.1998 10.3985 23.1998H21.5564C21.7765 23.1998 21.9549 23.0212 21.9549 22.801V13.2294H19.1578C18.2821 13.2294 17.5714 12.5227 17.5714 11.6417V8.84244ZM12.7895 12.033C12.5694 12.033 12.391 12.2115 12.391 12.4318V12.8306C12.391 13.0509 12.5694 13.2294 12.7895 13.2294H15.9774C16.1975 13.2294 16.3759 13.0509 16.3759 12.8306V12.4318C16.3759 12.2115 16.1975 12.033 15.9774 12.033H12.7895ZM12.391 15.6223C12.391 15.402 12.5694 15.2235 12.7895 15.2235H19.1654C19.3855 15.2235 19.5639 15.402 19.5639 15.6223V16.0211C19.5639 16.2414 19.3855 16.4199 19.1654 16.4199H12.7895C12.5694 16.4199 12.391 16.2414 12.391 16.0211V15.6223ZM12.7895 18.414C12.5694 18.414 12.391 18.5926 12.391 18.8128V19.2116C12.391 19.4319 12.5694 19.6105 12.7895 19.6105H19.1654C19.3855 19.6105 19.5639 19.4319 19.5639 19.2116V18.8128C19.5639 18.5926 19.3855 18.414 19.1654 18.414H12.7895Z" fill="white"/>
</svg>
