<svg width="32" height="32" viewBox="0 0 32 32" fill="none" xmlns="http://www.w3.org/2000/svg">
<path fill-rule="evenodd" clip-rule="evenodd" d="M16 32C24.8366 32 32 24.8366 32 16C32 7.16344 24.8366 0 16 0C7.16344 0 0 7.16344 0 16C0 24.8366 7.16344 32 16 32Z" fill="#1AC79A"/>
<path fill-rule="evenodd" clip-rule="evenodd" d="M8.7998 11.9999C8.7998 11.1162 9.51615 10.3999 10.3998 10.3999H21.5998C22.4835 10.3999 23.1998 11.1162 23.1998 11.9999V12.7999H8.7998V11.9999ZM8.7998 13.9999H23.1998V19.9999C23.1998 20.8836 22.4835 21.5999 21.5998 21.5999H10.3998C9.51615 21.5999 8.7998 20.8836 8.7998 19.9999V13.9999ZM19.5998 18.7999C19.3789 18.7999 19.1998 18.979 19.1998 19.1999V19.5999C19.1998 19.8208 19.3789 19.9999 19.5998 19.9999H21.1998C21.4207 19.9999 21.5998 19.8208 21.5998 19.5999V19.1999C21.5998 18.979 21.4207 18.7999 21.1998 18.7999H19.5998Z" fill="white"/>
</svg>
