<svg width="188" height="56" viewBox="0 0 188 56" fill="none" xmlns="http://www.w3.org/2000/svg">
<rect x="0.5" y="0.5" width="187" height="55" rx="5.5" fill="black"/>
<path d="M58.844 41.9998L65.236 25.4238H67.6048L74.448 41.9998H71.9288L69.9736 36.9972H62.98L61.1376 41.9998H58.844ZM63.6568 35.2052H69.2968L67.5672 30.6132C67.0408 29.2318 66.6272 28.0745 66.4016 27.1785C66.176 28.2238 65.8752 29.3065 65.4992 30.3518L63.6568 35.2052Z" fill="black"/>
<path d="M75.952 46.592V29.9786H77.832V31.5466C78.2832 30.9493 78.772 30.464 79.336 30.1653C79.9 29.8666 80.5768 29.7173 81.3664 29.7173C82.3816 29.7173 83.3216 29.9786 84.1112 30.5013C84.9008 31.024 85.5024 31.7706 85.916 32.7413C86.3296 33.712 86.5176 34.7573 86.5176 35.9146C86.5176 37.1466 86.292 38.2666 85.8408 39.2373C85.3896 40.208 84.7504 40.992 83.9232 41.5146C83.096 42.0373 82.1936 42.2986 81.2536 42.2986C80.5768 42.2986 79.9752 42.1493 79.4112 41.8506C78.8848 41.552 78.4336 41.216 78.0576 40.768V46.6293H75.952V46.592ZM77.7944 36.064C77.7944 37.5946 78.0952 38.752 78.7344 39.4986C79.3736 40.2453 80.1256 40.6186 81.028 40.6186C81.9304 40.6186 82.72 40.2453 83.3592 39.4613C83.9984 38.7146 84.3368 37.52 84.3368 35.9146C84.3368 34.384 84.036 33.2266 83.3968 32.48C82.7576 31.7333 82.0056 31.3226 81.1408 31.3226C80.276 31.3226 79.4864 31.7333 78.8096 32.5546C78.1328 33.3386 77.7944 34.5333 77.7944 36.064Z" fill="black"/>
<path d="M88.924 46.592V29.9786H90.804V31.5466C91.2552 30.9493 91.744 30.464 92.308 30.1653C92.872 29.8666 93.5487 29.7173 94.3383 29.7173C95.3535 29.7173 96.2936 29.9786 97.0832 30.5013C97.8728 31.024 98.4744 31.7706 98.888 32.7413C99.3016 33.712 99.4896 34.7573 99.4896 35.9146C99.4896 37.1466 99.2639 38.2666 98.8127 39.2373C98.3615 40.208 97.7224 40.992 96.8952 41.5146C96.0304 42.0373 95.1656 42.2986 94.2256 42.2986C93.5488 42.2986 92.9472 42.1493 92.3832 41.8506C91.8567 41.552 91.4056 41.216 91.0296 40.768V46.6293H88.924V46.592ZM90.7663 36.064C90.7663 37.5946 91.0671 38.752 91.7063 39.4986C92.3455 40.2453 93.0976 40.6186 94 40.6186C94.9024 40.6186 95.692 40.2453 96.3312 39.4613C96.9704 38.7146 97.3087 37.52 97.3087 35.9146C97.3087 34.384 97.0079 33.2266 96.3687 32.48C95.7295 31.7333 94.9776 31.3226 94.1128 31.3226C93.248 31.3226 92.4584 31.7333 91.7816 32.5546C91.1048 33.3386 90.7663 34.5333 90.7663 36.064Z" fill="black"/>
<path d="M109.942 35.504V33.5626H117.011V39.7226C115.921 40.5813 114.793 41.216 113.665 41.664C112.537 42.112 111.334 42.2986 110.13 42.2986C108.476 42.2986 107.01 41.9626 105.656 41.2533C104.302 40.544 103.287 39.536 102.61 38.2293C101.934 36.9226 101.595 35.4293 101.595 33.824C101.595 32.2186 101.934 30.688 102.61 29.3066C103.287 27.9253 104.265 26.88 105.543 26.208C106.822 25.536 108.288 25.2 109.942 25.2C111.146 25.2 112.236 25.3866 113.214 25.7973C114.191 26.1706 114.943 26.7306 115.507 27.4026C116.071 28.112 116.485 29.008 116.786 30.128L114.793 30.688C114.53 29.8293 114.229 29.1946 113.853 28.7093C113.477 28.224 112.95 27.8506 112.274 27.552C111.597 27.2533 110.807 27.104 109.98 27.104C108.965 27.104 108.1 27.2533 107.348 27.552C106.596 27.8506 106.032 28.2613 105.581 28.7466C105.13 29.232 104.791 29.792 104.528 30.3893C104.114 31.3973 103.889 32.5173 103.889 33.712C103.889 35.2053 104.152 36.4373 104.641 37.408C105.167 38.416 105.882 39.1253 106.859 39.6106C107.837 40.096 108.89 40.32 109.98 40.32C110.92 40.32 111.86 40.1333 112.762 39.76C113.665 39.3866 114.379 39.0133 114.83 38.6026V35.504H109.942V35.504Z" fill="black"/>
<path d="M127.915 40.5067C127.163 41.1413 126.411 41.5893 125.734 41.8507C125.02 42.112 124.268 42.2613 123.478 42.2613C122.162 42.2613 121.147 41.9253 120.433 41.2907C119.718 40.656 119.38 39.8347 119.38 38.8267C119.38 38.2293 119.53 37.7067 119.794 37.2213C120.057 36.736 120.433 36.3627 120.846 36.064C121.298 35.7653 121.786 35.5413 122.313 35.392C122.726 35.28 123.328 35.168 124.118 35.0933C125.772 34.9067 126.975 34.6453 127.765 34.384C127.765 34.1227 127.765 33.936 127.765 33.8613C127.765 33.04 127.577 32.4427 127.201 32.1067C126.674 31.6587 125.885 31.4347 124.87 31.4347C123.892 31.4347 123.178 31.584 122.726 31.92C122.275 32.256 121.937 32.8533 121.711 33.712L119.718 33.4507C119.906 32.592 120.207 31.92 120.621 31.3973C121.034 30.8747 121.636 30.464 122.426 30.2027C123.215 29.904 124.118 29.792 125.17 29.792C126.186 29.792 127.05 29.904 127.69 30.1653C128.329 30.3893 128.818 30.7253 129.118 31.0613C129.419 31.4347 129.645 31.8827 129.758 32.4427C129.833 32.7787 129.87 33.4133 129.87 34.3093V36.96C129.87 38.864 129.908 40.0587 129.983 40.544C130.058 41.0293 130.246 41.5147 130.51 42H128.366C128.103 41.5893 127.953 41.0667 127.915 40.5067ZM127.727 35.9893C126.975 36.288 125.885 36.5493 124.381 36.7733C123.554 36.8853 122.952 37.0347 122.576 37.184C122.238 37.3333 121.974 37.5573 121.786 37.856C121.598 38.1547 121.486 38.4533 121.486 38.8267C121.486 39.3867 121.674 39.8347 122.087 40.1707C122.501 40.5067 123.102 40.7307 123.892 40.7307C124.682 40.7307 125.396 40.544 125.998 40.208C126.599 39.872 127.05 39.3867 127.351 38.7893C127.577 38.3413 127.69 37.6693 127.69 36.7733V35.9893H127.727Z" fill="black"/>
<path d="M132.954 41.9998V25.4238H134.984V41.9998H132.954Z" fill="black"/>
<path d="M138.105 41.9998V25.4238H140.135V41.9998H138.105Z" fill="black"/>
<path d="M151.603 38.1173L153.709 38.3786C153.37 39.6106 152.769 40.544 151.866 41.2533C150.964 41.9253 149.798 42.2613 148.407 42.2613C146.64 42.2613 145.249 41.7386 144.196 40.656C143.143 39.5733 142.654 38.0426 142.654 36.1013C142.654 34.0853 143.181 32.5173 144.234 31.3973C145.286 30.2773 146.64 29.7173 148.294 29.7173C149.911 29.7173 151.227 30.2773 152.242 31.36C153.258 32.4426 153.784 33.9733 153.784 35.9893C153.784 36.1013 153.784 36.288 153.784 36.5493H144.76C144.835 37.856 145.211 38.864 145.888 39.5733C146.565 40.2826 147.392 40.6186 148.407 40.6186C149.159 40.6186 149.798 40.432 150.325 40.0213C150.889 39.6106 151.302 38.976 151.603 38.1173ZM144.873 34.832H151.641C151.566 33.824 151.302 33.0773 150.851 32.5546C150.212 31.7706 149.347 31.3973 148.294 31.3973C147.354 31.3973 146.565 31.696 145.926 32.3306C145.286 32.9653 144.948 33.7866 144.873 34.832Z" fill="black"/>
<path d="M156.266 42V29.9786H158.108V31.808C158.597 30.9493 159.01 30.3893 159.424 30.128C159.838 29.8666 160.251 29.7173 160.74 29.7173C161.417 29.7173 162.131 29.9413 162.846 30.3893L162.131 32.2933C161.642 31.9946 161.116 31.8453 160.627 31.8453C160.176 31.8453 159.762 31.9946 159.424 32.256C159.086 32.5173 158.822 32.8906 158.672 33.376C158.446 34.0853 158.334 34.9066 158.334 35.7653V42.0373H156.266V42Z" fill="black"/>
<path d="M163.974 46.6294L163.748 44.7254C164.199 44.8374 164.575 44.9121 164.914 44.9121C165.365 44.9121 165.741 44.8374 166.004 44.6881C166.267 44.5388 166.493 44.3148 166.681 44.0534C166.794 43.8668 167.019 43.3441 167.32 42.5228C167.358 42.4108 167.433 42.2614 167.508 42.0374L162.921 30.0161H165.139L167.658 36.9601C167.997 37.8561 168.26 38.7521 168.523 39.7228C168.749 38.7894 169.05 37.8934 169.35 36.9974L171.945 30.0161H173.975L169.388 42.1868C168.899 43.4934 168.523 44.4268 168.222 44.9121C167.846 45.5841 167.433 46.0694 166.982 46.4054C166.493 46.7041 165.966 46.8908 165.29 46.8908C164.914 46.8534 164.462 46.7788 163.974 46.6294Z" fill="black"/>
<path d="M58.3176 14.2986C58.3176 12.8799 58.6936 11.7599 59.4832 10.9759C60.2352 10.1546 61.2504 9.78125 62.4536 9.78125C63.2432 9.78125 63.9576 9.96792 64.5968 10.3413C65.236 10.7146 65.7248 11.2372 66.0632 11.9092C66.4016 12.5812 66.552 13.3652 66.552 14.1866C66.552 15.0452 66.364 15.8293 66.0256 16.5013C65.6872 17.1733 65.1608 17.6959 64.5216 18.0693C63.8824 18.4053 63.168 18.5919 62.416 18.5919C61.5888 18.5919 60.8744 18.4053 60.2352 17.9946C59.596 17.6213 59.1072 17.0613 58.7688 16.3893C58.468 15.7919 58.3176 15.0826 58.3176 14.2986ZM59.4832 14.3359C59.4832 15.3813 59.7464 16.1653 60.3104 16.7626C60.8744 17.3599 61.5512 17.6586 62.416 17.6586C63.2808 17.6586 63.9952 17.3599 64.5216 16.7626C65.0856 16.1653 65.3488 15.3066 65.3488 14.2239C65.3488 13.5146 65.236 12.9173 65.0104 12.3946C64.7848 11.8719 64.4088 11.4612 63.9576 11.1999C63.5064 10.9386 62.98 10.7892 62.416 10.7892C61.6264 10.7892 60.912 11.0506 60.348 11.6106C59.784 12.1332 59.4832 13.0293 59.4832 14.3359Z" fill="black"/>
<path d="M70.2369 18.48V10.9387H67.4169V9.93066H74.2601V10.9387H71.4025V18.48H70.2369Z" fill="black"/>
<path d="M75.3881 9.93064H76.5161V13.664C77.0425 13.664 77.4185 13.552 77.6065 13.3653C77.8321 13.1786 78.0953 12.6933 78.4337 11.9093C78.6593 11.3493 78.8849 10.9386 79.0353 10.7146C79.1857 10.4906 79.4113 10.304 79.7121 10.1173C80.0129 9.96798 80.3137 9.89331 80.6521 9.89331C81.1033 9.89331 81.3289 9.89331 81.3289 9.89331V10.864C81.2913 10.864 81.2161 10.864 81.1033 10.864C80.9905 10.864 80.9153 10.864 80.8777 10.864C80.5017 10.864 80.2385 10.9386 80.0505 11.1253C79.8625 11.312 79.6745 11.6853 79.4489 12.2453C79.1481 12.9546 78.9225 13.44 78.6969 13.6266C78.5089 13.8133 78.2457 13.9626 77.9825 14.0746C78.5465 14.224 79.0729 14.7466 79.6369 15.6053L81.4041 18.4426H79.9753L78.5465 16.128C78.1329 15.4933 77.8321 15.0453 77.5689 14.8213C77.3057 14.5973 76.9673 14.448 76.5161 14.448V18.4426H75.3881V9.93064Z" fill="black"/>
<path d="M82.3816 18.48V9.93066H85.6152C86.1792 9.93066 86.6304 9.968 86.9312 10.0053C87.3448 10.08 87.7208 10.192 87.984 10.416C88.2848 10.6027 88.5104 10.9013 88.6608 11.2373C88.8488 11.5733 88.924 11.984 88.924 12.3947C88.924 13.104 88.6984 13.7387 88.2096 14.224C87.7584 14.7093 86.8936 14.9707 85.6904 14.9707H83.472V18.4427H82.3816V18.48ZM83.5096 14H85.728C86.48 14 86.9688 13.8507 87.3072 13.5893C87.608 13.328 87.7584 12.9173 87.7584 12.432C87.7584 12.0587 87.6832 11.76 87.4952 11.4987C87.3072 11.2373 87.0816 11.088 86.7808 10.976C86.5928 10.9387 86.2168 10.9013 85.728 10.9013H83.5096V14V14Z" fill="black"/>
<path d="M89.7888 14.2986C89.7888 12.8799 90.1648 11.7599 90.9544 10.9759C91.7064 10.1546 92.7216 9.78125 93.9248 9.78125C94.7144 9.78125 95.4288 9.96792 96.068 10.3413C96.7072 10.7146 97.196 11.2372 97.5344 11.9092C97.8728 12.5812 98.0232 13.3652 98.0232 14.1866C98.0232 15.0452 97.8352 15.8293 97.4968 16.5013C97.1584 17.1733 96.632 17.6959 95.9928 18.0693C95.3536 18.4053 94.6392 18.5919 93.8872 18.5919C93.06 18.5919 92.3456 18.4053 91.7064 17.9946C91.0672 17.6213 90.5784 17.0613 90.24 16.3893C89.9768 15.7919 89.7888 15.0826 89.7888 14.2986ZM90.992 14.3359C90.992 15.3813 91.2552 16.1653 91.8192 16.7626C92.3832 17.3599 93.06 17.6586 93.9248 17.6586C94.7896 17.6586 95.504 17.3599 96.0304 16.7626C96.5944 16.1653 96.8576 15.3066 96.8576 14.2239C96.8576 13.5146 96.7448 12.9173 96.5192 12.3946C96.2936 11.8719 95.9176 11.4612 95.4664 11.1999C95.0152 10.9012 94.4888 10.7892 93.9248 10.7892C93.1352 10.7892 92.4208 11.0506 91.8568 11.6106C91.2552 12.1332 90.992 13.0293 90.992 14.3359Z" fill="black"/>
<path d="M99.5272 9.93053H100.58V16.6879L105.167 9.93053H106.295V18.4799H105.28V11.7225L100.693 18.4799H99.5648V9.93053H99.5272ZM103.814 7.8772H104.528C104.453 8.36253 104.302 8.73586 104.002 8.9972C103.701 9.25853 103.287 9.37053 102.798 9.37053C102.31 9.37053 101.896 9.25853 101.595 8.9972C101.294 8.73586 101.106 8.36253 101.069 7.8772H101.783C101.821 8.13853 101.934 8.3252 102.122 8.47453C102.272 8.58653 102.498 8.6612 102.761 8.6612C103.062 8.6612 103.325 8.58653 103.475 8.47453C103.626 8.36253 103.738 8.17586 103.814 7.8772Z" fill="black"/>
<path d="M110.356 18.4798V10.9384H107.536V9.93042H114.379V10.9384H111.522V18.4798H110.356Z" fill="black"/>
<path d="M115.545 18.4798V9.93042H121.786V10.9384H116.71V13.5518H121.448V14.5598H116.673V17.4718H121.974V18.4798H115.545Z" fill="black"/>
<path d="M126.825 18.48V9.93066H130.058C130.735 9.93066 131.262 10.0053 131.638 10.192C132.051 10.3787 132.352 10.64 132.578 10.976C132.803 11.3493 132.916 11.7227 132.916 12.096C132.916 12.4693 132.803 12.8053 132.615 13.1413C132.427 13.4773 132.126 13.7387 131.713 13.9253C132.239 14.0747 132.653 14.336 132.916 14.7093C133.179 15.0827 133.33 15.4933 133.33 16.016C133.33 16.4267 133.254 16.8 133.066 17.136C132.878 17.472 132.69 17.7333 132.427 17.92C132.164 18.1067 131.863 18.256 131.487 18.3307C131.111 18.4427 130.66 18.48 130.096 18.48H126.825V18.48ZM127.99 13.5147H129.87C130.359 13.5147 130.735 13.4773 130.961 13.4027C131.262 13.328 131.487 13.1787 131.6 12.992C131.713 12.8053 131.826 12.544 131.826 12.2453C131.826 11.9467 131.75 11.7227 131.638 11.4987C131.487 11.2747 131.299 11.1253 131.036 11.0507C130.773 10.976 130.359 10.9387 129.72 10.9387H127.99V13.5147V13.5147ZM127.99 17.472H130.134C130.51 17.472 130.773 17.472 130.923 17.4347C131.186 17.3973 131.412 17.3227 131.6 17.2107C131.788 17.0987 131.938 16.9493 132.051 16.7253C132.164 16.5013 132.239 16.2773 132.239 16.016C132.239 15.68 132.164 15.4187 131.976 15.1947C131.826 14.9707 131.6 14.784 131.299 14.7093C130.998 14.5973 130.585 14.56 130.021 14.56H128.028V17.472H127.99Z" fill="black"/>
<path fill-rule="evenodd" clip-rule="evenodd" d="M37.976 10.2666H22.372C15.0024 10.2666 12.3328 12.9546 12.3328 20.2346V35.7279C12.3328 43.0453 15.04 45.6959 22.372 45.6959H37.976C45.3456 45.6959 48.0152 43.0079 48.0152 35.7279V20.2346C48.0528 12.9546 45.3456 10.2666 37.976 10.2666Z" fill="#C7102D"/>
<path d="M19.4017 28H20.3417V32.6293H19.4017V30.7627H17.2585V32.6293H16.3185V28H17.2585V29.8667H19.4017V28ZM24.7409 30.6507C24.7409 31.3973 24.3649 31.808 23.6881 31.808C23.0113 31.808 22.6353 31.3973 22.6353 30.6133V28H21.6953V30.6507C21.6953 31.9573 22.4097 32.704 23.6881 32.704C24.9665 32.704 25.7185 31.9573 25.7185 30.6133V28H24.7785V30.6507H24.7409ZM35.6825 31.1733L34.6297 28H33.8401L32.7873 31.1733L31.7721 28H30.7569L32.3737 32.6293H33.1633L34.2161 29.568L35.2689 32.6293H36.0585L37.6753 28H36.6977L35.6825 31.1733ZM39.4049 30.6507H41.1345V29.792H39.4049V28.8587H41.9241V28H38.5025V32.6293H42.0369V31.7707H39.4425V30.6507H39.4049ZM43.1273 32.6293H44.0673V28H43.1273V32.6293ZM27.5609 31.6587L27.1473 32.6293H26.1697L28.2001 28H29.0273L31.0577 32.6293H30.0801L29.7041 31.6587H27.5609ZM27.8993 30.8373H29.3281L28.6137 29.1947L27.8993 30.8373Z" fill="white"/>
<path d="M30.1928 22.1013C26.9216 22.1013 24.252 19.4506 24.252 16.2026H25.0792C25.0792 19.0026 27.3728 21.28 30.1928 21.28C33.0128 21.28 35.3064 19.0026 35.3064 16.2026H36.1336C36.1336 19.4506 33.464 22.1013 30.1928 22.1013Z" fill="white"/>
<path d="M58.844 41.9998L65.236 25.4238H67.6048L74.448 41.9998H71.9288L69.9736 36.9972H62.98L61.1376 41.9998H58.844ZM63.6568 35.2052H69.2968L67.5672 30.6132C67.0408 29.2318 66.6272 28.0745 66.4016 27.1785C66.176 28.2238 65.8752 29.3065 65.4992 30.3518L63.6568 35.2052Z" fill="white"/>
<path d="M75.952 46.592V29.9786H77.832V31.5466C78.2832 30.9493 78.772 30.464 79.336 30.1653C79.9 29.8666 80.5768 29.7173 81.3664 29.7173C82.3816 29.7173 83.3216 29.9786 84.1112 30.5013C84.9008 31.024 85.5024 31.7706 85.916 32.7413C86.3296 33.712 86.5176 34.7573 86.5176 35.9146C86.5176 37.1466 86.292 38.2666 85.8408 39.2373C85.3896 40.208 84.7504 40.992 83.9232 41.5146C83.096 42.0373 82.1936 42.2986 81.2536 42.2986C80.5768 42.2986 79.9752 42.1493 79.4112 41.8506C78.8848 41.552 78.4336 41.216 78.0576 40.768V46.6293H75.952V46.592ZM77.7944 36.064C77.7944 37.5946 78.0952 38.752 78.7344 39.4986C79.3736 40.2453 80.1256 40.6186 81.028 40.6186C81.9304 40.6186 82.72 40.2453 83.3592 39.4613C83.9984 38.7146 84.3368 37.52 84.3368 35.9146C84.3368 34.384 84.036 33.2266 83.3968 32.48C82.7576 31.7333 82.0056 31.3226 81.1408 31.3226C80.276 31.3226 79.4864 31.7333 78.8096 32.5546C78.1328 33.3386 77.7944 34.5333 77.7944 36.064Z" fill="white"/>
<path d="M88.924 46.592V29.9786H90.804V31.5466C91.2552 30.9493 91.744 30.464 92.308 30.1653C92.872 29.8666 93.5487 29.7173 94.3383 29.7173C95.3535 29.7173 96.2936 29.9786 97.0832 30.5013C97.8728 31.024 98.4744 31.7706 98.888 32.7413C99.3016 33.712 99.4896 34.7573 99.4896 35.9146C99.4896 37.1466 99.2639 38.2666 98.8127 39.2373C98.3615 40.208 97.7224 40.992 96.8952 41.5146C96.0304 42.0373 95.1656 42.2986 94.2256 42.2986C93.5488 42.2986 92.9472 42.1493 92.3832 41.8506C91.8567 41.552 91.4056 41.216 91.0296 40.768V46.6293H88.924V46.592ZM90.7663 36.064C90.7663 37.5946 91.0671 38.752 91.7063 39.4986C92.3455 40.2453 93.0976 40.6186 94 40.6186C94.9024 40.6186 95.692 40.2453 96.3312 39.4613C96.9704 38.7146 97.3087 37.52 97.3087 35.9146C97.3087 34.384 97.0079 33.2266 96.3687 32.48C95.7295 31.7333 94.9776 31.3226 94.1128 31.3226C93.248 31.3226 92.4584 31.7333 91.7816 32.5546C91.1048 33.3386 90.7663 34.5333 90.7663 36.064Z" fill="white"/>
<path d="M109.942 35.504V33.5626H117.011V39.7226C115.921 40.5813 114.793 41.216 113.665 41.664C112.537 42.112 111.334 42.2986 110.13 42.2986C108.476 42.2986 107.01 41.9626 105.656 41.2533C104.302 40.544 103.287 39.536 102.61 38.2293C101.934 36.9226 101.595 35.4293 101.595 33.824C101.595 32.2186 101.934 30.688 102.61 29.3066C103.287 27.9253 104.265 26.88 105.543 26.208C106.822 25.536 108.288 25.2 109.942 25.2C111.146 25.2 112.236 25.3866 113.214 25.7973C114.191 26.1706 114.943 26.7306 115.507 27.4026C116.071 28.112 116.485 29.008 116.786 30.128L114.793 30.688C114.53 29.8293 114.229 29.1946 113.853 28.7093C113.477 28.224 112.95 27.8506 112.274 27.552C111.597 27.2533 110.807 27.104 109.98 27.104C108.965 27.104 108.1 27.2533 107.348 27.552C106.596 27.8506 106.032 28.2613 105.581 28.7466C105.13 29.232 104.791 29.792 104.528 30.3893C104.114 31.3973 103.889 32.5173 103.889 33.712C103.889 35.2053 104.152 36.4373 104.641 37.408C105.167 38.416 105.882 39.1253 106.859 39.6106C107.837 40.096 108.89 40.32 109.98 40.32C110.92 40.32 111.86 40.1333 112.762 39.76C113.665 39.3866 114.379 39.0133 114.83 38.6026V35.504H109.942V35.504Z" fill="white"/>
<path d="M127.915 40.5067C127.163 41.1413 126.411 41.5893 125.734 41.8507C125.02 42.112 124.268 42.2613 123.478 42.2613C122.162 42.2613 121.147 41.9253 120.433 41.2907C119.718 40.656 119.38 39.8347 119.38 38.8267C119.38 38.2293 119.53 37.7067 119.794 37.2213C120.057 36.736 120.433 36.3627 120.846 36.064C121.298 35.7653 121.786 35.5413 122.313 35.392C122.726 35.28 123.328 35.168 124.118 35.0933C125.772 34.9067 126.975 34.6453 127.765 34.384C127.765 34.1227 127.765 33.936 127.765 33.8613C127.765 33.04 127.577 32.4427 127.201 32.1067C126.674 31.6587 125.885 31.4347 124.87 31.4347C123.892 31.4347 123.178 31.584 122.726 31.92C122.275 32.256 121.937 32.8533 121.711 33.712L119.718 33.4507C119.906 32.592 120.207 31.92 120.621 31.3973C121.034 30.8747 121.636 30.464 122.426 30.2027C123.215 29.904 124.118 29.792 125.17 29.792C126.186 29.792 127.05 29.904 127.69 30.1653C128.329 30.3893 128.818 30.7253 129.118 31.0613C129.419 31.4347 129.645 31.8827 129.758 32.4427C129.833 32.7787 129.87 33.4133 129.87 34.3093V36.96C129.87 38.864 129.908 40.0587 129.983 40.544C130.058 41.0293 130.246 41.5147 130.51 42H128.366C128.103 41.5893 127.953 41.0667 127.915 40.5067ZM127.727 35.9893C126.975 36.288 125.885 36.5493 124.381 36.7733C123.554 36.8853 122.952 37.0347 122.576 37.184C122.238 37.3333 121.974 37.5573 121.786 37.856C121.598 38.1547 121.486 38.4533 121.486 38.8267C121.486 39.3867 121.674 39.8347 122.087 40.1707C122.501 40.5067 123.102 40.7307 123.892 40.7307C124.682 40.7307 125.396 40.544 125.998 40.208C126.599 39.872 127.05 39.3867 127.351 38.7893C127.577 38.3413 127.69 37.6693 127.69 36.7733V35.9893H127.727Z" fill="white"/>
<path d="M132.954 41.9998V25.4238H134.984V41.9998H132.954Z" fill="white"/>
<path d="M138.105 41.9998V25.4238H140.135V41.9998H138.105Z" fill="white"/>
<path d="M151.603 38.1173L153.709 38.3786C153.37 39.6106 152.769 40.544 151.866 41.2533C150.964 41.9253 149.798 42.2613 148.407 42.2613C146.64 42.2613 145.249 41.7386 144.196 40.656C143.143 39.5733 142.654 38.0426 142.654 36.1013C142.654 34.0853 143.181 32.5173 144.234 31.3973C145.286 30.2773 146.64 29.7173 148.294 29.7173C149.911 29.7173 151.227 30.2773 152.242 31.36C153.258 32.4426 153.784 33.9733 153.784 35.9893C153.784 36.1013 153.784 36.288 153.784 36.5493H144.76C144.835 37.856 145.211 38.864 145.888 39.5733C146.565 40.2826 147.392 40.6186 148.407 40.6186C149.159 40.6186 149.798 40.432 150.325 40.0213C150.889 39.6106 151.302 38.976 151.603 38.1173ZM144.873 34.832H151.641C151.566 33.824 151.302 33.0773 150.851 32.5546C150.212 31.7706 149.347 31.3973 148.294 31.3973C147.354 31.3973 146.565 31.696 145.926 32.3306C145.286 32.9653 144.948 33.7866 144.873 34.832Z" fill="white"/>
<path d="M156.266 42V29.9786H158.108V31.808C158.597 30.9493 159.01 30.3893 159.424 30.128C159.838 29.8666 160.251 29.7173 160.74 29.7173C161.417 29.7173 162.131 29.9413 162.846 30.3893L162.131 32.2933C161.642 31.9946 161.116 31.8453 160.627 31.8453C160.176 31.8453 159.762 31.9946 159.424 32.256C159.086 32.5173 158.822 32.8906 158.672 33.376C158.446 34.0853 158.334 34.9066 158.334 35.7653V42.0373H156.266V42Z" fill="white"/>
<path d="M163.974 46.6294L163.748 44.7254C164.199 44.8374 164.575 44.9121 164.914 44.9121C165.365 44.9121 165.741 44.8374 166.004 44.6881C166.267 44.5388 166.493 44.3148 166.681 44.0534C166.794 43.8668 167.019 43.3441 167.32 42.5228C167.358 42.4108 167.433 42.2614 167.508 42.0374L162.921 30.0161H165.139L167.658 36.9601C167.997 37.8561 168.26 38.7521 168.523 39.7228C168.749 38.7894 169.05 37.8934 169.35 36.9974L171.945 30.0161H173.975L169.388 42.1868C168.899 43.4934 168.523 44.4268 168.222 44.9121C167.846 45.5841 167.433 46.0694 166.982 46.4054C166.493 46.7041 165.966 46.8908 165.29 46.8908C164.914 46.8534 164.462 46.7788 163.974 46.6294Z" fill="white"/>
<path d="M58.3176 14.2986C58.3176 12.8799 58.6936 11.7599 59.4832 10.9759C60.2352 10.1546 61.2504 9.78125 62.4536 9.78125C63.2432 9.78125 63.9576 9.96792 64.5968 10.3413C65.236 10.7146 65.7248 11.2372 66.0632 11.9092C66.4016 12.5812 66.552 13.3652 66.552 14.1866C66.552 15.0452 66.364 15.8293 66.0256 16.5013C65.6872 17.1733 65.1608 17.6959 64.5216 18.0693C63.8824 18.4053 63.168 18.5919 62.416 18.5919C61.5888 18.5919 60.8744 18.4053 60.2352 17.9946C59.596 17.6213 59.1072 17.0613 58.7688 16.3893C58.468 15.7919 58.3176 15.0826 58.3176 14.2986ZM59.4832 14.3359C59.4832 15.3813 59.7464 16.1653 60.3104 16.7626C60.8744 17.3599 61.5512 17.6586 62.416 17.6586C63.2808 17.6586 63.9952 17.3599 64.5216 16.7626C65.0856 16.1653 65.3488 15.3066 65.3488 14.2239C65.3488 13.5146 65.236 12.9173 65.0104 12.3946C64.7848 11.8719 64.4088 11.4612 63.9576 11.1999C63.5064 10.9386 62.98 10.7892 62.416 10.7892C61.6264 10.7892 60.912 11.0506 60.348 11.6106C59.784 12.1332 59.4832 13.0293 59.4832 14.3359Z" fill="white"/>
<path d="M70.2369 18.48V10.9387H67.4169V9.93066H74.2601V10.9387H71.4025V18.48H70.2369Z" fill="white"/>
<path d="M75.3881 9.93064H76.5161V13.664C77.0425 13.664 77.4185 13.552 77.6065 13.3653C77.8321 13.1786 78.0953 12.6933 78.4337 11.9093C78.6593 11.3493 78.8849 10.9386 79.0353 10.7146C79.1857 10.4906 79.4113 10.304 79.7121 10.1173C80.0129 9.96798 80.3137 9.89331 80.6521 9.89331C81.1033 9.89331 81.3289 9.89331 81.3289 9.89331V10.864C81.2913 10.864 81.2161 10.864 81.1033 10.864C80.9905 10.864 80.9153 10.864 80.8777 10.864C80.5017 10.864 80.2385 10.9386 80.0505 11.1253C79.8625 11.312 79.6745 11.6853 79.4489 12.2453C79.1481 12.9546 78.9225 13.44 78.6969 13.6266C78.5089 13.8133 78.2457 13.9626 77.9825 14.0746C78.5465 14.224 79.0729 14.7466 79.6369 15.6053L81.4041 18.4426H79.9753L78.5465 16.128C78.1329 15.4933 77.8321 15.0453 77.5689 14.8213C77.3057 14.5973 76.9673 14.448 76.5161 14.448V18.4426H75.3881V9.93064Z" fill="white"/>
<path d="M82.3816 18.48V9.93066H85.6152C86.1792 9.93066 86.6304 9.968 86.9312 10.0053C87.3448 10.08 87.7208 10.192 87.984 10.416C88.2848 10.6027 88.5104 10.9013 88.6608 11.2373C88.8488 11.5733 88.924 11.984 88.924 12.3947C88.924 13.104 88.6984 13.7387 88.2096 14.224C87.7584 14.7093 86.8936 14.9707 85.6904 14.9707H83.472V18.4427H82.3816V18.48ZM83.5096 14H85.728C86.48 14 86.9688 13.8507 87.3072 13.5893C87.608 13.328 87.7584 12.9173 87.7584 12.432C87.7584 12.0587 87.6832 11.76 87.4952 11.4987C87.3072 11.2373 87.0816 11.088 86.7808 10.976C86.5928 10.9387 86.2168 10.9013 85.728 10.9013H83.5096V14V14Z" fill="white"/>
<path d="M89.7888 14.2986C89.7888 12.8799 90.1648 11.7599 90.9544 10.9759C91.7064 10.1546 92.7216 9.78125 93.9248 9.78125C94.7144 9.78125 95.4288 9.96792 96.068 10.3413C96.7072 10.7146 97.196 11.2372 97.5344 11.9092C97.8728 12.5812 98.0232 13.3652 98.0232 14.1866C98.0232 15.0452 97.8352 15.8293 97.4968 16.5013C97.1584 17.1733 96.632 17.6959 95.9928 18.0693C95.3536 18.4053 94.6392 18.5919 93.8872 18.5919C93.06 18.5919 92.3456 18.4053 91.7064 17.9946C91.0672 17.6213 90.5784 17.0613 90.24 16.3893C89.9768 15.7919 89.7888 15.0826 89.7888 14.2986ZM90.992 14.3359C90.992 15.3813 91.2552 16.1653 91.8192 16.7626C92.3832 17.3599 93.06 17.6586 93.9248 17.6586C94.7896 17.6586 95.504 17.3599 96.0304 16.7626C96.5944 16.1653 96.8576 15.3066 96.8576 14.2239C96.8576 13.5146 96.7448 12.9173 96.5192 12.3946C96.2936 11.8719 95.9176 11.4612 95.4664 11.1999C95.0152 10.9012 94.4888 10.7892 93.9248 10.7892C93.1352 10.7892 92.4208 11.0506 91.8568 11.6106C91.2552 12.1332 90.992 13.0293 90.992 14.3359Z" fill="white"/>
<path d="M99.5272 9.93053H100.58V16.6879L105.167 9.93053H106.295V18.4799H105.28V11.7225L100.693 18.4799H99.5648V9.93053H99.5272ZM103.814 7.8772H104.528C104.453 8.36253 104.302 8.73586 104.002 8.9972C103.701 9.25853 103.287 9.37053 102.798 9.37053C102.31 9.37053 101.896 9.25853 101.595 8.9972C101.294 8.73586 101.106 8.36253 101.069 7.8772H101.783C101.821 8.13853 101.934 8.3252 102.122 8.47453C102.272 8.58653 102.498 8.6612 102.761 8.6612C103.062 8.6612 103.325 8.58653 103.475 8.47453C103.626 8.36253 103.738 8.17586 103.814 7.8772Z" fill="white"/>
<path d="M110.356 18.4798V10.9384H107.536V9.93042H114.379V10.9384H111.522V18.4798H110.356Z" fill="white"/>
<path d="M115.545 18.4798V9.93042H121.786V10.9384H116.71V13.5518H121.448V14.5598H116.673V17.4718H121.974V18.4798H115.545Z" fill="white"/>
<path d="M126.825 18.48V9.93066H130.058C130.735 9.93066 131.262 10.0053 131.638 10.192C132.051 10.3787 132.352 10.64 132.578 10.976C132.803 11.3493 132.916 11.7227 132.916 12.096C132.916 12.4693 132.803 12.8053 132.615 13.1413C132.427 13.4773 132.126 13.7387 131.713 13.9253C132.239 14.0747 132.653 14.336 132.916 14.7093C133.179 15.0827 133.33 15.4933 133.33 16.016C133.33 16.4267 133.254 16.8 133.066 17.136C132.878 17.472 132.69 17.7333 132.427 17.92C132.164 18.1067 131.863 18.256 131.487 18.3307C131.111 18.4427 130.66 18.48 130.096 18.48H126.825V18.48ZM127.99 13.5147H129.87C130.359 13.5147 130.735 13.4773 130.961 13.4027C131.262 13.328 131.487 13.1787 131.6 12.992C131.713 12.8053 131.826 12.544 131.826 12.2453C131.826 11.9467 131.75 11.7227 131.638 11.4987C131.487 11.2747 131.299 11.1253 131.036 11.0507C130.773 10.976 130.359 10.9387 129.72 10.9387H127.99V13.5147V13.5147ZM127.99 17.472H130.134C130.51 17.472 130.773 17.472 130.923 17.4347C131.186 17.3973 131.412 17.3227 131.6 17.2107C131.788 17.0987 131.938 16.9493 132.051 16.7253C132.164 16.5013 132.239 16.2773 132.239 16.016C132.239 15.68 132.164 15.4187 131.976 15.1947C131.826 14.9707 131.6 14.784 131.299 14.7093C130.998 14.5973 130.585 14.56 130.021 14.56H128.028V17.472H127.99Z" fill="white"/>
<path fill-rule="evenodd" clip-rule="evenodd" d="M37.976 10.2666H22.372C15.0024 10.2666 12.3328 12.9546 12.3328 20.2346V35.7279C12.3328 43.0453 15.04 45.6959 22.372 45.6959H37.976C45.3456 45.6959 48.0152 43.0079 48.0152 35.7279V20.2346C48.0528 12.9546 45.3456 10.2666 37.976 10.2666Z" fill="#C7102D"/>
<path d="M19.4017 28H20.3417V32.6293H19.4017V30.7627H17.2585V32.6293H16.3185V28H17.2585V29.8667H19.4017V28ZM24.7409 30.6507C24.7409 31.3973 24.3649 31.808 23.6881 31.808C23.0113 31.808 22.6353 31.3973 22.6353 30.6133V28H21.6953V30.6507C21.6953 31.9573 22.4097 32.704 23.6881 32.704C24.9665 32.704 25.7185 31.9573 25.7185 30.6133V28H24.7785V30.6507H24.7409ZM35.6825 31.1733L34.6297 28H33.8401L32.7873 31.1733L31.7721 28H30.7569L32.3737 32.6293H33.1633L34.2161 29.568L35.2689 32.6293H36.0585L37.6753 28H36.6977L35.6825 31.1733ZM39.4049 30.6507H41.1345V29.792H39.4049V28.8587H41.9241V28H38.5025V32.6293H42.0369V31.7707H39.4425V30.6507H39.4049ZM43.1273 32.6293H44.0673V28H43.1273V32.6293ZM27.5609 31.6587L27.1473 32.6293H26.1697L28.2001 28H29.0273L31.0577 32.6293H30.0801L29.7041 31.6587H27.5609ZM27.8993 30.8373H29.3281L28.6137 29.1947L27.8993 30.8373Z" fill="white"/>
<path d="M30.1928 22.1013C26.9216 22.1013 24.252 19.4506 24.252 16.2026H25.0792C25.0792 19.0026 27.3728 21.28 30.1928 21.28C33.0128 21.28 35.3064 19.0026 35.3064 16.2026H36.1336C36.1336 19.4506 33.464 22.1013 30.1928 22.1013Z" fill="white"/>
<rect x="0.5" y="0.5" width="187" height="55" rx="5.5" stroke="#A6A6A6"/>
</svg>
