<svg width="168" height="56" viewBox="0 0 168 56" fill="none" xmlns="http://www.w3.org/2000/svg">
<rect x="0.5" y="0.5" width="167" height="55" rx="5.5" fill="black"/>
<path d="M34.7737 28.421C34.7888 27.2525 35.1 26.1067 35.6785 25.0904C36.2569 24.0741 37.0838 23.2202 38.0821 22.6081C37.4479 21.7049 36.6112 20.9616 35.6385 20.4372C34.6659 19.9128 33.584 19.6218 32.4788 19.5874C30.1213 19.3406 27.8357 20.9941 26.6344 20.9941C25.4098 20.9941 23.5601 19.6119 21.5683 19.6527C20.2799 19.6942 19.0243 20.0678 17.9238 20.7371C16.8233 21.4064 15.9154 22.3485 15.2886 23.4717C12.5734 28.1595 14.5987 35.049 17.1997 38.8382C18.501 40.6937 20.0218 42.7664 22.0118 42.6929C23.9591 42.6123 24.6864 41.4546 27.037 41.4546C29.3658 41.4546 30.0482 42.6929 32.0785 42.6461C34.1681 42.6123 35.4847 40.7824 36.7403 38.9093C37.6753 37.5872 38.3948 36.126 38.8721 34.5798C37.6581 34.0678 36.6221 33.2108 35.8933 32.1155C35.1645 31.0203 34.7751 29.7354 34.7737 28.421Z" fill="white"/>
<path d="M30.9388 17.0954C32.0781 15.7315 32.6394 13.9784 32.5035 12.2085C30.7629 12.3908 29.155 13.2204 28.0003 14.532C27.4357 15.1727 27.0033 15.9181 26.7278 16.7256C26.4523 17.533 26.3391 18.3868 26.3946 19.2379C27.2652 19.2468 28.1265 19.0587 28.9137 18.6875C29.7008 18.3164 30.3932 17.772 30.9388 17.0954Z" fill="white"/>
<path d="M59.3894 37.9957H52.7441L51.1482 42.6948H48.3335L54.6279 25.3096H57.5523L63.8466 42.6948H60.9839L59.3894 37.9957ZM53.4323 35.8274H58.6999L56.1032 28.2012H56.0305L53.4323 35.8274Z" fill="white"/>
<path d="M77.4405 36.3578C77.4405 40.2966 75.3264 42.8273 72.136 42.8273C71.3278 42.8695 70.5241 42.6838 69.8168 42.2916C69.1095 41.8994 68.5272 41.3165 68.1367 40.6097H68.0763V46.8878H65.4673V30.0195H67.9928V32.1277H68.0407C68.4492 31.4242 69.0413 30.8444 69.754 30.4498C70.4667 30.0552 71.2733 29.8607 72.088 29.8869C75.314 29.8869 77.4405 32.4298 77.4405 36.3578ZM74.7588 36.3578C74.7588 33.7916 73.4289 32.1044 71.3998 32.1044C69.4063 32.1044 68.0654 33.8271 68.0654 36.3578C68.0654 38.9117 69.4063 40.622 71.3998 40.622C73.4289 40.622 74.7588 38.9472 74.7588 36.3578Z" fill="white"/>
<path d="M91.4305 36.358C91.4305 40.2969 89.3164 42.8275 86.126 42.8275C85.3178 42.8697 84.5141 42.684 83.8068 42.2918C83.0995 41.8997 82.5172 41.3168 82.1267 40.6099H82.0663V46.8881H79.4573V30.0197H81.9827V32.1279H82.0307C82.4392 31.4245 83.0312 30.8446 83.7439 30.45C84.4566 30.0554 85.2632 29.8609 86.078 29.8871C89.304 29.8871 91.4305 32.4301 91.4305 36.358ZM88.7487 36.358C88.7487 33.7918 87.4188 32.1047 85.3897 32.1047C83.3963 32.1047 82.0554 33.8273 82.0554 36.358C82.0554 38.9119 83.3963 40.6223 85.3897 40.6223C87.4189 40.6223 88.7488 38.9475 88.7488 36.358H88.7487Z" fill="white"/>
<path d="M100.676 37.8509C100.87 39.5749 102.549 40.7069 104.844 40.7069C107.043 40.7069 108.626 39.5749 108.626 38.0204C108.626 36.671 107.671 35.863 105.412 35.3092L103.153 34.7665C99.9512 33.9954 98.465 32.5024 98.465 30.0797C98.465 27.0801 101.086 25.0198 104.809 25.0198C108.493 25.0198 111.018 27.0801 111.103 30.0797H108.469C108.312 28.3448 106.873 27.2975 104.772 27.2975C102.67 27.2975 101.232 28.3571 101.232 29.8993C101.232 31.1284 102.15 31.8516 104.397 32.4053L106.318 32.8756C109.895 33.7192 111.381 35.152 111.381 37.6949C111.381 40.9475 108.783 42.9846 104.651 42.9846C100.785 42.9846 98.1743 40.9953 98.0056 37.8508L100.676 37.8509Z" fill="white"/>
<path d="M117.012 27.02V30.0196H119.429V32.08H117.012V39.0677C117.012 40.1532 117.496 40.6591 118.559 40.6591C118.846 40.6541 119.132 40.634 119.417 40.5989V42.6469C118.939 42.7359 118.454 42.7762 117.968 42.7672C115.394 42.7672 114.391 41.8034 114.391 39.3452V32.08H112.542V30.0196H114.391V27.02H117.012Z" fill="white"/>
<path d="M120.829 36.3579C120.829 32.3698 123.185 29.8638 126.857 29.8638C130.543 29.8638 132.887 32.3698 132.887 36.3579C132.887 40.3569 130.555 42.852 126.857 42.852C123.161 42.852 120.829 40.3569 120.829 36.3579ZM130.229 36.3579C130.229 33.6222 128.972 32.0075 126.857 32.0075C124.743 32.0075 123.487 33.6345 123.487 36.3579C123.487 39.1046 124.743 40.7069 126.857 40.7069C128.972 40.7069 130.229 39.1046 130.229 36.3579H130.229Z" fill="white"/>
<path d="M135.039 30.0196H137.527V32.177H137.587C137.756 31.5032 138.152 30.9077 138.708 30.4907C139.265 30.0737 139.949 29.8605 140.645 29.887C140.945 29.8859 141.245 29.9185 141.539 29.984V32.4176C141.159 32.302 140.763 32.2489 140.366 32.2604C139.987 32.2451 139.609 32.3117 139.259 32.4558C138.908 32.5998 138.593 32.8178 138.334 33.0949C138.076 33.3719 137.881 33.7014 137.762 34.0608C137.644 34.4201 137.605 34.8008 137.648 35.1766V42.6948H135.039L135.039 30.0196Z" fill="white"/>
<path d="M153.568 38.972C153.217 41.2729 150.97 42.852 148.095 42.852C144.397 42.852 142.102 40.3815 142.102 36.4181C142.102 32.4423 144.409 29.8638 147.985 29.8638C151.502 29.8638 153.713 32.2727 153.713 36.1159V37.0073H144.736V37.1645C144.694 37.631 144.753 38.101 144.908 38.5431C145.062 38.9853 145.31 39.3896 145.633 39.7292C145.956 40.0687 146.349 40.3358 146.783 40.5126C147.218 40.6895 147.686 40.772 148.155 40.7548C148.772 40.8124 149.39 40.67 149.919 40.3488C150.448 40.0275 150.859 39.5447 151.091 38.972L153.568 38.972ZM144.748 35.189H151.103C151.126 34.7695 151.063 34.3498 150.916 33.9561C150.769 33.5624 150.542 33.2033 150.249 32.9012C149.956 32.5991 149.604 32.3606 149.214 32.2007C148.825 32.0408 148.406 31.9629 147.985 31.972C147.56 31.9694 147.139 32.0508 146.746 32.2115C146.353 32.3721 145.995 32.6088 145.694 32.9079C145.394 33.207 145.155 33.5626 144.993 33.9541C144.83 34.3456 144.747 34.7653 144.748 35.189V35.189Z" fill="white"/>
<path d="M51.5782 15.7548H52.6983C52.8911 15.7788 53.0868 15.7626 53.2731 15.7074C53.4593 15.6522 53.6321 15.5591 53.7805 15.434C53.9289 15.3089 54.0496 15.1545 54.1352 14.9805C54.2208 14.8066 54.2693 14.6168 54.2777 14.4232C54.2777 13.6528 53.6964 13.1551 52.7106 13.1551C52.5131 13.1276 52.312 13.1398 52.1193 13.1911C51.9265 13.2423 51.746 13.3316 51.5885 13.4535C51.4309 13.5755 51.2994 13.7277 51.2018 13.9012C51.1042 14.0747 51.0424 14.2659 51.0201 14.4635H49.7903C49.8115 14.1047 49.9065 13.7541 50.0694 13.4335C50.2324 13.1129 50.4598 12.8291 50.7374 12.5999C51.0151 12.3708 51.3371 12.201 51.6834 12.1013C52.0297 12.0016 52.3929 11.9741 52.7503 12.0204C54.3997 12.0204 55.561 12.9412 55.561 14.2667C55.5649 14.7107 55.4159 15.1426 55.1389 15.4904C54.862 15.8381 54.4738 16.0806 54.0392 16.1773V16.2757C54.5544 16.2985 55.0396 16.5238 55.3888 16.9023C55.7379 17.2809 55.9226 17.7819 55.9024 18.2958C55.8642 18.6652 55.7525 19.0233 55.5738 19.3492C55.3951 19.675 55.1529 19.962 54.8615 20.1933C54.5701 20.4246 54.2354 20.5956 53.8769 20.6962C53.5183 20.7968 53.1433 20.8251 52.7737 20.7793C52.4033 20.8296 52.0266 20.8051 51.6659 20.7071C51.3052 20.6092 50.9681 20.4398 50.6744 20.2092C50.3808 19.9785 50.1367 19.6912 49.9568 19.3645C49.7769 19.0378 49.6648 18.6783 49.6272 18.3074H50.8762C50.9516 19.1065 51.6879 19.622 52.7737 19.622C53.8595 19.622 54.5684 19.043 54.5684 18.2268C54.5684 17.3989 53.9007 16.889 52.7339 16.889H51.5782V15.7548Z" fill="white"/>
<path d="M57.3213 18.7941C57.3213 17.6593 58.17 17.0051 59.6726 16.9122L61.385 16.8137V16.2696C61.385 15.6038 60.9449 15.2278 60.0908 15.2278C59.3943 15.2278 58.9131 15.4828 58.7732 15.9285H57.5653C57.6928 14.8457 58.7156 14.1511 60.1497 14.1511C61.7347 14.1511 62.6286 14.9379 62.6286 16.2696V20.5769H61.4262V19.691H61.3275C61.1271 20.0088 60.8457 20.2678 60.5121 20.4417C60.1785 20.6156 59.8046 20.6981 59.4286 20.6808C59.1632 20.7083 58.8949 20.6801 58.6412 20.5979C58.3874 20.5157 58.1537 20.3814 57.9552 20.2037C57.7566 20.0259 57.5976 19.8086 57.4885 19.5658C57.3793 19.3231 57.3223 19.0602 57.3213 18.7941ZM61.385 18.2554V17.7284L59.8412 17.8268C58.9706 17.8849 58.5757 18.1802 58.5757 18.736C58.5757 19.3034 59.0693 19.6335 59.748 19.6335C59.9469 19.6536 60.1478 19.6336 60.3387 19.5747C60.5297 19.5157 60.7068 19.4191 60.8595 19.2905C61.0122 19.162 61.1375 19.0041 61.2278 18.8262C61.318 18.6484 61.3715 18.4543 61.385 18.2554Z" fill="white"/>
<path d="M65.9395 15.3202V20.5771H64.6919V14.2729H68.8544V15.3201L65.9395 15.3202Z" fill="white"/>
<path d="M76.4159 17.422C76.4159 19.4249 75.3999 20.6807 73.804 20.6807C73.4123 20.7074 73.0211 20.6219 72.6764 20.4343C72.3317 20.2467 72.048 19.9648 71.8586 19.6218H71.7598V22.6727H70.5122V14.2727H71.7132V15.3145H71.8065C71.9993 14.9596 72.2867 14.6646 72.6371 14.4623C72.9874 14.26 73.387 14.1582 73.7917 14.1681C75.3999 14.1681 76.4159 15.4184 76.4159 17.422ZM75.1326 17.422C75.1326 16.0904 74.5005 15.2858 73.4435 15.2858C72.3933 15.2858 71.7366 16.1075 71.7366 17.4275C71.7366 18.7414 72.3933 19.5637 73.438 19.5637C74.5005 19.5637 75.1326 18.7591 75.1326 17.422Z" fill="white"/>
<path d="M78.0775 22.835V21.7638C78.2125 21.7809 78.3486 21.7886 78.4847 21.787C78.7505 21.8067 79.0142 21.7277 79.2252 21.5653C79.4363 21.403 79.5797 21.1686 79.6281 20.9072L79.7213 20.6003L77.4331 14.2729H78.7918L80.3768 19.2803H80.4755L82.0549 14.2729H83.3779L81.0212 20.8375C80.481 22.3715 79.8832 22.8637 78.5944 22.8637C78.4902 22.8637 78.1941 22.8521 78.0775 22.835Z" fill="white"/>
<path d="M84.3499 18.7878H85.592C85.714 19.3436 86.2364 19.6334 86.9672 19.6334C87.798 19.6334 88.308 19.2684 88.308 18.701C88.308 18.0933 87.8501 17.8035 86.9672 17.8035H86.0211V16.8369H86.9507C87.7048 16.8369 88.0887 16.5477 88.0887 16.0207C88.0887 15.5579 87.7171 15.2045 86.9507 15.2045C86.2528 15.2045 85.7428 15.4998 85.6619 15.9975H84.4595C84.5494 15.4256 84.8608 14.9118 85.3267 14.5665C85.7925 14.2212 86.3757 14.072 86.9507 14.1511C88.4533 14.1511 89.313 14.8285 89.313 15.8935C89.32 16.1901 89.2247 16.4801 89.043 16.715C88.8613 16.95 88.6043 17.1156 88.3149 17.1842V17.2826C88.6595 17.3269 88.9757 17.4959 89.2037 17.7573C89.4317 18.0188 89.5554 18.3546 89.5515 18.7011C89.5515 19.8995 88.5287 20.6924 86.9672 20.6924C85.5865 20.6923 84.465 20.0614 84.3499 18.7878Z" fill="white"/>
<path d="M91.3484 20.5771V14.2729H92.5851V18.609H92.6838L95.5972 14.273H96.8339V20.5771H95.5972V16.2178H95.504L92.5851 20.5771L91.3484 20.5771Z" fill="white"/>
<path d="M103.646 15.3201H101.655V20.577H100.406V15.3201H98.4155V14.2729H103.646V15.3201Z" fill="white"/>
<path d="M110.367 18.8746C110.197 19.4508 109.829 19.949 109.328 20.2824C108.827 20.6157 108.225 20.763 107.626 20.6984C107.21 20.7094 106.796 20.6299 106.413 20.4653C106.031 20.3008 105.689 20.0552 105.411 19.7456C105.133 19.436 104.926 19.0698 104.804 18.6725C104.682 18.2751 104.649 17.8561 104.706 17.4445C104.65 17.0317 104.685 16.6118 104.806 16.2133C104.927 15.8147 105.133 15.4468 105.41 15.1345C105.686 14.8222 106.027 14.5728 106.408 14.4031C106.789 14.2334 107.203 14.1474 107.621 14.151C109.38 14.151 110.442 15.3494 110.442 17.329V17.7631H105.978V17.8328C105.958 18.0642 105.987 18.2972 106.063 18.5167C106.139 18.7363 106.26 18.9376 106.419 19.1077C106.578 19.2778 106.77 19.4129 106.984 19.5044C107.198 19.5958 107.429 19.6416 107.662 19.6388C107.96 19.6744 108.262 19.6207 108.53 19.4846C108.797 19.3486 109.018 19.1362 109.164 18.8746L110.367 18.8746ZM105.978 16.843H109.17C109.186 16.6315 109.157 16.4191 109.086 16.2194C109.014 16.0196 108.902 15.837 108.755 15.6832C108.609 15.5294 108.432 15.4079 108.235 15.3264C108.039 15.2448 107.828 15.2052 107.615 15.2099C107.399 15.207 107.185 15.2472 106.985 15.3282C106.785 15.4093 106.604 15.5295 106.451 15.6817C106.298 15.834 106.178 16.0152 106.097 16.2146C106.015 16.4141 105.975 16.6277 105.978 16.843H105.978Z" fill="white"/>
<path d="M115.656 14.2729H118.507C119.743 14.2729 120.469 14.8978 120.469 15.8759C120.47 16.1863 120.365 16.488 120.171 16.7304C119.977 16.9728 119.705 17.1412 119.401 17.2076V17.306C119.77 17.3293 120.116 17.4931 120.367 17.7635C120.619 18.034 120.757 18.3905 120.752 18.7594C120.752 19.8592 119.923 20.577 118.535 20.577H115.656V14.2729ZM116.893 15.2279V16.8603H118.13C118.884 16.8603 119.244 16.5712 119.244 16.038C119.244 15.5465 118.93 15.2279 118.268 15.2279L116.893 15.2279ZM116.893 17.775V19.6221H118.372C119.11 19.6221 119.505 19.2974 119.505 18.7013C119.505 18.0703 119.058 17.775 118.216 17.775L116.893 17.775Z" fill="white"/>
<rect x="0.5" y="0.5" width="167" height="55" rx="5.5" stroke="#A6A6A6"/>
</svg>
