<svg width="189" height="56" viewBox="0 0 189 56" fill="none" xmlns="http://www.w3.org/2000/svg">
<rect x="0.5" y="0.5" width="188" height="55" rx="5.5" fill="black"/>
<path d="M95.34 30.5199C91.98 30.5199 89.32 33.0399 89.32 36.5399C89.32 39.8999 91.98 42.5599 95.34 42.5599C98.7 42.5599 101.36 40.0399 101.36 36.5399C101.36 32.8999 98.7 30.5199 95.34 30.5199ZM95.34 40.0399C93.52 40.0399 91.98 38.4999 91.98 36.3999C91.98 34.2999 93.52 32.7599 95.34 32.7599C97.16 32.7599 98.7 34.1599 98.7 36.3999C98.7 38.4999 97.16 40.0399 95.34 40.0399ZM82.32 30.5199C78.96 30.5199 76.3 33.0399 76.3 36.5399C76.3 39.8999 78.96 42.5599 82.32 42.5599C85.68 42.5599 88.34 40.0399 88.34 36.5399C88.34 32.8999 85.68 30.5199 82.32 30.5199ZM82.32 40.0399C80.5 40.0399 78.96 38.4999 78.96 36.3999C78.96 34.2999 80.5 32.7599 82.32 32.7599C84.14 32.7599 85.68 34.1599 85.68 36.3999C85.68 38.4999 84.14 40.0399 82.32 40.0399ZM66.78 32.3399V34.8599H72.8C72.66 36.2599 72.1 37.3799 71.4 38.0799C70.56 38.9199 69.16 39.8999 66.78 39.8999C63 39.8999 60.2 36.9599 60.2 33.1799C60.2 29.3999 63.14 26.4599 66.78 26.4599C68.74 26.4599 70.28 27.2999 71.4 28.2799L73.22 26.4599C71.68 25.0599 69.72 23.9399 66.92 23.9399C61.88 23.9399 57.54 28.1399 57.54 33.1799C57.54 38.2199 61.88 42.4199 66.92 42.4199C69.72 42.4199 71.68 41.5799 73.36 39.7599C75.04 38.0799 75.6 35.6999 75.6 33.8799C75.6 33.3199 75.6 32.7599 75.46 32.3399H66.78V32.3399ZM130.34 34.2999C129.78 32.8999 128.38 30.5199 125.3 30.5199C122.22 30.5199 119.7 32.8999 119.7 36.5399C119.7 39.8999 122.22 42.5599 125.58 42.5599C128.24 42.5599 129.92 40.8799 130.48 39.8999L128.52 38.4999C127.82 39.4799 126.98 40.1799 125.58 40.1799C124.18 40.1799 123.34 39.6199 122.64 38.3599L130.62 34.9999L130.34 34.2999ZM122.22 36.2599C122.22 34.0199 124.04 32.7599 125.3 32.7599C126.28 32.7599 127.26 33.3199 127.54 34.0199L122.22 36.2599ZM115.64 41.9999H118.3V24.4999H115.64V41.9999ZM111.44 31.7799C110.74 31.0799 109.62 30.3799 108.22 30.3799C105.28 30.3799 102.48 33.0399 102.48 36.3999C102.48 39.7599 105.14 42.2799 108.22 42.2799C109.62 42.2799 110.74 41.5799 111.3 40.8799H111.44V41.7199C111.44 43.9599 110.18 45.2199 108.22 45.2199C106.68 45.2199 105.56 44.0999 105.28 43.1199L103.04 44.0999C103.74 45.6399 105.42 47.5999 108.36 47.5999C111.44 47.5999 113.96 45.7799 113.96 41.4399V30.7999H111.44V31.7799V31.7799ZM108.36 40.0399C106.54 40.0399 105 38.4999 105 36.3999C105 34.2999 106.54 32.7599 108.36 32.7599C110.18 32.7599 111.58 34.2999 111.58 36.3999C111.58 38.4999 110.18 40.0399 108.36 40.0399ZM142.52 24.4999H136.22V41.9999H138.88V35.4199H142.52C145.46 35.4199 148.26 33.3199 148.26 29.9599C148.26 26.5999 145.46 24.4999 142.52 24.4999ZM142.66 32.8999H138.88V26.8799H142.66C144.62 26.8799 145.74 28.5599 145.74 29.8199C145.6 31.3599 144.48 32.8999 142.66 32.8999ZM158.76 30.3799C156.8 30.3799 154.84 31.2199 154.14 33.0399L156.52 34.0199C157.08 33.0399 157.92 32.7599 158.9 32.7599C160.3 32.7599 161.56 33.5999 161.7 34.9999V35.1399C161.28 34.8599 160.16 34.4399 159.04 34.4399C156.52 34.4399 154 35.8399 154 38.3599C154 40.7399 156.1 42.2799 158.34 42.2799C160.16 42.2799 161 41.4399 161.7 40.5999H161.84V41.9999H164.36V35.2799C164.08 32.1999 161.7 30.3799 158.76 30.3799ZM158.48 40.0399C157.64 40.0399 156.38 39.6199 156.38 38.4999C156.38 37.0999 157.92 36.6799 159.18 36.6799C160.3 36.6799 160.86 36.9599 161.56 37.2399C161.28 38.9199 159.88 40.0399 158.48 40.0399ZM173.18 30.7999L170.24 38.3599H170.1L167.02 30.7999H164.22L168.84 41.4399L166.18 47.3199H168.84L175.98 30.7999H173.18V30.7999ZM149.66 41.9999H152.32V24.4999H149.66V41.9999Z" fill="white"/>
<path d="M14.56 10.5C14.14 10.92 14 11.62 14 12.46V43.4C14 44.24 14.28 44.94 14.7 45.36L14.84 45.5L32.2 28.14V28V27.86L14.56 10.5Z" fill="url(#paint0_linear)"/>
<path d="M37.8001 34.0201L32.0601 28.2801V28.0001V27.8601L37.8001 22.1201L37.9401 22.2601L44.8001 26.1801C46.7601 27.3001 46.7601 29.1201 44.8001 30.2401L37.8001 34.0201Z" fill="url(#paint1_linear)"/>
<path d="M37.9401 33.88L32.0601 28L14.5601 45.5C15.2601 46.2 16.2401 46.2 17.5001 45.64L37.9401 33.88Z" fill="url(#paint2_linear)"/>
<path d="M37.9401 22.12L17.5001 10.5C16.2401 9.80001 15.2601 9.94001 14.5601 10.64L32.0601 28L37.9401 22.12Z" fill="url(#paint3_linear)"/>
<path opacity="0.2" d="M37.8001 33.74L17.5001 45.22C16.3801 45.92 15.4001 45.78 14.7001 45.22L14.5601 45.36L14.7001 45.5C15.4001 46.06 16.3801 46.2 17.5001 45.5L37.8001 33.74Z" fill="black"/>
<path opacity="0.12" d="M14.56 45.22C14.14 44.8 14 44.1 14 43.26V43.4C14 44.24 14.28 44.94 14.7 45.36V45.22H14.56Z" fill="black"/>
<path opacity="0.12" d="M44.8 29.82L37.8 33.74L37.94 33.88L44.8 29.96C45.7801 29.4 46.2001 28.7 46.2001 28C46.2001 28.7 45.6401 29.26 44.8 29.82Z" fill="black"/>
<path opacity="0.25" d="M17.5 10.64L44.8 26.18C45.64 26.74 46.2 27.3 46.2 28C46.2 27.3 45.78 26.6 44.8 26.04L17.5 10.5C15.54 9.38004 14 10.22 14 12.46V12.6C14 10.5 15.54 9.52004 17.5 10.64Z" fill="white"/>
<path d="M58.94 20.02H57.96V17.22H58.8C59.5 16.66 59.92 15.54 59.92 14V9.80005H65.52V17.22H66.5V20.02H65.52V18.2H59.08V20.02H58.94ZM60.9 14C60.9 15.26 60.62 16.38 60.06 17.22H64.26V10.78H60.76V14H60.9Z" fill="white" stroke="white" stroke-width="0.2" stroke-miterlimit="10"/>
<path d="M74.76 17.0799C73.92 17.9199 72.94 18.3399 71.68 18.3399C70.42 18.3399 69.44 17.9199 68.6 17.0799C67.76 16.2399 67.34 15.2599 67.34 13.9999C67.34 12.7399 67.76 11.7599 68.6 10.9199C69.44 10.0799 70.42 9.65991 71.68 9.65991C72.94 9.65991 73.92 10.0799 74.76 10.9199C75.6 11.7599 76.02 12.7399 76.02 13.9999C76.02 15.2599 75.6 16.2399 74.76 17.0799ZM69.44 16.3799C70 16.9399 70.84 17.3599 71.68 17.3599C72.52 17.3599 73.36 17.0799 73.92 16.3799C74.48 15.8199 74.9 14.9799 74.9 13.9999C74.9 13.0199 74.62 12.1799 73.92 11.6199C73.36 11.0599 72.52 10.6399 71.68 10.6399C70.84 10.6399 70 10.9199 69.44 11.6199C68.88 12.1799 68.46 13.0199 68.46 13.9999C68.46 14.9799 68.74 15.8199 69.44 16.3799Z" fill="white" stroke="white" stroke-width="0.2" stroke-miterlimit="10"/>
<path d="M81.48 18.3399C80.22 18.3399 79.24 17.9199 78.4 17.0799C77.56 16.2399 77.14 15.2599 77.14 13.9999C77.14 12.7399 77.56 11.7599 78.4 10.9199C79.24 10.0799 80.22 9.65991 81.48 9.65991C82.74 9.65991 83.72 10.0799 84.56 11.0599L83.86 11.7599C83.3 11.0599 82.46 10.6399 81.48 10.6399C80.5 10.6399 79.8 10.9199 79.1 11.6199C78.4 12.1799 78.12 13.0199 78.12 13.9999C78.12 14.9799 78.4 15.8199 79.1 16.3799C79.66 16.9399 80.5 17.3599 81.48 17.3599C82.46 17.3599 83.3 16.9399 84 16.0999L84.7 16.7999C84.28 17.2199 83.86 17.6399 83.3 17.9199C82.74 18.1999 82.18 18.3399 81.48 18.3399Z" fill="white" stroke="white" stroke-width="0.2" stroke-miterlimit="10"/>
<path d="M89.1799 18.2H88.0599V10.78H85.6799V9.80005H91.4199V10.78H89.0399V18.2H89.1799Z" fill="white" stroke="white" stroke-width="0.2" stroke-miterlimit="10"/>
<path d="M98.84 9.80005L95.62 16.94C95.2 17.92 94.5 18.48 93.66 18.48C93.38 18.48 93.1 18.48 92.82 18.34L93.1 17.36C93.24 17.5 93.52 17.5 93.66 17.5C93.94 17.5 94.08 17.5 94.22 17.36C94.36 17.22 94.5 17.08 94.64 16.8L94.92 16.1L92.12 9.94005H93.38L95.48 14.7L97.58 9.80005H98.84Z" fill="white" stroke="white" stroke-width="0.2" stroke-miterlimit="10"/>
<path d="M100.1 18.2V9.80005H106.12V18.2H105V10.78H101.08V18.2H100.1Z" fill="white" stroke="white" stroke-width="0.2" stroke-miterlimit="10"/>
<path d="M108.08 18.2V9.80005H109.2V13.44H113.4V9.80005H114.52V18.2H113.4V14.42H109.2V18.2H108.08Z" fill="white" stroke="white" stroke-width="0.2" stroke-miterlimit="10"/>
<path d="M123.34 17.0799C122.5 17.9199 121.52 18.3399 120.26 18.3399C119 18.3399 118.02 17.9199 117.18 17.0799C116.34 16.2399 115.92 15.2599 115.92 13.9999C115.92 12.7399 116.34 11.7599 117.18 10.9199C118.02 10.0799 119 9.65991 120.26 9.65991C121.52 9.65991 122.5 10.0799 123.34 10.9199C124.18 11.7599 124.6 12.7399 124.6 13.9999C124.46 15.2599 124.04 16.2399 123.34 17.0799ZM117.88 16.3799C118.44 16.9399 119.28 17.3599 120.12 17.3599C120.96 17.3599 121.8 17.0799 122.36 16.3799C122.92 15.8199 123.34 14.9799 123.34 13.9999C123.34 13.0199 123.06 12.1799 122.36 11.6199C121.8 11.0599 120.96 10.6399 120.12 10.6399C119.28 10.6399 118.44 10.9199 117.88 11.6199C117.32 12.1799 116.9 13.0199 116.9 13.9999C116.9 14.9799 117.32 15.8199 117.88 16.3799Z" fill="white" stroke="white" stroke-width="0.2" stroke-miterlimit="10"/>
<path d="M128.94 18.2V9.80005H132.02C132.72 9.80005 133.28 10.08 133.7 10.5C134.12 10.92 134.4 11.48 134.4 12.04C134.4 12.46 134.26 12.74 134.12 13.16C133.98 13.44 133.7 13.72 133.28 13.86C133.7 14 133.98 14.28 134.26 14.56C134.54 14.84 134.68 15.26 134.68 15.82C134.68 16.52 134.4 17.08 133.98 17.5C133.42 17.92 132.86 18.2 132.16 18.2H128.94ZM130.06 13.44H132.02C132.44 13.44 132.72 13.3 133 13.02C133.28 12.74 133.42 12.46 133.42 12.18C133.42 11.9 133.14 11.48 133 11.2C132.72 10.92 132.44 10.78 132.02 10.78H130.06V13.44V13.44ZM130.06 17.22H132.3C132.72 17.22 133 17.08 133.28 16.8C133.56 16.52 133.7 16.24 133.7 15.82C133.7 15.54 133.56 15.12 133.28 14.84C133 14.56 132.72 14.42 132.3 14.42H130.2V17.22H130.06Z" fill="white" stroke="white" stroke-width="0.2" stroke-miterlimit="10"/>
<rect x="0.5" y="0.5" width="188" height="55" rx="5.5" stroke="#A6A6A6"/>
<defs>
<linearGradient id="paint0_linear" x1="30.5194" y1="12.1937" x2="7.02408" y2="35.6891" gradientUnits="userSpaceOnUse">
<stop stop-color="#00A0FF"/>
<stop offset="0.00657445" stop-color="#00A1FF"/>
<stop offset="0.2601" stop-color="#00BEFF"/>
<stop offset="0.5122" stop-color="#00D2FF"/>
<stop offset="0.7604" stop-color="#00DFFF"/>
<stop offset="1" stop-color="#00E3FF"/>
</linearGradient>
<linearGradient id="paint1_linear" x1="47.3681" y1="28.0022" x2="13.4924" y2="28.0022" gradientUnits="userSpaceOnUse">
<stop stop-color="#FFE000"/>
<stop offset="0.4087" stop-color="#FFBD00"/>
<stop offset="0.7754" stop-color="#FFA500"/>
<stop offset="1" stop-color="#FF9C00"/>
</linearGradient>
<linearGradient id="paint2_linear" x1="34.7577" y1="31.2147" x2="2.8961" y2="63.0763" gradientUnits="userSpaceOnUse">
<stop stop-color="#FF3A44"/>
<stop offset="1" stop-color="#C31162"/>
</linearGradient>
<linearGradient id="paint3_linear" x1="10.2161" y1="0.246831" x2="24.4438" y2="14.4743" gradientUnits="userSpaceOnUse">
<stop stop-color="#32A071"/>
<stop offset="0.0685" stop-color="#2DA771"/>
<stop offset="0.4762" stop-color="#15CF74"/>
<stop offset="0.8009" stop-color="#06E775"/>
<stop offset="1" stop-color="#00F076"/>
</linearGradient>
</defs>
</svg>
