<svg width="40" height="40" viewBox="0 0 40 40" fill="none" xmlns="http://www.w3.org/2000/svg">
<path fill-rule="evenodd" clip-rule="evenodd" d="M20 40C31.0457 40 40 31.0457 40 20C40 8.9543 31.0457 0 20 0C8.9543 0 0 8.9543 0 20C0 31.0457 8.9543 40 20 40Z" fill="#17AE87"/>
<path fill-rule="evenodd" clip-rule="evenodd" d="M21.1824 10.4903L14.5 14.4997H25L22.5289 10.7931C22.2328 10.3489 21.6401 10.2156 21.1824 10.4903ZM10 16.9997C10 16.4474 10.4477 15.9997 11 15.9997H29C29.5523 15.9997 30 16.4474 30 16.9997V28.9997C30 29.552 29.5523 29.9997 29 29.9997H11C10.4477 29.9997 10 29.552 10 28.9997V16.9997ZM14 23.9997C14.5523 23.9997 15 23.552 15 22.9997C15 22.4474 14.5523 21.9997 14 21.9997C13.4477 21.9997 13 22.4474 13 22.9997C13 23.552 13.4477 23.9997 14 23.9997Z" fill="white"/>
</svg>
