<svg width="40" height="40" viewBox="0 0 40 40" fill="none" xmlns="http://www.w3.org/2000/svg">
<path fill-rule="evenodd" clip-rule="evenodd" d="M20 40C31.0457 40 40 31.0457 40 20C40 8.9543 31.0457 0 20 0C8.9543 0 0 8.9543 0 20C0 31.0457 8.9543 40 20 40Z" fill="#8E70A6"/>
<path d="M19.5 14V16H21C21.5523 16 22 15.5523 22 15C22 14.4477 21.5523 14 21 14H19.5Z" fill="white"/>
<path fill-rule="evenodd" clip-rule="evenodd" d="M11.5 11C11.2239 11 11 11.2239 11 11.5V22.5C11 22.7761 11.2239 23 11.5 23H28.5C28.7761 23 29 22.7761 29 22.5V11.5C29 11.2239 28.7761 11 28.5 11H11.5ZM25.5 12.5C25.2239 12.5 25 12.7239 25 13V13.5C25 13.7761 25.2239 14 25.5 14H27C27.2761 14 27.5 13.7761 27.5 13.5V13C27.5 12.7239 27.2761 12.5 27 12.5H25.5ZM12.5 20.5C12.5 20.2239 12.7239 20 13 20H14.5C14.7761 20 15 20.2239 15 20.5V21C15 21.2761 14.7761 21.5 14.5 21.5H13C12.7239 21.5 12.5 21.2761 12.5 21V20.5ZM17.5 16C17.2239 16 17 16.2239 17 16.5V17C17 17.2761 17.2239 17.5 17.5 17.5H18V18.5H17.5C17.2239 18.5 17 18.7239 17 19V19.5C17 19.7761 17.2239 20 17.5 20H18V21C18 21.2761 18.2239 21.5 18.5 21.5H19C19.2761 21.5 19.5 21.2761 19.5 21V20H22C22.2761 20 22.5 19.7761 22.5 19.5V19C22.5 18.7239 22.2761 18.5 22 18.5H19.5V17.5H20.8333C22.3061 17.5 23.5 16.3807 23.5 15C23.5 13.6193 22.3061 12.5 20.8333 12.5H18.5C18.2239 12.5 18 12.7239 18 13V16H17.5Z" fill="white"/>
<path d="M11 24.5H29V25.5C29 25.7761 28.7761 26 28.5 26H11.5C11.2239 26 11 25.7761 11 25.5V24.5Z" fill="white"/>
<path d="M29 27.5H11V28.5C11 28.7761 11.2239 29 11.5 29H28.5C28.7761 29 29 28.7761 29 28.5V27.5Z" fill="white"/>
</svg>
