<svg width="40" height="40" viewBox="0 0 40 40" fill="none" xmlns="http://www.w3.org/2000/svg">
<path fill-rule="evenodd" clip-rule="evenodd" d="M20 40C31.0457 40 40 31.0457 40 20C40 8.9543 31.0457 0 20 0C8.9543 0 0 8.9543 0 20C0 31.0457 8.9543 40 20 40Z" fill="#22BE54"/>
<path fill-rule="evenodd" clip-rule="evenodd" d="M11 15C11 13.8954 11.8954 13 13 13H27C28.1046 13 29 13.8954 29 15V16H11V15ZM11 17.5H29V25C29 26.1046 28.1046 27 27 27H13C11.8954 27 11 26.1046 11 25V17.5ZM24.5 23.5C24.2239 23.5 24 23.7239 24 24V24.5C24 24.7761 24.2239 25 24.5 25H26.5C26.7761 25 27 24.7761 27 24.5V24C27 23.7239 26.7761 23.5 26.5 23.5H24.5Z" fill="white"/>
</svg>
