<svg width="384" height="98" viewBox="0 0 384 98" fill="none" xmlns="http://www.w3.org/2000/svg">
<g filter="url(#filter0_bi)">
<rect width="384" height="98" rx="10" fill="#FAFAFB"/>
</g>
<path d="M37.0845 13.6245C34.4946 13.6245 32.876 15.4717 32.876 18.417C32.876 21.3496 34.4565 23.2158 37.0845 23.2158C39.6997 23.2158 41.2739 21.3433 41.2739 18.417C41.2739 15.478 39.687 13.6245 37.0845 13.6245ZM37.0845 14.6782C38.957 14.6782 40.0996 16.1255 40.0996 18.417C40.0996 20.6895 38.9634 22.1621 37.0845 22.1621C35.1802 22.1621 34.0503 20.6895 34.0503 18.417C34.0503 16.1255 35.2183 14.6782 37.0845 14.6782ZM49.5748 20.2515C49.5748 18.6265 48.3497 17.4902 46.6295 17.4902H44.4523V14.8687H48.6608V13.8403H43.3097V23H46.6422C48.3624 23 49.5748 21.8701 49.5748 20.2515ZM44.4523 21.9717V18.5186H46.3439C47.6515 18.5186 48.4005 19.1406 48.4005 20.2515C48.4005 21.356 47.6578 21.9717 46.3439 21.9717H44.4523ZM51.4963 13.8403V23H52.6389V19.731H54.9431C56.6633 19.731 57.8884 18.5186 57.8884 16.8047C57.8884 15.0591 56.6887 13.8403 54.9558 13.8403H51.4963ZM52.6389 14.856H54.6575C55.9841 14.856 56.7141 15.5479 56.7141 16.8047C56.7141 18.0171 55.9587 18.7153 54.6575 18.7153H52.6389V14.856ZM60.9525 17.8647V13.8403H59.8099V23H60.9525V18.7788H61.2191L65.3578 23H66.8685L62.203 18.252L66.5004 13.8403H65.0658L61.2191 17.8647H60.9525ZM74.2808 23H75.4805L72.1035 13.8403H70.9736L67.5967 23H68.7964L69.7168 20.3784H73.3604L74.2808 23ZM71.4878 15.3193H71.5894L73.0239 19.4072H70.0532L71.4878 15.3193ZM77.1354 13.8403V23H78.278V19.731H80.5822C82.3024 19.731 83.5275 18.5186 83.5275 16.8047C83.5275 15.0591 82.3278 13.8403 80.5949 13.8403H77.1354ZM78.278 14.856H80.2965C81.6232 14.856 82.3532 15.5479 82.3532 16.8047C82.3532 18.0171 81.5978 18.7153 80.2965 18.7153H78.278V14.856ZM88.845 23V14.8687H91.7966V13.8403H84.7508V14.8687H87.7024V23H88.845ZM98.6122 23H99.8119L96.435 13.8403H95.3051L91.9281 23H93.1278L94.0482 20.3784H97.6918L98.6122 23ZM95.8192 15.3193H95.9208L97.3554 19.4072H94.3847L95.8192 15.3193Z" fill="#5C646D"/>
<path d="M342.844 22.1992C344.742 22.1992 345.832 20.5938 345.832 17.7871C345.832 14.9863 344.725 13.3457 342.844 13.3457C340.951 13.3457 339.844 14.9805 339.844 17.7695C339.844 20.582 340.939 22.1992 342.844 22.1992ZM342.844 21.2793C341.596 21.2793 340.904 20.0312 340.904 17.7695C340.904 15.5371 341.607 14.2715 342.844 14.2715C344.08 14.2715 344.771 15.5254 344.771 17.7695C344.771 20.0371 344.092 21.2793 342.844 21.2793ZM350.449 22.1992C352.242 22.1992 353.496 21.1855 353.496 19.7383C353.496 18.6367 352.799 17.7812 351.738 17.582V17.4883C352.611 17.248 353.15 16.5273 353.15 15.6016C353.15 14.2832 352.031 13.3457 350.449 13.3457C348.867 13.3457 347.748 14.2832 347.748 15.6016C347.748 16.5215 348.299 17.2539 349.16 17.4883V17.582C348.1 17.7812 347.402 18.6367 347.402 19.7383C347.402 21.1855 348.656 22.1992 350.449 22.1992ZM350.449 21.2969C349.277 21.2969 348.469 20.6289 348.469 19.6621C348.469 18.6953 349.277 18.0273 350.449 18.0273C351.621 18.0273 352.43 18.6953 352.43 19.6621C352.43 20.6289 351.621 21.2969 350.449 21.2969ZM350.449 17.1367C349.453 17.1367 348.785 16.5625 348.785 15.7012C348.785 14.8281 349.447 14.248 350.449 14.248C351.451 14.248 352.113 14.8281 352.113 15.7012C352.113 16.5625 351.445 17.1367 350.449 17.1367ZM356.062 21.0332C356.484 21.0332 356.824 20.6875 356.824 20.2715C356.824 19.8496 356.484 19.5098 356.062 19.5098C355.646 19.5098 355.301 19.8496 355.301 20.2715C355.301 20.6875 355.646 21.0332 356.062 21.0332ZM356.062 16.5273C356.484 16.5273 356.824 16.1816 356.824 15.7656C356.824 15.3438 356.484 15.0039 356.062 15.0039C355.646 15.0039 355.301 15.3438 355.301 15.7656C355.301 16.1816 355.646 16.5273 356.062 16.5273ZM358.793 15.9238V15.9297H359.812V15.9238C359.812 14.9277 360.48 14.2656 361.471 14.2656C362.402 14.2656 363.123 14.916 363.123 15.7598C363.123 16.4395 362.859 16.8965 361.77 18.0801L358.846 21.2734V22H364.318V21.0508H360.357V20.957L362.391 18.7715C363.779 17.2832 364.178 16.5977 364.178 15.7188C364.178 14.377 363.018 13.3457 361.5 13.3457C359.93 13.3457 358.793 14.4238 358.793 15.9238ZM366.451 22H367.559L371.32 14.5234V13.5449H365.725V14.4883H370.248V14.5703L366.451 22Z" fill="#5C646D"/>
<path d="M12.2646 34.1357V44H14.3291V40.9375H16.2773C18.3555 40.9375 19.7979 39.5771 19.7979 37.5469C19.7979 35.4961 18.4102 34.1357 16.3799 34.1357H12.2646ZM14.3291 35.8311H15.833C17.0225 35.8311 17.6992 36.4326 17.6992 37.5537C17.6992 38.6611 17.0088 39.2627 15.8262 39.2627H14.3291V35.8311ZM24.7197 37.8203C25.6494 37.8203 26.251 38.4424 26.292 39.4404H23.0791C23.1475 38.4629 23.7969 37.8203 24.7197 37.8203ZM26.333 41.8535C26.1211 42.3525 25.5811 42.6328 24.7949 42.6328C23.7559 42.6328 23.0996 41.9355 23.0723 40.8145V40.7119H28.2471V40.1035C28.2471 37.7109 26.9346 36.2959 24.7129 36.2959C22.4707 36.2959 21.0898 37.8135 21.0898 40.2676C21.0898 42.7148 22.4434 44.1641 24.7402 44.1641C26.5859 44.1641 27.8848 43.2754 28.1855 41.8535H26.333ZM33.4287 42.5371C32.3486 42.5371 31.7266 41.7578 31.7266 40.3701C31.7266 39.0439 32.3555 38.2715 33.4287 38.2715C34.502 38.2715 35.1309 39.0439 35.1309 40.3701C35.1309 41.7578 34.502 42.5371 33.4287 42.5371ZM31.2207 38.1689C31.4258 36.5146 32.0342 35.6191 33.9072 35.5508L34.8232 35.5234C36.1494 35.4824 36.6758 35.2021 36.6758 35.2021V33.5957C36.6689 33.6025 35.8623 33.8555 34.7002 33.8965L33.7363 33.9307C30.9541 34.0332 29.6826 35.7969 29.6826 39.666C29.6826 42.667 31.0771 44.1641 33.4629 44.1641C35.7461 44.1641 37.1748 42.7012 37.1748 40.3154C37.1748 38.0938 35.8281 36.7266 33.8662 36.7266C32.6221 36.7266 31.7949 37.2871 31.3438 38.1689H31.2207ZM42.2334 37.8203C43.1631 37.8203 43.7646 38.4424 43.8057 39.4404H40.5928C40.6611 38.4629 41.3105 37.8203 42.2334 37.8203ZM43.8467 41.8535C43.6348 42.3525 43.0947 42.6328 42.3086 42.6328C41.2695 42.6328 40.6133 41.9355 40.5859 40.8145V40.7119H45.7607V40.1035C45.7607 37.7109 44.4482 36.2959 42.2266 36.2959C39.9844 36.2959 38.6035 37.8135 38.6035 40.2676C38.6035 42.7148 39.957 44.1641 42.2539 44.1641C44.0996 44.1641 45.3984 43.2754 45.6992 41.8535H43.8467ZM52.501 44H54.4902V36.46H52.501V39.3516H49.5205V36.46H47.5312V44H49.5205V40.917H52.501V44ZM59.9658 44.1641C62.2832 44.1641 63.6777 42.6943 63.6777 40.2266C63.6777 37.7793 62.2627 36.2959 59.9658 36.2959C57.6689 36.2959 56.2539 37.7861 56.2539 40.2266C56.2539 42.6943 57.6484 44.1641 59.9658 44.1641ZM59.9658 42.5371C58.8994 42.5371 58.2979 41.6963 58.2979 40.2266C58.2979 38.7773 58.9062 37.9229 59.9658 37.9229C61.0186 37.9229 61.6338 38.7773 61.6338 40.2266C61.6338 41.6895 61.0254 42.5371 59.9658 42.5371ZM67.7861 40.876L70.0762 44H72.4482L69.4062 39.8984L72.2979 36.46H70.0352L67.7588 39.3994H67.4307V36.46H65.4414V44H67.4307V40.876H67.7861ZM80.7539 37.7725C81.4648 37.7725 81.8203 38.1074 81.8203 38.6338C81.8203 39.1875 81.4238 39.5088 80.6445 39.5088H79.4688V37.7725H80.7539ZM80.7539 40.7051C81.6221 40.7051 82.1074 41.0332 82.1074 41.6895C82.1074 42.3389 81.6631 42.6875 80.8564 42.6875H79.4688V40.7051H80.7539ZM77.5137 44H81.3486C83.0576 44 84.1035 43.1318 84.1035 41.8193C84.1035 40.8965 83.4268 40.165 82.415 40.0762V39.9531C83.1943 39.8301 83.7686 39.1465 83.7686 38.3604C83.7686 37.1846 82.8457 36.46 81.2803 36.46H77.5137V44ZM89.5449 44H99.833V36.46H97.8438V42.4346H95.6836V36.46H93.6943V42.4346H91.5342V36.46H89.5449V44ZM104.304 40.876L106.594 44H108.966L105.924 39.8984L108.815 36.46H106.553L104.276 39.3994H103.948V36.46H101.959V44H103.948V40.876H104.304ZM113.423 44.1641C115.74 44.1641 117.135 42.6943 117.135 40.2266C117.135 37.7793 115.72 36.2959 113.423 36.2959C111.126 36.2959 109.711 37.7861 109.711 40.2266C109.711 42.6943 111.105 44.1641 113.423 44.1641ZM113.423 42.5371C112.356 42.5371 111.755 41.6963 111.755 40.2266C111.755 38.7773 112.363 37.9229 113.423 37.9229C114.476 37.9229 115.091 38.7773 115.091 40.2266C115.091 41.6895 114.482 42.5371 113.423 42.5371ZM121.298 40.377L121.455 38.0254H123.431V44H125.42V36.46H119.746L119.527 40.2402C119.459 41.4229 119.24 42.2979 118.516 42.2979C118.317 42.2979 118.167 42.2705 118.085 42.25V44C118.188 44.0342 118.413 44.0889 118.721 44.0889C120.566 44.0889 121.168 42.6191 121.298 40.377ZM130.813 37.8203C131.743 37.8203 132.345 38.4424 132.386 39.4404H129.173C129.241 38.4629 129.891 37.8203 130.813 37.8203ZM132.427 41.8535C132.215 42.3525 131.675 42.6328 130.889 42.6328C129.85 42.6328 129.193 41.9355 129.166 40.8145V40.7119H134.341V40.1035C134.341 37.7109 133.028 36.2959 130.807 36.2959C128.564 36.2959 127.184 37.8135 127.184 40.2676C127.184 42.7148 128.537 44.1641 130.834 44.1641C132.68 44.1641 133.979 43.2754 134.279 41.8535H132.427Z" fill="#202326"/>
<path d="M14.2197 59.3701L14.541 54.2432H18.3145V61.8926H13.5293V61.8105C14.0146 61.2295 14.1514 60.4844 14.2197 59.3701ZM12.415 63H19.6338V64.9482H20.7754V61.8926H19.5449V53.1357H13.4404L13.0645 59.3428C12.9893 60.6348 12.7227 61.5098 12.0049 61.8926H11.2734V64.9482H12.415V63ZM25.5691 56.54C26.7381 56.54 27.5174 57.4014 27.5447 58.707H23.4842C23.573 57.4014 24.3934 56.54 25.5691 56.54ZM27.5105 61.0928C27.2029 61.7422 26.5604 62.0908 25.6102 62.0908C24.3592 62.0908 23.5457 61.168 23.4842 59.7119V59.6572H28.782V59.2061C28.782 56.916 27.5721 55.501 25.5828 55.501C23.5594 55.501 22.2605 57.0049 22.2605 59.3223C22.2605 61.6533 23.5389 63.1299 25.5828 63.1299C27.1961 63.1299 28.3309 62.3574 28.6863 61.0928H27.5105ZM35.8111 63H36.9869V55.6309H35.8111V58.6797H32.1334V55.6309H30.9576V63H32.1334V59.6641H35.8111V63ZM40.7006 63L44.3715 57.5039H44.4809V63H45.6566V55.6309H44.4809L40.81 61.127H40.7006V55.6309H39.5248V63H40.7006ZM54.3059 57.8867C54.1008 56.5742 53.007 55.501 51.216 55.501C49.1516 55.501 47.8391 56.9912 47.8391 59.2881C47.8391 61.6328 49.1584 63.1299 51.2229 63.1299C52.9934 63.1299 54.0939 62.1318 54.3059 60.7783H53.1164C52.8977 61.6123 52.2072 62.0703 51.216 62.0703C49.9035 62.0703 49.0559 60.9902 49.0559 59.2881C49.0559 57.6201 49.8898 56.5605 51.216 56.5605C52.2756 56.5605 52.925 57.1553 53.1164 57.8867H54.3059ZM67.3387 63H68.5555V53.1357H67.3387L62.0066 61.0107H61.8973V53.1357H60.6805V63H61.8973L67.2293 55.1523H67.3387V63ZM72.1598 63.0684C72.652 63.0684 73.0484 62.665 73.0484 62.1797C73.0484 61.6875 72.652 61.291 72.1598 61.291C71.6744 61.291 71.2711 61.6875 71.2711 62.1797C71.2711 62.665 71.6744 63.0684 72.1598 63.0684ZM82.7316 56.6152C83.5588 56.6152 83.9279 57.0254 83.9279 57.6406C83.9279 58.3311 83.4973 58.6934 82.5402 58.6934H80.9338V56.6152H82.7316ZM82.6428 59.6777C83.7023 59.6777 84.2492 60.04 84.2492 60.8604C84.2492 61.6055 83.7707 62.0156 82.8684 62.0156H80.9338V59.6777H82.6428ZM79.758 63H82.8957C84.4816 63 85.4182 62.166 85.4182 60.8809C85.4182 59.9922 84.8234 59.3086 83.8869 59.1787V59.0693C84.5773 58.9258 85.09 58.2422 85.09 57.5176C85.09 56.376 84.2766 55.6309 82.882 55.6309H79.758V63ZM90.5947 63.1299C92.6934 63.1299 93.9922 61.6807 93.9922 59.3154C93.9922 56.9434 92.6934 55.501 90.5947 55.501C88.4961 55.501 87.1973 56.9434 87.1973 59.3154C87.1973 61.6807 88.4961 63.1299 90.5947 63.1299ZM90.5947 62.0703C89.2002 62.0703 88.4141 61.0586 88.4141 59.3154C88.4141 57.5654 89.2002 56.5605 90.5947 56.5605C91.9893 56.5605 92.7754 57.5654 92.7754 59.3154C92.7754 61.0586 91.9893 62.0703 90.5947 62.0703ZM96.1678 63H105.273V55.6309H104.097V62.0156H101.308V55.6309H100.133V62.0156H97.3436V55.6309H96.1678V63ZM110.757 56.54C111.926 56.54 112.706 57.4014 112.733 58.707H108.672C108.761 57.4014 109.582 56.54 110.757 56.54ZM112.699 61.0928C112.391 61.7422 111.749 62.0908 110.798 62.0908C109.547 62.0908 108.734 61.168 108.672 59.7119V59.6572H113.97V59.2061C113.97 56.916 112.76 55.501 110.771 55.501C108.748 55.501 107.449 57.0049 107.449 59.3223C107.449 61.6533 108.727 63.1299 110.771 63.1299C112.384 63.1299 113.519 62.3574 113.875 61.0928H112.699ZM117.711 59.7666L117.944 56.6152H120.521V63H121.697V55.6309H116.877L116.59 59.7393C116.495 61.1064 116.214 61.9609 115.483 61.9609C115.312 61.9609 115.175 61.9268 115.114 61.9062V62.9863C115.196 63.0205 115.332 63.0615 115.544 63.0615C117.076 63.0615 117.561 61.79 117.711 59.7666ZM131.359 56.6152C132.187 56.6152 132.556 57.0254 132.556 57.6406C132.556 58.3311 132.125 58.6934 131.168 58.6934H129.562V56.6152H131.359ZM131.271 59.6777C132.33 59.6777 132.877 60.04 132.877 60.8604C132.877 61.6055 132.398 62.0156 131.496 62.0156H129.562V59.6777H131.271ZM128.386 63H131.523C133.109 63 134.046 62.166 134.046 60.8809C134.046 59.9922 133.451 59.3086 132.515 59.1787V59.0693C133.205 58.9258 133.718 58.2422 133.718 57.5176C133.718 56.376 132.904 55.6309 131.51 55.6309H128.386V63ZM140.407 63H149.512V55.6309H148.337V62.0156H145.547V55.6309H144.372V62.0156H141.583V55.6309H140.407V63ZM153.547 59.6436L156.5 63H158.025L154.518 59.1035L157.895 55.6309H156.466L153.547 58.7139H153.226V55.6309H152.05V63H153.226V59.6436H153.547ZM162.559 63.1299C164.657 63.1299 165.956 61.6807 165.956 59.3154C165.956 56.9434 164.657 55.501 162.559 55.501C160.46 55.501 159.161 56.9434 159.161 59.3154C159.161 61.6807 160.46 63.1299 162.559 63.1299ZM162.559 62.0703C161.164 62.0703 160.378 61.0586 160.378 59.3154C160.378 57.5654 161.164 56.5605 162.559 56.5605C163.953 56.5605 164.739 57.5654 164.739 59.3154C164.739 61.0586 163.953 62.0703 162.559 62.0703ZM169.834 59.7666L170.066 56.6152H172.644V63H173.819V55.6309H169L168.713 59.7393C168.617 61.1064 168.337 61.9609 167.605 61.9609C167.435 61.9609 167.298 61.9268 167.236 61.9062V62.9863C167.318 63.0205 167.455 63.0615 167.667 63.0615C169.198 63.0615 169.684 61.79 169.834 59.7666ZM176.993 65.666C178.299 65.666 178.887 65.1602 179.515 63.4512L182.393 55.6309H181.142L179.126 61.6943H179.016L176.993 55.6309H175.721L178.449 63.0068L178.312 63.4443C178.005 64.333 177.636 64.6543 176.959 64.6543C176.795 64.6543 176.61 64.6475 176.467 64.6201V65.625C176.631 65.6523 176.836 65.666 176.993 65.666ZM188.317 55.9111V55.918H189.506V55.9111C189.506 54.749 190.286 53.9766 191.441 53.9766C192.528 53.9766 193.369 54.7354 193.369 55.7197C193.369 56.5127 193.061 57.0459 191.789 58.4268L188.378 62.1523V63H194.763V61.8926H190.142V61.7832L192.514 59.2334C194.134 57.4971 194.599 56.6973 194.599 55.6719C194.599 54.1064 193.246 52.9033 191.475 52.9033C189.643 52.9033 188.317 54.1611 188.317 55.9111ZM199.058 58.4541H200.309C201.71 58.4541 202.578 59.165 202.578 60.3066C202.578 61.3867 201.655 62.1592 200.357 62.1592C199.085 62.1592 198.196 61.4824 198.087 60.4297H196.898C196.987 62.1182 198.367 63.2324 200.37 63.2324C202.319 63.2324 203.843 61.9678 203.843 60.3408C203.843 58.9941 203.029 58.0645 201.69 57.8936V57.7842C202.77 57.5244 203.419 56.6631 203.419 55.4873C203.419 54.0518 202.045 52.9033 200.322 52.9033C198.443 52.9033 197.219 53.9561 197.096 55.665H198.292C198.395 54.6055 199.14 53.9766 200.275 53.9766C201.409 53.9766 202.168 54.6465 202.168 55.6514C202.168 56.6768 201.375 57.4014 200.254 57.4014H199.058V58.4541ZM206.518 63.0684C207.01 63.0684 207.406 62.665 207.406 62.1797C207.406 61.6875 207.01 61.291 206.518 61.291C206.032 61.291 205.629 61.6875 205.629 62.1797C205.629 62.665 206.032 63.0684 206.518 63.0684ZM211.776 63H213.007V53.1357H211.783L209.158 55.0225V56.3213L211.667 54.5029H211.776V63ZM219.468 63.2324C221.683 63.2324 222.955 61.3594 222.955 58.085C222.955 54.8174 221.663 52.9033 219.468 52.9033C217.26 52.9033 215.968 54.8105 215.968 58.0645C215.968 61.3457 217.247 63.2324 219.468 63.2324ZM219.468 62.1592C218.012 62.1592 217.206 60.7031 217.206 58.0645C217.206 55.46 218.026 53.9834 219.468 53.9834C220.911 53.9834 221.717 55.4463 221.717 58.0645C221.717 60.71 220.924 62.1592 219.468 62.1592ZM225.602 63.0684C226.094 63.0684 226.491 62.665 226.491 62.1797C226.491 61.6875 226.094 61.291 225.602 61.291C225.117 61.291 224.713 61.6875 224.713 62.1797C224.713 62.665 225.117 63.0684 225.602 63.0684ZM228.646 55.9111V55.918H229.835V55.9111C229.835 54.749 230.614 53.9766 231.77 53.9766C232.857 53.9766 233.697 54.7354 233.697 55.7197C233.697 56.5127 233.39 57.0459 232.118 58.4268L228.707 62.1523V63H235.092V61.8926H230.471V61.7832L232.843 59.2334C234.463 57.4971 234.928 56.6973 234.928 55.6719C234.928 54.1064 233.574 52.9033 231.804 52.9033C229.972 52.9033 228.646 54.1611 228.646 55.9111ZM240.686 63.2324C242.9 63.2324 244.172 61.3594 244.172 58.085C244.172 54.8174 242.88 52.9033 240.686 52.9033C238.478 52.9033 237.186 54.8105 237.186 58.0645C237.186 61.3457 238.464 63.2324 240.686 63.2324ZM240.686 62.1592C239.229 62.1592 238.423 60.7031 238.423 58.0645C238.423 55.46 239.243 53.9834 240.686 53.9834C242.128 53.9834 242.935 55.4463 242.935 58.0645C242.935 60.71 242.142 62.1592 240.686 62.1592ZM246.327 55.9111V55.918H247.516V55.9111C247.516 54.749 248.296 53.9766 249.451 53.9766C250.538 53.9766 251.379 54.7354 251.379 55.7197C251.379 56.5127 251.071 57.0459 249.8 58.4268L246.388 62.1523V63H252.773V61.8926H248.152V61.7832L250.524 59.2334C252.144 57.4971 252.609 56.6973 252.609 55.6719C252.609 54.1064 251.256 52.9033 249.485 52.9033C247.653 52.9033 246.327 54.1611 246.327 55.9111ZM257.41 63H258.64V53.1357H257.417L254.792 55.0225V56.3213L257.3 54.5029H257.41V63ZM269.253 63.2324C271.468 63.2324 272.739 61.3594 272.739 58.085C272.739 54.8174 271.447 52.9033 269.253 52.9033C267.045 52.9033 265.753 54.8105 265.753 58.0645C265.753 61.3457 267.031 63.2324 269.253 63.2324ZM269.253 62.1592C267.797 62.1592 266.99 60.7031 266.99 58.0645C266.99 55.46 267.811 53.9834 269.253 53.9834C270.696 53.9834 271.502 55.4463 271.502 58.0645C271.502 60.71 270.709 62.1592 269.253 62.1592ZM278.326 63.2324C280.418 63.2324 281.881 62.0498 281.881 60.3613C281.881 59.0762 281.067 58.0781 279.83 57.8457V57.7363C280.849 57.4561 281.478 56.6152 281.478 55.5352C281.478 53.9971 280.172 52.9033 278.326 52.9033C276.48 52.9033 275.175 53.9971 275.175 55.5352C275.175 56.6084 275.817 57.4629 276.822 57.7363V57.8457C275.585 58.0781 274.771 59.0762 274.771 60.3613C274.771 62.0498 276.234 63.2324 278.326 63.2324ZM278.326 62.1797C276.959 62.1797 276.016 61.4004 276.016 60.2725C276.016 59.1445 276.959 58.3652 278.326 58.3652C279.693 58.3652 280.637 59.1445 280.637 60.2725C280.637 61.4004 279.693 62.1797 278.326 62.1797ZM278.326 57.3262C277.164 57.3262 276.385 56.6562 276.385 55.6514C276.385 54.6328 277.157 53.9561 278.326 53.9561C279.495 53.9561 280.268 54.6328 280.268 55.6514C280.268 56.6562 279.488 57.3262 278.326 57.3262ZM285.075 61.8721C285.567 61.8721 285.964 61.4688 285.964 60.9834C285.964 60.4912 285.567 60.0947 285.075 60.0947C284.59 60.0947 284.186 60.4912 284.186 60.9834C284.186 61.4688 284.59 61.8721 285.075 61.8721ZM285.075 56.6152C285.567 56.6152 285.964 56.2119 285.964 55.7266C285.964 55.2344 285.567 54.8379 285.075 54.8379C284.59 54.8379 284.186 55.2344 284.186 55.7266C284.186 56.2119 284.59 56.6152 285.075 56.6152ZM288.461 55.9111V55.918H289.65V55.9111C289.65 54.749 290.429 53.9766 291.585 53.9766C292.671 53.9766 293.512 54.7354 293.512 55.7197C293.512 56.5127 293.205 57.0459 291.933 58.4268L288.522 62.1523V63H294.907V61.8926H290.286V61.7832L292.658 59.2334C294.278 57.4971 294.743 56.6973 294.743 55.6719C294.743 54.1064 293.389 52.9033 291.619 52.9033C289.787 52.9033 288.461 54.1611 288.461 55.9111ZM297.595 63H298.887L303.276 54.2773V53.1357H296.747V54.2363H302.025V54.332L297.595 63Z" fill="#202326"/>
<rect x="9" y="9" width="18" height="18" rx="4" fill="#FFD500"/>
<path d="M9 18C9 13.0294 13.0294 9 18 9C22.9706 9 27 13.0294 27 18C27 22.9706 22.9706 27 18 27C13.0294 27 9 22.9706 9 18Z" fill="#FFD500"/>
<g clip-path="url(#clip0)">
<path d="M15.3533 14.3999C13.3364 14.3999 11.7012 16.0101 11.7 17.9975C11.7012 16.5409 12.9004 15.3603 14.3786 15.3603C15.8581 15.3603 17.0573 16.5421 17.0573 17.9999C17.0573 18.9282 16.2941 19.6791 15.3533 19.6791C14.4414 19.6791 13.6963 18.9734 13.6504 18.0868C13.6975 19.5042 14.8774 20.6395 16.3279 20.6395C17.8061 20.6395 19.0042 19.4601 19.0066 18.0047C19.0066 18.0023 19.0066 18.0011 19.0066 17.9999C19.0066 16.0113 17.3713 14.3999 15.3533 14.3999Z" fill="white"/>
<path d="M15.3533 21.6C17.3701 21.6 19.0054 19.9898 19.0066 18.0023C19.0054 19.459 17.8061 20.6396 16.3279 20.6396C14.8484 20.6396 13.6492 19.4578 13.6492 18C13.6492 17.0717 14.4125 16.3196 15.3533 16.3196C16.2651 16.3196 17.0102 17.0253 17.0561 17.9131C17.009 16.4957 15.8291 15.3604 14.3786 15.3604C12.9016 15.3604 11.7036 16.5397 11.7 17.9952C11.7 17.9976 11.7 17.9988 11.7 18C11.7 19.9886 13.3364 21.6 15.3533 21.6Z" fill="white"/>
<path d="M21.957 17.9975H19.5078L21.8508 14.8057H24.3L21.957 17.9975Z" fill="white"/>
<path d="M24.3 21.1894H21.8508L19.5078 17.9976H21.957L24.3 21.1894Z" fill="white"/>
</g>
<defs>
<filter id="filter0_bi" x="-33.2019" y="-33.2019" width="450.404" height="164.404" filterUnits="userSpaceOnUse" color-interpolation-filters="sRGB">
<feFlood flood-opacity="0" result="BackgroundImageFix"/>
<feGaussianBlur in="BackgroundImage" stdDeviation="16.601"/>
<feComposite in2="SourceAlpha" operator="in" result="effect1_backgroundBlur"/>
<feBlend mode="normal" in="SourceGraphic" in2="effect1_backgroundBlur" result="shape"/>
<feColorMatrix in="SourceAlpha" type="matrix" values="0 0 0 0 0 0 0 0 0 0 0 0 0 0 0 0 0 0 127 0" result="hardAlpha"/>
<feMorphology radius="1" operator="erode" in="SourceAlpha" result="effect2_innerShadow"/>
<feOffset/>
<feComposite in2="hardAlpha" operator="arithmetic" k2="-1" k3="1"/>
<feColorMatrix type="matrix" values="0 0 0 0 1 0 0 0 0 1 0 0 0 0 1 0 0 0 0.15 0"/>
<feBlend mode="normal" in2="shape" result="effect2_innerShadow"/>
</filter>
<clipPath id="clip0">
<rect width="12.6" height="7.2" fill="white" transform="translate(11.7 14.3999)"/>
</clipPath>
</defs>
</svg>
