<svg width="384" height="98" viewBox="0 0 384 98" fill="none" xmlns="http://www.w3.org/2000/svg">
<g filter="url(#filter0_bi)">
<rect width="384" height="98" rx="10" fill="#FAFAFB"/>
</g>
<path d="M37.0845 13.6245C34.4946 13.6245 32.876 15.4717 32.876 18.417C32.876 21.3496 34.4565 23.2158 37.0845 23.2158C39.6997 23.2158 41.2739 21.3433 41.2739 18.417C41.2739 15.478 39.687 13.6245 37.0845 13.6245ZM37.0845 14.6782C38.957 14.6782 40.0996 16.1255 40.0996 18.417C40.0996 20.6895 38.9634 22.1621 37.0845 22.1621C35.1802 22.1621 34.0503 20.6895 34.0503 18.417C34.0503 16.1255 35.2183 14.6782 37.0845 14.6782ZM49.5748 20.2515C49.5748 18.6265 48.3497 17.4902 46.6295 17.4902H44.4523V14.8687H48.6608V13.8403H43.3097V23H46.6422C48.3624 23 49.5748 21.8701 49.5748 20.2515ZM44.4523 21.9717V18.5186H46.3439C47.6515 18.5186 48.4005 19.1406 48.4005 20.2515C48.4005 21.356 47.6578 21.9717 46.3439 21.9717H44.4523ZM51.4963 13.8403V23H52.6389V19.731H54.9431C56.6633 19.731 57.8884 18.5186 57.8884 16.8047C57.8884 15.0591 56.6887 13.8403 54.9558 13.8403H51.4963ZM52.6389 14.856H54.6575C55.9841 14.856 56.7141 15.5479 56.7141 16.8047C56.7141 18.0171 55.9587 18.7153 54.6575 18.7153H52.6389V14.856ZM64.5435 17.8647V13.8403H63.4009V23H64.5435V18.7788H64.8101L68.9487 23H70.4595L65.794 18.252L70.0913 13.8403H68.6567L64.8101 17.8647H64.5435ZM77.8717 23H79.0714L75.6945 13.8403H74.5646L71.1876 23H72.3873L73.3078 20.3784H76.9513L77.8717 23ZM75.0788 15.3193H75.1803L76.6149 19.4072H73.6442L75.0788 15.3193ZM80.7263 13.8403V23H81.8689V19.731H84.1731C85.8933 19.731 87.1184 18.5186 87.1184 16.8047C87.1184 15.0591 85.9187 13.8403 84.1858 13.8403H80.7263ZM81.8689 14.856H83.8875C85.2141 14.856 85.9441 15.5479 85.9441 16.8047C85.9441 18.0171 85.1887 18.7153 83.8875 18.7153H81.8689V14.856ZM92.4359 23V14.8687H95.3876V13.8403H88.3417V14.8687H91.2934V23H92.4359ZM102.203 23H103.403L100.026 13.8403H98.896L95.5191 23H96.7188L97.6392 20.3784H101.283L102.203 23ZM99.4102 15.3193H99.5117L100.946 19.4072H97.9756L99.4102 15.3193Z" fill="#5C646D"/>
<path d="M343.254 22H344.309V13.5449H343.26L341.01 15.1621V16.2754L343.16 14.7168H343.254V22ZM349.623 22.1992C351.375 22.1992 352.576 21.0273 352.576 19.3105C352.576 17.6465 351.451 16.4805 349.846 16.4805C349.066 16.4805 348.469 16.7207 348.059 17.2012H347.965L348.205 14.4883H352.096V13.5449H347.379L346.916 18.3379H347.906C348.252 17.7344 348.885 17.3887 349.652 17.3887C350.76 17.3887 351.521 18.1797 351.521 19.3398C351.521 20.5 350.766 21.2734 349.635 21.2734C348.639 21.2734 347.912 20.6641 347.818 19.75H346.781C346.875 21.209 348.023 22.1992 349.623 22.1992ZM355.102 21.0332C355.523 21.0332 355.863 20.6875 355.863 20.2715C355.863 19.8496 355.523 19.5098 355.102 19.5098C354.686 19.5098 354.34 19.8496 354.34 20.2715C354.34 20.6875 354.686 21.0332 355.102 21.0332ZM355.102 16.5273C355.523 16.5273 355.863 16.1816 355.863 15.7656C355.863 15.3438 355.523 15.0039 355.102 15.0039C354.686 15.0039 354.34 15.3438 354.34 15.7656C354.34 16.1816 354.686 16.5273 355.102 16.5273ZM360.668 22.1992C362.566 22.1992 363.656 20.5938 363.656 17.7871C363.656 14.9863 362.549 13.3457 360.668 13.3457C358.775 13.3457 357.668 14.9805 357.668 17.7695C357.668 20.582 358.764 22.1992 360.668 22.1992ZM360.668 21.2793C359.42 21.2793 358.729 20.0312 358.729 17.7695C358.729 15.5371 359.432 14.2715 360.668 14.2715C361.904 14.2715 362.596 15.5254 362.596 17.7695C362.596 20.0371 361.916 21.2793 360.668 21.2793ZM368.227 22.1992C370.125 22.1992 371.215 20.5938 371.215 17.7871C371.215 14.9863 370.107 13.3457 368.227 13.3457C366.334 13.3457 365.227 14.9805 365.227 17.7695C365.227 20.582 366.322 22.1992 368.227 22.1992ZM368.227 21.2793C366.979 21.2793 366.287 20.0312 366.287 17.7695C366.287 15.5371 366.99 14.2715 368.227 14.2715C369.463 14.2715 370.154 15.5254 370.154 17.7695C370.154 20.0371 369.475 21.2793 368.227 21.2793Z" fill="#5C646D"/>
<path d="M20.7344 44V34.1357H12.2646V44H14.3359V35.9062H18.6768V44H20.7344ZM26.415 44.1641C28.7324 44.1641 30.127 42.6943 30.127 40.2266C30.127 37.7793 28.7119 36.2959 26.415 36.2959C24.1182 36.2959 22.7031 37.7861 22.7031 40.2266C22.7031 42.6943 24.0977 44.1641 26.415 44.1641ZM26.415 42.5371C25.3486 42.5371 24.7471 41.6963 24.7471 40.2266C24.7471 38.7773 25.3555 37.9229 26.415 37.9229C27.4678 37.9229 28.083 38.7773 28.083 40.2266C28.083 41.6895 27.4746 42.5371 26.415 42.5371ZM36.792 44H38.7812V36.46H31.8906V44H33.8799V38.0254H36.792V44ZM44.2568 44.1641C46.5742 44.1641 47.9688 42.6943 47.9688 40.2266C47.9688 37.7793 46.5537 36.2959 44.2568 36.2959C41.96 36.2959 40.5449 37.7861 40.5449 40.2266C40.5449 42.6943 41.9395 44.1641 44.2568 44.1641ZM44.2568 42.5371C43.1904 42.5371 42.5889 41.6963 42.5889 40.2266C42.5889 38.7773 43.1973 37.9229 44.2568 37.9229C45.3096 37.9229 45.9248 38.7773 45.9248 40.2266C45.9248 41.6895 45.3164 42.5371 44.2568 42.5371ZM52.1318 40.377L52.2891 38.0254H54.2646V44H56.2539V36.46H50.5801L50.3613 40.2402C50.293 41.4229 50.0742 42.2979 49.3496 42.2979C49.1514 42.2979 49.001 42.2705 48.9189 42.25V44C49.0215 44.0342 49.2471 44.0889 49.5547 44.0889C51.4004 44.0889 52.002 42.6191 52.1318 40.377ZM63.3564 44H65.3457V36.46H63.3564V39.3516H60.376V36.46H58.3867V44H60.376V40.917H63.3564V44ZM70.7393 37.8203C71.6689 37.8203 72.2705 38.4424 72.3115 39.4404H69.0986C69.167 38.4629 69.8164 37.8203 70.7393 37.8203ZM72.3525 41.8535C72.1406 42.3525 71.6006 42.6328 70.8145 42.6328C69.7754 42.6328 69.1191 41.9355 69.0918 40.8145V40.7119H74.2666V40.1035C74.2666 37.7109 72.9541 36.2959 70.7324 36.2959C68.4902 36.2959 67.1094 37.8135 67.1094 40.2676C67.1094 42.7148 68.4629 44.1641 70.7598 44.1641C72.6055 44.1641 73.9043 43.2754 74.2051 41.8535H72.3525ZM81.0068 44H82.9961V36.46H81.0068V39.3516H78.0264V36.46H76.0371V44H78.0264V40.917H81.0068V44ZM87.084 44L90.0918 39.3105H90.2148V44H92.1699V36.46H90.2148L87.207 41.0947H87.084V36.46H85.1289V44H87.084ZM97.5635 37.8203C98.4932 37.8203 99.0947 38.4424 99.1357 39.4404H95.9229C95.9912 38.4629 96.6406 37.8203 97.5635 37.8203ZM99.1768 41.8535C98.9648 42.3525 98.4248 42.6328 97.6387 42.6328C96.5996 42.6328 95.9434 41.9355 95.916 40.8145V40.7119H101.091V40.1035C101.091 37.7109 99.7783 36.2959 97.5566 36.2959C95.3145 36.2959 93.9336 37.8135 93.9336 40.2676C93.9336 42.7148 95.2871 44.1641 97.584 44.1641C99.4297 44.1641 100.729 43.2754 101.029 41.8535H99.1768ZM110.128 44.2529C112.391 44.2529 113.901 42.8242 113.901 40.7324C113.901 38.7979 112.575 37.4238 110.702 37.4238C109.725 37.4238 109.027 37.7861 108.61 38.3877H108.487L108.706 35.8516H113.307V34.1357H107.106L106.614 39.8574H108.46C108.802 39.3037 109.383 38.9688 110.148 38.9688C111.194 38.9688 111.933 39.6934 111.933 40.7803C111.933 41.8535 111.201 42.5645 110.142 42.5645C109.205 42.5645 108.48 42.0176 108.364 41.1973H106.457C106.519 42.9609 107.981 44.2529 110.128 44.2529ZM119.493 44.2529C121.934 44.2529 123.41 42.3184 123.41 39.0576C123.41 35.7832 121.913 33.8828 119.493 33.8828C117.066 33.8828 115.576 35.7832 115.576 39.0508C115.576 42.3252 117.053 44.2529 119.493 44.2529ZM119.493 42.5713C118.365 42.5713 117.668 41.3545 117.668 39.0508C117.668 36.7607 118.372 35.5713 119.493 35.5713C120.621 35.5713 121.318 36.7539 121.318 39.0508C121.318 41.3613 120.628 42.5713 119.493 42.5713ZM129.077 44.2529C131.518 44.2529 132.994 42.3184 132.994 39.0576C132.994 35.7832 131.497 33.8828 129.077 33.8828C126.65 33.8828 125.16 35.7832 125.16 39.0508C125.16 42.3252 126.637 44.2529 129.077 44.2529ZM129.077 42.5713C127.949 42.5713 127.252 41.3545 127.252 39.0508C127.252 36.7607 127.956 35.5713 129.077 35.5713C130.205 35.5713 130.902 36.7539 130.902 39.0508C130.902 41.3613 130.212 42.5713 129.077 42.5713ZM137.13 35.8037H138.921C139.946 35.8037 140.589 36.3916 140.589 37.3281C140.589 38.2783 139.98 38.8389 138.941 38.8389H137.13V35.8037ZM137.13 40.4248H138.818L140.657 44H142.995L140.917 40.1035C142.052 39.6523 142.708 38.5586 142.708 37.3008C142.708 35.3389 141.375 34.1357 139.208 34.1357H135.065V44H137.13V40.4248ZM146.871 34.1357H144.807V40.5957C144.807 42.7832 146.413 44.2529 148.936 44.2529C151.465 44.2529 153.071 42.7832 153.071 40.5957V34.1357H151.007V40.3838C151.007 41.6279 150.262 42.4209 148.936 42.4209C147.616 42.4209 146.871 41.6279 146.871 40.3838V34.1357ZM159.907 44C162.013 44 163.318 42.9062 163.318 41.1768C163.318 39.9053 162.368 38.9209 161.062 38.8252V38.7021C162.074 38.5518 162.847 37.6426 162.847 36.5967C162.847 35.0723 161.705 34.1357 159.791 34.1357H155.478V44H159.907ZM157.542 35.7148H159.265C160.249 35.7148 160.816 36.1865 160.816 36.9727C160.816 37.7656 160.208 38.2236 159.094 38.2236H157.542V35.7148ZM157.542 42.4209V39.6182H159.333C160.55 39.6182 161.213 40.0967 161.213 40.999C161.213 41.9219 160.57 42.4209 159.381 42.4209H157.542Z" fill="#202326"/>
<path d="M20.0576 63V53.1357H12.3262V63H13.5635V54.2568H18.8408V63H20.0576ZM25.7947 63.1299C27.8934 63.1299 29.1922 61.6807 29.1922 59.3154C29.1922 56.9434 27.8934 55.501 25.7947 55.501C23.6961 55.501 22.3973 56.9434 22.3973 59.3154C22.3973 61.6807 23.6961 63.1299 25.7947 63.1299ZM25.7947 62.0703C24.4002 62.0703 23.6141 61.0586 23.6141 59.3154C23.6141 57.5654 24.4002 56.5605 25.7947 56.5605C27.1893 56.5605 27.9754 57.5654 27.9754 59.3154C27.9754 61.0586 27.1893 62.0703 25.7947 62.0703ZM36.1529 63H37.3287V55.6309H31.3678V63H32.5436V56.6152H36.1529V63ZM42.9018 63.1299C45.0004 63.1299 46.2992 61.6807 46.2992 59.3154C46.2992 56.9434 45.0004 55.501 42.9018 55.501C40.8031 55.501 39.5043 56.9434 39.5043 59.3154C39.5043 61.6807 40.8031 63.1299 42.9018 63.1299ZM42.9018 62.0703C41.5072 62.0703 40.7211 61.0586 40.7211 59.3154C40.7211 57.5654 41.5072 56.5605 42.9018 56.5605C44.2963 56.5605 45.0824 57.5654 45.0824 59.3154C45.0824 61.0586 44.2963 62.0703 42.9018 62.0703ZM50.177 59.7666L50.4094 56.6152H52.9865V63H54.1623V55.6309H49.343L49.0559 59.7393C48.9602 61.1064 48.6799 61.9609 47.9484 61.9609C47.7775 61.9609 47.6408 61.9268 47.5793 61.9062V62.9863C47.6613 63.0205 47.798 63.0615 48.01 63.0615C49.5412 63.0615 50.0266 61.79 50.177 59.7666ZM61.5537 63H62.7295V55.6309H61.5537V58.6797H57.876V55.6309H56.7002V63H57.876V59.6641H61.5537V63ZM68.2137 56.54C69.3826 56.54 70.1619 57.4014 70.1893 58.707H66.1287C66.2176 57.4014 67.0379 56.54 68.2137 56.54ZM70.1551 61.0928C69.8475 61.7422 69.2049 62.0908 68.2547 62.0908C67.0037 62.0908 66.1902 61.168 66.1287 59.7119V59.6572H71.4266V59.2061C71.4266 56.916 70.2166 55.501 68.2273 55.501C66.2039 55.501 64.9051 57.0049 64.9051 59.3223C64.9051 61.6533 66.1834 63.1299 68.2273 63.1299C69.8406 63.1299 70.9754 62.3574 71.3309 61.0928H70.1551ZM78.4557 63H79.6314V55.6309H78.4557V58.6797H74.7779V55.6309H73.6021V63H74.7779V59.6641H78.4557V63ZM83.3451 63L87.016 57.5039H87.1254V63H88.3012V55.6309H87.1254L83.4545 61.127H83.3451V55.6309H82.1693V63H83.3451ZM93.7922 56.54C94.9611 56.54 95.7404 57.4014 95.7678 58.707H91.7072C91.7961 57.4014 92.6164 56.54 93.7922 56.54ZM95.7336 61.0928C95.426 61.7422 94.7834 62.0908 93.8332 62.0908C92.5822 62.0908 91.7688 61.168 91.7072 59.7119V59.6572H97.0051V59.2061C97.0051 56.916 95.7951 55.501 93.8059 55.501C91.7824 55.501 90.4836 57.0049 90.4836 59.3223C90.4836 61.6533 91.7619 63.1299 93.8059 63.1299C95.4191 63.1299 96.5539 62.3574 96.9094 61.0928H95.7336ZM109.436 57.8867C109.231 56.5742 108.137 55.501 106.346 55.501C104.282 55.501 102.97 56.9912 102.97 59.2881C102.97 61.6328 104.289 63.1299 106.353 63.1299C108.124 63.1299 109.224 62.1318 109.436 60.7783H108.247C108.028 61.6123 107.338 62.0703 106.346 62.0703C105.034 62.0703 104.186 60.9902 104.186 59.2881C104.186 57.6201 105.02 56.5605 106.346 56.5605C107.406 56.5605 108.055 57.1553 108.247 57.8867H109.436ZM116.917 63V55.6309H115.741V58.6045C115.399 58.9873 114.784 59.3291 113.861 59.3291C112.856 59.3291 112.337 58.707 112.337 57.7363V55.6309H111.161V57.7363C111.161 59.3086 112.084 60.375 113.854 60.375C114.654 60.375 115.242 60.1494 115.631 59.8145H115.741V63H116.917ZM122.401 56.54C123.57 56.54 124.349 57.4014 124.376 58.707H120.316C120.405 57.4014 121.225 56.54 122.401 56.54ZM124.342 61.0928C124.035 61.7422 123.392 62.0908 122.442 62.0908C121.191 62.0908 120.377 61.168 120.316 59.7119V59.6572H125.614V59.2061C125.614 56.916 124.404 55.501 122.414 55.501C120.391 55.501 119.092 57.0049 119.092 59.3223C119.092 61.6533 120.371 63.1299 122.414 63.1299C124.028 63.1299 125.162 62.3574 125.518 61.0928H124.342ZM132.581 55.6309H126.62V56.6152H129.013V63H130.189V56.6152H132.581V55.6309ZM136.664 62.0977C135.81 62.0977 135.174 61.6602 135.174 60.9082C135.174 60.1699 135.666 59.7803 136.787 59.7051L138.77 59.5752V60.252C138.77 61.3047 137.874 62.0977 136.664 62.0977ZM136.445 63.1299C137.43 63.1299 138.236 62.6992 138.715 61.9131H138.824V63H139.945V57.9551C139.945 56.4238 138.94 55.501 137.143 55.501C135.57 55.501 134.408 56.2803 134.251 57.4629H135.44C135.604 56.8818 136.22 56.5469 137.102 56.5469C138.202 56.5469 138.77 57.0459 138.77 57.9551V58.625L136.644 58.7549C134.928 58.8574 133.957 59.6162 133.957 60.9355C133.957 62.2822 135.017 63.1299 136.445 63.1299ZM148.651 59.3701L148.972 54.2432H152.746V61.8926H147.961V61.8105C148.446 61.2295 148.583 60.4844 148.651 59.3701ZM146.846 63H154.065V64.9482H155.207V61.8926H153.976V53.1357H147.872L147.496 59.3428C147.421 60.6348 147.154 61.5098 146.436 61.8926H145.705V64.9482H146.846V63ZM160 56.54C161.169 56.54 161.949 57.4014 161.976 58.707H157.915C158.004 57.4014 158.825 56.54 160 56.54ZM161.942 61.0928C161.634 61.7422 160.992 62.0908 160.041 62.0908C158.79 62.0908 157.977 61.168 157.915 59.7119V59.6572H163.213V59.2061C163.213 56.916 162.003 55.501 160.014 55.501C157.991 55.501 156.692 57.0049 156.692 59.3223C156.692 61.6533 157.97 63.1299 160.014 63.1299C161.627 63.1299 162.762 62.3574 163.118 61.0928H161.942ZM170.242 63H171.418V55.6309H170.242V58.6797H166.565V55.6309H165.389V63H166.565V59.6641H170.242V63ZM175.132 63L178.803 57.5039H178.912V63H180.088V55.6309H178.912L175.241 61.127H175.132V55.6309H173.956V63H175.132ZM188.737 57.8867C188.532 56.5742 187.438 55.501 185.647 55.501C183.583 55.501 182.27 56.9912 182.27 59.2881C182.27 61.6328 183.59 63.1299 185.654 63.1299C187.425 63.1299 188.525 62.1318 188.737 60.7783H187.548C187.329 61.6123 186.638 62.0703 185.647 62.0703C184.335 62.0703 183.487 60.9902 183.487 59.2881C183.487 57.6201 184.321 56.5605 185.647 56.5605C186.707 56.5605 187.356 57.1553 187.548 57.8867H188.737ZM201.77 63H202.987V53.1357H201.77L196.438 61.0107H196.329V53.1357H195.112V63H196.329L201.661 55.1523H201.77V63ZM206.591 63.0684C207.083 63.0684 207.48 62.665 207.48 62.1797C207.48 61.6875 207.083 61.291 206.591 61.291C206.106 61.291 205.702 61.6875 205.702 62.1797C205.702 62.665 206.106 63.0684 206.591 63.0684ZM214.531 63H215.823L220.212 54.2773V53.1357H213.683V54.2363H218.961V54.332L214.531 63ZM221.574 63.0684C222.066 63.0684 222.462 62.665 222.462 62.1797C222.462 61.6875 222.066 61.291 221.574 61.291C221.088 61.291 220.685 61.6875 220.685 62.1797C220.685 62.665 221.088 63.0684 221.574 63.0684ZM227.721 63.2324C229.936 63.2324 231.207 61.3594 231.207 58.085C231.207 54.8174 229.915 52.9033 227.721 52.9033C225.513 52.9033 224.221 54.8105 224.221 58.0645C224.221 61.3457 225.499 63.2324 227.721 63.2324ZM227.721 62.1592C226.265 62.1592 225.458 60.7031 225.458 58.0645C225.458 55.46 226.279 53.9834 227.721 53.9834C229.163 53.9834 229.97 55.4463 229.97 58.0645C229.97 60.71 229.177 62.1592 227.721 62.1592ZM237.929 63H239.132V60.9561H240.533V59.8555H239.132V53.1357H237.348C235.571 55.7949 234.005 58.2695 233.123 59.835V60.9561H237.929V63ZM234.381 59.7803C235.557 57.7842 236.842 55.7471 237.854 54.2773H237.936V59.8623H234.381V59.7803ZM243.133 63.0684C243.625 63.0684 244.021 62.665 244.021 62.1797C244.021 61.6875 243.625 61.291 243.133 61.291C242.647 61.291 242.244 61.6875 242.244 62.1797C242.244 62.665 242.647 63.0684 243.133 63.0684ZM246.177 55.9111V55.918H247.366V55.9111C247.366 54.749 248.145 53.9766 249.301 53.9766C250.387 53.9766 251.228 54.7354 251.228 55.7197C251.228 56.5127 250.921 57.0459 249.649 58.4268L246.238 62.1523V63H252.623V61.8926H248.002V61.7832L250.374 59.2334C251.994 57.4971 252.459 56.6973 252.459 55.6719C252.459 54.1064 251.105 52.9033 249.335 52.9033C247.503 52.9033 246.177 54.1611 246.177 55.9111ZM258.216 63.2324C260.431 63.2324 261.703 61.3594 261.703 58.085C261.703 54.8174 260.411 52.9033 258.216 52.9033C256.008 52.9033 254.716 54.8105 254.716 58.0645C254.716 61.3457 255.995 63.2324 258.216 63.2324ZM258.216 62.1592C256.76 62.1592 255.954 60.7031 255.954 58.0645C255.954 55.46 256.774 53.9834 258.216 53.9834C259.659 53.9834 260.465 55.4463 260.465 58.0645C260.465 60.71 259.672 62.1592 258.216 62.1592ZM263.858 55.9111V55.918H265.047V55.9111C265.047 54.749 265.827 53.9766 266.982 53.9766C268.069 53.9766 268.91 54.7354 268.91 55.7197C268.91 56.5127 268.602 57.0459 267.33 58.4268L263.919 62.1523V63H270.304V61.8926H265.683V61.7832L268.055 59.2334C269.675 57.4971 270.14 56.6973 270.14 55.6719C270.14 54.1064 268.787 52.9033 267.016 52.9033C265.184 52.9033 263.858 54.1611 263.858 55.9111ZM274.941 63H276.171V53.1357H274.947L272.322 55.0225V56.3213L274.831 54.5029H274.941V63ZM285.827 63H287.057V53.1357H285.834L283.209 55.0225V56.3213L285.718 54.5029H285.827V63ZM293.458 63.2324C295.502 63.2324 296.903 61.8652 296.903 59.8623C296.903 57.9209 295.59 56.5605 293.717 56.5605C292.808 56.5605 292.111 56.8408 291.632 57.4014H291.523L291.803 54.2363H296.342V53.1357H290.839L290.299 58.7275H291.455C291.858 58.0234 292.596 57.6201 293.492 57.6201C294.784 57.6201 295.672 58.543 295.672 59.8965C295.672 61.25 294.791 62.1523 293.471 62.1523C292.309 62.1523 291.462 61.4414 291.352 60.375H290.142C290.252 62.0771 291.591 63.2324 293.458 63.2324ZM300.049 61.8721C300.541 61.8721 300.938 61.4688 300.938 60.9834C300.938 60.4912 300.541 60.0947 300.049 60.0947C299.564 60.0947 299.161 60.4912 299.161 60.9834C299.161 61.4688 299.564 61.8721 300.049 61.8721ZM300.049 56.6152C300.541 56.6152 300.938 56.2119 300.938 55.7266C300.938 55.2344 300.541 54.8379 300.049 54.8379C299.564 54.8379 299.161 55.2344 299.161 55.7266C299.161 56.2119 299.564 56.6152 300.049 56.6152ZM306.743 63.2324C308.958 63.2324 310.23 61.3594 310.23 58.085C310.23 54.8174 308.938 52.9033 306.743 52.9033C304.535 52.9033 303.243 54.8105 303.243 58.0645C303.243 61.3457 304.522 63.2324 306.743 63.2324ZM306.743 62.1592C305.287 62.1592 304.481 60.7031 304.481 58.0645C304.481 55.46 305.301 53.9834 306.743 53.9834C308.186 53.9834 308.992 55.4463 308.992 58.0645C308.992 60.71 308.199 62.1592 306.743 62.1592ZM315.762 63.2324C317.977 63.2324 319.248 61.3594 319.248 58.085C319.248 54.8174 317.956 52.9033 315.762 52.9033C313.554 52.9033 312.262 54.8105 312.262 58.0645C312.262 61.3457 313.54 63.2324 315.762 63.2324ZM315.762 62.1592C314.306 62.1592 313.499 60.7031 313.499 58.0645C313.499 55.46 314.319 53.9834 315.762 53.9834C317.204 53.9834 318.011 55.4463 318.011 58.0645C318.011 60.71 317.218 62.1592 315.762 62.1592ZM321.895 63.0684C322.388 63.0684 322.784 62.665 322.784 62.1797C322.784 61.6875 322.388 61.291 321.895 61.291C321.41 61.291 321.007 61.6875 321.007 62.1797C321.007 62.665 321.41 63.0684 321.895 63.0684ZM14.2197 75.3701L14.541 70.2432H18.3145V77.8926H13.5293V77.8105C14.0146 77.2295 14.1514 76.4844 14.2197 75.3701ZM12.415 79H19.6338V80.9482H20.7754V77.8926H19.5449V69.1357H13.4404L13.0645 75.3428C12.9893 76.6348 12.7227 77.5098 12.0049 77.8926H11.2734V80.9482H12.415V79ZM25.658 79.1299C27.7566 79.1299 29.0555 77.6807 29.0555 75.3154C29.0555 72.9434 27.7566 71.501 25.658 71.501C23.5594 71.501 22.2605 72.9434 22.2605 75.3154C22.2605 77.6807 23.5594 79.1299 25.658 79.1299ZM25.658 78.0703C24.2635 78.0703 23.4773 77.0586 23.4773 75.3154C23.4773 73.5654 24.2635 72.5605 25.658 72.5605C27.0525 72.5605 27.8387 73.5654 27.8387 75.3154C27.8387 77.0586 27.0525 78.0703 25.658 78.0703ZM37.3355 73.8867C37.1305 72.5742 36.0367 71.501 34.2457 71.501C32.1812 71.501 30.8687 72.9912 30.8687 75.2881C30.8687 77.6328 32.1881 79.1299 34.2525 79.1299C36.023 79.1299 37.1236 78.1318 37.3355 76.7783H36.1461C35.9273 77.6123 35.2369 78.0703 34.2457 78.0703C32.9332 78.0703 32.0855 76.9902 32.0855 75.2881C32.0855 73.6201 32.9195 72.5605 34.2457 72.5605C35.3053 72.5605 35.9547 73.1553 36.1461 73.8867H37.3355ZM44.3988 71.6309H38.4379V72.6152H40.8305V79H42.0063V72.6152H44.3988V71.6309ZM46.9504 81.666C48.2561 81.666 48.8439 81.1602 49.4729 79.4512L52.3508 71.6309H51.0998L49.0832 77.6943H48.9738L46.9504 71.6309H45.6789L48.4064 79.0068L48.2697 79.4443C47.9621 80.333 47.593 80.6543 46.9162 80.6543C46.7521 80.6543 46.5676 80.6475 46.424 80.6201V81.625C46.5881 81.6523 46.7932 81.666 46.9504 81.666ZM59.0381 79H60.2139V71.6309H54.2529V79H55.4287V72.6152H59.0381V79ZM67.6053 79H68.7811V71.6309H67.6053V74.6797H63.9275V71.6309H62.7518V79H63.9275V75.6641H67.6053V79ZM74.3541 79.1299C76.4527 79.1299 77.7516 77.6807 77.7516 75.3154C77.7516 72.9434 76.4527 71.501 74.3541 71.501C72.2555 71.501 70.9566 72.9434 70.9566 75.3154C70.9566 77.6807 72.2555 79.1299 74.3541 79.1299ZM74.3541 78.0703C72.9596 78.0703 72.1734 77.0586 72.1734 75.3154C72.1734 73.5654 72.9596 72.5605 74.3541 72.5605C75.7486 72.5605 76.5348 73.5654 76.5348 75.3154C76.5348 77.0586 75.7486 78.0703 74.3541 78.0703ZM86.3684 79H87.5988V69.1357H86.3752L83.7502 71.0225V72.3213L86.259 70.5029H86.3684V79ZM92.7617 74.4541H94.0127C95.4141 74.4541 96.2822 75.165 96.2822 76.3066C96.2822 77.3867 95.3594 78.1592 94.0605 78.1592C92.7891 78.1592 91.9004 77.4824 91.791 76.4297H90.6016C90.6904 78.1182 92.0713 79.2324 94.0742 79.2324C96.0225 79.2324 97.5469 77.9678 97.5469 76.3408C97.5469 74.9941 96.7334 74.0645 95.3936 73.8936V73.7842C96.4736 73.5244 97.123 72.6631 97.123 71.4873C97.123 70.0518 95.749 68.9033 94.0264 68.9033C92.1465 68.9033 90.9229 69.9561 90.7998 71.665H91.9961C92.0986 70.6055 92.8438 69.9766 93.9785 69.9766C95.1133 69.9766 95.8721 70.6465 95.8721 71.6514C95.8721 72.6768 95.0791 73.4014 93.958 73.4014H92.7617V74.4541ZM104.227 79H105.43V76.9561H106.832V75.8555H105.43V69.1357H103.646C101.869 71.7949 100.304 74.2695 99.4217 75.835V76.9561H104.227V79ZM100.679 75.7803C101.855 73.7842 103.14 71.7471 104.152 70.2773H104.234V75.8623H100.679V75.7803ZM108.871 71.9111V71.918H110.06V71.9111C110.06 70.749 110.839 69.9766 111.995 69.9766C113.082 69.9766 113.922 70.7354 113.922 71.7197C113.922 72.5127 113.615 73.0459 112.343 74.4268L108.932 78.1523V79H115.317V77.8926H110.696V77.7832L113.068 75.2334C114.688 73.4971 115.153 72.6973 115.153 71.6719C115.153 70.1064 113.799 68.9033 112.029 68.9033C110.197 68.9033 108.871 70.1611 108.871 71.9111ZM123.134 70.2295H125.506C126.778 70.2295 127.543 70.9336 127.543 72.1162C127.543 73.3262 126.825 74.0029 125.561 74.0029H123.134V70.2295ZM123.134 75.0967H125.561L127.673 79H129.115L126.832 74.9053C128.07 74.5156 128.815 73.4492 128.815 72.0752C128.815 70.2979 127.571 69.1357 125.67 69.1357H121.904V79H123.134V75.0967ZM132.515 69.1357H131.284V75.6094C131.284 77.7148 132.754 79.2324 135.201 79.2324C137.648 79.2324 139.118 77.7148 139.118 75.6094V69.1357H137.888V75.5273C137.888 77.0176 136.91 78.0977 135.201 78.0977C133.492 78.0977 132.515 77.0176 132.515 75.5273V69.1357ZM145.717 79C147.815 79 149.059 77.9678 149.059 76.2314C149.059 74.9258 148.205 74.0029 146.858 73.832V73.7227C147.808 73.5518 148.56 72.6221 148.56 71.5967C148.56 70.0859 147.453 69.1357 145.641 69.1357H141.868V79H145.717ZM143.098 70.2227H145.382C146.605 70.2227 147.316 70.8037 147.316 71.8086C147.316 72.8545 146.557 73.3877 145.067 73.3877H143.098V70.2227ZM143.098 77.9131V74.4473H145.416C146.988 74.4473 147.795 75.0283 147.795 76.1699C147.795 77.3115 147.015 77.9131 145.532 77.9131H143.098Z" fill="#202326"/>
<rect x="9" y="9" width="18" height="18" rx="4" fill="#FFD500"/>
<path d="M9 18C9 13.0294 13.0294 9 18 9V9C22.9706 9 27 13.0294 27 18V18C27 22.9706 22.9706 27 18 27V27C13.0294 27 9 22.9706 9 18V18Z" fill="#FFD500"/>
<g clip-path="url(#clip0)">
<path d="M15.3533 14.4C13.3364 14.4 11.7012 16.0102 11.7 17.9976C11.7012 16.541 12.9004 15.3604 14.3786 15.3604C15.8581 15.3604 17.0573 16.5422 17.0573 18C17.0573 18.9283 16.2941 19.6792 15.3533 19.6792C14.4414 19.6792 13.6963 18.9735 13.6504 18.0869C13.6975 19.5043 14.8774 20.6396 16.3279 20.6396C17.8061 20.6396 19.0042 19.4603 19.0066 18.0048C19.0066 18.0024 19.0066 18.0012 19.0066 18C19.0066 16.0114 17.3713 14.4 15.3533 14.4Z" fill="white"/>
<path d="M15.3533 21.6001C17.3701 21.6001 19.0054 19.9899 19.0066 18.0025C19.0054 19.4591 17.8061 20.6397 16.3279 20.6397C14.8484 20.6397 13.6492 19.4579 13.6492 18.0001C13.6492 17.0718 14.4125 16.3197 15.3533 16.3197C16.2651 16.3197 17.0102 17.0254 17.0561 17.9132C17.009 16.4958 15.8291 15.3605 14.3786 15.3605C12.9016 15.3605 11.7036 16.5398 11.7 17.9953C11.7 17.9977 11.7 17.9989 11.7 18.0001C11.7 19.9887 13.3364 21.6001 15.3533 21.6001Z" fill="white"/>
<path d="M21.9569 17.9976H19.5077L21.8506 14.8058H24.2999L21.9569 17.9976Z" fill="white"/>
<path d="M24.2999 21.1894H21.8506L19.5077 17.9976H21.9569L24.2999 21.1894Z" fill="white"/>
</g>
<defs>
<filter id="filter0_bi" x="-33.2019" y="-33.2019" width="450.404" height="164.404" filterUnits="userSpaceOnUse" color-interpolation-filters="sRGB">
<feFlood flood-opacity="0" result="BackgroundImageFix"/>
<feGaussianBlur in="BackgroundImage" stdDeviation="16.601"/>
<feComposite in2="SourceAlpha" operator="in" result="effect1_backgroundBlur"/>
<feBlend mode="normal" in="SourceGraphic" in2="effect1_backgroundBlur" result="shape"/>
<feColorMatrix in="SourceAlpha" type="matrix" values="0 0 0 0 0 0 0 0 0 0 0 0 0 0 0 0 0 0 127 0" result="hardAlpha"/>
<feMorphology radius="1" operator="erode" in="SourceAlpha" result="effect2_innerShadow"/>
<feOffset/>
<feComposite in2="hardAlpha" operator="arithmetic" k2="-1" k3="1"/>
<feColorMatrix type="matrix" values="0 0 0 0 1 0 0 0 0 1 0 0 0 0 1 0 0 0 0.15 0"/>
<feBlend mode="normal" in2="shape" result="effect2_innerShadow"/>
</filter>
<clipPath id="clip0">
<rect width="12.6" height="7.2" fill="white" transform="translate(11.7 14.4)"/>
</clipPath>
</defs>
</svg>
