<svg width="384" height="98" viewBox="0 0 384 98" fill="none" xmlns="http://www.w3.org/2000/svg">
<g filter="url(#filter0_bi)">
<rect width="384" height="98" rx="10" fill="#FAFAFB"/>
</g>
<path d="M37.0845 13.6245C34.4946 13.6245 32.876 15.4717 32.876 18.417C32.876 21.3496 34.4565 23.2158 37.0845 23.2158C39.6997 23.2158 41.2739 21.3433 41.2739 18.417C41.2739 15.478 39.687 13.6245 37.0845 13.6245ZM37.0845 14.6782C38.957 14.6782 40.0996 16.1255 40.0996 18.417C40.0996 20.6895 38.9634 22.1621 37.0845 22.1621C35.1802 22.1621 34.0503 20.6895 34.0503 18.417C34.0503 16.1255 35.2183 14.6782 37.0845 14.6782ZM49.5748 20.2515C49.5748 18.6265 48.3497 17.4902 46.6295 17.4902H44.4523V14.8687H48.6608V13.8403H43.3097V23H46.6422C48.3624 23 49.5748 21.8701 49.5748 20.2515ZM44.4523 21.9717V18.5186H46.3439C47.6515 18.5186 48.4005 19.1406 48.4005 20.2515C48.4005 21.356 47.6578 21.9717 46.3439 21.9717H44.4523ZM51.4963 13.8403V23H52.6389V19.731H54.9431C56.6633 19.731 57.8884 18.5186 57.8884 16.8047C57.8884 15.0591 56.6887 13.8403 54.9558 13.8403H51.4963ZM52.6389 14.856H54.6575C55.9841 14.856 56.7141 15.5479 56.7141 16.8047C56.7141 18.0171 55.9587 18.7153 54.6575 18.7153H52.6389V14.856ZM60.9525 17.8647V13.8403H59.8099V23H60.9525V18.7788H61.2191L65.3578 23H66.8685L62.203 18.252L66.5004 13.8403H65.0658L61.2191 17.8647H60.9525ZM74.2808 23H75.4805L72.1035 13.8403H70.9736L67.5967 23H68.7964L69.7168 20.3784H73.3604L74.2808 23ZM71.4878 15.3193H71.5894L73.0239 19.4072H70.0532L71.4878 15.3193ZM77.1354 13.8403V23H78.278V19.731H80.5822C82.3024 19.731 83.5275 18.5186 83.5275 16.8047C83.5275 15.0591 82.3278 13.8403 80.5949 13.8403H77.1354ZM78.278 14.856H80.2965C81.6232 14.856 82.3532 15.5479 82.3532 16.8047C82.3532 18.0171 81.5978 18.7153 80.2965 18.7153H78.278V14.856ZM88.845 23V14.8687H91.7966V13.8403H84.7508V14.8687H87.7024V23H88.845ZM98.6122 23H99.8119L96.435 13.8403H95.3051L91.9281 23H93.1278L94.0482 20.3784H97.6918L98.6122 23ZM95.8192 15.3193H95.9208L97.3554 19.4072H94.3847L95.8192 15.3193Z" fill="#5C646D"/>
<path d="M343.254 22H344.309V13.5449H343.26L341.01 15.1621V16.2754L343.16 14.7168H343.254V22ZM349.623 22.1992C351.375 22.1992 352.576 21.0273 352.576 19.3105C352.576 17.6465 351.451 16.4805 349.846 16.4805C349.066 16.4805 348.469 16.7207 348.059 17.2012H347.965L348.205 14.4883H352.096V13.5449H347.379L346.916 18.3379H347.906C348.252 17.7344 348.885 17.3887 349.652 17.3887C350.76 17.3887 351.521 18.1797 351.521 19.3398C351.521 20.5 350.766 21.2734 349.635 21.2734C348.639 21.2734 347.912 20.6641 347.818 19.75H346.781C346.875 21.209 348.023 22.1992 349.623 22.1992ZM355.102 21.0332C355.523 21.0332 355.863 20.6875 355.863 20.2715C355.863 19.8496 355.523 19.5098 355.102 19.5098C354.686 19.5098 354.34 19.8496 354.34 20.2715C354.34 20.6875 354.686 21.0332 355.102 21.0332ZM355.102 16.5273C355.523 16.5273 355.863 16.1816 355.863 15.7656C355.863 15.3438 355.523 15.0039 355.102 15.0039C354.686 15.0039 354.34 15.3438 354.34 15.7656C354.34 16.1816 354.686 16.5273 355.102 16.5273ZM360.668 22.1992C362.566 22.1992 363.656 20.5938 363.656 17.7871C363.656 14.9863 362.549 13.3457 360.668 13.3457C358.775 13.3457 357.668 14.9805 357.668 17.7695C357.668 20.582 358.764 22.1992 360.668 22.1992ZM360.668 21.2793C359.42 21.2793 358.729 20.0312 358.729 17.7695C358.729 15.5371 359.432 14.2715 360.668 14.2715C361.904 14.2715 362.596 15.5254 362.596 17.7695C362.596 20.0371 361.916 21.2793 360.668 21.2793ZM368.227 22.1992C370.125 22.1992 371.215 20.5938 371.215 17.7871C371.215 14.9863 370.107 13.3457 368.227 13.3457C366.334 13.3457 365.227 14.9805 365.227 17.7695C365.227 20.582 366.322 22.1992 368.227 22.1992ZM368.227 21.2793C366.979 21.2793 366.287 20.0312 366.287 17.7695C366.287 15.5371 366.99 14.2715 368.227 14.2715C369.463 14.2715 370.154 15.5254 370.154 17.7695C370.154 20.0371 369.475 21.2793 368.227 21.2793Z" fill="#5C646D"/>
<path d="M20.7344 44V34.1357H12.2646V44H14.3359V35.9062H18.6768V44H20.7344ZM26.415 44.1641C28.7324 44.1641 30.127 42.6943 30.127 40.2266C30.127 37.7793 28.7119 36.2959 26.415 36.2959C24.1182 36.2959 22.7031 37.7861 22.7031 40.2266C22.7031 42.6943 24.0977 44.1641 26.415 44.1641ZM26.415 42.5371C25.3486 42.5371 24.7471 41.6963 24.7471 40.2266C24.7471 38.7773 25.3555 37.9229 26.415 37.9229C27.4678 37.9229 28.083 38.7773 28.083 40.2266C28.083 41.6895 27.4746 42.5371 26.415 42.5371ZM34.2354 40.876L36.5254 44H38.8975L35.8555 39.8984L38.7471 36.46H36.4844L34.208 39.3994H33.8799V36.46H31.8906V44H33.8799V40.876H34.2354ZM41.0166 46.7412C42.8965 46.7412 43.8193 46.0576 44.4619 44.1162L47.0596 36.46H44.9541L43.3682 42.1748H43.2451L41.6592 36.46H39.4648L42.1104 44.0479L42.042 44.3213C41.8779 44.8955 41.4541 45.1348 40.709 45.1348C40.627 45.1348 40.3262 45.1348 40.2578 45.1211V46.7207C40.3398 46.7344 40.9414 46.7412 41.0166 46.7412ZM53.4854 44H55.4746V36.46H48.584V44H50.5732V38.0254H53.4854V44ZM59.9521 40.876L62.2422 44H64.6143L61.5723 39.8984L64.4639 36.46H62.2012L59.9248 39.3994H59.5967V36.46H57.6074V44H59.5967V40.876H59.9521ZM68.5176 42.6191C67.8271 42.6191 67.3418 42.2773 67.3418 41.7168C67.3418 41.1768 67.7588 40.8691 68.6133 40.8076L70.1377 40.7119V41.2656C70.1377 42.0312 69.4404 42.6191 68.5176 42.6191ZM67.8613 44.1162C68.8389 44.1162 69.6592 43.7061 70.0488 43.0156H70.1719V44H72.0996V38.8525C72.0996 37.2393 70.9717 36.2959 68.9756 36.2959C67.082 36.2959 65.8037 37.1709 65.6738 38.5654H67.5059C67.6699 38.1143 68.1484 37.8682 68.8662 37.8682C69.6865 37.8682 70.1377 38.2236 70.1377 38.8525V39.4678L68.3125 39.5771C66.4395 39.6865 65.3936 40.4795 65.3936 41.8467C65.3936 43.2275 66.4121 44.1162 67.8613 44.1162ZM81.1436 44.1641C83.4609 44.1641 84.8555 42.6943 84.8555 40.2266C84.8555 37.7793 83.4404 36.2959 81.1436 36.2959C78.8467 36.2959 77.4316 37.7861 77.4316 40.2266C77.4316 42.6943 78.8262 44.1641 81.1436 44.1641ZM81.1436 42.5371C80.0771 42.5371 79.4756 41.6963 79.4756 40.2266C79.4756 38.7773 80.084 37.9229 81.1436 37.9229C82.1963 37.9229 82.8115 38.7773 82.8115 40.2266C82.8115 41.6895 82.2031 42.5371 81.1436 42.5371ZM90.0303 42.5371C88.9502 42.5371 88.3281 41.7578 88.3281 40.3701C88.3281 39.0439 88.957 38.2715 90.0303 38.2715C91.1035 38.2715 91.7324 39.0439 91.7324 40.3701C91.7324 41.7578 91.1035 42.5371 90.0303 42.5371ZM87.8223 38.1689C88.0273 36.5146 88.6357 35.6191 90.5088 35.5508L91.4248 35.5234C92.751 35.4824 93.2773 35.2021 93.2773 35.2021V33.5957C93.2705 33.6025 92.4639 33.8555 91.3018 33.8965L90.3379 33.9307C87.5557 34.0332 86.2842 35.7969 86.2842 39.666C86.2842 42.667 87.6787 44.1641 90.0645 44.1641C92.3477 44.1641 93.7764 42.7012 93.7764 40.3154C93.7764 38.0938 92.4297 36.7266 90.4678 36.7266C89.2236 36.7266 88.3965 37.2871 87.9453 38.1689H87.8223ZM98.835 37.8203C99.7646 37.8203 100.366 38.4424 100.407 39.4404H97.1943C97.2627 38.4629 97.9121 37.8203 98.835 37.8203ZM100.448 41.8535C100.236 42.3525 99.6963 42.6328 98.9102 42.6328C97.8711 42.6328 97.2148 41.9355 97.1875 40.8145V40.7119H102.362V40.1035C102.362 37.7109 101.05 36.2959 98.8281 36.2959C96.5859 36.2959 95.2051 37.8135 95.2051 40.2676C95.2051 42.7148 96.5586 44.1641 98.8555 44.1641C100.701 44.1641 102 43.2754 102.301 41.8535H100.448ZM108.925 42.4346H105.924V42.3115C106.238 41.833 106.402 41.1494 106.457 40.377L106.628 38.0186H108.925V42.4346ZM105.097 45.9482V44H110.224V45.9482H112.042V42.4346H110.907V36.46H104.939L104.693 40.2402C104.625 41.2588 104.413 42.127 103.859 42.4346H103.278V45.9482H105.097ZM116.15 42.6191C115.46 42.6191 114.975 42.2773 114.975 41.7168C114.975 41.1768 115.392 40.8691 116.246 40.8076L117.771 40.7119V41.2656C117.771 42.0312 117.073 42.6191 116.15 42.6191ZM115.494 44.1162C116.472 44.1162 117.292 43.7061 117.682 43.0156H117.805V44H119.732V38.8525C119.732 37.2393 118.604 36.2959 116.608 36.2959C114.715 36.2959 113.437 37.1709 113.307 38.5654H115.139C115.303 38.1143 115.781 37.8682 116.499 37.8682C117.319 37.8682 117.771 38.2236 117.771 38.8525V39.4678L115.945 39.5771C114.072 39.6865 113.026 40.4795 113.026 41.8467C113.026 43.2275 114.045 44.1162 115.494 44.1162ZM130.007 40.9512V39.085H125.516V40.9512H130.007ZM135.756 44.2529C138.326 44.2529 139.871 42.2705 139.871 38.9893C139.871 37.6426 139.591 36.5078 139.044 35.6602C138.36 34.5049 137.212 33.8828 135.79 33.8828C133.582 33.8828 132.017 35.3389 132.017 37.3896C132.017 39.2764 133.391 40.6572 135.264 40.6572C136.412 40.6572 137.328 40.1309 137.779 39.2012H137.793C137.793 39.2012 137.827 39.2012 137.841 39.2012C137.861 39.2012 137.902 39.2012 137.902 39.2012C137.943 41.252 137.123 42.5576 135.77 42.5576C134.997 42.5576 134.382 42.1475 134.19 41.498H132.146C132.427 43.1387 133.883 44.2529 135.756 44.2529ZM135.804 39.0645C134.771 39.0645 134.02 38.333 134.02 37.3213C134.02 36.3369 134.799 35.5713 135.811 35.5713C136.822 35.5713 137.595 36.3438 137.595 37.3418C137.595 38.333 136.836 39.0645 135.804 39.0645ZM145.456 44.2529C147.719 44.2529 149.229 42.8242 149.229 40.7324C149.229 38.7979 147.903 37.4238 146.03 37.4238C145.053 37.4238 144.355 37.7861 143.938 38.3877H143.815L144.034 35.8516H148.635V34.1357H142.435L141.942 39.8574H143.788C144.13 39.3037 144.711 38.9688 145.477 38.9688C146.522 38.9688 147.261 39.6934 147.261 40.7803C147.261 41.8535 146.529 42.5645 145.47 42.5645C144.533 42.5645 143.809 42.0176 143.692 41.1973H141.785C141.847 42.9609 143.31 44.2529 145.456 44.2529ZM151.779 46.6729L153.023 42.4004H151.075L150.446 46.6729H151.779ZM155.095 37.0889V37.123H157.009V37.082C157.009 36.1729 157.665 35.5439 158.622 35.5439C159.524 35.5439 160.167 36.1045 160.167 36.8975C160.167 37.54 159.818 38.0527 158.431 39.4062L155.211 42.5576V44H162.327V42.2842H158.007V42.1611L159.894 40.3633C161.603 38.7568 162.184 37.834 162.184 36.7607C162.184 35.0654 160.748 33.8828 158.69 33.8828C156.558 33.8828 155.095 35.1816 155.095 37.0889ZM167.946 44.2529C170.209 44.2529 171.72 42.8242 171.72 40.7324C171.72 38.7979 170.394 37.4238 168.521 37.4238C167.543 37.4238 166.846 37.7861 166.429 38.3877H166.306L166.524 35.8516H171.125V34.1357H164.925L164.433 39.8574H166.278C166.62 39.3037 167.201 38.9688 167.967 38.9688C169.013 38.9688 169.751 39.6934 169.751 40.7803C169.751 41.8535 169.02 42.5645 167.96 42.5645C167.023 42.5645 166.299 42.0176 166.183 41.1973H164.275C164.337 42.9609 165.8 44.2529 167.946 44.2529ZM175.78 35.8037H177.571C178.597 35.8037 179.239 36.3916 179.239 37.3281C179.239 38.2783 178.631 38.8389 177.592 38.8389H175.78V35.8037ZM175.78 40.4248H177.469L179.308 44H181.646L179.567 40.1035C180.702 39.6523 181.358 38.5586 181.358 37.3008C181.358 35.3389 180.025 34.1357 177.858 34.1357H173.716V44H175.78V40.4248ZM185.521 34.1357H183.457V40.5957C183.457 42.7832 185.063 44.2529 187.586 44.2529C190.115 44.2529 191.722 42.7832 191.722 40.5957V34.1357H189.657V40.3838C189.657 41.6279 188.912 42.4209 187.586 42.4209C186.267 42.4209 185.521 41.6279 185.521 40.3838V34.1357ZM198.558 44C200.663 44 201.969 42.9062 201.969 41.1768C201.969 39.9053 201.019 38.9209 199.713 38.8252V38.7021C200.725 38.5518 201.497 37.6426 201.497 36.5967C201.497 35.0723 200.355 34.1357 198.441 34.1357H194.128V44H198.558ZM196.192 35.7148H197.915C198.899 35.7148 199.467 36.1865 199.467 36.9727C199.467 37.7656 198.858 38.2236 197.744 38.2236H196.192V35.7148ZM196.192 42.4209V39.6182H197.983C199.2 39.6182 199.863 40.0967 199.863 40.999C199.863 41.9219 199.221 42.4209 198.031 42.4209H196.192Z" fill="#202326"/>
<path d="M20.0576 63V53.1357H12.3262V63H13.5635V54.2568H18.8408V63H20.0576ZM25.7947 63.1299C27.8934 63.1299 29.1922 61.6807 29.1922 59.3154C29.1922 56.9434 27.8934 55.501 25.7947 55.501C23.6961 55.501 22.3973 56.9434 22.3973 59.3154C22.3973 61.6807 23.6961 63.1299 25.7947 63.1299ZM25.7947 62.0703C24.4002 62.0703 23.6141 61.0586 23.6141 59.3154C23.6141 57.5654 24.4002 56.5605 25.7947 56.5605C27.1893 56.5605 27.9754 57.5654 27.9754 59.3154C27.9754 61.0586 27.1893 62.0703 25.7947 62.0703ZM32.8648 59.6436L35.818 63H37.3424L33.8355 59.1035L37.2125 55.6309H35.7838L32.8648 58.7139H32.5436V55.6309H31.3678V63H32.5436V59.6436H32.8648ZM39.5453 65.666C40.851 65.666 41.4389 65.1602 42.0678 63.4512L44.9457 55.6309H43.6947L41.6781 61.6943H41.5688L39.5453 55.6309H38.2738L41.0014 63.0068L40.8646 63.4443C40.557 64.333 40.1879 64.6543 39.5111 64.6543C39.3471 64.6543 39.1625 64.6475 39.0189 64.6201V65.625C39.183 65.6523 39.3881 65.666 39.5453 65.666ZM51.633 63H52.8088V55.6309H46.8479V63H48.0236V56.6152H51.633V63ZM56.8438 59.6436L59.7969 63H61.3213L57.8145 59.1035L61.1914 55.6309H59.7627L56.8438 58.7139H56.5225V55.6309H55.3467V63H56.5225V59.6436H56.8438ZM65.2332 62.0977C64.3787 62.0977 63.743 61.6602 63.743 60.9082C63.743 60.1699 64.2352 59.7803 65.3563 59.7051L67.3387 59.5752V60.252C67.3387 61.3047 66.4432 62.0977 65.2332 62.0977ZM65.0145 63.1299C65.9988 63.1299 66.8055 62.6992 67.284 61.9131H67.3934V63H68.5145V57.9551C68.5145 56.4238 67.5096 55.501 65.7117 55.501C64.1395 55.501 62.9773 56.2803 62.8201 57.4629H64.0096C64.1736 56.8818 64.7889 56.5469 65.6707 56.5469C66.7713 56.5469 67.3387 57.0459 67.3387 57.9551V58.625L65.2127 58.7549C63.4969 58.8574 62.5262 59.6162 62.5262 60.9355C62.5262 62.2822 63.5857 63.1299 65.0145 63.1299ZM76.6664 59.6436L79.6195 63H81.1439L77.6371 59.1035L81.0141 55.6309H79.5854L76.6664 58.7139H76.3451V55.6309H75.1693V63H76.3451V59.6436H76.6664ZM85.6779 63.1299C87.7766 63.1299 89.0754 61.6807 89.0754 59.3154C89.0754 56.9434 87.7766 55.501 85.6779 55.501C83.5793 55.501 82.2805 56.9434 82.2805 59.3154C82.2805 61.6807 83.5793 63.1299 85.6779 63.1299ZM85.6779 62.0703C84.2834 62.0703 83.4973 61.0586 83.4973 59.3154C83.4973 57.5654 84.2834 56.5605 85.6779 56.5605C87.0725 56.5605 87.8586 57.5654 87.8586 59.3154C87.8586 61.0586 87.0725 62.0703 85.6779 62.0703ZM92.4268 63V57.7568H92.5566L94.8877 62.7949H95.8037L98.1348 57.7568H98.2646V63H99.4473V55.6309H98.0732L95.4277 61.3457H95.3184L92.6797 55.6309H91.251V63H92.4268ZM106.777 63H107.953V55.6309H101.992V63H103.168V56.6152H106.777V63ZM112.261 59.7666L112.494 56.6152H115.071V63H116.247V55.6309H111.427L111.14 59.7393C111.045 61.1064 110.764 61.9609 110.033 61.9609C109.862 61.9609 109.725 61.9268 109.664 61.9062V62.9863C109.746 63.0205 109.882 63.0615 110.094 63.0615C111.626 63.0615 112.111 61.79 112.261 59.7666ZM121.731 56.54C122.9 56.54 123.679 57.4014 123.706 58.707H119.646C119.735 57.4014 120.555 56.54 121.731 56.54ZM123.672 61.0928C123.365 61.7422 122.722 62.0908 121.772 62.0908C120.521 62.0908 119.707 61.168 119.646 59.7119V59.6572H124.944V59.2061C124.944 56.916 123.734 55.501 121.745 55.501C119.721 55.501 118.422 57.0049 118.422 59.3223C118.422 61.6533 119.701 63.1299 121.745 63.1299C123.358 63.1299 124.493 62.3574 124.848 61.0928H123.672ZM128.616 59.6436L131.57 63H133.094L129.587 59.1035L132.964 55.6309H131.535L128.616 58.7139H128.295V55.6309H127.119V63H128.295V59.6436H128.616ZM140.697 57.8867C140.492 56.5742 139.398 55.501 137.607 55.501C135.543 55.501 134.23 56.9912 134.23 59.2881C134.23 61.6328 135.55 63.1299 137.614 63.1299C139.385 63.1299 140.485 62.1318 140.697 60.7783H139.508C139.289 61.6123 138.599 62.0703 137.607 62.0703C136.295 62.0703 135.447 60.9902 135.447 59.2881C135.447 57.6201 136.281 56.5605 137.607 56.5605C138.667 56.5605 139.316 57.1553 139.508 57.8867H140.697ZM147.617 63H148.793V55.6309H147.617V58.6797H143.939V55.6309H142.763V63H143.939V59.6641H147.617V63ZM154.366 63.1299C156.464 63.1299 157.763 61.6807 157.763 59.3154C157.763 56.9434 156.464 55.501 154.366 55.501C152.267 55.501 150.968 56.9434 150.968 59.3154C150.968 61.6807 152.267 63.1299 154.366 63.1299ZM154.366 62.0703C152.971 62.0703 152.185 61.0586 152.185 59.3154C152.185 57.5654 152.971 56.5605 154.366 56.5605C155.76 56.5605 156.546 57.5654 156.546 59.3154C156.546 61.0586 155.76 62.0703 154.366 62.0703ZM164.656 56.6152V55.6309H159.939V63H161.115V56.6152H164.656ZM169.477 63.1299C171.575 63.1299 172.874 61.6807 172.874 59.3154C172.874 56.9434 171.575 55.501 169.477 55.501C167.378 55.501 166.079 56.9434 166.079 59.3154C166.079 61.6807 167.378 63.1299 169.477 63.1299ZM169.477 62.0703C168.082 62.0703 167.296 61.0586 167.296 59.3154C167.296 57.5654 168.082 56.5605 169.477 56.5605C170.871 56.5605 171.657 57.5654 171.657 59.3154C171.657 61.0586 170.871 62.0703 169.477 62.0703ZM182.236 63.1299C184.335 63.1299 185.634 61.6807 185.634 59.3154C185.634 56.9434 184.335 55.501 182.236 55.501C180.137 55.501 178.839 56.9434 178.839 59.3154C178.839 61.6807 180.137 63.1299 182.236 63.1299ZM182.236 62.0703C180.842 62.0703 180.055 61.0586 180.055 59.3154C180.055 57.5654 180.842 56.5605 182.236 56.5605C183.631 56.5605 184.417 57.5654 184.417 59.3154C184.417 61.0586 183.631 62.0703 182.236 62.0703ZM190.879 62.0703C189.463 62.0703 188.664 61.0859 188.664 59.3838C188.664 57.7637 189.463 56.834 190.879 56.834C192.294 56.834 193.093 57.7637 193.093 59.3838C193.093 61.0859 192.294 62.0703 190.879 62.0703ZM188.452 57.1416C188.677 55.3232 189.245 54.2773 191.207 54.1885L191.959 54.1543C193.408 54.0928 193.825 53.7168 193.825 53.7168V52.6641C193.818 52.6709 193.059 53.0059 191.904 53.0605L191.166 53.0947C188.233 53.2246 187.447 55.2891 187.447 58.6797C187.447 61.7012 188.698 63.1299 190.879 63.1299C192.998 63.1299 194.31 61.708 194.31 59.3838C194.31 57.1348 192.998 55.7812 191.056 55.7812C189.819 55.7812 189.005 56.3623 188.561 57.1416H188.452ZM199.432 56.54C200.601 56.54 201.38 57.4014 201.408 58.707H197.347C197.436 57.4014 198.256 56.54 199.432 56.54ZM201.373 61.0928C201.066 61.7422 200.423 62.0908 199.473 62.0908C198.222 62.0908 197.409 61.168 197.347 59.7119V59.6572H202.645V59.2061C202.645 56.916 201.435 55.501 199.446 55.501C197.422 55.501 196.123 57.0049 196.123 59.3223C196.123 61.6533 197.402 63.1299 199.446 63.1299C201.059 63.1299 202.194 62.3574 202.549 61.0928H201.373ZM209.442 62.0156H205.805V61.9062C206.154 61.4482 206.345 60.6621 206.413 59.7666L206.646 56.6152H209.442V62.0156ZM204.923 64.9482V63H210.686V64.9482H211.793V62.0156H210.617V55.6309H205.593L205.306 59.7393C205.238 60.7305 204.971 61.6602 204.431 62.0156H203.816V64.9482H204.923ZM215.814 62.0977C214.96 62.0977 214.324 61.6602 214.324 60.9082C214.324 60.1699 214.816 59.7803 215.938 59.7051L217.92 59.5752V60.252C217.92 61.3047 217.024 62.0977 215.814 62.0977ZM215.596 63.1299C216.58 63.1299 217.387 62.6992 217.865 61.9131H217.975V63H219.096V57.9551C219.096 56.4238 218.091 55.501 216.293 55.501C214.721 55.501 213.559 56.2803 213.401 57.4629H214.591C214.755 56.8818 215.37 56.5469 216.252 56.5469C217.353 56.5469 217.92 57.0459 217.92 57.9551V58.625L215.794 58.7549C214.078 58.8574 213.107 59.6162 213.107 60.9355C213.107 62.2822 214.167 63.1299 215.596 63.1299ZM227.801 59.3701L228.123 54.2432H231.896V61.8926H227.111V61.8105C227.596 61.2295 227.733 60.4844 227.801 59.3701ZM225.997 63H233.215V64.9482H234.357V61.8926H233.127V53.1357H227.022L226.646 59.3428C226.571 60.6348 226.304 61.5098 225.587 61.8926H224.855V64.9482H225.997V63ZM239.151 56.54C240.32 56.54 241.099 57.4014 241.126 58.707H237.066C237.155 57.4014 237.975 56.54 239.151 56.54ZM241.092 61.0928C240.785 61.7422 240.142 62.0908 239.192 62.0908C237.941 62.0908 237.127 61.168 237.066 59.7119V59.6572H242.364V59.2061C242.364 56.916 241.154 55.501 239.164 55.501C237.141 55.501 235.842 57.0049 235.842 59.3223C235.842 61.6533 237.121 63.1299 239.164 63.1299C240.778 63.1299 241.913 62.3574 242.268 61.0928H241.092ZM249.393 63H250.569V55.6309H249.393V58.6797H245.715V55.6309H244.539V63H245.715V59.6641H249.393V63ZM254.282 63L257.953 57.5039H258.062V63H259.238V55.6309H258.062L254.392 61.127H254.282V55.6309H253.106V63H254.282ZM267.887 57.8867C267.682 56.5742 266.589 55.501 264.798 55.501C262.733 55.501 261.421 56.9912 261.421 59.2881C261.421 61.6328 262.74 63.1299 264.804 63.1299C266.575 63.1299 267.676 62.1318 267.887 60.7783H266.698C266.479 61.6123 265.789 62.0703 264.798 62.0703C263.485 62.0703 262.637 60.9902 262.637 59.2881C262.637 57.6201 263.471 56.5605 264.798 56.5605C265.857 56.5605 266.507 57.1553 266.698 57.8867H267.887ZM280.92 63H282.137V53.1357H280.92L275.588 61.0107H275.479V53.1357H274.262V63H275.479L280.811 55.1523H280.92V63ZM285.741 63.0684C286.234 63.0684 286.63 62.665 286.63 62.1797C286.63 61.6875 286.234 61.291 285.741 61.291C285.256 61.291 284.853 61.6875 284.853 62.1797C284.853 62.665 285.256 63.0684 285.741 63.0684ZM293.681 63H294.973L299.362 54.2773V53.1357H292.834V54.2363H298.111V54.332L293.681 63ZM300.724 63.0684C301.216 63.0684 301.613 62.665 301.613 62.1797C301.613 61.6875 301.216 61.291 300.724 61.291C300.239 61.291 299.836 61.6875 299.836 62.1797C299.836 62.665 300.239 63.0684 300.724 63.0684ZM306.871 63.2324C309.086 63.2324 310.358 61.3594 310.358 58.085C310.358 54.8174 309.066 52.9033 306.871 52.9033C304.663 52.9033 303.371 54.8105 303.371 58.0645C303.371 61.3457 304.65 63.2324 306.871 63.2324ZM306.871 62.1592C305.415 62.1592 304.609 60.7031 304.609 58.0645C304.609 55.46 305.429 53.9834 306.871 53.9834C308.314 53.9834 309.121 55.4463 309.121 58.0645C309.121 60.71 308.328 62.1592 306.871 62.1592ZM317.079 63H318.282V60.9561H319.684V59.8555H318.282V53.1357H316.498C314.721 55.7949 313.155 58.2695 312.274 59.835V60.9561H317.079V63ZM313.531 59.7803C314.707 57.7842 315.992 55.7471 317.004 54.2773H317.086V59.8623H313.531V59.7803ZM322.283 63.0684C322.775 63.0684 323.172 62.665 323.172 62.1797C323.172 61.6875 322.775 61.291 322.283 61.291C321.798 61.291 321.395 61.6875 321.395 62.1797C321.395 62.665 321.798 63.0684 322.283 63.0684ZM325.327 55.9111V55.918H326.516V55.9111C326.516 54.749 327.296 53.9766 328.451 53.9766C329.538 53.9766 330.379 54.7354 330.379 55.7197C330.379 56.5127 330.071 57.0459 328.8 58.4268L325.388 62.1523V63H331.773V61.8926H327.152V61.7832L329.524 59.2334C331.144 57.4971 331.609 56.6973 331.609 55.6719C331.609 54.1064 330.256 52.9033 328.485 52.9033C326.653 52.9033 325.327 54.1611 325.327 55.9111ZM337.367 63.2324C339.582 63.2324 340.853 61.3594 340.853 58.085C340.853 54.8174 339.561 52.9033 337.367 52.9033C335.159 52.9033 333.867 54.8105 333.867 58.0645C333.867 61.3457 335.145 63.2324 337.367 63.2324ZM337.367 62.1592C335.911 62.1592 335.104 60.7031 335.104 58.0645C335.104 55.46 335.924 53.9834 337.367 53.9834C338.809 53.9834 339.616 55.4463 339.616 58.0645C339.616 60.71 338.823 62.1592 337.367 62.1592ZM343.008 55.9111V55.918H344.198V55.9111C344.198 54.749 344.977 53.9766 346.132 53.9766C347.219 53.9766 348.06 54.7354 348.06 55.7197C348.06 56.5127 347.752 57.0459 346.481 58.4268L343.07 62.1523V63H349.454V61.8926H344.833V61.7832L347.205 59.2334C348.826 57.4971 349.29 56.6973 349.29 55.6719C349.29 54.1064 347.937 52.9033 346.166 52.9033C344.334 52.9033 343.008 54.1611 343.008 55.9111ZM354.091 63H355.321V53.1357H354.098L351.473 55.0225V56.3213L353.982 54.5029H354.091V63ZM14.459 79H15.6895V69.1357H14.4658L11.8408 71.0225V72.3213L14.3496 70.5029H14.459V79ZM22.0896 79.2324C24.1336 79.2324 25.535 77.8652 25.535 75.8623C25.535 73.9209 24.2225 72.5605 22.3494 72.5605C21.4402 72.5605 20.743 72.8408 20.2645 73.4014H20.1551L20.4354 70.2363H24.9744V69.1357H19.4715L18.9314 74.7275H20.0867C20.49 74.0234 21.2283 73.6201 22.1238 73.6201C23.4158 73.6201 24.3045 74.543 24.3045 75.8965C24.3045 77.25 23.4227 78.1523 22.1033 78.1523C20.9412 78.1523 20.0936 77.4414 19.9842 76.375H18.7742C18.8836 78.0771 20.2234 79.2324 22.0896 79.2324ZM28.6812 77.8721C29.1734 77.8721 29.5699 77.4688 29.5699 76.9834C29.5699 76.4912 29.1734 76.0947 28.6812 76.0947C28.1959 76.0947 27.7926 76.4912 27.7926 76.9834C27.7926 77.4688 28.1959 77.8721 28.6812 77.8721ZM28.6812 72.6152C29.1734 72.6152 29.5699 72.2119 29.5699 71.7266C29.5699 71.2344 29.1734 70.8379 28.6812 70.8379C28.1959 70.8379 27.7926 71.2344 27.7926 71.7266C27.7926 72.2119 28.1959 72.6152 28.6812 72.6152ZM35.3754 79.2324C37.5902 79.2324 38.8617 77.3594 38.8617 74.085C38.8617 70.8174 37.5697 68.9033 35.3754 68.9033C33.1674 68.9033 31.8754 70.8105 31.8754 74.0645C31.8754 77.3457 33.1537 79.2324 35.3754 79.2324ZM35.3754 78.1592C33.9193 78.1592 33.1127 76.7031 33.1127 74.0645C33.1127 71.46 33.933 69.9834 35.3754 69.9834C36.8178 69.9834 37.6244 71.4463 37.6244 74.0645C37.6244 76.71 36.8314 78.1592 35.3754 78.1592ZM44.3937 79.2324C46.6086 79.2324 47.8801 77.3594 47.8801 74.085C47.8801 70.8174 46.5881 68.9033 44.3937 68.9033C42.1857 68.9033 40.8937 70.8105 40.8937 74.0645C40.8937 77.3457 42.1721 79.2324 44.3937 79.2324ZM44.3937 78.1592C42.9377 78.1592 42.1311 76.7031 42.1311 74.0645C42.1311 71.46 42.9514 69.9834 44.3937 69.9834C45.8361 69.9834 46.6428 71.4463 46.6428 74.0645C46.6428 76.71 45.8498 78.1592 44.3937 78.1592ZM50.5273 79.0684C51.0195 79.0684 51.416 78.665 51.416 78.1797C51.416 77.6875 51.0195 77.291 50.5273 77.291C50.042 77.291 49.6387 77.6875 49.6387 78.1797C49.6387 78.665 50.042 79.0684 50.5273 79.0684ZM60.1764 75.3701L60.4977 70.2432H64.2711V77.8926H59.4859V77.8105C59.9713 77.2295 60.108 76.4844 60.1764 75.3701ZM58.3717 79H65.5904V80.9482H66.732V77.8926H65.5016V69.1357H59.3971L59.0211 75.3428C58.9459 76.6348 58.6793 77.5098 57.9615 77.8926H57.2301V80.9482H58.3717V79ZM71.6146 79.1299C73.7133 79.1299 75.0121 77.6807 75.0121 75.3154C75.0121 72.9434 73.7133 71.501 71.6146 71.501C69.516 71.501 68.2172 72.9434 68.2172 75.3154C68.2172 77.6807 69.516 79.1299 71.6146 79.1299ZM71.6146 78.0703C70.2201 78.0703 69.434 77.0586 69.434 75.3154C69.434 73.5654 70.2201 72.5605 71.6146 72.5605C73.0092 72.5605 73.7953 73.5654 73.7953 75.3154C73.7953 77.0586 73.0092 78.0703 71.6146 78.0703ZM83.2922 73.8867C83.0871 72.5742 81.9934 71.501 80.2023 71.501C78.1379 71.501 76.8254 72.9912 76.8254 75.2881C76.8254 77.6328 78.1447 79.1299 80.2092 79.1299C81.9797 79.1299 83.0803 78.1318 83.2922 76.7783H82.1027C81.884 77.6123 81.1936 78.0703 80.2023 78.0703C78.8898 78.0703 78.0422 76.9902 78.0422 75.2881C78.0422 73.6201 78.8762 72.5605 80.2023 72.5605C81.2619 72.5605 81.9113 73.1553 82.1027 73.8867H83.2922ZM90.3555 71.6309H84.3945V72.6152H86.7871V79H87.9629V72.6152H90.3555V71.6309ZM92.907 81.666C94.2127 81.666 94.8006 81.1602 95.4295 79.4512L98.3074 71.6309H97.0564L95.0398 77.6943H94.9305L92.907 71.6309H91.6355L94.3631 79.0068L94.2264 79.4443C93.9187 80.333 93.5496 80.6543 92.8728 80.6543C92.7088 80.6543 92.5242 80.6475 92.3807 80.6201V81.625C92.5447 81.6523 92.7498 81.666 92.907 81.666ZM104.995 79H106.171V71.6309H100.21V79H101.385V72.6152H104.995V79ZM113.562 79H114.738V71.6309H113.562V74.6797H109.884V71.6309H108.708V79H109.884V75.6641H113.562V79ZM120.311 79.1299C122.409 79.1299 123.708 77.6807 123.708 75.3154C123.708 72.9434 122.409 71.501 120.311 71.501C118.212 71.501 116.913 72.9434 116.913 75.3154C116.913 77.6807 118.212 79.1299 120.311 79.1299ZM120.311 78.0703C118.916 78.0703 118.13 77.0586 118.13 75.3154C118.13 73.5654 118.916 72.5605 120.311 72.5605C121.705 72.5605 122.491 73.5654 122.491 75.3154C122.491 77.0586 121.705 78.0703 120.311 78.0703ZM131.983 74.4541H133.234C134.636 74.4541 135.504 75.165 135.504 76.3066C135.504 77.3867 134.581 78.1592 133.282 78.1592C132.011 78.1592 131.122 77.4824 131.012 76.4297H129.823C129.912 78.1182 131.293 79.2324 133.296 79.2324C135.244 79.2324 136.768 77.9678 136.768 76.3408C136.768 74.9941 135.955 74.0645 134.615 73.8936V73.7842C135.695 73.5244 136.345 72.6631 136.345 71.4873C136.345 70.0518 134.971 68.9033 133.248 68.9033C131.368 68.9033 130.144 69.9561 130.021 71.665H131.218C131.32 70.6055 132.065 69.9766 133.2 69.9766C134.335 69.9766 135.094 70.6465 135.094 71.6514C135.094 72.6768 134.301 73.4014 133.179 73.4014H131.983V74.4541ZM143.449 79H144.652V76.9561H146.053V75.8555H144.652V69.1357H142.868C141.09 71.7949 139.525 74.2695 138.643 75.835V76.9561H143.449V79ZM139.901 75.7803C141.077 73.7842 142.362 71.7471 143.374 70.2773H143.456V75.8623H139.901V75.7803ZM151.408 79.2324C153.452 79.2324 154.853 77.8652 154.853 75.8623C154.853 73.9209 153.54 72.5605 151.667 72.5605C150.758 72.5605 150.061 72.8408 149.582 73.4014H149.473L149.753 70.2363H154.292V69.1357H148.789L148.249 74.7275H149.405C149.808 74.0234 150.546 73.6201 151.442 73.6201C152.734 73.6201 153.622 74.543 153.622 75.8965C153.622 77.25 152.741 78.1523 151.421 78.1523C150.259 78.1523 149.412 77.4414 149.302 76.375H148.092C148.202 78.0771 149.541 79.2324 151.408 79.2324ZM160.508 79.2256C162.531 79.2256 163.967 77.8105 163.967 75.8281C163.967 73.9141 162.607 72.5264 160.727 72.5264C159.551 72.5264 158.587 73.0869 158.102 74.0439H157.992C158.061 71.4189 158.97 69.9971 160.576 69.9971C161.547 69.9971 162.292 70.5576 162.559 71.4805H163.823C163.509 69.8945 162.265 68.9033 160.59 68.9033C158.177 68.9033 156.796 70.8447 156.796 74.2354C156.796 75.3223 156.953 76.2314 157.275 76.9834C157.89 78.4326 159.025 79.2256 160.508 79.2256ZM160.494 78.1455C159.23 78.1455 158.266 77.1475 158.266 75.8281C158.266 74.5225 159.202 73.5928 160.508 73.5928C161.814 73.5928 162.723 74.5225 162.723 75.8691C162.723 77.1611 161.759 78.1455 160.494 78.1455ZM171.688 70.2295H174.06C175.332 70.2295 176.097 70.9336 176.097 72.1162C176.097 73.3262 175.38 74.0029 174.115 74.0029H171.688V70.2295ZM171.688 75.0967H174.115L176.227 79H177.67L175.387 74.9053C176.624 74.5156 177.369 73.4492 177.369 72.0752C177.369 70.2979 176.125 69.1357 174.224 69.1357H170.458V79H171.688V75.0967ZM181.069 69.1357H179.838V75.6094C179.838 77.7148 181.308 79.2324 183.755 79.2324C186.203 79.2324 187.672 77.7148 187.672 75.6094V69.1357H186.442V75.5273C186.442 77.0176 185.464 78.0977 183.755 78.0977C182.046 78.0977 181.069 77.0176 181.069 75.5273V69.1357ZM194.271 79C196.37 79 197.614 77.9678 197.614 76.2314C197.614 74.9258 196.759 74.0029 195.413 73.832V73.7227C196.363 73.5518 197.115 72.6221 197.115 71.5967C197.115 70.0859 196.007 69.1357 194.196 69.1357H190.422V79H194.271ZM191.653 70.2227H193.936C195.16 70.2227 195.871 70.8037 195.871 71.8086C195.871 72.8545 195.112 73.3877 193.621 73.3877H191.653V70.2227ZM191.653 77.9131V74.4473H193.97C195.542 74.4473 196.349 75.0283 196.349 76.1699C196.349 77.3115 195.57 77.9131 194.086 77.9131H191.653Z" fill="#202326"/>
<rect x="9" y="9" width="18" height="18" rx="4" fill="#FFD500"/>
<path d="M9 18C9 13.0294 13.0294 9 18 9V9C22.9706 9 27 13.0294 27 18V18C27 22.9706 22.9706 27 18 27V27C13.0294 27 9 22.9706 9 18V18Z" fill="#FFD500"/>
<g clip-path="url(#clip0)">
<path d="M15.3533 14.3999C13.3364 14.3999 11.7012 16.0101 11.7 17.9975C11.7012 16.5409 12.9004 15.3603 14.3786 15.3603C15.8581 15.3603 17.0573 16.5421 17.0573 17.9999C17.0573 18.9282 16.2941 19.6791 15.3533 19.6791C14.4414 19.6791 13.6963 18.9734 13.6504 18.0868C13.6975 19.5042 14.8774 20.6395 16.3279 20.6395C17.8061 20.6395 19.0042 19.4601 19.0066 18.0047C19.0066 18.0023 19.0066 18.0011 19.0066 17.9999C19.0066 16.0113 17.3713 14.3999 15.3533 14.3999Z" fill="white"/>
<path d="M15.3533 21.6C17.3701 21.6 19.0054 19.9898 19.0066 18.0023C19.0054 19.459 17.8061 20.6396 16.3279 20.6396C14.8484 20.6396 13.6492 19.4578 13.6492 18C13.6492 17.0717 14.4125 16.3196 15.3533 16.3196C16.2651 16.3196 17.0102 17.0253 17.0561 17.9131C17.009 16.4957 15.8291 15.3604 14.3786 15.3604C12.9016 15.3604 11.7036 16.5397 11.7 17.9952C11.7 17.9976 11.7 17.9988 11.7 18C11.7 19.9886 13.3364 21.6 15.3533 21.6Z" fill="white"/>
<path d="M21.9569 17.9975H19.5077L21.8506 14.8057H24.2999L21.9569 17.9975Z" fill="white"/>
<path d="M24.2999 21.1894H21.8506L19.5077 17.9976H21.9569L24.2999 21.1894Z" fill="white"/>
</g>
<defs>
<filter id="filter0_bi" x="-33.2019" y="-33.2019" width="450.404" height="164.404" filterUnits="userSpaceOnUse" color-interpolation-filters="sRGB">
<feFlood flood-opacity="0" result="BackgroundImageFix"/>
<feGaussianBlur in="BackgroundImage" stdDeviation="16.601"/>
<feComposite in2="SourceAlpha" operator="in" result="effect1_backgroundBlur"/>
<feBlend mode="normal" in="SourceGraphic" in2="effect1_backgroundBlur" result="shape"/>
<feColorMatrix in="SourceAlpha" type="matrix" values="0 0 0 0 0 0 0 0 0 0 0 0 0 0 0 0 0 0 127 0" result="hardAlpha"/>
<feMorphology radius="1" operator="erode" in="SourceAlpha" result="effect2_innerShadow"/>
<feOffset/>
<feComposite in2="hardAlpha" operator="arithmetic" k2="-1" k3="1"/>
<feColorMatrix type="matrix" values="0 0 0 0 1 0 0 0 0 1 0 0 0 0 1 0 0 0 0.15 0"/>
<feBlend mode="normal" in2="shape" result="effect2_innerShadow"/>
</filter>
<clipPath id="clip0">
<rect width="12.6" height="7.2" fill="white" transform="translate(11.7 14.3999)"/>
</clipPath>
</defs>
</svg>
