<svg width="175" height="33" viewBox="0 0 175 33" fill="none" xmlns="http://www.w3.org/2000/svg">
<path fill-rule="evenodd" clip-rule="evenodd" d="M127.347 12.2912L135.029 10.9536L135.039 10.955C138.688 10.2575 142.323 12.2187 143.629 15.5902C145.064 18.9192 143.79 22.764 140.623 24.6638L129.347 31.7331C128.051 32.5551 126.537 32.9952 124.989 33C123.644 32.9962 122.322 32.6659 121.143 32.0394C118.54 30.6958 116.923 28.0633 116.947 25.2072V7.79322C116.957 6.6039 116.284 5.50758 115.2 4.94749C114.126 4.37118 112.81 4.42031 111.784 5.07502L83.4251 22.8646C82.149 23.6007 81.6384 25.1413 82.2339 26.4589C82.7277 27.8149 84.1876 28.6025 85.6385 28.2955L110.407 23.9846C111.681 23.7636 112.898 24.5839 113.127 25.8171C113.355 27.0503 112.508 28.2293 111.234 28.4507L86.466 32.7616C82.8169 33.4597 79.182 31.4983 77.8758 28.1264C76.4467 24.7996 77.7163 20.9602 80.8752 19.0555L109.236 1.26732C111.698 -0.305321 114.859 -0.42283 117.439 0.962369C120.043 2.30577 121.66 4.93841 121.636 7.79461V25.203C121.624 26.3923 122.298 27.4889 123.382 28.0474C124.457 28.6234 125.773 28.5742 126.798 27.9198L138.074 20.8506C139.349 20.1141 139.859 18.5741 139.263 17.2577C138.769 15.9009 137.308 15.1127 135.857 15.4197L128.174 16.7573C126.9 16.9783 125.683 16.158 125.454 14.9249C125.226 13.6916 126.073 12.5127 127.347 12.2912ZM165.322 10.9464C168.905 10.2468 172.474 12.2094 173.755 15.5834V15.582C175.162 18.9102 173.917 22.7538 170.815 24.6606L159.744 31.7326C158.473 32.5549 156.986 32.9952 155.466 33C154.146 32.9963 152.847 32.6659 151.69 32.039C149.131 30.6969 147.54 28.0631 147.562 25.2041V2.26998C147.562 1.01631 148.592 2.34102e-06 149.862 2.34102e-06C150.473 -0.000733601 151.059 0.238055 151.492 0.663799C151.924 1.08954 152.167 1.66734 152.167 2.26998V25.2041C152.159 26.3936 152.822 27.489 153.888 28.0454C154.942 28.6216 156.234 28.5725 157.241 27.9178L168.312 20.8458C169.563 20.1086 170.062 18.5682 169.477 17.2516C168.992 15.895 167.559 15.1071 166.135 15.4142L158.593 16.7524C157.343 16.9735 156.147 16.1528 155.923 14.9192C155.699 13.6855 156.53 12.506 157.781 12.2845L165.322 10.9464Z" fill="#009B3A"/>
<path fill-rule="evenodd" clip-rule="evenodd" d="M12.7798 12.935C12.7745 12.7041 12.7252 12.4763 12.6347 12.2637L8.78442 1.81753C8.32146 0.542806 7.64371 0 6.56686 0C5.49 0 4.81225 0.542806 4.34929 1.81753L0.475817 12.2694C0.387363 12.4822 0.338201 12.7091 0.330688 12.9393C0.331703 13.2092 0.442643 13.4672 0.638181 13.6544C0.833719 13.8415 1.09716 13.9419 1.36836 13.9325C1.88252 13.9405 2.33004 13.5844 2.43505 13.0836L3.68751 9.53231H9.41283L10.6754 13.0938C10.7809 13.5891 11.2244 13.9407 11.7334 13.9325C12.0066 13.9435 12.2726 13.8434 12.47 13.6552C12.6674 13.467 12.7792 13.2069 12.7798 12.935ZM34.4039 13.8574H30.246L30.2562 13.8488C29.8117 13.9015 29.3675 13.7485 29.051 13.4336C28.7345 13.1188 28.5807 12.6769 28.6336 12.2348V1.71504C28.5807 1.27292 28.7345 0.831052 29.051 0.516213C29.3675 0.201373 29.8117 0.0483539 30.2562 0.101054H36.8871C37.1692 0.0686758 37.4517 0.158585 37.6625 0.347856C37.8734 0.537127 37.9921 0.807467 37.9886 1.08994C37.9966 1.37556 37.88 1.65065 37.6688 1.84436C37.4577 2.03807 37.1726 2.13146 36.8871 2.10049H30.7757V5.45549H34.4039C35.5459 5.31039 36.6928 5.68454 37.5265 6.47415C38.3603 7.26376 38.7923 8.38487 38.7026 9.52654C38.8317 10.7 38.4226 11.869 37.5888 12.709C36.755 13.5491 35.5852 13.9709 34.4039 13.8574ZM69.5831 10.0968C69.1883 10.109 68.8342 10.3413 68.6673 10.6973C68.2764 11.5349 67.418 12.0569 66.4904 12.0211C65.8674 12.0683 65.252 11.8607 64.7863 11.4463C64.3207 11.0319 64.0451 10.4465 64.0232 9.82537C63.9594 9.08807 63.9594 8.34669 64.0232 7.60939C64.0456 6.98807 64.3212 6.40256 64.7865 5.98755C65.2519 5.57255 65.867 5.36379 66.4904 5.40929C67.421 5.37146 68.2818 5.89837 68.6673 6.74177C68.8377 7.09354 69.1907 7.32172 69.5831 7.33366C69.8507 7.35946 70.1164 7.26848 70.3113 7.08428C70.5062 6.90008 70.6112 6.6408 70.599 6.37364C70.5804 6.03812 70.4765 5.71278 70.2971 5.42806C69.4999 4.09521 68.0221 3.31568 66.4657 3.40697C64.1396 3.25838 62.1296 5.0063 61.9667 7.31922C61.8927 8.2518 61.8927 9.18873 61.9667 10.1213C62.1319 12.4337 64.1397 14.1816 66.4657 14.0379C68.0254 14.1288 69.5055 13.3455 70.3015 12.0081C70.4769 11.7224 70.5768 11.3971 70.5917 11.0626C70.604 10.7955 70.499 10.5363 70.304 10.3523C70.109 10.1684 69.8433 10.0777 69.5758 10.104L69.5831 10.0968ZM2.76594 24.6559H6.82809C7.94045 24.5294 9.0508 24.909 9.84991 25.6891C10.649 26.4691 11.0515 27.5663 10.9454 28.675C11.0678 29.798 10.6752 30.9161 9.87664 31.7192C9.07804 32.5222 7.95831 32.9249 6.82809 32.8153H2.58308C2.24854 32.8525 1.91516 32.7363 1.67713 32.4995C1.4391 32.2627 1.32227 31.9311 1.35965 31.5983V20.2831C1.32227 19.9503 1.4391 19.6187 1.67713 19.3819C1.91516 19.1452 2.24854 19.029 2.58308 19.0661H9.54925C9.74258 19.0422 9.93698 19.1018 10.0832 19.2298C10.2294 19.3579 10.3135 19.5422 10.3141 19.736C10.3173 19.932 10.2349 20.1199 10.0882 20.2508C9.94145 20.3818 9.74486 20.4431 9.54925 20.4188H2.76594V24.6559ZM2.76594 31.4669H6.65248L6.65974 31.4727C7.43988 31.5978 8.23354 31.3485 8.79997 30.8004C9.36641 30.2523 9.63887 29.47 9.53473 28.6908C9.53473 26.9744 8.69154 25.9811 6.65974 25.9811H2.76594V31.4669ZM30.7728 7.33366H34.1833C34.8111 7.23502 35.4491 7.43429 35.9076 7.87217C36.366 8.31006 36.5921 8.9361 36.5185 9.56407C36.5996 10.1985 36.3784 10.8343 35.9203 11.2832C35.4623 11.732 34.8199 11.9425 34.1833 11.8522H30.7757V7.3351L30.7728 7.33366ZM51.6176 4.38576C52.8022 3.73957 54.1314 3.40094 55.4824 3.4012C56.5953 3.3217 57.6938 3.68939 58.5321 4.42199C59.3703 5.15459 59.8782 6.19091 59.9422 7.29901C60.0149 8.24321 60.0149 9.19155 59.9422 10.1357C59.8332 12.3834 57.9228 14.1234 55.6623 14.0336C54.8039 14.0312 53.9555 13.8498 53.1719 13.5009V16.2582C53.2036 16.5479 53.1054 16.8367 52.9035 17.0478C52.7017 17.2589 52.4165 17.3709 52.1241 17.3539C51.833 17.3693 51.5498 17.2565 51.3499 17.0454C51.1499 16.8343 51.0536 16.5464 51.0864 16.2582V5.68503C51.0864 4.88959 51.1401 4.66727 51.6176 4.38576ZM57.8654 9.82537C57.8543 10.4482 57.5845 11.0386 57.1201 11.4565C56.6558 11.8744 56.0382 12.0824 55.4142 12.0312C54.6288 12.0378 53.8555 11.8386 53.1719 11.4538V5.98097C53.8547 5.59413 54.6285 5.39484 55.4142 5.40352C56.0391 5.35187 56.6576 5.56035 57.1222 5.97927C57.5868 6.39819 57.8559 6.99003 57.8654 7.61372C57.9288 8.35103 57.9288 9.09239 57.8654 9.8297V9.82537ZM30.3325 22.6731C30.4664 22.5312 30.6576 22.4572 30.8526 22.4717L30.8541 22.4587C31.0484 22.4456 31.2384 22.5202 31.3712 22.6619C31.5041 22.8036 31.5658 22.9972 31.5391 23.1892V32.1758C31.5663 32.3678 31.5049 32.5618 31.3719 32.7036C31.2389 32.8454 31.0486 32.9199 30.8541 32.9062C30.659 32.9207 30.4678 32.8467 30.334 32.7048C30.2001 32.563 30.1379 32.3685 30.1647 32.1758V28.1971H24.4264V32.1888C24.4532 32.3815 24.391 32.576 24.2571 32.7178C24.1233 32.8597 23.9321 32.9337 23.737 32.9192C23.5421 32.9332 23.3512 32.859 23.2175 32.7173C23.0837 32.5755 23.0213 32.3814 23.0476 32.1888V23.2021C23.0219 23.0096 23.0845 22.8158 23.2181 22.6742C23.3517 22.5326 23.5422 22.4583 23.737 22.4717C23.9321 22.4572 24.1233 22.5312 24.2571 22.6731C24.391 22.8149 24.4532 23.0094 24.4264 23.2021V26.9296H30.1633V23.2021C30.1364 23.0094 30.1986 22.8149 30.3325 22.6731ZM37.9378 27.5605L41.9288 23.5905C42.0966 23.4543 42.1954 23.2515 42.1988 23.0361C42.2047 22.8797 42.1442 22.728 42.0321 22.6182C41.9201 22.5083 41.7667 22.4505 41.6096 22.4587C41.4088 22.4582 41.2178 22.5453 41.0871 22.6969L37.186 26.5774C36.9969 26.7921 36.7242 26.9157 36.4372 26.9166H35.6346V23.1892C35.6615 22.9964 35.5993 22.8019 35.4654 22.6601C35.3315 22.5182 35.1403 22.4442 34.9453 22.4587C34.7505 22.4453 34.56 22.5196 34.4264 22.6612C34.2928 22.8028 34.2302 22.9966 34.2559 23.1892V32.1758C34.2296 32.3684 34.292 32.5625 34.4258 32.7043C34.5595 32.846 34.7504 32.9202 34.9453 32.9062C35.1403 32.9207 35.3315 32.8467 35.4654 32.7048C35.5993 32.563 35.6615 32.3685 35.6346 32.1758V28.1971H36.3443C36.6313 28.1981 36.9041 28.3216 37.0932 28.5364L41.2351 32.6565C41.3726 32.8146 41.5721 32.9057 41.7823 32.9062C41.9476 32.9172 42.1097 32.8573 42.2278 32.7418C42.3459 32.6262 42.4087 32.466 42.4005 32.3014C42.3939 32.0758 42.2877 31.8645 42.1103 31.7239L37.9306 27.5648L37.9378 27.5605ZM41.5776 3.96277C42.497 3.59499 43.4777 3.40253 44.4686 3.39543L44.4715 3.39398C47.0838 3.39398 48.5801 4.57776 48.5801 7.16186V12.1843C48.6143 12.4965 48.4616 12.7998 48.1897 12.9595C46.9529 13.6857 45.5372 14.0546 44.1014 14.0249C41.5588 14.0249 40.1205 12.6044 40.1205 10.7146C40.1205 9.08045 41.402 7.59207 44.0289 7.59207C44.8873 7.59227 45.7416 7.71131 46.5672 7.94576V7.11711C46.5672 5.88569 45.9083 5.28514 44.3119 5.28514C43.6662 5.29341 43.0272 5.41662 42.4252 5.64894C42.1824 5.75916 41.9221 5.8261 41.656 5.84671C41.4195 5.84753 41.1926 5.75352 41.0265 5.58592C40.8605 5.41832 40.7693 5.19126 40.7736 4.95599C40.7693 4.52002 41.0116 4.19231 41.5776 3.96277ZM46.5672 11.7367C45.8609 12.096 45.0803 12.2868 44.2872 12.294C42.9476 12.294 42.1103 11.7165 42.1103 10.7146C42.1103 9.80804 42.8272 9.10499 44.2785 9.10499C45.0561 9.10883 45.8285 9.23153 46.5686 9.46879L46.5672 11.7367ZM13.7028 22.9798C14.6548 22.5821 15.6759 22.3742 16.7084 22.3677L16.7099 22.3706C19.0958 22.3706 20.534 23.5125 20.534 25.9797V31.3211C20.5659 31.5586 20.4515 31.7919 20.2438 31.913C19.0379 32.6489 17.6454 33.0257 16.231 32.9986C13.861 32.9986 12.3633 31.6965 12.3633 29.7187C12.3633 28.0325 13.6883 26.5427 16.2919 26.5427C17.2687 26.5405 18.2402 26.6866 19.1727 26.9758V26.0187C19.1727 24.4177 18.3498 23.6959 16.5691 23.6959C15.7791 23.7121 14.999 23.8747 14.2688 24.1752C14.0958 24.263 13.9067 24.315 13.713 24.3282C13.3692 24.3219 13.0933 24.0437 13.0918 23.7016C13.0817 23.3595 13.2761 23.1617 13.7028 22.9798ZM19.1771 31.0079C18.3264 31.4552 17.3817 31.6971 16.4196 31.7138C14.7042 31.7138 13.7318 30.992 13.7318 29.736C13.7318 28.6114 14.5852 27.7669 16.4196 27.7669C17.3564 27.7754 18.2864 27.9268 19.1771 28.2159V31.0079ZM19.1843 8.57807L22.7806 12.1583V12.1525C23.0357 12.3704 23.1877 12.6844 23.2 13.0187C23.2083 13.2658 23.1127 13.5051 22.9361 13.6791C22.7596 13.8531 22.5181 13.946 22.2698 13.9354C21.9345 13.9277 21.6197 13.7735 21.4091 13.5139L17.7113 9.83547C17.5416 9.65058 17.3012 9.5457 17.0495 9.54675H16.4574V12.8411C16.4908 13.1308 16.3939 13.4204 16.1928 13.6325C15.9916 13.8446 15.7066 13.9575 15.4139 13.9412C15.122 13.9563 14.8383 13.8427 14.6384 13.6307C14.4384 13.4187 14.3425 13.1299 14.3762 12.8411V4.58354C14.3424 4.29567 14.438 4.00764 14.6375 3.7964C14.837 3.58516 15.12 3.47224 15.411 3.48782C15.7032 3.47009 15.9884 3.582 16.1898 3.79345C16.3911 4.0049 16.4881 4.2942 16.4545 4.58354V7.62383H17.1612C17.4125 7.62483 17.6524 7.51992 17.8216 7.3351L21.2872 3.89492C21.4878 3.64749 21.7878 3.50064 22.1072 3.49359C22.3426 3.48352 22.5716 3.571 22.7396 3.73518C22.9077 3.89936 22.9998 4.12552 22.9939 4.35977C22.9821 4.67825 22.8375 4.97744 22.5948 5.18553L19.1843 8.57807ZM6.27079 2.22608L4.36236 7.63538H8.73943L6.82083 2.22608C6.75262 2.03697 6.68876 1.96912 6.54799 1.96912C6.40722 1.96912 6.34336 2.03697 6.27079 2.22608Z" fill="#10002B"/>
</svg>
