<svg width="32" height="32" viewBox="0 0 32 32" fill="none" xmlns="http://www.w3.org/2000/svg">
<rect width="32" height="32" rx="16" fill="#202326"/>
<path fill-rule="evenodd" clip-rule="evenodd" d="M16 7.19995C13.6101 7.19995 13.3101 7.21022 12.3715 7.25275C11.435 7.29528 10.7955 7.44415 10.236 7.66195C9.65668 7.88708 9.16608 8.18775 8.67695 8.67688C8.18781 9.16602 7.88715 9.65662 7.66201 10.236C7.44421 10.7955 7.29535 11.435 7.25281 12.3714C7.21028 13.3101 7.20001 13.61 7.20001 16C7.20001 18.3899 7.21028 18.6891 7.25281 19.6278C7.29535 20.5649 7.44421 21.2044 7.66201 21.764C7.88715 22.3426 8.18781 22.8339 8.67695 23.323C9.16608 23.8122 9.65668 24.1128 10.236 24.3379C10.7955 24.5557 11.435 24.7046 12.3715 24.7472C13.3101 24.7897 13.6101 24.7999 16 24.7999C18.3899 24.7999 18.6891 24.7897 19.6278 24.7472C20.565 24.7046 21.2045 24.5557 21.764 24.3379C22.3426 24.1128 22.8339 23.8122 23.3231 23.323C23.8122 22.8339 24.1129 22.3426 24.338 21.764C24.5558 21.2044 24.7047 20.5649 24.7472 19.6278C24.7897 18.6891 24.8 18.3899 24.8 16C24.8 13.61 24.7897 13.3101 24.7472 12.3714C24.7047 11.435 24.5558 10.7955 24.338 10.236C24.1129 9.65662 23.8122 9.16602 23.3231 8.67688C22.8339 8.18775 22.3426 7.88708 21.764 7.66195C21.2045 7.44415 20.565 7.29528 19.6278 7.25275C18.6891 7.21022 18.3899 7.19995 16 7.19995ZM16 8.78542C18.3496 8.78542 18.6275 8.79422 19.5559 8.83675C20.4139 8.87635 20.8796 9.01935 21.1898 9.13962C21.6005 9.29948 21.8938 9.49015 22.2018 9.79815C22.5098 10.1062 22.7005 10.3988 22.8596 10.8102C22.9806 11.1204 23.1236 11.586 23.1632 12.444C23.2057 13.3717 23.2145 13.6504 23.2145 16C23.2145 18.3496 23.2057 18.6275 23.1632 19.5559C23.1236 20.4139 22.9806 20.8796 22.8596 21.1898C22.7005 21.6004 22.5098 21.8938 22.2018 22.2018C21.8938 22.5098 21.6005 22.7004 21.1898 22.8596C20.8796 22.9806 20.4139 23.1236 19.5559 23.1632C18.6275 23.2057 18.3496 23.2145 16 23.2145C13.6497 23.2145 13.3717 23.2057 12.4441 23.1632C11.5861 23.1236 11.1204 22.9806 10.8102 22.8596C10.3988 22.7004 10.1062 22.5098 9.79821 22.2018C9.49021 21.8938 9.29955 21.6004 9.13968 21.1898C9.01941 20.8796 8.87568 20.4139 8.83681 19.5559C8.79428 18.6275 8.78548 18.3496 8.78548 16C8.78548 13.6504 8.79428 13.3717 8.83681 12.444C8.87568 11.586 9.01941 11.1204 9.13968 10.8102C9.29955 10.3988 9.49021 10.1062 9.79821 9.79815C10.1062 9.49015 10.3988 9.29948 10.8102 9.13962C11.1204 9.01935 11.5861 8.87635 12.4441 8.83675C13.3717 8.79422 13.6504 8.78542 16 8.78542ZM16 18.9333C14.3801 18.9333 13.0667 17.6199 13.0667 16C13.0667 14.38 14.3801 13.0666 16 13.0666C17.6199 13.0666 18.9333 14.38 18.9333 16C18.9333 17.6199 17.6199 18.9333 16 18.9333ZM16 11.4812C13.5045 11.4812 11.4812 13.5044 11.4812 16C11.4812 18.4955 13.5045 20.5188 16 20.5188C18.4955 20.5188 20.5188 18.4955 20.5188 16C20.5188 13.5044 18.4955 11.4812 16 11.4812ZM20.6975 12.3584C21.2805 12.3584 21.7535 11.8854 21.7535 11.3024C21.7535 10.7194 21.2805 10.2464 20.6975 10.2464C20.1145 10.2464 19.6415 10.7194 19.6415 11.3024C19.6415 11.8854 20.1145 12.3584 20.6975 12.3584Z" fill="#E1E4E7"/>
</svg>
