<svg width="181" height="34" viewBox="0 0 181 34" fill="none" xmlns="http://www.w3.org/2000/svg">
<path d="M80.9305 8.05303C80.9305 8.67463 80.8532 9.23059 80.6988 9.72091C80.5444 10.2112 80.3147 10.6282 80.0096 10.9718C79.7046 11.3116 79.3263 11.5722 78.8746 11.7536C78.4267 11.9312 77.9074 12.02 77.3167 12.02C76.7337 12.02 76.2241 11.9447 75.7878 11.7942C75.3554 11.6397 74.9944 11.4062 74.7049 11.0934C74.4153 10.7807 74.1972 10.383 74.0505 9.90044C73.9076 9.41784 73.8362 8.84643 73.8362 8.18623C73.8362 7.58008 73.9134 7.0357 74.0678 6.5531C74.2223 6.06663 74.452 5.65353 74.757 5.31377C75.062 4.97402 75.4384 4.71341 75.8863 4.53195C76.338 4.3505 76.8611 4.25977 77.4557 4.25977C78.0233 4.25977 78.5232 4.33505 78.9556 4.48562C79.3919 4.6362 79.7548 4.86785 80.0444 5.18057C80.3378 5.4933 80.5579 5.88904 80.7046 6.36778C80.8552 6.84266 80.9305 7.40441 80.9305 8.05303ZM79.3321 8.13411C79.3321 7.7403 79.3012 7.38318 79.2394 7.06273C79.1776 6.73842 79.0715 6.46237 78.9209 6.23458C78.7742 6.00293 78.5773 5.82533 78.3302 5.70179C78.0831 5.57438 77.7742 5.51067 77.4036 5.51067C77.0291 5.51067 76.7164 5.5821 76.4654 5.72495C76.2145 5.86394 76.0118 6.05119 75.8573 6.2867C75.7029 6.52221 75.5929 6.79826 75.5272 7.11485C75.4655 7.42758 75.4346 7.75961 75.4346 8.11094C75.4346 8.52019 75.4655 8.8889 75.5272 9.21707C75.589 9.54138 75.6932 9.81936 75.84 10.051C75.9867 10.2827 76.1836 10.4603 76.4307 10.5838C76.6778 10.7035 76.9885 10.7633 77.363 10.7633C77.7375 10.7633 78.0503 10.6938 78.3012 10.5549C78.5522 10.4159 78.7549 10.2267 78.9093 9.98731C79.0637 9.74794 79.1718 9.46996 79.2336 9.15337C79.2993 8.83292 79.3321 8.49317 79.3321 8.13411Z" fill="#2D55BD"/>
<path d="M80.9305 8.05303C80.9305 8.67463 80.8532 9.23059 80.6988 9.72091C80.5444 10.2112 80.3147 10.6282 80.0096 10.9718C79.7046 11.3116 79.3263 11.5722 78.8746 11.7536C78.4267 11.9312 77.9074 12.02 77.3167 12.02C76.7337 12.02 76.2241 11.9447 75.7878 11.7942C75.3554 11.6397 74.9944 11.4062 74.7049 11.0934C74.4153 10.7807 74.1972 10.383 74.0505 9.90044C73.9076 9.41784 73.8362 8.84643 73.8362 8.18623C73.8362 7.58008 73.9134 7.0357 74.0678 6.5531C74.2223 6.06663 74.452 5.65353 74.757 5.31377C75.062 4.97402 75.4384 4.71341 75.8863 4.53195C76.338 4.3505 76.8611 4.25977 77.4557 4.25977C78.0233 4.25977 78.5232 4.33505 78.9556 4.48562C79.3919 4.6362 79.7548 4.86785 80.0444 5.18057C80.3378 5.4933 80.5579 5.88904 80.7046 6.36778C80.8552 6.84266 80.9305 7.40441 80.9305 8.05303ZM79.3321 8.13411C79.3321 7.7403 79.3012 7.38318 79.2394 7.06273C79.1776 6.73842 79.0715 6.46237 78.9209 6.23458C78.7742 6.00293 78.5773 5.82533 78.3302 5.70179C78.0831 5.57438 77.7742 5.51067 77.4036 5.51067C77.0291 5.51067 76.7164 5.5821 76.4654 5.72495C76.2145 5.86394 76.0118 6.05119 75.8573 6.2867C75.7029 6.52221 75.5929 6.79826 75.5272 7.11485C75.4655 7.42758 75.4346 7.75961 75.4346 8.11094C75.4346 8.52019 75.4655 8.8889 75.5272 9.21707C75.589 9.54138 75.6932 9.81936 75.84 10.051C75.9867 10.2827 76.1836 10.4603 76.4307 10.5838C76.6778 10.7035 76.9885 10.7633 77.363 10.7633C77.7375 10.7633 78.0503 10.6938 78.3012 10.5549C78.5522 10.4159 78.7549 10.2267 78.9093 9.98731C79.0637 9.74794 79.1718 9.46996 79.2336 9.15337C79.2993 8.83292 79.3321 8.49317 79.3321 8.13411Z" fill="black" fill-opacity="0.1"/>
<path d="M88.1227 9.56455C88.1227 9.9043 88.0648 10.2151 87.949 10.4969C87.8332 10.7788 87.6575 11.0239 87.422 11.2324C87.1903 11.4371 86.895 11.5973 86.5359 11.7131C86.1769 11.8289 85.7116 11.8868 85.1402 11.8868H83.1654C83.0264 11.8868 82.9125 11.8502 82.8237 11.7768C82.7388 11.6996 82.6963 11.5702 82.6963 11.3888V4.87364C82.6963 4.70376 82.7388 4.58215 82.8237 4.50879C82.9125 4.43157 83.0206 4.39296 83.148 4.39296H87.3872C87.4258 4.39296 87.4587 4.40262 87.4857 4.42192C87.5166 4.44122 87.5417 4.47597 87.561 4.52616C87.5841 4.57249 87.5996 4.63427 87.6073 4.71148C87.6189 4.78484 87.6247 4.87943 87.6247 4.99525C87.6247 5.10336 87.6189 5.19602 87.6073 5.27323C87.5996 5.34659 87.5841 5.40836 87.561 5.45855C87.5417 5.50488 87.5166 5.53963 87.4857 5.5628C87.4587 5.5821 87.4278 5.59175 87.393 5.59175H84.2194V7.45653H85.4645C85.9471 7.45653 86.3448 7.50286 86.6575 7.59552C86.9703 7.68818 87.2347 7.82524 87.4509 8.0067C87.6671 8.18816 87.8332 8.41016 87.949 8.6727C88.0648 8.93523 88.1227 9.23252 88.1227 9.56455ZM86.5765 9.663C86.5765 9.49698 86.5494 9.34834 86.4954 9.21707C86.4413 9.08194 86.3622 8.96805 86.2579 8.87539C86.1537 8.77887 86.0186 8.70551 85.8526 8.65532C85.6904 8.60513 85.4723 8.58004 85.1981 8.58004H84.2194V10.7402H85.2155C85.4626 10.7402 85.6653 10.717 85.8236 10.6707C85.9857 10.6243 86.1209 10.5549 86.229 10.4622C86.3371 10.3695 86.422 10.2556 86.4838 10.1205C86.5456 9.98538 86.5765 9.83288 86.5765 9.663Z" fill="#2D55BD"/>
<path d="M88.1227 9.56455C88.1227 9.9043 88.0648 10.2151 87.949 10.4969C87.8332 10.7788 87.6575 11.0239 87.422 11.2324C87.1903 11.4371 86.895 11.5973 86.5359 11.7131C86.1769 11.8289 85.7116 11.8868 85.1402 11.8868H83.1654C83.0264 11.8868 82.9125 11.8502 82.8237 11.7768C82.7388 11.6996 82.6963 11.5702 82.6963 11.3888V4.87364C82.6963 4.70376 82.7388 4.58215 82.8237 4.50879C82.9125 4.43157 83.0206 4.39296 83.148 4.39296H87.3872C87.4258 4.39296 87.4587 4.40262 87.4857 4.42192C87.5166 4.44122 87.5417 4.47597 87.561 4.52616C87.5841 4.57249 87.5996 4.63427 87.6073 4.71148C87.6189 4.78484 87.6247 4.87943 87.6247 4.99525C87.6247 5.10336 87.6189 5.19602 87.6073 5.27323C87.5996 5.34659 87.5841 5.40836 87.561 5.45855C87.5417 5.50488 87.5166 5.53963 87.4857 5.5628C87.4587 5.5821 87.4278 5.59175 87.393 5.59175H84.2194V7.45653H85.4645C85.9471 7.45653 86.3448 7.50286 86.6575 7.59552C86.9703 7.68818 87.2347 7.82524 87.4509 8.0067C87.6671 8.18816 87.8332 8.41016 87.949 8.6727C88.0648 8.93523 88.1227 9.23252 88.1227 9.56455ZM86.5765 9.663C86.5765 9.49698 86.5494 9.34834 86.4954 9.21707C86.4413 9.08194 86.3622 8.96805 86.2579 8.87539C86.1537 8.77887 86.0186 8.70551 85.8526 8.65532C85.6904 8.60513 85.4723 8.58004 85.1981 8.58004H84.2194V10.7402H85.2155C85.4626 10.7402 85.6653 10.717 85.8236 10.6707C85.9857 10.6243 86.1209 10.5549 86.229 10.4622C86.3371 10.3695 86.422 10.2556 86.4838 10.1205C86.5456 9.98538 86.5765 9.83288 86.5765 9.663Z" fill="black" fill-opacity="0.1"/>
<path d="M94.8864 6.66892C94.8864 7.08975 94.8208 7.46232 94.6895 7.78663C94.5583 8.11094 94.3671 8.38506 94.1162 8.60899C93.8652 8.82906 93.5564 8.997 93.1896 9.11283C92.8267 9.22865 92.3981 9.28657 91.9039 9.28657H91.2785V11.6784C91.2785 11.717 91.265 11.7517 91.2379 11.7826C91.2148 11.8135 91.1742 11.8386 91.1163 11.8579C91.0584 11.8772 90.9812 11.8926 90.8847 11.9042C90.7882 11.9158 90.6646 11.9216 90.514 11.9216C90.3673 11.9216 90.2438 11.9158 90.1434 11.9042C90.0469 11.8926 89.9697 11.8772 89.9117 11.8579C89.8538 11.8386 89.8133 11.8135 89.7901 11.7826C89.767 11.7517 89.7554 11.717 89.7554 11.6784V4.93734C89.7554 4.75588 89.8017 4.62075 89.8944 4.53195C89.9909 4.43929 90.1164 4.39296 90.2708 4.39296H92.0371C92.2147 4.39296 92.3827 4.40069 92.541 4.41613C92.7031 4.42771 92.8962 4.45667 93.1201 4.503C93.344 4.54547 93.5699 4.62654 93.7977 4.74623C94.0293 4.86592 94.2262 5.01842 94.3884 5.20374C94.5505 5.3852 94.6741 5.59947 94.759 5.84657C94.844 6.0898 94.8864 6.36392 94.8864 6.66892ZM93.2938 6.77896C93.2938 6.51642 93.2475 6.30021 93.1548 6.13034C93.0622 5.96046 92.9483 5.83498 92.8132 5.75391C92.678 5.67283 92.5352 5.62264 92.3846 5.60333C92.2379 5.58017 92.0854 5.56859 91.9271 5.56859H91.2785V8.11094H91.9618C92.2051 8.11094 92.4078 8.07813 92.5699 8.01249C92.7359 7.94686 92.8711 7.85613 92.9753 7.7403C93.0796 7.62062 93.1587 7.4797 93.2128 7.31754C93.2668 7.15153 93.2938 6.972 93.2938 6.77896Z" fill="#2D55BD"/>
<path d="M94.8864 6.66892C94.8864 7.08975 94.8208 7.46232 94.6895 7.78663C94.5583 8.11094 94.3671 8.38506 94.1162 8.60899C93.8652 8.82906 93.5564 8.997 93.1896 9.11283C92.8267 9.22865 92.3981 9.28657 91.9039 9.28657H91.2785V11.6784C91.2785 11.717 91.265 11.7517 91.2379 11.7826C91.2148 11.8135 91.1742 11.8386 91.1163 11.8579C91.0584 11.8772 90.9812 11.8926 90.8847 11.9042C90.7882 11.9158 90.6646 11.9216 90.514 11.9216C90.3673 11.9216 90.2438 11.9158 90.1434 11.9042C90.0469 11.8926 89.9697 11.8772 89.9117 11.8579C89.8538 11.8386 89.8133 11.8135 89.7901 11.7826C89.767 11.7517 89.7554 11.717 89.7554 11.6784V4.93734C89.7554 4.75588 89.8017 4.62075 89.8944 4.53195C89.9909 4.43929 90.1164 4.39296 90.2708 4.39296H92.0371C92.2147 4.39296 92.3827 4.40069 92.541 4.41613C92.7031 4.42771 92.8962 4.45667 93.1201 4.503C93.344 4.54547 93.5699 4.62654 93.7977 4.74623C94.0293 4.86592 94.2262 5.01842 94.3884 5.20374C94.5505 5.3852 94.6741 5.59947 94.759 5.84657C94.844 6.0898 94.8864 6.36392 94.8864 6.66892ZM93.2938 6.77896C93.2938 6.51642 93.2475 6.30021 93.1548 6.13034C93.0622 5.96046 92.9483 5.83498 92.8132 5.75391C92.678 5.67283 92.5352 5.62264 92.3846 5.60333C92.2379 5.58017 92.0854 5.56859 91.9271 5.56859H91.2785V8.11094H91.9618C92.2051 8.11094 92.4078 8.07813 92.5699 8.01249C92.7359 7.94686 92.8711 7.85613 92.9753 7.7403C93.0796 7.62062 93.1587 7.4797 93.2128 7.31754C93.2668 7.15153 93.2938 6.972 93.2938 6.77896Z" fill="black" fill-opacity="0.1"/>
<path d="M102.021 11.3193C102.067 11.4583 102.096 11.5683 102.108 11.6494C102.119 11.7305 102.104 11.7922 102.061 11.8347C102.019 11.8733 101.944 11.8965 101.835 11.9042C101.727 11.9158 101.579 11.9216 101.39 11.9216C101.193 11.9216 101.038 11.9177 100.926 11.91C100.818 11.9061 100.735 11.8965 100.677 11.881C100.619 11.8617 100.579 11.8366 100.556 11.8058C100.532 11.7749 100.513 11.7343 100.498 11.6841L99.9938 10.1784H97.1793L96.7044 11.6436C96.689 11.6977 96.6677 11.744 96.6407 11.7826C96.6175 11.8173 96.577 11.8463 96.5191 11.8695C96.465 11.8888 96.3859 11.9023 96.2817 11.91C96.1813 11.9177 96.0481 11.9216 95.8821 11.9216C95.7045 11.9216 95.5655 11.9158 95.4651 11.9042C95.3647 11.8926 95.2952 11.8656 95.2566 11.8231C95.218 11.7768 95.2045 11.7131 95.2161 11.632C95.2276 11.5509 95.2566 11.4428 95.3029 11.3077L97.6136 4.65936C97.6368 4.59373 97.6638 4.54161 97.6947 4.503C97.7256 4.46053 97.7739 4.42964 97.8395 4.41034C97.909 4.38717 98.0036 4.37366 98.1233 4.3698C98.243 4.36208 98.4012 4.35822 98.5982 4.35822C98.8259 4.35822 99.0074 4.36208 99.1425 4.3698C99.2777 4.37366 99.3819 4.38717 99.4553 4.41034C99.5325 4.42964 99.5865 4.46053 99.6174 4.503C99.6522 4.54547 99.6811 4.60338 99.7043 4.67674L102.021 11.3193ZM98.5808 5.8234H98.575L97.5152 9.00859H99.6406L98.5808 5.8234Z" fill="#2D55BD"/>
<path d="M102.021 11.3193C102.067 11.4583 102.096 11.5683 102.108 11.6494C102.119 11.7305 102.104 11.7922 102.061 11.8347C102.019 11.8733 101.944 11.8965 101.835 11.9042C101.727 11.9158 101.579 11.9216 101.39 11.9216C101.193 11.9216 101.038 11.9177 100.926 11.91C100.818 11.9061 100.735 11.8965 100.677 11.881C100.619 11.8617 100.579 11.8366 100.556 11.8058C100.532 11.7749 100.513 11.7343 100.498 11.6841L99.9938 10.1784H97.1793L96.7044 11.6436C96.689 11.6977 96.6677 11.744 96.6407 11.7826C96.6175 11.8173 96.577 11.8463 96.5191 11.8695C96.465 11.8888 96.3859 11.9023 96.2817 11.91C96.1813 11.9177 96.0481 11.9216 95.8821 11.9216C95.7045 11.9216 95.5655 11.9158 95.4651 11.9042C95.3647 11.8926 95.2952 11.8656 95.2566 11.8231C95.218 11.7768 95.2045 11.7131 95.2161 11.632C95.2276 11.5509 95.2566 11.4428 95.3029 11.3077L97.6136 4.65936C97.6368 4.59373 97.6638 4.54161 97.6947 4.503C97.7256 4.46053 97.7739 4.42964 97.8395 4.41034C97.909 4.38717 98.0036 4.37366 98.1233 4.3698C98.243 4.36208 98.4012 4.35822 98.5982 4.35822C98.8259 4.35822 99.0074 4.36208 99.1425 4.3698C99.2777 4.37366 99.3819 4.38717 99.4553 4.41034C99.5325 4.42964 99.5865 4.46053 99.6174 4.503C99.6522 4.54547 99.6811 4.60338 99.7043 4.67674L102.021 11.3193ZM98.5808 5.8234H98.575L97.5152 9.00859H99.6406L98.5808 5.8234Z" fill="black" fill-opacity="0.1"/>
<path d="M108.043 9.71512C108.043 10.0935 107.972 10.4274 107.829 10.717C107.686 11.0027 107.481 11.244 107.215 11.4409C106.953 11.634 106.636 11.7787 106.265 11.8753C105.899 11.9718 105.491 12.02 105.043 12.02C104.796 12.02 104.568 12.0027 104.36 11.9679C104.155 11.9332 103.976 11.8907 103.821 11.8405C103.671 11.7865 103.549 11.7343 103.457 11.6841C103.364 11.634 103.298 11.5934 103.26 11.5625C103.221 11.5278 103.192 11.493 103.173 11.4583C103.153 11.4235 103.138 11.3753 103.126 11.3135C103.115 11.2479 103.105 11.1668 103.097 11.0703C103.094 10.9738 103.092 10.8541 103.092 10.7112C103.092 10.5491 103.105 10.441 103.132 10.3869C103.163 10.329 103.208 10.3 103.265 10.3C103.312 10.3 103.377 10.3251 103.462 10.3753C103.547 10.4217 103.655 10.4757 103.787 10.5375C103.918 10.5992 104.076 10.6552 104.262 10.7054C104.447 10.7556 104.665 10.7807 104.916 10.7807C105.124 10.7807 105.314 10.7556 105.483 10.7054C105.653 10.6552 105.796 10.5838 105.912 10.4911C106.032 10.3985 106.124 10.2885 106.19 10.161C106.256 10.0298 106.288 9.885 106.288 9.7267C106.288 9.55296 106.258 9.3966 106.196 9.25761C106.138 9.11862 106.045 9.00087 105.918 8.90435C105.79 8.80782 105.628 8.73447 105.431 8.68428C105.238 8.63023 105.005 8.6032 104.731 8.6032H103.937C103.879 8.6032 103.833 8.59548 103.798 8.58004C103.763 8.56459 103.735 8.53564 103.711 8.49317C103.692 8.4507 103.679 8.39279 103.671 8.31943C103.667 8.24221 103.665 8.14183 103.665 8.01828C103.665 7.90632 103.669 7.81559 103.677 7.7461C103.684 7.67274 103.698 7.61483 103.717 7.57236C103.74 7.52989 103.767 7.50093 103.798 7.48549C103.833 7.46619 103.874 7.45653 103.92 7.45653H104.725C104.96 7.45653 105.169 7.43337 105.35 7.38704C105.532 7.34071 105.682 7.27314 105.802 7.18435C105.926 7.09169 106.018 6.98165 106.08 6.85424C106.146 6.72298 106.178 6.57433 106.178 6.40832C106.178 6.26933 106.155 6.14192 106.109 6.0261C106.066 5.91027 105.999 5.81375 105.906 5.73653C105.814 5.65546 105.696 5.59368 105.553 5.55121C105.41 5.50488 105.24 5.48172 105.043 5.48172C104.812 5.48172 104.603 5.50681 104.418 5.557C104.233 5.6072 104.07 5.66125 103.931 5.71916C103.796 5.77707 103.68 5.83305 103.584 5.88711C103.491 5.9373 103.422 5.96239 103.375 5.96239C103.348 5.96239 103.325 5.95467 103.306 5.93923C103.287 5.92378 103.269 5.89676 103.254 5.85815C103.238 5.81568 103.227 5.7597 103.219 5.6902C103.215 5.62071 103.213 5.52998 103.213 5.41801C103.213 5.3408 103.215 5.26937 103.219 5.20374C103.223 5.1381 103.231 5.07826 103.242 5.02421C103.254 4.97016 103.269 4.92383 103.289 4.88522C103.308 4.84275 103.337 4.80221 103.375 4.7636C103.418 4.725 103.501 4.6748 103.624 4.61303C103.752 4.55126 103.906 4.49528 104.088 4.44509C104.269 4.39103 104.474 4.34663 104.702 4.31189C104.929 4.27714 105.171 4.25977 105.426 4.25977C105.827 4.25977 106.176 4.30223 106.474 4.38717C106.775 4.47211 107.026 4.59566 107.227 4.75781C107.427 4.91611 107.578 5.11301 107.678 5.34852C107.779 5.58017 107.829 5.84657 107.829 6.14771C107.829 6.38708 107.796 6.60522 107.73 6.80212C107.665 6.99903 107.57 7.17276 107.447 7.32333C107.327 7.47391 107.182 7.60131 107.012 7.70556C106.846 7.80594 106.661 7.87929 106.456 7.92562V7.93721C106.692 7.96423 106.906 8.02987 107.099 8.13411C107.296 8.23449 107.464 8.36383 107.603 8.52212C107.742 8.68042 107.85 8.86188 107.927 9.0665C108.005 9.26726 108.043 9.48347 108.043 9.71512Z" fill="#2D55BD"/>
<path d="M108.043 9.71512C108.043 10.0935 107.972 10.4274 107.829 10.717C107.686 11.0027 107.481 11.244 107.215 11.4409C106.953 11.634 106.636 11.7787 106.265 11.8753C105.899 11.9718 105.491 12.02 105.043 12.02C104.796 12.02 104.568 12.0027 104.36 11.9679C104.155 11.9332 103.976 11.8907 103.821 11.8405C103.671 11.7865 103.549 11.7343 103.457 11.6841C103.364 11.634 103.298 11.5934 103.26 11.5625C103.221 11.5278 103.192 11.493 103.173 11.4583C103.153 11.4235 103.138 11.3753 103.126 11.3135C103.115 11.2479 103.105 11.1668 103.097 11.0703C103.094 10.9738 103.092 10.8541 103.092 10.7112C103.092 10.5491 103.105 10.441 103.132 10.3869C103.163 10.329 103.208 10.3 103.265 10.3C103.312 10.3 103.377 10.3251 103.462 10.3753C103.547 10.4217 103.655 10.4757 103.787 10.5375C103.918 10.5992 104.076 10.6552 104.262 10.7054C104.447 10.7556 104.665 10.7807 104.916 10.7807C105.124 10.7807 105.314 10.7556 105.483 10.7054C105.653 10.6552 105.796 10.5838 105.912 10.4911C106.032 10.3985 106.124 10.2885 106.19 10.161C106.256 10.0298 106.288 9.885 106.288 9.7267C106.288 9.55296 106.258 9.3966 106.196 9.25761C106.138 9.11862 106.045 9.00087 105.918 8.90435C105.79 8.80782 105.628 8.73447 105.431 8.68428C105.238 8.63023 105.005 8.6032 104.731 8.6032H103.937C103.879 8.6032 103.833 8.59548 103.798 8.58004C103.763 8.56459 103.735 8.53564 103.711 8.49317C103.692 8.4507 103.679 8.39279 103.671 8.31943C103.667 8.24221 103.665 8.14183 103.665 8.01828C103.665 7.90632 103.669 7.81559 103.677 7.7461C103.684 7.67274 103.698 7.61483 103.717 7.57236C103.74 7.52989 103.767 7.50093 103.798 7.48549C103.833 7.46619 103.874 7.45653 103.92 7.45653H104.725C104.96 7.45653 105.169 7.43337 105.35 7.38704C105.532 7.34071 105.682 7.27314 105.802 7.18435C105.926 7.09169 106.018 6.98165 106.08 6.85424C106.146 6.72298 106.178 6.57433 106.178 6.40832C106.178 6.26933 106.155 6.14192 106.109 6.0261C106.066 5.91027 105.999 5.81375 105.906 5.73653C105.814 5.65546 105.696 5.59368 105.553 5.55121C105.41 5.50488 105.24 5.48172 105.043 5.48172C104.812 5.48172 104.603 5.50681 104.418 5.557C104.233 5.6072 104.07 5.66125 103.931 5.71916C103.796 5.77707 103.68 5.83305 103.584 5.88711C103.491 5.9373 103.422 5.96239 103.375 5.96239C103.348 5.96239 103.325 5.95467 103.306 5.93923C103.287 5.92378 103.269 5.89676 103.254 5.85815C103.238 5.81568 103.227 5.7597 103.219 5.6902C103.215 5.62071 103.213 5.52998 103.213 5.41801C103.213 5.3408 103.215 5.26937 103.219 5.20374C103.223 5.1381 103.231 5.07826 103.242 5.02421C103.254 4.97016 103.269 4.92383 103.289 4.88522C103.308 4.84275 103.337 4.80221 103.375 4.7636C103.418 4.725 103.501 4.6748 103.624 4.61303C103.752 4.55126 103.906 4.49528 104.088 4.44509C104.269 4.39103 104.474 4.34663 104.702 4.31189C104.929 4.27714 105.171 4.25977 105.426 4.25977C105.827 4.25977 106.176 4.30223 106.474 4.38717C106.775 4.47211 107.026 4.59566 107.227 4.75781C107.427 4.91611 107.578 5.11301 107.678 5.34852C107.779 5.58017 107.829 5.84657 107.829 6.14771C107.829 6.38708 107.796 6.60522 107.73 6.80212C107.665 6.99903 107.57 7.17276 107.447 7.32333C107.327 7.47391 107.182 7.60131 107.012 7.70556C106.846 7.80594 106.661 7.87929 106.456 7.92562V7.93721C106.692 7.96423 106.906 8.02987 107.099 8.13411C107.296 8.23449 107.464 8.36383 107.603 8.52212C107.742 8.68042 107.85 8.86188 107.927 9.0665C108.005 9.26726 108.043 9.48347 108.043 9.71512Z" fill="black" fill-opacity="0.1"/>
<path d="M116.486 8.05303C116.486 8.67463 116.409 9.23059 116.255 9.72091C116.1 10.2112 115.871 10.6282 115.566 10.9718C115.261 11.3116 114.882 11.5722 114.43 11.7536C113.983 11.9312 113.463 12.02 112.873 12.02C112.29 12.02 111.78 11.9447 111.344 11.7942C110.911 11.6397 110.55 11.4062 110.261 11.0934C109.971 10.7807 109.753 10.383 109.606 9.90044C109.464 9.41784 109.392 8.84643 109.392 8.18623C109.392 7.58008 109.469 7.0357 109.624 6.5531C109.778 6.06663 110.008 5.65353 110.313 5.31377C110.618 4.97402 110.994 4.71341 111.442 4.53195C111.894 4.3505 112.417 4.25977 113.012 4.25977C113.579 4.25977 114.079 4.33505 114.512 4.48562C114.948 4.6362 115.311 4.86785 115.6 5.18057C115.894 5.4933 116.114 5.88904 116.261 6.36778C116.411 6.84266 116.486 7.40441 116.486 8.05303ZM114.888 8.13411C114.888 7.7403 114.857 7.38318 114.795 7.06273C114.734 6.73842 114.627 6.46237 114.477 6.23458C114.33 6.00293 114.133 5.82533 113.886 5.70179C113.639 5.57438 113.33 5.51067 112.96 5.51067C112.585 5.51067 112.272 5.5821 112.021 5.72495C111.77 5.86394 111.568 6.05119 111.413 6.2867C111.259 6.52221 111.149 6.79826 111.083 7.11485C111.021 7.42758 110.99 7.75961 110.99 8.11094C110.99 8.52019 111.021 8.8889 111.083 9.21707C111.145 9.54138 111.249 9.81936 111.396 10.051C111.543 10.2827 111.739 10.4603 111.987 10.5838C112.234 10.7035 112.544 10.7633 112.919 10.7633C113.293 10.7633 113.606 10.6938 113.857 10.5549C114.108 10.4159 114.311 10.2267 114.465 9.98731C114.62 9.74794 114.728 9.46996 114.79 9.15337C114.855 8.83292 114.888 8.49317 114.888 8.13411Z" fill="#2D55BD"/>
<path d="M116.486 8.05303C116.486 8.67463 116.409 9.23059 116.255 9.72091C116.1 10.2112 115.871 10.6282 115.566 10.9718C115.261 11.3116 114.882 11.5722 114.43 11.7536C113.983 11.9312 113.463 12.02 112.873 12.02C112.29 12.02 111.78 11.9447 111.344 11.7942C110.911 11.6397 110.55 11.4062 110.261 11.0934C109.971 10.7807 109.753 10.383 109.606 9.90044C109.464 9.41784 109.392 8.84643 109.392 8.18623C109.392 7.58008 109.469 7.0357 109.624 6.5531C109.778 6.06663 110.008 5.65353 110.313 5.31377C110.618 4.97402 110.994 4.71341 111.442 4.53195C111.894 4.3505 112.417 4.25977 113.012 4.25977C113.579 4.25977 114.079 4.33505 114.512 4.48562C114.948 4.6362 115.311 4.86785 115.6 5.18057C115.894 5.4933 116.114 5.88904 116.261 6.36778C116.411 6.84266 116.486 7.40441 116.486 8.05303ZM114.888 8.13411C114.888 7.7403 114.857 7.38318 114.795 7.06273C114.734 6.73842 114.627 6.46237 114.477 6.23458C114.33 6.00293 114.133 5.82533 113.886 5.70179C113.639 5.57438 113.33 5.51067 112.96 5.51067C112.585 5.51067 112.272 5.5821 112.021 5.72495C111.77 5.86394 111.568 6.05119 111.413 6.2867C111.259 6.52221 111.149 6.79826 111.083 7.11485C111.021 7.42758 110.99 7.75961 110.99 8.11094C110.99 8.52019 111.021 8.8889 111.083 9.21707C111.145 9.54138 111.249 9.81936 111.396 10.051C111.543 10.2827 111.739 10.4603 111.987 10.5838C112.234 10.7035 112.544 10.7633 112.919 10.7633C113.293 10.7633 113.606 10.6938 113.857 10.5549C114.108 10.4159 114.311 10.2267 114.465 9.98731C114.62 9.74794 114.728 9.46996 114.79 9.15337C114.855 8.83292 114.888 8.49317 114.888 8.13411Z" fill="black" fill-opacity="0.1"/>
<path d="M123.673 9.63983C123.673 9.90623 123.636 10.1475 123.563 10.3637C123.489 10.5799 123.387 10.7711 123.256 10.9371C123.128 11.1031 122.974 11.2459 122.793 11.3656C122.615 11.4853 122.418 11.5838 122.202 11.661C121.986 11.7382 121.754 11.7961 121.507 11.8347C121.264 11.8695 120.992 11.8868 120.69 11.8868H118.698C118.571 11.8868 118.463 11.8502 118.374 11.7768C118.289 11.6996 118.246 11.576 118.246 11.4062V4.87364C118.246 4.70376 118.289 4.58215 118.374 4.50879C118.463 4.43157 118.571 4.39296 118.698 4.39296H120.58C121.04 4.39296 121.428 4.43157 121.744 4.50879C122.065 4.58601 122.333 4.70376 122.549 4.86206C122.769 5.01649 122.937 5.21339 123.053 5.45276C123.169 5.69213 123.227 5.97397 123.227 6.29828C123.227 6.47974 123.204 6.65155 123.157 6.81371C123.111 6.972 123.044 7.11678 122.955 7.24805C122.866 7.37932 122.756 7.49514 122.625 7.59552C122.497 7.69591 122.351 7.77698 122.184 7.83876C122.397 7.87736 122.592 7.94493 122.769 8.04145C122.951 8.13797 123.107 8.26345 123.239 8.41788C123.374 8.56845 123.48 8.74605 123.557 8.95068C123.634 9.1553 123.673 9.38502 123.673 9.63983ZM121.704 6.4836C121.704 6.33303 121.681 6.1979 121.634 6.07822C121.588 5.95853 121.519 5.86008 121.426 5.78286C121.333 5.70179 121.215 5.64001 121.073 5.59754C120.934 5.55507 120.746 5.53384 120.511 5.53384H119.741V7.4797H120.592C120.812 7.4797 120.988 7.4546 121.119 7.40441C121.25 7.35036 121.358 7.27894 121.443 7.19014C121.532 7.09748 121.598 6.9913 121.64 6.87162C121.683 6.74807 121.704 6.61873 121.704 6.4836ZM122.092 9.69195C122.092 9.51822 122.063 9.36378 122.005 9.22865C121.947 9.08966 121.862 8.97384 121.75 8.88118C121.638 8.78852 121.495 8.71709 121.322 8.6669C121.148 8.61671 120.922 8.59162 120.644 8.59162H119.741V10.7228H120.841C121.053 10.7228 121.231 10.7016 121.374 10.6591C121.52 10.6128 121.646 10.5471 121.75 10.4622C121.858 10.3734 121.941 10.2653 121.999 10.1379C122.061 10.0066 122.092 9.85797 122.092 9.69195Z" fill="#2D55BD"/>
<path d="M123.673 9.63983C123.673 9.90623 123.636 10.1475 123.563 10.3637C123.489 10.5799 123.387 10.7711 123.256 10.9371C123.128 11.1031 122.974 11.2459 122.793 11.3656C122.615 11.4853 122.418 11.5838 122.202 11.661C121.986 11.7382 121.754 11.7961 121.507 11.8347C121.264 11.8695 120.992 11.8868 120.69 11.8868H118.698C118.571 11.8868 118.463 11.8502 118.374 11.7768C118.289 11.6996 118.246 11.576 118.246 11.4062V4.87364C118.246 4.70376 118.289 4.58215 118.374 4.50879C118.463 4.43157 118.571 4.39296 118.698 4.39296H120.58C121.04 4.39296 121.428 4.43157 121.744 4.50879C122.065 4.58601 122.333 4.70376 122.549 4.86206C122.769 5.01649 122.937 5.21339 123.053 5.45276C123.169 5.69213 123.227 5.97397 123.227 6.29828C123.227 6.47974 123.204 6.65155 123.157 6.81371C123.111 6.972 123.044 7.11678 122.955 7.24805C122.866 7.37932 122.756 7.49514 122.625 7.59552C122.497 7.69591 122.351 7.77698 122.184 7.83876C122.397 7.87736 122.592 7.94493 122.769 8.04145C122.951 8.13797 123.107 8.26345 123.239 8.41788C123.374 8.56845 123.48 8.74605 123.557 8.95068C123.634 9.1553 123.673 9.38502 123.673 9.63983ZM121.704 6.4836C121.704 6.33303 121.681 6.1979 121.634 6.07822C121.588 5.95853 121.519 5.86008 121.426 5.78286C121.333 5.70179 121.215 5.64001 121.073 5.59754C120.934 5.55507 120.746 5.53384 120.511 5.53384H119.741V7.4797H120.592C120.812 7.4797 120.988 7.4546 121.119 7.40441C121.25 7.35036 121.358 7.27894 121.443 7.19014C121.532 7.09748 121.598 6.9913 121.64 6.87162C121.683 6.74807 121.704 6.61873 121.704 6.4836ZM122.092 9.69195C122.092 9.51822 122.063 9.36378 122.005 9.22865C121.947 9.08966 121.862 8.97384 121.75 8.88118C121.638 8.78852 121.495 8.71709 121.322 8.6669C121.148 8.61671 120.922 8.59162 120.644 8.59162H119.741V10.7228H120.841C121.053 10.7228 121.231 10.7016 121.374 10.6591C121.52 10.6128 121.646 10.5471 121.75 10.4622C121.858 10.3734 121.941 10.2653 121.999 10.1379C122.061 10.0066 122.092 9.85797 122.092 9.69195Z" fill="black" fill-opacity="0.1"/>
<path d="M131.369 11.3193C131.415 11.4583 131.444 11.5683 131.456 11.6494C131.467 11.7305 131.452 11.7922 131.409 11.8347C131.367 11.8733 131.292 11.8965 131.184 11.9042C131.076 11.9158 130.927 11.9216 130.738 11.9216C130.541 11.9216 130.386 11.9177 130.274 11.91C130.166 11.9061 130.083 11.8965 130.025 11.881C129.967 11.8617 129.927 11.8366 129.904 11.8058C129.881 11.7749 129.861 11.7343 129.846 11.6841L129.342 10.1784H126.527L126.053 11.6436C126.037 11.6977 126.016 11.744 125.989 11.7826C125.966 11.8173 125.925 11.8463 125.867 11.8695C125.813 11.8888 125.734 11.9023 125.63 11.91C125.529 11.9177 125.396 11.9216 125.23 11.9216C125.053 11.9216 124.914 11.9158 124.813 11.9042C124.713 11.8926 124.643 11.8656 124.605 11.8231C124.566 11.7768 124.553 11.7131 124.564 11.632C124.576 11.5509 124.605 11.4428 124.651 11.3077L126.962 4.65936C126.985 4.59373 127.012 4.54161 127.043 4.503C127.074 4.46053 127.122 4.42964 127.188 4.41034C127.257 4.38717 127.352 4.37366 127.471 4.3698C127.591 4.36208 127.749 4.35822 127.946 4.35822C128.174 4.35822 128.356 4.36208 128.491 4.3698C128.626 4.37366 128.73 4.38717 128.803 4.41034C128.881 4.42964 128.935 4.46053 128.966 4.503C129 4.54547 129.029 4.60338 129.052 4.67674L131.369 11.3193ZM127.929 5.8234H127.923L126.863 9.00859H128.989L127.929 5.8234Z" fill="#2D55BD"/>
<path d="M131.369 11.3193C131.415 11.4583 131.444 11.5683 131.456 11.6494C131.467 11.7305 131.452 11.7922 131.409 11.8347C131.367 11.8733 131.292 11.8965 131.184 11.9042C131.076 11.9158 130.927 11.9216 130.738 11.9216C130.541 11.9216 130.386 11.9177 130.274 11.91C130.166 11.9061 130.083 11.8965 130.025 11.881C129.967 11.8617 129.927 11.8366 129.904 11.8058C129.881 11.7749 129.861 11.7343 129.846 11.6841L129.342 10.1784H126.527L126.053 11.6436C126.037 11.6977 126.016 11.744 125.989 11.7826C125.966 11.8173 125.925 11.8463 125.867 11.8695C125.813 11.8888 125.734 11.9023 125.63 11.91C125.529 11.9177 125.396 11.9216 125.23 11.9216C125.053 11.9216 124.914 11.9158 124.813 11.9042C124.713 11.8926 124.643 11.8656 124.605 11.8231C124.566 11.7768 124.553 11.7131 124.564 11.632C124.576 11.5509 124.605 11.4428 124.651 11.3077L126.962 4.65936C126.985 4.59373 127.012 4.54161 127.043 4.503C127.074 4.46053 127.122 4.42964 127.188 4.41034C127.257 4.38717 127.352 4.37366 127.471 4.3698C127.591 4.36208 127.749 4.35822 127.946 4.35822C128.174 4.35822 128.356 4.36208 128.491 4.3698C128.626 4.37366 128.73 4.38717 128.803 4.41034C128.881 4.42964 128.935 4.46053 128.966 4.503C129 4.54547 129.029 4.60338 129.052 4.67674L131.369 11.3193ZM127.929 5.8234H127.923L126.863 9.00859H128.989L127.929 5.8234Z" fill="black" fill-opacity="0.1"/>
<path d="M137.073 5.01842C137.073 5.13038 137.067 5.2269 137.055 5.30798C137.048 5.3852 137.034 5.4489 137.015 5.49909C136.996 5.54542 136.971 5.58017 136.94 5.60333C136.913 5.6265 136.882 5.63808 136.847 5.63808H134.971V11.6784C134.971 11.717 134.957 11.7517 134.93 11.7826C134.907 11.8135 134.866 11.8386 134.808 11.8579C134.751 11.8772 134.671 11.8926 134.571 11.9042C134.475 11.9158 134.353 11.9216 134.206 11.9216C134.059 11.9216 133.936 11.9158 133.836 11.9042C133.739 11.8926 133.662 11.8772 133.604 11.8579C133.546 11.8386 133.504 11.8135 133.477 11.7826C133.453 11.7517 133.442 11.717 133.442 11.6784V5.63808H131.565C131.527 5.63808 131.494 5.6265 131.467 5.60333C131.44 5.58017 131.417 5.54542 131.397 5.49909C131.378 5.4489 131.363 5.3852 131.351 5.30798C131.343 5.2269 131.34 5.13038 131.34 5.01842C131.34 4.90259 131.343 4.80414 131.351 4.72307C131.363 4.64199 131.378 4.57828 131.397 4.53195C131.417 4.48176 131.44 4.44702 131.467 4.42771C131.494 4.40455 131.527 4.39296 131.565 4.39296H136.847C136.882 4.39296 136.913 4.40455 136.94 4.42771C136.971 4.44702 136.996 4.48176 137.015 4.53195C137.034 4.57828 137.048 4.64199 137.055 4.72307C137.067 4.80414 137.073 4.90259 137.073 5.01842Z" fill="#2D55BD"/>
<path d="M137.073 5.01842C137.073 5.13038 137.067 5.2269 137.055 5.30798C137.048 5.3852 137.034 5.4489 137.015 5.49909C136.996 5.54542 136.971 5.58017 136.94 5.60333C136.913 5.6265 136.882 5.63808 136.847 5.63808H134.971V11.6784C134.971 11.717 134.957 11.7517 134.93 11.7826C134.907 11.8135 134.866 11.8386 134.808 11.8579C134.751 11.8772 134.671 11.8926 134.571 11.9042C134.475 11.9158 134.353 11.9216 134.206 11.9216C134.059 11.9216 133.936 11.9158 133.836 11.9042C133.739 11.8926 133.662 11.8772 133.604 11.8579C133.546 11.8386 133.504 11.8135 133.477 11.7826C133.453 11.7517 133.442 11.717 133.442 11.6784V5.63808H131.565C131.527 5.63808 131.494 5.6265 131.467 5.60333C131.44 5.58017 131.417 5.54542 131.397 5.49909C131.378 5.4489 131.363 5.3852 131.351 5.30798C131.343 5.2269 131.34 5.13038 131.34 5.01842C131.34 4.90259 131.343 4.80414 131.351 4.72307C131.363 4.64199 131.378 4.57828 131.397 4.53195C131.417 4.48176 131.44 4.44702 131.467 4.42771C131.494 4.40455 131.527 4.39296 131.565 4.39296H136.847C136.882 4.39296 136.913 4.40455 136.94 4.42771C136.971 4.44702 136.996 4.48176 137.015 4.53195C137.034 4.57828 137.048 4.64199 137.055 4.72307C137.067 4.80414 137.073 4.90259 137.073 5.01842Z" fill="black" fill-opacity="0.1"/>
<path d="M142.875 11.2903C142.875 11.4023 142.869 11.4969 142.858 11.5741C142.85 11.6475 142.837 11.7073 142.817 11.7536C142.798 11.8 142.773 11.8347 142.742 11.8579C142.715 11.8772 142.684 11.8868 142.649 11.8868H138.885C138.758 11.8868 138.65 11.8502 138.561 11.7768C138.476 11.6996 138.433 11.576 138.433 11.4062V4.87364C138.433 4.70376 138.476 4.58215 138.561 4.50879C138.65 4.43157 138.758 4.39296 138.885 4.39296H142.626C142.661 4.39296 142.692 4.40262 142.719 4.42192C142.746 4.44122 142.769 4.47597 142.788 4.52616C142.808 4.57249 142.821 4.63427 142.829 4.71148C142.84 4.78484 142.846 4.87943 142.846 4.99525C142.846 5.10336 142.84 5.19602 142.829 5.27323C142.821 5.34659 142.808 5.40643 142.788 5.45276C142.769 5.49909 142.746 5.53384 142.719 5.557C142.692 5.57631 142.661 5.58596 142.626 5.58596H139.951V7.41599H142.215C142.25 7.41599 142.281 7.42758 142.308 7.45074C142.339 7.47005 142.364 7.50286 142.383 7.54919C142.402 7.59166 142.416 7.65151 142.424 7.72872C142.435 7.80208 142.441 7.89281 142.441 8.00091C142.441 8.11287 142.435 8.20553 142.424 8.27889C142.416 8.35225 142.402 8.41209 142.383 8.45842C142.364 8.50089 142.339 8.53177 142.308 8.55108C142.281 8.57038 142.25 8.58004 142.215 8.58004H139.951V10.6938H142.649C142.684 10.6938 142.715 10.7054 142.742 10.7286C142.773 10.7479 142.798 10.7807 142.817 10.827C142.837 10.8734 142.85 10.9351 142.858 11.0124C142.869 11.0857 142.875 11.1784 142.875 11.2903Z" fill="#2D55BD"/>
<path d="M142.875 11.2903C142.875 11.4023 142.869 11.4969 142.858 11.5741C142.85 11.6475 142.837 11.7073 142.817 11.7536C142.798 11.8 142.773 11.8347 142.742 11.8579C142.715 11.8772 142.684 11.8868 142.649 11.8868H138.885C138.758 11.8868 138.65 11.8502 138.561 11.7768C138.476 11.6996 138.433 11.576 138.433 11.4062V4.87364C138.433 4.70376 138.476 4.58215 138.561 4.50879C138.65 4.43157 138.758 4.39296 138.885 4.39296H142.626C142.661 4.39296 142.692 4.40262 142.719 4.42192C142.746 4.44122 142.769 4.47597 142.788 4.52616C142.808 4.57249 142.821 4.63427 142.829 4.71148C142.84 4.78484 142.846 4.87943 142.846 4.99525C142.846 5.10336 142.84 5.19602 142.829 5.27323C142.821 5.34659 142.808 5.40643 142.788 5.45276C142.769 5.49909 142.746 5.53384 142.719 5.557C142.692 5.57631 142.661 5.58596 142.626 5.58596H139.951V7.41599H142.215C142.25 7.41599 142.281 7.42758 142.308 7.45074C142.339 7.47005 142.364 7.50286 142.383 7.54919C142.402 7.59166 142.416 7.65151 142.424 7.72872C142.435 7.80208 142.441 7.89281 142.441 8.00091C142.441 8.11287 142.435 8.20553 142.424 8.27889C142.416 8.35225 142.402 8.41209 142.383 8.45842C142.364 8.50089 142.339 8.53177 142.308 8.55108C142.281 8.57038 142.25 8.58004 142.215 8.58004H139.951V10.6938H142.649C142.684 10.6938 142.715 10.7054 142.742 10.7286C142.773 10.7479 142.798 10.7807 142.817 10.827C142.837 10.8734 142.85 10.9351 142.858 11.0124C142.869 11.0857 142.875 11.1784 142.875 11.2903Z" fill="black" fill-opacity="0.1"/>
<path d="M150.38 11.6899C150.38 11.7285 150.369 11.7633 150.345 11.7942C150.322 11.8212 150.282 11.8444 150.224 11.8637C150.166 11.883 150.087 11.8965 149.986 11.9042C149.89 11.9158 149.768 11.9216 149.622 11.9216C149.471 11.9216 149.347 11.9158 149.251 11.9042C149.154 11.8965 149.077 11.883 149.019 11.8637C148.961 11.8444 148.921 11.8212 148.898 11.7942C148.874 11.7633 148.863 11.7285 148.863 11.6899V5.64387H147.253C147.145 6.528 147.035 7.30017 146.923 7.96037C146.811 8.62057 146.691 9.18619 146.564 9.65721C146.436 10.1282 146.295 10.5143 146.141 10.8155C145.99 11.1166 145.817 11.356 145.62 11.5336C145.427 11.7073 145.207 11.827 144.96 11.8926C144.716 11.9583 144.438 11.9911 144.126 11.9911C144.068 11.9911 144.018 11.9834 143.975 11.9679C143.933 11.9525 143.898 11.9235 143.871 11.881C143.848 11.8386 143.83 11.7787 143.819 11.7015C143.807 11.6243 143.801 11.5258 143.801 11.4062C143.801 11.2401 143.805 11.1069 143.813 11.0066C143.821 10.9023 143.834 10.8232 143.853 10.7691C143.873 10.7112 143.898 10.6726 143.929 10.6533C143.96 10.634 143.996 10.6243 144.039 10.6243C144.158 10.6243 144.272 10.6012 144.38 10.5549C144.492 10.5047 144.599 10.4081 144.699 10.2653C144.803 10.1224 144.902 9.92167 144.994 9.663C145.091 9.40432 145.184 9.06457 145.272 8.64374C145.365 8.21905 145.456 7.70363 145.545 7.09748C145.637 6.48747 145.73 5.76356 145.823 4.92576C145.846 4.72886 145.892 4.5918 145.961 4.51458C146.031 4.4335 146.133 4.39296 146.268 4.39296H149.946C150.085 4.39296 150.191 4.4335 150.264 4.51458C150.342 4.5918 150.38 4.71148 150.38 4.87364V11.6899Z" fill="#2D55BD"/>
<path d="M150.38 11.6899C150.38 11.7285 150.369 11.7633 150.345 11.7942C150.322 11.8212 150.282 11.8444 150.224 11.8637C150.166 11.883 150.087 11.8965 149.986 11.9042C149.89 11.9158 149.768 11.9216 149.622 11.9216C149.471 11.9216 149.347 11.9158 149.251 11.9042C149.154 11.8965 149.077 11.883 149.019 11.8637C148.961 11.8444 148.921 11.8212 148.898 11.7942C148.874 11.7633 148.863 11.7285 148.863 11.6899V5.64387H147.253C147.145 6.528 147.035 7.30017 146.923 7.96037C146.811 8.62057 146.691 9.18619 146.564 9.65721C146.436 10.1282 146.295 10.5143 146.141 10.8155C145.99 11.1166 145.817 11.356 145.62 11.5336C145.427 11.7073 145.207 11.827 144.96 11.8926C144.716 11.9583 144.438 11.9911 144.126 11.9911C144.068 11.9911 144.018 11.9834 143.975 11.9679C143.933 11.9525 143.898 11.9235 143.871 11.881C143.848 11.8386 143.83 11.7787 143.819 11.7015C143.807 11.6243 143.801 11.5258 143.801 11.4062C143.801 11.2401 143.805 11.1069 143.813 11.0066C143.821 10.9023 143.834 10.8232 143.853 10.7691C143.873 10.7112 143.898 10.6726 143.929 10.6533C143.96 10.634 143.996 10.6243 144.039 10.6243C144.158 10.6243 144.272 10.6012 144.38 10.5549C144.492 10.5047 144.599 10.4081 144.699 10.2653C144.803 10.1224 144.902 9.92167 144.994 9.663C145.091 9.40432 145.184 9.06457 145.272 8.64374C145.365 8.21905 145.456 7.70363 145.545 7.09748C145.637 6.48747 145.73 5.76356 145.823 4.92576C145.846 4.72886 145.892 4.5918 145.961 4.51458C146.031 4.4335 146.133 4.39296 146.268 4.39296H149.946C150.085 4.39296 150.191 4.4335 150.264 4.51458C150.342 4.5918 150.38 4.71148 150.38 4.87364V11.6899Z" fill="black" fill-opacity="0.1"/>
<path d="M158.007 9.40239C158.007 9.75759 157.953 10.0838 157.845 10.3811C157.74 10.6784 157.569 10.939 157.329 11.1629C157.094 11.383 156.785 11.5587 156.403 11.6899C156.02 11.8212 155.497 11.8868 154.833 11.8868H152.963C152.897 11.8868 152.835 11.8791 152.777 11.8637C152.723 11.8444 152.675 11.8154 152.633 11.7768C152.59 11.7343 152.555 11.6841 152.528 11.6262C152.505 11.5645 152.494 11.4911 152.494 11.4062V4.58987C152.494 4.55126 152.505 4.51844 152.528 4.49142C152.555 4.46053 152.598 4.43543 152.656 4.41613C152.717 4.39683 152.797 4.38331 152.893 4.37559C152.994 4.36401 153.115 4.35822 153.258 4.35822C153.409 4.35822 153.532 4.36401 153.629 4.37559C153.725 4.38331 153.802 4.39683 153.86 4.41613C153.918 4.43543 153.959 4.46053 153.982 4.49142C154.005 4.51844 154.017 4.55126 154.017 4.58987V7.14381H155.065C155.632 7.14381 156.084 7.194 156.42 7.29438C156.756 7.3909 157.04 7.53568 157.271 7.72872C157.507 7.92176 157.688 8.1592 157.816 8.44105C157.943 8.72289 158.007 9.04333 158.007 9.40239ZM156.443 9.5298C156.443 9.34062 156.416 9.17267 156.362 9.02596C156.308 8.87925 156.225 8.75377 156.113 8.64953C156.001 8.54529 155.856 8.46614 155.679 8.41209C155.505 8.35418 155.244 8.32522 154.897 8.32522H154.017V10.7054H154.926C155.289 10.7054 155.559 10.6707 155.737 10.6012C155.918 10.5278 156.059 10.4352 156.159 10.3232C156.26 10.2074 156.331 10.08 156.374 9.94098C156.42 9.80199 156.443 9.66493 156.443 9.5298Z" fill="#2D55BD"/>
<path d="M158.007 9.40239C158.007 9.75759 157.953 10.0838 157.845 10.3811C157.74 10.6784 157.569 10.939 157.329 11.1629C157.094 11.383 156.785 11.5587 156.403 11.6899C156.02 11.8212 155.497 11.8868 154.833 11.8868H152.963C152.897 11.8868 152.835 11.8791 152.777 11.8637C152.723 11.8444 152.675 11.8154 152.633 11.7768C152.59 11.7343 152.555 11.6841 152.528 11.6262C152.505 11.5645 152.494 11.4911 152.494 11.4062V4.58987C152.494 4.55126 152.505 4.51844 152.528 4.49142C152.555 4.46053 152.598 4.43543 152.656 4.41613C152.717 4.39683 152.797 4.38331 152.893 4.37559C152.994 4.36401 153.115 4.35822 153.258 4.35822C153.409 4.35822 153.532 4.36401 153.629 4.37559C153.725 4.38331 153.802 4.39683 153.86 4.41613C153.918 4.43543 153.959 4.46053 153.982 4.49142C154.005 4.51844 154.017 4.55126 154.017 4.58987V7.14381H155.065C155.632 7.14381 156.084 7.194 156.42 7.29438C156.756 7.3909 157.04 7.53568 157.271 7.72872C157.507 7.92176 157.688 8.1592 157.816 8.44105C157.943 8.72289 158.007 9.04333 158.007 9.40239ZM156.443 9.5298C156.443 9.34062 156.416 9.17267 156.362 9.02596C156.308 8.87925 156.225 8.75377 156.113 8.64953C156.001 8.54529 155.856 8.46614 155.679 8.41209C155.505 8.35418 155.244 8.32522 154.897 8.32522H154.017V10.7054H154.926C155.289 10.7054 155.559 10.6707 155.737 10.6012C155.918 10.5278 156.059 10.4352 156.159 10.3232C156.26 10.2074 156.331 10.08 156.374 9.94098C156.42 9.80199 156.443 9.66493 156.443 9.5298Z" fill="black" fill-opacity="0.1"/>
<path d="M165.384 11.6784C165.384 11.717 165.371 11.7517 165.344 11.7826C165.321 11.8135 165.28 11.8386 165.222 11.8579C165.164 11.8772 165.087 11.8926 164.991 11.9042C164.894 11.9158 164.772 11.9216 164.626 11.9216C164.475 11.9216 164.35 11.9158 164.249 11.9042C164.153 11.8926 164.076 11.8772 164.018 11.8579C163.964 11.8386 163.923 11.8135 163.896 11.7826C163.873 11.7517 163.861 11.717 163.861 11.6784V8.64953H161.058V11.6784C161.058 11.717 161.047 11.7517 161.024 11.7826C161 11.8135 160.96 11.8386 160.902 11.8579C160.844 11.8772 160.767 11.8926 160.67 11.9042C160.574 11.9158 160.45 11.9216 160.3 11.9216C160.153 11.9216 160.029 11.9158 159.929 11.9042C159.833 11.8926 159.755 11.8772 159.697 11.8579C159.639 11.8386 159.597 11.8135 159.57 11.7826C159.547 11.7517 159.535 11.717 159.535 11.6784V4.60145C159.535 4.56284 159.547 4.52809 159.57 4.49721C159.597 4.46632 159.639 4.44122 159.697 4.42192C159.755 4.40262 159.833 4.38717 159.929 4.37559C160.029 4.36401 160.153 4.35822 160.3 4.35822C160.45 4.35822 160.574 4.36401 160.67 4.37559C160.767 4.38717 160.844 4.40262 160.902 4.42192C160.96 4.44122 161 4.46632 161.024 4.49721C161.047 4.52809 161.058 4.56284 161.058 4.60145V7.35229H163.861V4.60145C163.861 4.56284 163.873 4.52809 163.896 4.49721C163.923 4.46632 163.964 4.44122 164.018 4.42192C164.076 4.40262 164.153 4.38717 164.249 4.37559C164.35 4.36401 164.475 4.35822 164.626 4.35822C164.772 4.35822 164.894 4.36401 164.991 4.37559C165.087 4.38717 165.164 4.40262 165.222 4.42192C165.28 4.44122 165.321 4.46632 165.344 4.49721C165.371 4.52809 165.384 4.56284 165.384 4.60145V11.6784Z" fill="#2D55BD"/>
<path d="M165.384 11.6784C165.384 11.717 165.371 11.7517 165.344 11.7826C165.321 11.8135 165.28 11.8386 165.222 11.8579C165.164 11.8772 165.087 11.8926 164.991 11.9042C164.894 11.9158 164.772 11.9216 164.626 11.9216C164.475 11.9216 164.35 11.9158 164.249 11.9042C164.153 11.8926 164.076 11.8772 164.018 11.8579C163.964 11.8386 163.923 11.8135 163.896 11.7826C163.873 11.7517 163.861 11.717 163.861 11.6784V8.64953H161.058V11.6784C161.058 11.717 161.047 11.7517 161.024 11.7826C161 11.8135 160.96 11.8386 160.902 11.8579C160.844 11.8772 160.767 11.8926 160.67 11.9042C160.574 11.9158 160.45 11.9216 160.3 11.9216C160.153 11.9216 160.029 11.9158 159.929 11.9042C159.833 11.8926 159.755 11.8772 159.697 11.8579C159.639 11.8386 159.597 11.8135 159.57 11.7826C159.547 11.7517 159.535 11.717 159.535 11.6784V4.60145C159.535 4.56284 159.547 4.52809 159.57 4.49721C159.597 4.46632 159.639 4.44122 159.697 4.42192C159.755 4.40262 159.833 4.38717 159.929 4.37559C160.029 4.36401 160.153 4.35822 160.3 4.35822C160.45 4.35822 160.574 4.36401 160.67 4.37559C160.767 4.38717 160.844 4.40262 160.902 4.42192C160.96 4.44122 161 4.46632 161.024 4.49721C161.047 4.52809 161.058 4.56284 161.058 4.60145V7.35229H163.861V4.60145C163.861 4.56284 163.873 4.52809 163.896 4.49721C163.923 4.46632 163.964 4.44122 164.018 4.42192C164.076 4.40262 164.153 4.38717 164.249 4.37559C164.35 4.36401 164.475 4.35822 164.626 4.35822C164.772 4.35822 164.894 4.36401 164.991 4.37559C165.087 4.38717 165.164 4.40262 165.222 4.42192C165.28 4.44122 165.321 4.46632 165.344 4.49721C165.371 4.52809 165.384 4.56284 165.384 4.60145V11.6784Z" fill="black" fill-opacity="0.1"/>
<path d="M173.631 11.3193C173.677 11.4583 173.706 11.5683 173.718 11.6494C173.729 11.7305 173.714 11.7922 173.671 11.8347C173.629 11.8733 173.553 11.8965 173.445 11.9042C173.337 11.9158 173.189 11.9216 172.999 11.9216C172.803 11.9216 172.648 11.9177 172.536 11.91C172.428 11.9061 172.345 11.8965 172.287 11.881C172.229 11.8617 172.189 11.8366 172.165 11.8058C172.142 11.7749 172.123 11.7343 172.108 11.6841L171.604 10.1784H168.789L168.314 11.6436C168.299 11.6977 168.278 11.744 168.251 11.7826C168.227 11.8173 168.187 11.8463 168.129 11.8695C168.075 11.8888 167.996 11.9023 167.892 11.91C167.791 11.9177 167.658 11.9216 167.492 11.9216C167.314 11.9216 167.175 11.9158 167.075 11.9042C166.975 11.8926 166.905 11.8656 166.867 11.8231C166.828 11.7768 166.814 11.7131 166.826 11.632C166.838 11.5509 166.867 11.4428 166.913 11.3077L169.224 4.65936C169.247 4.59373 169.274 4.54161 169.305 4.503C169.336 4.46053 169.384 4.42964 169.449 4.41034C169.519 4.38717 169.613 4.37366 169.733 4.3698C169.853 4.36208 170.011 4.35822 170.208 4.35822C170.436 4.35822 170.617 4.36208 170.752 4.3698C170.888 4.37366 170.992 4.38717 171.065 4.41034C171.142 4.42964 171.196 4.46053 171.227 4.503C171.262 4.54547 171.291 4.60338 171.314 4.67674L173.631 11.3193ZM170.191 5.8234H170.185L169.125 9.00859H171.25L170.191 5.8234Z" fill="#2D55BD"/>
<path d="M173.631 11.3193C173.677 11.4583 173.706 11.5683 173.718 11.6494C173.729 11.7305 173.714 11.7922 173.671 11.8347C173.629 11.8733 173.553 11.8965 173.445 11.9042C173.337 11.9158 173.189 11.9216 172.999 11.9216C172.803 11.9216 172.648 11.9177 172.536 11.91C172.428 11.9061 172.345 11.8965 172.287 11.881C172.229 11.8617 172.189 11.8366 172.165 11.8058C172.142 11.7749 172.123 11.7343 172.108 11.6841L171.604 10.1784H168.789L168.314 11.6436C168.299 11.6977 168.278 11.744 168.251 11.7826C168.227 11.8173 168.187 11.8463 168.129 11.8695C168.075 11.8888 167.996 11.9023 167.892 11.91C167.791 11.9177 167.658 11.9216 167.492 11.9216C167.314 11.9216 167.175 11.9158 167.075 11.9042C166.975 11.8926 166.905 11.8656 166.867 11.8231C166.828 11.7768 166.814 11.7131 166.826 11.632C166.838 11.5509 166.867 11.4428 166.913 11.3077L169.224 4.65936C169.247 4.59373 169.274 4.54161 169.305 4.503C169.336 4.46053 169.384 4.42964 169.449 4.41034C169.519 4.38717 169.613 4.37366 169.733 4.3698C169.853 4.36208 170.011 4.35822 170.208 4.35822C170.436 4.35822 170.617 4.36208 170.752 4.3698C170.888 4.37366 170.992 4.38717 171.065 4.41034C171.142 4.42964 171.196 4.46053 171.227 4.503C171.262 4.54547 171.291 4.60338 171.314 4.67674L173.631 11.3193ZM170.191 5.8234H170.185L169.125 9.00859H171.25L170.191 5.8234Z" fill="black" fill-opacity="0.1"/>
<path d="M180.331 11.6899C180.331 11.7285 180.319 11.7633 180.296 11.7942C180.273 11.8212 180.232 11.8444 180.174 11.8637C180.12 11.883 180.043 11.8965 179.943 11.9042C179.846 11.9158 179.725 11.9216 179.578 11.9216C179.427 11.9216 179.304 11.9158 179.207 11.9042C179.111 11.8965 179.032 11.883 178.97 11.8637C178.912 11.8444 178.871 11.8212 178.848 11.7942C178.825 11.7633 178.813 11.7285 178.813 11.6899V8.88697H178.252C178.02 8.88697 177.842 8.91014 177.719 8.95647C177.599 9.0028 177.491 9.07422 177.395 9.17074C177.302 9.26726 177.219 9.38888 177.145 9.53559C177.072 9.67844 177.001 9.84832 176.931 10.0452L176.364 11.6668C176.344 11.7131 176.319 11.7536 176.288 11.7884C176.257 11.8193 176.209 11.8463 176.144 11.8695C176.082 11.8888 175.999 11.9023 175.895 11.91C175.79 11.9177 175.657 11.9216 175.495 11.9216C175.317 11.9216 175.176 11.9158 175.072 11.9042C174.972 11.8926 174.895 11.8772 174.841 11.8579C174.787 11.8347 174.752 11.8096 174.736 11.7826C174.721 11.7556 174.713 11.7266 174.713 11.6957C174.713 11.6571 174.719 11.6108 174.731 11.5567C174.746 11.4988 174.775 11.4139 174.817 11.3019L175.379 9.83094C175.453 9.6379 175.528 9.46996 175.605 9.32711C175.682 9.18426 175.767 9.05685 175.86 8.94488C175.956 8.82906 176.057 8.73254 176.161 8.65532C176.269 8.5781 176.387 8.51633 176.514 8.47C176.275 8.40437 176.063 8.31943 175.877 8.21519C175.696 8.10708 175.541 7.97775 175.414 7.82717C175.29 7.67274 175.196 7.49707 175.13 7.30017C175.068 7.09941 175.037 6.87548 175.037 6.62839C175.037 6.28863 175.095 5.9817 175.211 5.70758C175.331 5.4296 175.507 5.19409 175.738 5.00105C175.97 4.808 176.257 4.65936 176.601 4.55512C176.949 4.44702 177.431 4.39296 178.049 4.39296H179.885C180.008 4.39296 180.113 4.43157 180.197 4.50879C180.286 4.58215 180.331 4.70376 180.331 4.87364V11.6899ZM178.813 5.56859H178.032C177.703 5.56859 177.458 5.59368 177.296 5.64387C177.134 5.69406 177.001 5.76742 176.896 5.86394C176.796 5.9566 176.723 6.0705 176.676 6.20562C176.63 6.33689 176.607 6.4836 176.607 6.64576C176.607 6.80405 176.632 6.95076 176.682 7.08589C176.732 7.21716 176.81 7.33299 176.914 7.43337C177.018 7.52989 177.151 7.60518 177.313 7.65923C177.476 7.71328 177.707 7.7403 178.008 7.7403H178.813V5.56859Z" fill="#2D55BD"/>
<path d="M180.331 11.6899C180.331 11.7285 180.319 11.7633 180.296 11.7942C180.273 11.8212 180.232 11.8444 180.174 11.8637C180.12 11.883 180.043 11.8965 179.943 11.9042C179.846 11.9158 179.725 11.9216 179.578 11.9216C179.427 11.9216 179.304 11.9158 179.207 11.9042C179.111 11.8965 179.032 11.883 178.97 11.8637C178.912 11.8444 178.871 11.8212 178.848 11.7942C178.825 11.7633 178.813 11.7285 178.813 11.6899V8.88697H178.252C178.02 8.88697 177.842 8.91014 177.719 8.95647C177.599 9.0028 177.491 9.07422 177.395 9.17074C177.302 9.26726 177.219 9.38888 177.145 9.53559C177.072 9.67844 177.001 9.84832 176.931 10.0452L176.364 11.6668C176.344 11.7131 176.319 11.7536 176.288 11.7884C176.257 11.8193 176.209 11.8463 176.144 11.8695C176.082 11.8888 175.999 11.9023 175.895 11.91C175.79 11.9177 175.657 11.9216 175.495 11.9216C175.317 11.9216 175.176 11.9158 175.072 11.9042C174.972 11.8926 174.895 11.8772 174.841 11.8579C174.787 11.8347 174.752 11.8096 174.736 11.7826C174.721 11.7556 174.713 11.7266 174.713 11.6957C174.713 11.6571 174.719 11.6108 174.731 11.5567C174.746 11.4988 174.775 11.4139 174.817 11.3019L175.379 9.83094C175.453 9.6379 175.528 9.46996 175.605 9.32711C175.682 9.18426 175.767 9.05685 175.86 8.94488C175.956 8.82906 176.057 8.73254 176.161 8.65532C176.269 8.5781 176.387 8.51633 176.514 8.47C176.275 8.40437 176.063 8.31943 175.877 8.21519C175.696 8.10708 175.541 7.97775 175.414 7.82717C175.29 7.67274 175.196 7.49707 175.13 7.30017C175.068 7.09941 175.037 6.87548 175.037 6.62839C175.037 6.28863 175.095 5.9817 175.211 5.70758C175.331 5.4296 175.507 5.19409 175.738 5.00105C175.97 4.808 176.257 4.65936 176.601 4.55512C176.949 4.44702 177.431 4.39296 178.049 4.39296H179.885C180.008 4.39296 180.113 4.43157 180.197 4.50879C180.286 4.58215 180.331 4.70376 180.331 4.87364V11.6899ZM178.813 5.56859H178.032C177.703 5.56859 177.458 5.59368 177.296 5.64387C177.134 5.69406 177.001 5.76742 176.896 5.86394C176.796 5.9566 176.723 6.0705 176.676 6.20562C176.63 6.33689 176.607 6.4836 176.607 6.64576C176.607 6.80405 176.632 6.95076 176.682 7.08589C176.732 7.21716 176.81 7.33299 176.914 7.43337C177.018 7.52989 177.151 7.60518 177.313 7.65923C177.476 7.71328 177.707 7.7403 178.008 7.7403H178.813V5.56859Z" fill="black" fill-opacity="0.1"/>
<path d="M79.7375 26.7074C79.7375 26.7499 79.7259 26.7866 79.7027 26.8174C79.6795 26.8445 79.6371 26.8676 79.5753 26.8869C79.5174 26.9062 79.4382 26.9198 79.3379 26.9275C79.2375 26.9391 79.1081 26.9448 78.9499 26.9448C78.7838 26.9448 78.6487 26.9391 78.5445 26.9275C78.4441 26.9198 78.363 26.9062 78.3012 26.8869C78.2395 26.8638 78.1931 26.8348 78.1622 26.8001C78.1314 26.7615 78.1082 26.7151 78.0927 26.6611L77.4905 24.9932C77.4055 24.75 77.3167 24.5473 77.2241 24.3851C77.1314 24.2191 77.0291 24.0859 76.9171 23.9855C76.8052 23.8813 76.6778 23.8079 76.5349 23.7655C76.3921 23.723 76.2318 23.7018 76.0542 23.7018H75.7125V26.7016C75.7125 26.7441 75.701 26.7808 75.6778 26.8117C75.6546 26.8387 75.6141 26.8638 75.5562 26.8869C75.4983 26.9062 75.4211 26.9198 75.3245 26.9275C75.228 26.9391 75.1045 26.9448 74.9539 26.9448C74.8072 26.9448 74.6836 26.9391 74.5833 26.9275C74.4867 26.9198 74.4095 26.9062 74.3516 26.8869C74.2937 26.8638 74.2512 26.8387 74.2242 26.8117C74.201 26.7808 74.1894 26.7441 74.1894 26.7016V19.6189C74.1894 19.5765 74.201 19.5417 74.2242 19.5147C74.2512 19.4838 74.2937 19.4587 74.3516 19.4394C74.4095 19.4201 74.4867 19.4066 74.5833 19.3989C74.6836 19.3873 74.8072 19.3815 74.9539 19.3815C75.1045 19.3815 75.228 19.3873 75.3245 19.3989C75.4211 19.4066 75.4983 19.4201 75.5562 19.4394C75.6141 19.4587 75.6546 19.4838 75.6778 19.5147C75.701 19.5417 75.7125 19.5765 75.7125 19.6189V22.4335H76.0542C76.228 22.4335 76.3805 22.4103 76.5117 22.364C76.643 22.3176 76.7608 22.2443 76.865 22.1439C76.9731 22.0435 77.0696 21.9142 77.1546 21.7559C77.2434 21.5937 77.3283 21.3949 77.4094 21.1594L77.9132 19.6653C77.9325 19.6112 77.9557 19.5668 77.9827 19.5321C78.0097 19.4934 78.0522 19.4645 78.1101 19.4452C78.1719 19.422 78.251 19.4066 78.3476 19.3989C78.4479 19.3873 78.5811 19.3815 78.7472 19.3815C78.8977 19.3815 79.0213 19.3873 79.1178 19.3989C79.2182 19.4066 79.2954 19.4201 79.3494 19.4394C79.4074 19.4548 79.446 19.478 79.4653 19.5089C79.4846 19.5359 79.4942 19.5707 79.4942 19.6131C79.4942 19.6633 79.4846 19.7251 79.4653 19.7985C79.4498 19.8718 79.4209 19.9683 79.3784 20.088L78.8746 21.42C78.7819 21.6671 78.6892 21.8775 78.5966 22.0512C78.5039 22.225 78.4055 22.3736 78.3012 22.4972C78.2008 22.6169 78.0927 22.7153 77.9769 22.7925C77.865 22.8697 77.7395 22.9334 77.6005 22.9836V22.9894C77.7549 23.0551 77.8939 23.1303 78.0175 23.2153C78.1449 23.2964 78.2626 23.4006 78.3707 23.528C78.4827 23.6554 78.5889 23.8118 78.6892 23.9971C78.7896 24.1824 78.8919 24.4102 78.9962 24.6805L79.6101 26.2325C79.6718 26.3908 79.7085 26.5009 79.7201 26.5626C79.7317 26.6205 79.7375 26.6688 79.7375 26.7074Z" fill="#2D55BD"/>
<path d="M79.7375 26.7074C79.7375 26.7499 79.7259 26.7866 79.7027 26.8174C79.6795 26.8445 79.6371 26.8676 79.5753 26.8869C79.5174 26.9062 79.4382 26.9198 79.3379 26.9275C79.2375 26.9391 79.1081 26.9448 78.9499 26.9448C78.7838 26.9448 78.6487 26.9391 78.5445 26.9275C78.4441 26.9198 78.363 26.9062 78.3012 26.8869C78.2395 26.8638 78.1931 26.8348 78.1622 26.8001C78.1314 26.7615 78.1082 26.7151 78.0927 26.6611L77.4905 24.9932C77.4055 24.75 77.3167 24.5473 77.2241 24.3851C77.1314 24.2191 77.0291 24.0859 76.9171 23.9855C76.8052 23.8813 76.6778 23.8079 76.5349 23.7655C76.3921 23.723 76.2318 23.7018 76.0542 23.7018H75.7125V26.7016C75.7125 26.7441 75.701 26.7808 75.6778 26.8117C75.6546 26.8387 75.6141 26.8638 75.5562 26.8869C75.4983 26.9062 75.4211 26.9198 75.3245 26.9275C75.228 26.9391 75.1045 26.9448 74.9539 26.9448C74.8072 26.9448 74.6836 26.9391 74.5833 26.9275C74.4867 26.9198 74.4095 26.9062 74.3516 26.8869C74.2937 26.8638 74.2512 26.8387 74.2242 26.8117C74.201 26.7808 74.1894 26.7441 74.1894 26.7016V19.6189C74.1894 19.5765 74.201 19.5417 74.2242 19.5147C74.2512 19.4838 74.2937 19.4587 74.3516 19.4394C74.4095 19.4201 74.4867 19.4066 74.5833 19.3989C74.6836 19.3873 74.8072 19.3815 74.9539 19.3815C75.1045 19.3815 75.228 19.3873 75.3245 19.3989C75.4211 19.4066 75.4983 19.4201 75.5562 19.4394C75.6141 19.4587 75.6546 19.4838 75.6778 19.5147C75.701 19.5417 75.7125 19.5765 75.7125 19.6189V22.4335H76.0542C76.228 22.4335 76.3805 22.4103 76.5117 22.364C76.643 22.3176 76.7608 22.2443 76.865 22.1439C76.9731 22.0435 77.0696 21.9142 77.1546 21.7559C77.2434 21.5937 77.3283 21.3949 77.4094 21.1594L77.9132 19.6653C77.9325 19.6112 77.9557 19.5668 77.9827 19.5321C78.0097 19.4934 78.0522 19.4645 78.1101 19.4452C78.1719 19.422 78.251 19.4066 78.3476 19.3989C78.4479 19.3873 78.5811 19.3815 78.7472 19.3815C78.8977 19.3815 79.0213 19.3873 79.1178 19.3989C79.2182 19.4066 79.2954 19.4201 79.3494 19.4394C79.4074 19.4548 79.446 19.478 79.4653 19.5089C79.4846 19.5359 79.4942 19.5707 79.4942 19.6131C79.4942 19.6633 79.4846 19.7251 79.4653 19.7985C79.4498 19.8718 79.4209 19.9683 79.3784 20.088L78.8746 21.42C78.7819 21.6671 78.6892 21.8775 78.5966 22.0512C78.5039 22.225 78.4055 22.3736 78.3012 22.4972C78.2008 22.6169 78.0927 22.7153 77.9769 22.7925C77.865 22.8697 77.7395 22.9334 77.6005 22.9836V22.9894C77.7549 23.0551 77.8939 23.1303 78.0175 23.2153C78.1449 23.2964 78.2626 23.4006 78.3707 23.528C78.4827 23.6554 78.5889 23.8118 78.6892 23.9971C78.7896 24.1824 78.8919 24.4102 78.9962 24.6805L79.6101 26.2325C79.6718 26.3908 79.7085 26.5009 79.7201 26.5626C79.7317 26.6205 79.7375 26.6688 79.7375 26.7074Z" fill="black" fill-opacity="0.1"/>
<path d="M87.4857 26.3426C87.532 26.4816 87.561 26.5916 87.5725 26.6727C87.5841 26.7537 87.5687 26.8155 87.5262 26.858C87.4838 26.8966 87.4085 26.9198 87.3004 26.9275C87.1923 26.9391 87.0436 26.9448 86.8544 26.9448C86.6575 26.9448 86.5031 26.941 86.3911 26.9333C86.283 26.9294 86.2 26.9198 86.1421 26.9043C86.0842 26.885 86.0437 26.8599 86.0205 26.829C85.9973 26.7981 85.978 26.7576 85.9626 26.7074L85.4587 25.2017H82.6442L82.1693 26.6669C82.1539 26.7209 82.1326 26.7673 82.1056 26.8059C82.0824 26.8406 82.0419 26.8696 81.984 26.8927C81.9299 26.912 81.8508 26.9255 81.7466 26.9333C81.6462 26.941 81.513 26.9448 81.347 26.9448C81.1694 26.9448 81.0304 26.9391 80.93 26.9275C80.8296 26.9159 80.7601 26.8889 80.7215 26.8464C80.6829 26.8001 80.6694 26.7364 80.681 26.6553C80.6926 26.5742 80.7215 26.4661 80.7678 26.331L83.0785 19.6826C83.1017 19.617 83.1287 19.5649 83.1596 19.5263C83.1905 19.4838 83.2388 19.4529 83.3044 19.4336C83.3739 19.4104 83.4685 19.3969 83.5882 19.3931C83.7079 19.3853 83.8662 19.3815 84.0631 19.3815C84.2908 19.3815 84.4723 19.3853 84.6074 19.3931C84.7426 19.3969 84.8468 19.4104 84.9202 19.4336C84.9974 19.4529 85.0514 19.4838 85.0823 19.5263C85.1171 19.5687 85.146 19.6266 85.1692 19.7L87.4857 26.3426ZM84.0457 20.8467H84.0399L82.9801 24.0319H85.1055L84.0457 20.8467Z" fill="#2D55BD"/>
<path d="M87.4857 26.3426C87.532 26.4816 87.561 26.5916 87.5725 26.6727C87.5841 26.7537 87.5687 26.8155 87.5262 26.858C87.4838 26.8966 87.4085 26.9198 87.3004 26.9275C87.1923 26.9391 87.0436 26.9448 86.8544 26.9448C86.6575 26.9448 86.5031 26.941 86.3911 26.9333C86.283 26.9294 86.2 26.9198 86.1421 26.9043C86.0842 26.885 86.0437 26.8599 86.0205 26.829C85.9973 26.7981 85.978 26.7576 85.9626 26.7074L85.4587 25.2017H82.6442L82.1693 26.6669C82.1539 26.7209 82.1326 26.7673 82.1056 26.8059C82.0824 26.8406 82.0419 26.8696 81.984 26.8927C81.9299 26.912 81.8508 26.9255 81.7466 26.9333C81.6462 26.941 81.513 26.9448 81.347 26.9448C81.1694 26.9448 81.0304 26.9391 80.93 26.9275C80.8296 26.9159 80.7601 26.8889 80.7215 26.8464C80.6829 26.8001 80.6694 26.7364 80.681 26.6553C80.6926 26.5742 80.7215 26.4661 80.7678 26.331L83.0785 19.6826C83.1017 19.617 83.1287 19.5649 83.1596 19.5263C83.1905 19.4838 83.2388 19.4529 83.3044 19.4336C83.3739 19.4104 83.4685 19.3969 83.5882 19.3931C83.7079 19.3853 83.8662 19.3815 84.0631 19.3815C84.2908 19.3815 84.4723 19.3853 84.6074 19.3931C84.7426 19.3969 84.8468 19.4104 84.9202 19.4336C84.9974 19.4529 85.0514 19.4838 85.0823 19.5263C85.1171 19.5687 85.146 19.6266 85.1692 19.7L87.4857 26.3426ZM84.0457 20.8467H84.0399L82.9801 24.0319H85.1055L84.0457 20.8467Z" fill="black" fill-opacity="0.1"/>
<path d="M94.1451 21.6922C94.1451 22.113 94.0795 22.4856 93.9482 22.8099C93.817 23.1342 93.6259 23.4083 93.3749 23.6323C93.124 23.8523 92.8151 24.0203 92.4483 24.1361C92.0854 24.2519 91.6568 24.3098 91.1627 24.3098H90.5372V26.7016C90.5372 26.7402 90.5237 26.775 90.4967 26.8059C90.4735 26.8367 90.433 26.8618 90.375 26.8811C90.3171 26.9004 90.2399 26.9159 90.1434 26.9275C90.0469 26.9391 89.9233 26.9448 89.7728 26.9448C89.626 26.9448 89.5025 26.9391 89.4021 26.9275C89.3056 26.9159 89.2284 26.9004 89.1705 26.8811C89.1126 26.8618 89.072 26.8367 89.0489 26.8059C89.0257 26.775 89.0141 26.7402 89.0141 26.7016V19.9606C89.0141 19.7791 89.0604 19.644 89.1531 19.5552C89.2496 19.4626 89.3751 19.4162 89.5295 19.4162H91.2959C91.4735 19.4162 91.6414 19.424 91.7997 19.4394C91.9618 19.451 92.1549 19.4799 92.3788 19.5263C92.6027 19.5687 92.8286 19.6498 93.0564 19.7695C93.288 19.8892 93.4849 20.0417 93.6471 20.227C93.8093 20.4085 93.9328 20.6227 94.0177 20.8698C94.1027 21.1131 94.1451 21.3872 94.1451 21.6922ZM92.5526 21.8022C92.5526 21.5397 92.5062 21.3235 92.4136 21.1536C92.3209 20.9837 92.207 20.8582 92.0719 20.7772C91.9368 20.6961 91.7939 20.6459 91.6433 20.6266C91.4966 20.6034 91.3441 20.5919 91.1858 20.5919H90.5372V23.1342H91.2206C91.4638 23.1342 91.6665 23.1014 91.8287 23.0358C91.9947 22.9701 92.1298 22.8794 92.234 22.7636C92.3383 22.6439 92.4174 22.503 92.4715 22.3408C92.5255 22.1748 92.5526 21.9953 92.5526 21.8022Z" fill="#2D55BD"/>
<path d="M94.1451 21.6922C94.1451 22.113 94.0795 22.4856 93.9482 22.8099C93.817 23.1342 93.6259 23.4083 93.3749 23.6323C93.124 23.8523 92.8151 24.0203 92.4483 24.1361C92.0854 24.2519 91.6568 24.3098 91.1627 24.3098H90.5372V26.7016C90.5372 26.7402 90.5237 26.775 90.4967 26.8059C90.4735 26.8367 90.433 26.8618 90.375 26.8811C90.3171 26.9004 90.2399 26.9159 90.1434 26.9275C90.0469 26.9391 89.9233 26.9448 89.7728 26.9448C89.626 26.9448 89.5025 26.9391 89.4021 26.9275C89.3056 26.9159 89.2284 26.9004 89.1705 26.8811C89.1126 26.8618 89.072 26.8367 89.0489 26.8059C89.0257 26.775 89.0141 26.7402 89.0141 26.7016V19.9606C89.0141 19.7791 89.0604 19.644 89.1531 19.5552C89.2496 19.4626 89.3751 19.4162 89.5295 19.4162H91.2959C91.4735 19.4162 91.6414 19.424 91.7997 19.4394C91.9618 19.451 92.1549 19.4799 92.3788 19.5263C92.6027 19.5687 92.8286 19.6498 93.0564 19.7695C93.288 19.8892 93.4849 20.0417 93.6471 20.227C93.8093 20.4085 93.9328 20.6227 94.0177 20.8698C94.1027 21.1131 94.1451 21.3872 94.1451 21.6922ZM92.5526 21.8022C92.5526 21.5397 92.5062 21.3235 92.4136 21.1536C92.3209 20.9837 92.207 20.8582 92.0719 20.7772C91.9368 20.6961 91.7939 20.6459 91.6433 20.6266C91.4966 20.6034 91.3441 20.5919 91.1858 20.5919H90.5372V23.1342H91.2206C91.4638 23.1342 91.6665 23.1014 91.8287 23.0358C91.9947 22.9701 92.1298 22.8794 92.234 22.7636C92.3383 22.6439 92.4174 22.503 92.4715 22.3408C92.5255 22.1748 92.5526 21.9953 92.5526 21.8022Z" fill="black" fill-opacity="0.1"/>
<path d="M100.729 20.0417C100.729 20.1536 100.724 20.2502 100.712 20.3312C100.704 20.4085 100.691 20.4722 100.671 20.5224C100.652 20.5687 100.627 20.6034 100.596 20.6266C100.569 20.6498 100.538 20.6613 100.503 20.6613H98.6271V26.7016C98.6271 26.7402 98.6136 26.775 98.5866 26.8059C98.5634 26.8367 98.5229 26.8618 98.465 26.8811C98.407 26.9004 98.3279 26.9159 98.2275 26.9275C98.131 26.9391 98.0094 26.9448 97.8627 26.9448C97.716 26.9448 97.5924 26.9391 97.492 26.9275C97.3955 26.9159 97.3183 26.9004 97.2604 26.8811C97.2025 26.8618 97.16 26.8367 97.133 26.8059C97.1098 26.775 97.0982 26.7402 97.0982 26.7016V20.6613H95.2219C95.1832 20.6613 95.1504 20.6498 95.1234 20.6266C95.0964 20.6034 95.0732 20.5687 95.0539 20.5224C95.0346 20.4722 95.0192 20.4085 95.0076 20.3312C94.9999 20.2502 94.996 20.1536 94.996 20.0417C94.996 19.9259 94.9999 19.8274 95.0076 19.7463C95.0192 19.6653 95.0346 19.6015 95.0539 19.5552C95.0732 19.505 95.0964 19.4703 95.1234 19.451C95.1504 19.4278 95.1832 19.4162 95.2219 19.4162H100.503C100.538 19.4162 100.569 19.4278 100.596 19.451C100.627 19.4703 100.652 19.505 100.671 19.5552C100.691 19.6015 100.704 19.6653 100.712 19.7463C100.724 19.8274 100.729 19.9259 100.729 20.0417Z" fill="#2D55BD"/>
<path d="M100.729 20.0417C100.729 20.1536 100.724 20.2502 100.712 20.3312C100.704 20.4085 100.691 20.4722 100.671 20.5224C100.652 20.5687 100.627 20.6034 100.596 20.6266C100.569 20.6498 100.538 20.6613 100.503 20.6613H98.6271V26.7016C98.6271 26.7402 98.6136 26.775 98.5866 26.8059C98.5634 26.8367 98.5229 26.8618 98.465 26.8811C98.407 26.9004 98.3279 26.9159 98.2275 26.9275C98.131 26.9391 98.0094 26.9448 97.8627 26.9448C97.716 26.9448 97.5924 26.9391 97.492 26.9275C97.3955 26.9159 97.3183 26.9004 97.2604 26.8811C97.2025 26.8618 97.16 26.8367 97.133 26.8059C97.1098 26.775 97.0982 26.7402 97.0982 26.7016V20.6613H95.2219C95.1832 20.6613 95.1504 20.6498 95.1234 20.6266C95.0964 20.6034 95.0732 20.5687 95.0539 20.5224C95.0346 20.4722 95.0192 20.4085 95.0076 20.3312C94.9999 20.2502 94.996 20.1536 94.996 20.0417C94.996 19.9259 94.9999 19.8274 95.0076 19.7463C95.0192 19.6653 95.0346 19.6015 95.0539 19.5552C95.0732 19.505 95.0964 19.4703 95.1234 19.451C95.1504 19.4278 95.1832 19.4162 95.2219 19.4162H100.503C100.538 19.4162 100.569 19.4278 100.596 19.451C100.627 19.4703 100.652 19.505 100.671 19.5552C100.691 19.6015 100.704 19.6653 100.712 19.7463C100.724 19.8274 100.729 19.9259 100.729 20.0417Z" fill="black" fill-opacity="0.1"/>
<path d="M107.418 26.3426C107.464 26.4816 107.493 26.5916 107.505 26.6727C107.516 26.7537 107.501 26.8155 107.458 26.858C107.416 26.8966 107.341 26.9198 107.232 26.9275C107.124 26.9391 106.976 26.9448 106.787 26.9448C106.59 26.9448 106.435 26.941 106.323 26.9333C106.215 26.9294 106.132 26.9198 106.074 26.9043C106.016 26.885 105.976 26.8599 105.953 26.829C105.929 26.7981 105.91 26.7576 105.895 26.7074L105.391 25.2017H102.576L102.101 26.6669C102.086 26.7209 102.065 26.7673 102.038 26.8059C102.015 26.8406 101.974 26.8696 101.916 26.8927C101.862 26.912 101.783 26.9255 101.679 26.9333C101.578 26.941 101.445 26.9448 101.279 26.9448C101.101 26.9448 100.962 26.9391 100.862 26.9275C100.762 26.9159 100.692 26.8889 100.654 26.8464C100.615 26.8001 100.601 26.7364 100.613 26.6553C100.625 26.5742 100.654 26.4661 100.7 26.331L103.011 19.6826C103.034 19.617 103.061 19.5649 103.092 19.5263C103.123 19.4838 103.171 19.4529 103.236 19.4336C103.306 19.4104 103.401 19.3969 103.52 19.3931C103.64 19.3853 103.798 19.3815 103.995 19.3815C104.223 19.3815 104.404 19.3853 104.54 19.3931C104.675 19.3969 104.779 19.4104 104.852 19.4336C104.929 19.4529 104.984 19.4838 105.014 19.5263C105.049 19.5687 105.078 19.6266 105.101 19.7L107.418 26.3426ZM103.978 20.8467H103.972L102.912 24.0319H105.038L103.978 20.8467Z" fill="#2D55BD"/>
<path d="M107.418 26.3426C107.464 26.4816 107.493 26.5916 107.505 26.6727C107.516 26.7537 107.501 26.8155 107.458 26.858C107.416 26.8966 107.341 26.9198 107.232 26.9275C107.124 26.9391 106.976 26.9448 106.787 26.9448C106.59 26.9448 106.435 26.941 106.323 26.9333C106.215 26.9294 106.132 26.9198 106.074 26.9043C106.016 26.885 105.976 26.8599 105.953 26.829C105.929 26.7981 105.91 26.7576 105.895 26.7074L105.391 25.2017H102.576L102.101 26.6669C102.086 26.7209 102.065 26.7673 102.038 26.8059C102.015 26.8406 101.974 26.8696 101.916 26.8927C101.862 26.912 101.783 26.9255 101.679 26.9333C101.578 26.941 101.445 26.9448 101.279 26.9448C101.101 26.9448 100.962 26.9391 100.862 26.9275C100.762 26.9159 100.692 26.8889 100.654 26.8464C100.615 26.8001 100.601 26.7364 100.613 26.6553C100.625 26.5742 100.654 26.4661 100.7 26.331L103.011 19.6826C103.034 19.617 103.061 19.5649 103.092 19.5263C103.123 19.4838 103.171 19.4529 103.236 19.4336C103.306 19.4104 103.401 19.3969 103.52 19.3931C103.64 19.3853 103.798 19.3815 103.995 19.3815C104.223 19.3815 104.404 19.3853 104.54 19.3931C104.675 19.3969 104.779 19.4104 104.852 19.4336C104.929 19.4529 104.984 19.4838 105.014 19.5263C105.049 19.5687 105.078 19.6266 105.101 19.7L107.418 26.3426ZM103.978 20.8467H103.972L102.912 24.0319H105.038L103.978 20.8467Z" fill="black" fill-opacity="0.1"/>
<g clip-path="url(#clip0)">
<path d="M17.1944 0C7.70197 0 0.00568411 7.60364 0 16.9888C0.00568411 10.1101 5.65001 4.53521 12.6074 4.53521C19.5704 4.53521 25.2147 10.1157 25.2147 17C25.2147 21.3835 21.6224 24.9296 17.1944 24.9296C12.9029 24.9296 9.39583 21.597 9.17984 17.4102C9.40152 24.1035 14.9549 29.4648 21.7815 29.4648C28.7389 29.4648 34.3775 23.8955 34.3889 17.0225C34.3889 17.0112 34.3889 17.0056 34.3889 17C34.3889 7.60926 26.6926 0 17.1944 0Z" fill="url(#paint0_linear)"/>
<path d="M17.1944 34.0002C26.6869 34.0002 34.3832 26.3966 34.3889 17.0114C34.3832 23.8901 28.7389 29.465 21.7815 29.465C14.8185 29.465 9.17415 23.8845 9.17415 17.0002C9.17415 12.6167 12.7665 9.06499 17.1944 9.06499C21.4859 9.06499 24.993 12.3975 25.209 16.5899C24.9873 9.89672 19.434 4.5354 12.6074 4.5354C5.65569 4.5354 0.0170523 10.1047 0 16.9777C0 16.989 0 16.9946 0 17.0002C0 26.3909 7.70197 34.0002 17.1944 34.0002Z" fill="url(#paint1_linear)"/>
<path d="M48.2749 16.9889H36.7476L47.7747 1.9165H59.3021L48.2749 16.9889Z" fill="url(#paint2_linear)"/>
<path d="M59.3021 32.0609H47.7747L36.7476 16.9885H48.2749L59.3021 32.0609Z" fill="url(#paint3_linear)"/>
</g>
<defs>
<linearGradient id="paint0_linear" x1="17.1936" y1="29.4656" x2="17.1936" y2="0" gradientUnits="userSpaceOnUse">
<stop stop-color="#4E9449"/>
<stop offset="1" stop-color="#70D468"/>
</linearGradient>
<linearGradient id="paint1_linear" x1="17.1936" y1="4.53298" x2="17.1936" y2="33.9986" gradientUnits="userSpaceOnUse">
<stop stop-color="#4E9449"/>
<stop offset="1" stop-color="#70D468"/>
</linearGradient>
<linearGradient id="paint2_linear" x1="36.7477" y1="9.45164" x2="59.3021" y2="9.45164" gradientUnits="userSpaceOnUse">
<stop stop-color="#70D468"/>
<stop offset="1" stop-color="#51924B"/>
<stop offset="1" stop-color="#4E9449"/>
</linearGradient>
<linearGradient id="paint3_linear" x1="48.0249" y1="32.0632" x2="48.0249" y2="16.9895" gradientUnits="userSpaceOnUse">
<stop stop-color="#70D468"/>
<stop offset="1" stop-color="#4E9449"/>
</linearGradient>
<clipPath id="clip0">
<rect width="59.3023" height="34" fill="white"/>
</clipPath>
</defs>
</svg>
