<svg width="32" height="32" viewBox="0 0 32 32" fill="none" xmlns="http://www.w3.org/2000/svg">
<rect width="32" height="32" rx="16" fill="#202326"/>
<path fill-rule="evenodd" clip-rule="evenodd" d="M24.7717 11.1772C24.9114 10.7388 24.7717 10.4197 24.1539 10.4197H22.1017C21.5829 10.4197 21.3442 10.6992 21.2045 10.9978C21.2045 10.9978 20.1484 13.5485 18.6736 15.2025C18.1957 15.6812 17.9761 15.84 17.717 15.84C17.578 15.84 17.3987 15.6812 17.3987 15.2428V11.1574C17.3987 10.6392 17.2391 10.3999 16.8007 10.3999H13.5724C13.2533 10.3999 13.0542 10.6392 13.0542 10.8785C13.0542 11.3762 13.7912 11.4963 13.871 12.8912V15.9205C13.871 16.5777 13.7517 16.697 13.4926 16.697C12.7951 16.697 11.1008 14.1266 10.0849 11.1969C9.88586 10.6187 9.68608 10.3999 9.1679 10.3999H7.09522C6.49798 10.3999 6.39844 10.6788 6.39844 10.9781C6.39844 11.516 7.09522 14.2262 9.64654 17.8132C11.3401 20.2649 13.7517 21.5794 15.9239 21.5794C17.2391 21.5794 17.3987 21.2808 17.3987 20.7824V18.9293C17.3987 18.3313 17.518 18.2318 17.9366 18.2318C18.2352 18.2318 18.7731 18.3913 19.9888 19.5667C21.3838 20.9617 21.6231 21.5999 22.4004 21.5999H24.4526C25.0512 21.5999 25.3301 21.3006 25.1705 20.7224C24.9912 20.1449 24.3135 19.3084 23.4367 18.3116C22.9588 17.7531 22.2408 17.1354 22.0213 16.8368C21.7226 16.4387 21.8024 16.2791 22.0213 15.9205C22.0022 15.9205 24.5126 12.3731 24.7717 11.1772Z" fill="#E1E4E7"/>
</svg>
