<svg width="32" height="32" viewBox="0 0 32 32" fill="none" xmlns="http://www.w3.org/2000/svg">
<path fill-rule="evenodd" clip-rule="evenodd" d="M16 32C24.8366 32 32 24.8366 32 16C32 7.16344 24.8366 0 16 0C7.16344 0 0 7.16344 0 16C0 24.8366 7.16344 32 16 32Z" fill="#22BE54"/>
<path fill-rule="evenodd" clip-rule="evenodd" d="M16.6402 9.60059C16.9938 9.60059 17.2804 9.88712 17.2804 10.2406V11.4737C17.8101 11.6609 18.2972 11.9384 18.7231 12.2878L19.8489 11.6166C19.9953 11.5297 20.1707 11.5062 20.3348 11.5515C20.4989 11.5968 20.6375 11.7069 20.7185 11.8566L21.6746 13.5654C21.8499 13.8793 21.7471 14.2755 21.4412 14.4646L20.3945 15.0886C20.4513 15.3839 20.481 15.6888 20.481 16.0006C20.481 16.313 20.4512 16.6184 20.3942 16.9142L21.4412 17.5398C21.7471 17.7289 21.8499 18.1251 21.6746 18.439L20.7189 20.151C20.6387 20.3016 20.5003 20.4128 20.336 20.4588C20.1716 20.5047 19.9956 20.4814 19.8489 20.3942L18.7173 19.7181C18.2928 20.0652 17.8077 20.3411 17.2804 20.5275V21.7606C17.2804 22.114 16.9938 22.4006 16.6402 22.4006H14.7198C14.3663 22.4006 14.0797 22.114 14.0797 21.7606V20.5275C13.55 20.3403 13.0629 20.0628 12.6371 19.7135L11.5114 20.3846C11.3645 20.471 11.1888 20.4938 11.0246 20.448C10.8604 20.4021 10.722 20.2914 10.6412 20.1414L9.6861 18.4326C9.50963 18.1199 9.61267 17.7237 9.91911 17.5366L10.9656 16.9127C10.9087 16.6174 10.879 16.3125 10.879 16.0006C10.879 15.6881 10.9089 15.3826 10.9659 15.0868L9.91911 14.4614C9.61339 14.2722 9.51072 13.876 9.6861 13.5622L10.6409 11.8502C10.7212 11.6995 10.8596 11.5883 11.0241 11.5423C11.1886 11.4964 11.3647 11.5198 11.5114 11.607L12.6428 12.283C13.0673 11.9359 13.5524 11.6601 14.0797 11.4737V10.2406C14.0797 9.88712 14.3663 9.60059 14.7198 9.60059H16.6402ZM15.68 18.0804C16.8289 18.0804 17.7602 17.1492 17.7602 16.0006C17.7602 14.852 16.8289 13.9208 15.68 13.9208C14.5311 13.9208 13.5998 14.852 13.5998 16.0006C13.5998 17.1492 14.5311 18.0804 15.68 18.0804Z" fill="white"/>
</svg>
