<svg width="32" height="32" viewBox="0 0 32 32" fill="none" xmlns="http://www.w3.org/2000/svg">
<path fill-rule="evenodd" clip-rule="evenodd" d="M16 32C24.8366 32 32 24.8366 32 16C32 7.16344 24.8366 0 16 0C7.16344 0 0 7.16344 0 16C0 24.8366 7.16344 32 16 32Z" fill="#8E70A6"/>
<path d="M15.6 11.2008V12.8008H16.8C17.2419 12.8008 17.6 12.4426 17.6 12.0008C17.6 11.559 17.2419 11.2008 16.8 11.2008H15.6Z" fill="white"/>
<path fill-rule="evenodd" clip-rule="evenodd" d="M9.20005 8.80078C8.97913 8.80078 8.80005 8.97987 8.80005 9.20078V18.0008C8.80005 18.2217 8.97914 18.4008 9.20005 18.4008H22.8C23.021 18.4008 23.2001 18.2217 23.2001 18.0008V9.20078C23.2001 8.97987 23.021 8.80078 22.8 8.80078H9.20005ZM20.4001 10.0008C20.1791 10.0008 20 10.1799 20 10.4008V10.8008C20 11.0217 20.1791 11.2008 20.4001 11.2008H21.6C21.821 11.2008 22 11.0217 22 10.8008V10.4008C22 10.1799 21.821 10.0008 21.6 10.0008H20.4001ZM10 16.4008C10 16.1799 10.1791 16.0008 10.4 16.0008H11.6C11.821 16.0008 12 16.1799 12 16.4008V16.8008C12 17.0217 11.821 17.2008 11.6 17.2008H10.4C10.1791 17.2008 10 17.0217 10 16.8008V16.4008ZM14 12.8008C13.7791 12.8008 13.6 12.9799 13.6 13.2008V13.6008C13.6 13.8217 13.7791 14.0008 14 14.0008H14.4V14.8008H14C13.7791 14.8008 13.6 14.9799 13.6 15.2008V15.6008C13.6 15.8217 13.7791 16.0008 14 16.0008H14.4V16.8008C14.4 17.0217 14.5791 17.2008 14.8 17.2008H15.2C15.421 17.2008 15.6 17.0217 15.6 16.8008V16.0008H17.6C17.821 16.0008 18 15.8217 18 15.6008V15.2008C18 14.9799 17.821 14.8008 17.6 14.8008H15.6V14.0008H16.6667C17.8449 14.0008 18.8 13.1054 18.8 12.0008C18.8 10.8962 17.8449 10.0008 16.6667 10.0008H14.8C14.5791 10.0008 14.4 10.1799 14.4 10.4008V12.8008H14Z" fill="white"/>
<path d="M8.80005 19.6008H23.2001V20.4008C23.2001 20.6217 23.021 20.8008 22.8 20.8008H9.20005C8.97914 20.8008 8.80005 20.6217 8.80005 20.4008V19.6008Z" fill="white"/>
<path d="M23.2001 22.0008H8.80005V22.8008C8.80005 23.0217 8.97914 23.2008 9.20005 23.2008H22.8C23.021 23.2008 23.2001 23.0217 23.2001 22.8008V22.0008Z" fill="white"/>
</svg>
