<svg width="72" height="72" viewBox="0 0 72 72" fill="none" xmlns="http://www.w3.org/2000/svg">
<path d="M18 67H2V34H18" stroke="#A4AEB8" stroke-width="3" stroke-miterlimit="10" stroke-linecap="round" stroke-linejoin="round"/>
<path d="M36 67H18V30.2L36 20V3" stroke="#A4AEB8" stroke-width="3" stroke-miterlimit="10" stroke-linecap="round" stroke-linejoin="round"/>
<path d="M27 67V50H36" stroke="#A4AEB8" stroke-width="3" stroke-miterlimit="10" stroke-linecap="round" stroke-linejoin="round"/>
<path d="M36 36C38.2091 36 40 34.2091 40 32C40 29.7909 38.2091 28 36 28C33.7909 28 32 29.7909 32 32C32 34.2091 33.7909 36 36 36Z" stroke="#A4AEB8" stroke-width="3" stroke-miterlimit="10" stroke-linecap="round" stroke-linejoin="round"/>
<path d="M54 67H70V34H54" stroke="#A4AEB8" stroke-width="3" stroke-miterlimit="10" stroke-linecap="round" stroke-linejoin="round"/>
<path d="M36 67H54V30.2L36 20V3" stroke="#A4AEB8" stroke-width="3" stroke-miterlimit="10" stroke-linecap="round" stroke-linejoin="round"/>
<path d="M45 67V50H36" stroke="#A4AEB8" stroke-width="3" stroke-miterlimit="10" stroke-linecap="round" stroke-linejoin="round"/>
<path d="M36 50L36 66" stroke="#A4AEB8" stroke-width="3" stroke-miterlimit="10" stroke-linecap="round" stroke-linejoin="round"/>
<path d="M36 6H46V13H36" stroke="#A4AEB8" stroke-width="3" stroke-miterlimit="10" stroke-linecap="round" stroke-linejoin="round"/>
<path d="M42 13V16H53L51 12.5L53 9H47" stroke="#A4AEB8" stroke-width="3" stroke-miterlimit="10" stroke-linecap="round" stroke-linejoin="round"/>
</svg>
