<svg width="32" height="32" viewBox="0 0 32 32" fill="none" xmlns="http://www.w3.org/2000/svg">
<path fill-rule="evenodd" clip-rule="evenodd" d="M16 32C24.8366 32 32 24.8366 32 16C32 7.16344 24.8366 0 16 0C7.16344 0 0 7.16344 0 16C0 24.8366 7.16344 32 16 32Z" fill="#2B82E9"/>
<path fill-rule="evenodd" clip-rule="evenodd" d="M19.175 8.87127C19.0244 8.72063 18.7669 8.82742 18.7669 9.04055V11.6448C18.7669 11.8633 18.9412 12.0339 19.1562 12.0339H21.7604C21.9735 12.0339 22.0801 11.7761 21.9294 11.6254L19.175 8.87127ZM17.5714 8.84342H10.3985C10.1784 8.84342 10 9.02197 10 9.24223V22.802C10 23.0222 10.1784 23.2008 10.3985 23.2008H21.5564C21.7765 23.2008 21.9549 23.0222 21.9549 22.802V13.2304H19.1578C18.2821 13.2304 17.5714 12.5237 17.5714 11.6427V8.84342ZM12.7895 12.0339C12.5694 12.0339 12.391 12.2125 12.391 12.4328V12.8316C12.391 13.0518 12.5694 13.2304 12.7895 13.2304H15.9774C16.1975 13.2304 16.3759 13.0518 16.3759 12.8316V12.4328C16.3759 12.2125 16.1975 12.0339 15.9774 12.0339H12.7895ZM12.391 15.6233C12.391 15.403 12.5694 15.2245 12.7895 15.2245H19.1654C19.3855 15.2245 19.5639 15.403 19.5639 15.6233V16.0221C19.5639 16.2424 19.3855 16.4209 19.1654 16.4209H12.7895C12.5694 16.4209 12.391 16.2424 12.391 16.0221V15.6233ZM12.7895 18.415C12.5694 18.415 12.391 18.5935 12.391 18.8138V19.2126C12.391 19.4329 12.5694 19.6114 12.7895 19.6114H19.1654C19.3855 19.6114 19.5639 19.4329 19.5639 19.2126V18.8138C19.5639 18.5935 19.3855 18.415 19.1654 18.415H12.7895Z" fill="white"/>
</svg>
