<svg width="32" height="32" viewBox="0 0 32 32" fill="none" xmlns="http://www.w3.org/2000/svg">
<path fill-rule="evenodd" clip-rule="evenodd" d="M16 32C24.8366 32 32 24.8366 32 16C32 7.16344 24.8366 0 16 0C7.16344 0 0 7.16344 0 16C0 24.8366 7.16344 32 16 32Z" fill="#149C95"/>
<path fill-rule="evenodd" clip-rule="evenodd" d="M22.0636 14.1585C21.928 14.3201 21.6902 14.3486 21.5203 14.2236L20.9012 13.7682V22.8013C20.9012 23.0222 20.7221 23.2013 20.5012 23.2013H11.4961C11.2751 23.2013 11.0961 23.0222 11.0961 22.8013V13.7696L10.4788 14.2236C10.3089 14.3486 10.0711 14.3201 9.93545 14.1585L9.69362 13.8704C9.5451 13.6935 9.57691 13.4279 9.763 13.291L15.7626 8.87855C15.9035 8.77486 16.0956 8.77486 16.2365 8.87855L22.2361 13.291C22.4222 13.4279 22.454 13.6935 22.3055 13.8704L22.0636 14.1585ZM13.1392 15.1877C13.1392 14.9668 13.3183 14.7877 13.5392 14.7877H14.3729C14.5938 14.7877 14.7729 14.9668 14.7729 15.1877V17.0646C14.7729 17.2856 14.5938 17.4646 14.3729 17.4646H13.5392C13.3183 17.4646 13.1392 17.2856 13.1392 17.0646V15.1877ZM17.6247 14.7877C17.4038 14.7877 17.2247 14.9668 17.2247 15.1877V17.0646C17.2247 17.2856 17.4038 17.4646 17.6247 17.4646H18.4583C18.6792 17.4646 18.8583 17.2856 18.8583 17.0646V15.1877C18.8583 14.9668 18.6792 14.7877 18.4583 14.7877H17.6247ZM14.7735 20.1592C14.7735 19.9382 14.9526 19.7592 15.1735 19.7592H16.8248C17.0457 19.7592 17.2248 19.9382 17.2248 20.1592V23.2009H14.7735V20.1592Z" fill="white"/>
</svg>
