<svg width="32" height="32" viewBox="0 0 32 32" fill="none" xmlns="http://www.w3.org/2000/svg">
<path fill-rule="evenodd" clip-rule="evenodd" d="M16 32C24.8366 32 32 24.8366 32 16C32 7.16344 24.8366 0 16 0C7.16344 0 0 7.16344 0 16C0 24.8366 7.16344 32 16 32Z" fill="#FF715B"/>
<path d="M15.3047 14.7979L18.8169 15.7024C19.6122 15.9072 20.168 16.6243 20.168 17.4456L20.1601 17.4467L20.1522 17.4458L16.6814 16.5753L16.4311 17.6308L20.176 18.57L23.808 17.5434C23.8145 17.5416 23.8209 17.5399 23.8274 17.5383C24.2411 17.4328 24.6621 17.6827 24.7675 18.0965C24.8832 18.5504 24.6807 19.0256 24.2732 19.2566L19.2832 22.085C18.7212 22.4035 18.0546 22.482 17.434 22.3029L13.4293 21.1467L11.9476 21.3177C11.9105 21.3219 11.8732 21.3241 11.8359 21.3241C11.2978 21.3241 10.8616 20.8878 10.8616 20.3497V15.5068L15.3047 14.7979ZM9.00516 14.7601C9.44698 14.7601 9.80516 15.1183 9.80516 15.5601V21.3295C9.80516 21.7713 9.44698 22.1295 9.00516 22.1295H8.00007C7.55825 22.1295 7.20007 21.7713 7.20007 21.3295V15.5601C7.20007 15.1183 7.55825 14.7601 8.00007 14.7601H9.00516ZM20.1855 9.60059C21.3169 9.60059 22.2374 10.5472 22.2374 11.7107C22.2374 12.8743 21.3169 13.8209 20.1855 13.8209C19.0541 13.8209 18.1336 12.8743 18.1336 11.7107C18.1336 10.5472 19.0541 9.60059 20.1855 9.60059Z" fill="white"/>
</svg>
