<svg width="134" height="79" viewBox="0 0 134 79" fill="none" xmlns="http://www.w3.org/2000/svg">
<path d="M8.88752 55.3329C8.88752 56.1116 8.79078 56.8081 8.59731 57.4224C8.40384 58.0367 8.11606 58.559 7.73396 58.9895C7.35185 59.4151 6.87785 59.7416 6.31195 59.9689C5.75089 60.1914 5.10035 60.3027 4.36033 60.3027C3.62998 60.3027 2.99153 60.2084 2.44497 60.0197C1.90326 59.8263 1.45102 59.5336 1.08827 59.1419C0.725512 58.7501 0.452236 58.2519 0.268439 57.6473C0.0894798 57.0427 0 56.3269 0 55.4998C0 54.7404 0.0967349 54.0584 0.290205 53.4538C0.483675 52.8444 0.771461 52.3269 1.15356 51.9012C1.53567 51.4756 2.00725 51.1491 2.56831 50.9218C3.13421 50.6945 3.78959 50.5808 4.53445 50.5808C5.24545 50.5808 5.87181 50.6751 6.41352 50.8638C6.96008 51.0524 7.41473 51.3426 7.77749 51.7344C8.14508 52.1262 8.42077 52.6219 8.60457 53.2217C8.7932 53.8166 8.88752 54.5203 8.88752 55.3329ZM6.88511 55.4345C6.88511 54.9411 6.84641 54.4937 6.76902 54.0923C6.69164 53.686 6.55863 53.3402 6.36999 53.0548C6.1862 52.7646 5.93952 52.5421 5.62997 52.3873C5.32042 52.2277 4.93348 52.1479 4.46915 52.1479C3.99999 52.1479 3.60821 52.2374 3.29382 52.4164C2.97943 52.5905 2.72551 52.8251 2.53204 53.1201C2.33857 53.4151 2.20072 53.761 2.11849 54.1576C2.04111 54.5494 2.00241 54.9653 2.00241 55.4055C2.00241 55.9182 2.04111 56.3801 2.11849 56.7912C2.19588 57.1975 2.32647 57.5457 2.51027 57.8359C2.69407 58.1261 2.94074 58.3486 3.25029 58.5034C3.55984 58.6533 3.9492 58.7283 4.41837 58.7283C4.88753 58.7283 5.27931 58.6412 5.5937 58.4671C5.90808 58.293 6.16201 58.056 6.35548 57.7561C6.54895 57.4562 6.68438 57.108 6.76177 56.7114C6.84399 56.3099 6.88511 55.8843 6.88511 55.4345Z" fill="#5780EA"/>
<path d="M8.88752 55.3329C8.88752 56.1116 8.79078 56.8081 8.59731 57.4224C8.40384 58.0367 8.11606 58.559 7.73396 58.9895C7.35185 59.4151 6.87785 59.7416 6.31195 59.9689C5.75089 60.1914 5.10035 60.3027 4.36033 60.3027C3.62998 60.3027 2.99153 60.2084 2.44497 60.0197C1.90326 59.8263 1.45102 59.5336 1.08827 59.1419C0.725512 58.7501 0.452236 58.2519 0.268439 57.6473C0.0894798 57.0427 0 56.3269 0 55.4998C0 54.7404 0.0967349 54.0584 0.290205 53.4538C0.483675 52.8444 0.771461 52.3269 1.15356 51.9012C1.53567 51.4756 2.00725 51.1491 2.56831 50.9218C3.13421 50.6945 3.78959 50.5808 4.53445 50.5808C5.24545 50.5808 5.87181 50.6751 6.41352 50.8638C6.96008 51.0524 7.41473 51.3426 7.77749 51.7344C8.14508 52.1262 8.42077 52.6219 8.60457 53.2217C8.7932 53.8166 8.88752 54.5203 8.88752 55.3329ZM6.88511 55.4345C6.88511 54.9411 6.84641 54.4937 6.76902 54.0923C6.69164 53.686 6.55863 53.3402 6.36999 53.0548C6.1862 52.7646 5.93952 52.5421 5.62997 52.3873C5.32042 52.2277 4.93348 52.1479 4.46915 52.1479C3.99999 52.1479 3.60821 52.2374 3.29382 52.4164C2.97943 52.5905 2.72551 52.8251 2.53204 53.1201C2.33857 53.4151 2.20072 53.761 2.11849 54.1576C2.04111 54.5494 2.00241 54.9653 2.00241 55.4055C2.00241 55.9182 2.04111 56.3801 2.11849 56.7912C2.19588 57.1975 2.32647 57.5457 2.51027 57.8359C2.69407 58.1261 2.94074 58.3486 3.25029 58.5034C3.55984 58.6533 3.9492 58.7283 4.41837 58.7283C4.88753 58.7283 5.27931 58.6412 5.5937 58.4671C5.90808 58.293 6.16201 58.056 6.35548 57.7561C6.54895 57.4562 6.68438 57.108 6.76177 56.7114C6.84399 56.3099 6.88511 55.8843 6.88511 55.4345Z" fill="black" fill-opacity="0.1"/>
<path d="M17.8978 57.2265C17.8978 57.6521 17.8252 58.0415 17.6801 58.3946C17.535 58.7477 17.315 59.0548 17.0199 59.316C16.7297 59.5723 16.3597 59.773 15.9099 59.9182C15.4601 60.0633 14.8772 60.1358 14.1614 60.1358H11.6874C11.5133 60.1358 11.3706 60.0899 11.2594 59.998C11.153 59.9012 11.0998 59.7392 11.0998 59.5119V51.3499C11.0998 51.137 11.153 50.9847 11.2594 50.8928C11.3706 50.796 11.506 50.7477 11.6656 50.7477H16.9764C17.0248 50.7477 17.0659 50.7598 17.0997 50.784C17.1384 50.8081 17.1699 50.8517 17.194 50.9145C17.2231 50.9726 17.2424 51.05 17.2521 51.1467C17.2666 51.2386 17.2739 51.3571 17.2739 51.5022C17.2739 51.6376 17.2666 51.7537 17.2521 51.8505C17.2424 51.9424 17.2231 52.0197 17.194 52.0826C17.1699 52.1407 17.1384 52.1842 17.0997 52.2132C17.0659 52.2374 17.0272 52.2495 16.9837 52.2495H13.0078V54.5856H14.5677C15.1723 54.5856 15.6705 54.6437 16.0623 54.7598C16.454 54.8758 16.7853 55.0475 17.0562 55.2749C17.3271 55.5022 17.535 55.7803 17.6801 56.1092C17.8252 56.4381 17.8978 56.8105 17.8978 57.2265ZM15.9607 57.3498C15.9607 57.1419 15.9268 56.9556 15.8591 56.7912C15.7914 56.6219 15.6922 56.4792 15.5616 56.3631C15.4311 56.2422 15.2618 56.1503 15.0538 56.0874C14.8506 56.0246 14.5774 55.9931 14.234 55.9931H13.0078V58.6993H14.2557C14.5653 58.6993 14.8192 58.6703 15.0175 58.6122C15.2207 58.5542 15.3899 58.4671 15.5254 58.351C15.6608 58.235 15.7672 58.0923 15.8446 57.923C15.922 57.7537 15.9607 57.5627 15.9607 57.3498Z" fill="#5780EA"/>
<path d="M17.8978 57.2265C17.8978 57.6521 17.8252 58.0415 17.6801 58.3946C17.535 58.7477 17.315 59.0548 17.0199 59.316C16.7297 59.5723 16.3597 59.773 15.9099 59.9182C15.4601 60.0633 14.8772 60.1358 14.1614 60.1358H11.6874C11.5133 60.1358 11.3706 60.0899 11.2594 59.998C11.153 59.9012 11.0998 59.7392 11.0998 59.5119V51.3499C11.0998 51.137 11.153 50.9847 11.2594 50.8928C11.3706 50.796 11.506 50.7477 11.6656 50.7477H16.9764C17.0248 50.7477 17.0659 50.7598 17.0997 50.784C17.1384 50.8081 17.1699 50.8517 17.194 50.9145C17.2231 50.9726 17.2424 51.05 17.2521 51.1467C17.2666 51.2386 17.2739 51.3571 17.2739 51.5022C17.2739 51.6376 17.2666 51.7537 17.2521 51.8505C17.2424 51.9424 17.2231 52.0197 17.194 52.0826C17.1699 52.1407 17.1384 52.1842 17.0997 52.2132C17.0659 52.2374 17.0272 52.2495 16.9837 52.2495H13.0078V54.5856H14.5677C15.1723 54.5856 15.6705 54.6437 16.0623 54.7598C16.454 54.8758 16.7853 55.0475 17.0562 55.2749C17.3271 55.5022 17.535 55.7803 17.6801 56.1092C17.8252 56.4381 17.8978 56.8105 17.8978 57.2265ZM15.9607 57.3498C15.9607 57.1419 15.9268 56.9556 15.8591 56.7912C15.7914 56.6219 15.6922 56.4792 15.5616 56.3631C15.4311 56.2422 15.2618 56.1503 15.0538 56.0874C14.8506 56.0246 14.5774 55.9931 14.234 55.9931H13.0078V58.6993H14.2557C14.5653 58.6993 14.8192 58.6703 15.0175 58.6122C15.2207 58.5542 15.3899 58.4671 15.5254 58.351C15.6608 58.235 15.7672 58.0923 15.8446 57.923C15.922 57.7537 15.9607 57.5627 15.9607 57.3498Z" fill="black" fill-opacity="0.1"/>
<path d="M26.3712 53.5989C26.3712 54.1261 26.289 54.5929 26.1245 54.9992C25.9601 55.4055 25.7207 55.7489 25.4063 56.0294C25.0919 56.3051 24.7049 56.5155 24.2454 56.6606C23.7908 56.8057 23.2539 56.8783 22.6348 56.8783H21.8513V59.8746C21.8513 59.923 21.8343 59.9665 21.8005 60.0052C21.7714 60.0439 21.7207 60.0753 21.6481 60.0995C21.5756 60.1237 21.4788 60.1431 21.3579 60.1576C21.237 60.1721 21.0822 60.1793 20.8936 60.1793C20.7098 60.1793 20.555 60.1721 20.4293 60.1576C20.3083 60.1431 20.2116 60.1237 20.139 60.0995C20.0665 60.0753 20.0157 60.0439 19.9867 60.0052C19.9577 59.9665 19.9432 59.923 19.9432 59.8746V51.4297C19.9432 51.2023 20.0012 51.033 20.1173 50.9218C20.2382 50.8057 20.3954 50.7477 20.5889 50.7477H22.8017C23.0242 50.7477 23.2346 50.7574 23.4329 50.7767C23.636 50.7912 23.8779 50.8275 24.1584 50.8855C24.4389 50.9387 24.7219 51.0403 25.0072 51.1902C25.2974 51.3402 25.5441 51.5312 25.7473 51.7634C25.9504 51.9907 26.1052 52.2592 26.2116 52.5687C26.318 52.8734 26.3712 53.2168 26.3712 53.5989ZM24.376 53.7368C24.376 53.4079 24.318 53.137 24.2019 52.9242C24.0858 52.7114 23.9431 52.5542 23.7739 52.4526C23.6046 52.3511 23.4256 52.2882 23.237 52.264C23.0532 52.235 22.8621 52.2205 22.6638 52.2205H21.8513V55.4055H22.7074C23.0121 55.4055 23.266 55.3644 23.4691 55.2821C23.6771 55.1999 23.8464 55.0862 23.977 54.9411C24.1076 54.7912 24.2067 54.6147 24.2745 54.4115C24.3422 54.2035 24.376 53.9786 24.376 53.7368Z" fill="#5780EA"/>
<path d="M26.3712 53.5989C26.3712 54.1261 26.289 54.5929 26.1245 54.9992C25.9601 55.4055 25.7207 55.7489 25.4063 56.0294C25.0919 56.3051 24.7049 56.5155 24.2454 56.6606C23.7908 56.8057 23.2539 56.8783 22.6348 56.8783H21.8513V59.8746C21.8513 59.923 21.8343 59.9665 21.8005 60.0052C21.7714 60.0439 21.7207 60.0753 21.6481 60.0995C21.5756 60.1237 21.4788 60.1431 21.3579 60.1576C21.237 60.1721 21.0822 60.1793 20.8936 60.1793C20.7098 60.1793 20.555 60.1721 20.4293 60.1576C20.3083 60.1431 20.2116 60.1237 20.139 60.0995C20.0665 60.0753 20.0157 60.0439 19.9867 60.0052C19.9577 59.9665 19.9432 59.923 19.9432 59.8746V51.4297C19.9432 51.2023 20.0012 51.033 20.1173 50.9218C20.2382 50.8057 20.3954 50.7477 20.5889 50.7477H22.8017C23.0242 50.7477 23.2346 50.7574 23.4329 50.7767C23.636 50.7912 23.8779 50.8275 24.1584 50.8855C24.4389 50.9387 24.7219 51.0403 25.0072 51.1902C25.2974 51.3402 25.5441 51.5312 25.7473 51.7634C25.9504 51.9907 26.1052 52.2592 26.2116 52.5687C26.318 52.8734 26.3712 53.2168 26.3712 53.5989ZM24.376 53.7368C24.376 53.4079 24.318 53.137 24.2019 52.9242C24.0858 52.7114 23.9431 52.5542 23.7739 52.4526C23.6046 52.3511 23.4256 52.2882 23.237 52.264C23.0532 52.235 22.8621 52.2205 22.6638 52.2205H21.8513V55.4055H22.7074C23.0121 55.4055 23.266 55.3644 23.4691 55.2821C23.6771 55.1999 23.8464 55.0862 23.977 54.9411C24.1076 54.7912 24.2067 54.6147 24.2745 54.4115C24.3422 54.2035 24.376 53.9786 24.376 53.7368Z" fill="black" fill-opacity="0.1"/>
<path d="M35.3089 59.4248C35.367 59.5989 35.4032 59.7368 35.4177 59.8383C35.4323 59.9399 35.4129 60.0173 35.3597 60.0705C35.3065 60.1189 35.2122 60.1479 35.0768 60.1576C34.9413 60.1721 34.7551 60.1793 34.5181 60.1793C34.2714 60.1793 34.078 60.1745 33.9377 60.1648C33.8023 60.16 33.6983 60.1479 33.6257 60.1285C33.5532 60.1044 33.5024 60.0729 33.4734 60.0342C33.4444 59.9955 33.4202 59.9448 33.4008 59.8819L32.7696 57.9955H29.2436L28.6487 59.8311C28.6294 59.8988 28.6028 59.9568 28.5689 60.0052C28.5399 60.0487 28.4891 60.085 28.4166 60.114C28.3488 60.1382 28.2497 60.1552 28.1191 60.1648C27.9933 60.1745 27.8265 60.1793 27.6185 60.1793C27.396 60.1793 27.2219 60.1721 27.0961 60.1576C26.9704 60.1431 26.8833 60.1092 26.8349 60.056C26.7866 59.998 26.7696 59.9182 26.7842 59.8166C26.7987 59.715 26.8349 59.5796 26.893 59.4103L29.7878 51.0814C29.8168 50.9992 29.8506 50.9339 29.8893 50.8855C29.928 50.8323 29.9885 50.7936 30.0707 50.7694C30.1578 50.7404 30.2763 50.7235 30.4262 50.7187C30.5762 50.709 30.7745 50.7041 31.0211 50.7041C31.3065 50.7041 31.5338 50.709 31.7031 50.7187C31.8724 50.7235 32.003 50.7404 32.0949 50.7694C32.1916 50.7936 32.2593 50.8323 32.298 50.8855C32.3416 50.9387 32.3778 51.0113 32.4069 51.1032L35.3089 59.4248ZM30.9994 52.5397H30.9921L29.6644 56.53H32.3271L30.9994 52.5397Z" fill="#5780EA"/>
<path d="M35.3089 59.4248C35.367 59.5989 35.4032 59.7368 35.4177 59.8383C35.4323 59.9399 35.4129 60.0173 35.3597 60.0705C35.3065 60.1189 35.2122 60.1479 35.0768 60.1576C34.9413 60.1721 34.7551 60.1793 34.5181 60.1793C34.2714 60.1793 34.078 60.1745 33.9377 60.1648C33.8023 60.16 33.6983 60.1479 33.6257 60.1285C33.5532 60.1044 33.5024 60.0729 33.4734 60.0342C33.4444 59.9955 33.4202 59.9448 33.4008 59.8819L32.7696 57.9955H29.2436L28.6487 59.8311C28.6294 59.8988 28.6028 59.9568 28.5689 60.0052C28.5399 60.0487 28.4891 60.085 28.4166 60.114C28.3488 60.1382 28.2497 60.1552 28.1191 60.1648C27.9933 60.1745 27.8265 60.1793 27.6185 60.1793C27.396 60.1793 27.2219 60.1721 27.0961 60.1576C26.9704 60.1431 26.8833 60.1092 26.8349 60.056C26.7866 59.998 26.7696 59.9182 26.7842 59.8166C26.7987 59.715 26.8349 59.5796 26.893 59.4103L29.7878 51.0814C29.8168 50.9992 29.8506 50.9339 29.8893 50.8855C29.928 50.8323 29.9885 50.7936 30.0707 50.7694C30.1578 50.7404 30.2763 50.7235 30.4262 50.7187C30.5762 50.709 30.7745 50.7041 31.0211 50.7041C31.3065 50.7041 31.5338 50.709 31.7031 50.7187C31.8724 50.7235 32.003 50.7404 32.0949 50.7694C32.1916 50.7936 32.2593 50.8323 32.298 50.8855C32.3416 50.9387 32.3778 51.0113 32.4069 51.1032L35.3089 59.4248ZM30.9994 52.5397H30.9921L29.6644 56.53H32.3271L30.9994 52.5397Z" fill="black" fill-opacity="0.1"/>
<path d="M42.8537 57.4151C42.8537 57.8891 42.7642 58.3075 42.5852 58.6703C42.4063 59.0282 42.1499 59.3305 41.8162 59.5772C41.4873 59.819 41.0907 60.0004 40.6263 60.1213C40.1668 60.2422 39.6566 60.3027 39.0955 60.3027C38.786 60.3027 38.5006 60.2809 38.2394 60.2374C37.9831 60.1938 37.7581 60.1406 37.5647 60.0778C37.376 60.01 37.2237 59.9448 37.1076 59.8819C36.9915 59.819 36.9093 59.7682 36.8609 59.7295C36.8126 59.686 36.7763 59.6425 36.7521 59.5989C36.7279 59.5554 36.7086 59.4949 36.6941 59.4175C36.6796 59.3353 36.6675 59.2338 36.6578 59.1128C36.653 58.9919 36.6505 58.842 36.6505 58.663C36.6505 58.4599 36.6675 58.3244 36.7013 58.2567C36.74 58.1842 36.7956 58.1479 36.8682 58.1479C36.9262 58.1479 37.0085 58.1793 37.1149 58.2422C37.2213 58.3003 37.3567 58.368 37.5211 58.4454C37.6856 58.5227 37.8839 58.5929 38.1161 58.6558C38.3482 58.7186 38.6215 58.7501 38.9359 58.7501C39.1971 58.7501 39.4341 58.7186 39.6469 58.6558C39.8597 58.5929 40.0387 58.5034 40.1838 58.3873C40.3337 58.2712 40.4498 58.1334 40.532 57.9738C40.6142 57.8093 40.6554 57.628 40.6554 57.4296C40.6554 57.212 40.6167 57.0161 40.5393 56.842C40.4667 56.6679 40.3506 56.5203 40.191 56.3994C40.0314 56.2785 39.8283 56.1866 39.5816 56.1237C39.3398 56.056 39.0471 56.0222 38.7037 56.0222H37.7098C37.6372 56.0222 37.5792 56.0125 37.5357 55.9931C37.4921 55.9738 37.4559 55.9375 37.4268 55.8843C37.4026 55.8311 37.3857 55.7585 37.376 55.6666C37.3712 55.5699 37.3688 55.4442 37.3688 55.2894C37.3688 55.1491 37.3736 55.0355 37.3833 54.9484C37.393 54.8565 37.4099 54.7839 37.4341 54.7307C37.4631 54.6775 37.497 54.6413 37.5357 54.6219C37.5792 54.5977 37.63 54.5856 37.688 54.5856H38.6965C38.9915 54.5856 39.2527 54.5566 39.48 54.4986C39.7074 54.4405 39.896 54.3559 40.0459 54.2446C40.2007 54.1286 40.3168 53.9907 40.3942 53.8311C40.4764 53.6667 40.5175 53.4804 40.5175 53.2725C40.5175 53.0983 40.4885 52.9387 40.4305 52.7936C40.3772 52.6485 40.2926 52.5276 40.1765 52.4309C40.0604 52.3293 39.9129 52.2519 39.734 52.1987C39.555 52.1407 39.3422 52.1116 39.0955 52.1116C38.8053 52.1116 38.5441 52.1431 38.312 52.206C38.0798 52.2688 37.8767 52.3365 37.7025 52.4091C37.5332 52.4817 37.3881 52.5518 37.2672 52.6195C37.1511 52.6824 37.0641 52.7138 37.006 52.7138C36.9722 52.7138 36.9432 52.7041 36.919 52.6848C36.8948 52.6654 36.873 52.6316 36.8537 52.5832C36.8343 52.53 36.8198 52.4599 36.8101 52.3728C36.8053 52.2858 36.8029 52.1721 36.8029 52.0318C36.8029 51.9351 36.8053 51.8456 36.8101 51.7634C36.815 51.6812 36.8247 51.6062 36.8392 51.5385C36.8537 51.4708 36.873 51.4127 36.8972 51.3644C36.9214 51.3112 36.9577 51.2604 37.006 51.212C37.0592 51.1636 37.1632 51.1008 37.318 51.0234C37.4776 50.946 37.6711 50.8759 37.8984 50.813C38.1257 50.7453 38.3821 50.6896 38.6675 50.6461C38.9528 50.6026 39.2551 50.5808 39.5743 50.5808C40.0774 50.5808 40.5151 50.634 40.8875 50.7404C41.2648 50.8468 41.5792 51.0016 41.8307 51.2048C42.0822 51.4031 42.2708 51.6497 42.3966 51.9448C42.5223 52.235 42.5852 52.5687 42.5852 52.946C42.5852 53.2459 42.5441 53.5191 42.4619 53.7658C42.3797 54.0125 42.2612 54.2301 42.1064 54.4188C41.9564 54.6074 41.7751 54.767 41.5622 54.8976C41.3543 55.0234 41.1221 55.1153 40.8658 55.1733V55.1878C41.1608 55.2217 41.4292 55.3039 41.6711 55.4345C41.9178 55.5602 42.1282 55.7223 42.3023 55.9206C42.4764 56.1189 42.6118 56.3462 42.7086 56.6026C42.8053 56.8541 42.8537 57.1249 42.8537 57.4151Z" fill="#5780EA"/>
<path d="M42.8537 57.4151C42.8537 57.8891 42.7642 58.3075 42.5852 58.6703C42.4063 59.0282 42.1499 59.3305 41.8162 59.5772C41.4873 59.819 41.0907 60.0004 40.6263 60.1213C40.1668 60.2422 39.6566 60.3027 39.0955 60.3027C38.786 60.3027 38.5006 60.2809 38.2394 60.2374C37.9831 60.1938 37.7581 60.1406 37.5647 60.0778C37.376 60.01 37.2237 59.9448 37.1076 59.8819C36.9915 59.819 36.9093 59.7682 36.8609 59.7295C36.8126 59.686 36.7763 59.6425 36.7521 59.5989C36.7279 59.5554 36.7086 59.4949 36.6941 59.4175C36.6796 59.3353 36.6675 59.2338 36.6578 59.1128C36.653 58.9919 36.6505 58.842 36.6505 58.663C36.6505 58.4599 36.6675 58.3244 36.7013 58.2567C36.74 58.1842 36.7956 58.1479 36.8682 58.1479C36.9262 58.1479 37.0085 58.1793 37.1149 58.2422C37.2213 58.3003 37.3567 58.368 37.5211 58.4454C37.6856 58.5227 37.8839 58.5929 38.1161 58.6558C38.3482 58.7186 38.6215 58.7501 38.9359 58.7501C39.1971 58.7501 39.4341 58.7186 39.6469 58.6558C39.8597 58.5929 40.0387 58.5034 40.1838 58.3873C40.3337 58.2712 40.4498 58.1334 40.532 57.9738C40.6142 57.8093 40.6554 57.628 40.6554 57.4296C40.6554 57.212 40.6167 57.0161 40.5393 56.842C40.4667 56.6679 40.3506 56.5203 40.191 56.3994C40.0314 56.2785 39.8283 56.1866 39.5816 56.1237C39.3398 56.056 39.0471 56.0222 38.7037 56.0222H37.7098C37.6372 56.0222 37.5792 56.0125 37.5357 55.9931C37.4921 55.9738 37.4559 55.9375 37.4268 55.8843C37.4026 55.8311 37.3857 55.7585 37.376 55.6666C37.3712 55.5699 37.3688 55.4442 37.3688 55.2894C37.3688 55.1491 37.3736 55.0355 37.3833 54.9484C37.393 54.8565 37.4099 54.7839 37.4341 54.7307C37.4631 54.6775 37.497 54.6413 37.5357 54.6219C37.5792 54.5977 37.63 54.5856 37.688 54.5856H38.6965C38.9915 54.5856 39.2527 54.5566 39.48 54.4986C39.7074 54.4405 39.896 54.3559 40.0459 54.2446C40.2007 54.1286 40.3168 53.9907 40.3942 53.8311C40.4764 53.6667 40.5175 53.4804 40.5175 53.2725C40.5175 53.0983 40.4885 52.9387 40.4305 52.7936C40.3772 52.6485 40.2926 52.5276 40.1765 52.4309C40.0604 52.3293 39.9129 52.2519 39.734 52.1987C39.555 52.1407 39.3422 52.1116 39.0955 52.1116C38.8053 52.1116 38.5441 52.1431 38.312 52.206C38.0798 52.2688 37.8767 52.3365 37.7025 52.4091C37.5332 52.4817 37.3881 52.5518 37.2672 52.6195C37.1511 52.6824 37.0641 52.7138 37.006 52.7138C36.9722 52.7138 36.9432 52.7041 36.919 52.6848C36.8948 52.6654 36.873 52.6316 36.8537 52.5832C36.8343 52.53 36.8198 52.4599 36.8101 52.3728C36.8053 52.2858 36.8029 52.1721 36.8029 52.0318C36.8029 51.9351 36.8053 51.8456 36.8101 51.7634C36.815 51.6812 36.8247 51.6062 36.8392 51.5385C36.8537 51.4708 36.873 51.4127 36.8972 51.3644C36.9214 51.3112 36.9577 51.2604 37.006 51.212C37.0592 51.1636 37.1632 51.1008 37.318 51.0234C37.4776 50.946 37.6711 50.8759 37.8984 50.813C38.1257 50.7453 38.3821 50.6896 38.6675 50.6461C38.9528 50.6026 39.2551 50.5808 39.5743 50.5808C40.0774 50.5808 40.5151 50.634 40.8875 50.7404C41.2648 50.8468 41.5792 51.0016 41.8307 51.2048C42.0822 51.4031 42.2708 51.6497 42.3966 51.9448C42.5223 52.235 42.5852 52.5687 42.5852 52.946C42.5852 53.2459 42.5441 53.5191 42.4619 53.7658C42.3797 54.0125 42.2612 54.2301 42.1064 54.4188C41.9564 54.6074 41.7751 54.767 41.5622 54.8976C41.3543 55.0234 41.1221 55.1153 40.8658 55.1733V55.1878C41.1608 55.2217 41.4292 55.3039 41.6711 55.4345C41.9178 55.5602 42.1282 55.7223 42.3023 55.9206C42.4764 56.1189 42.6118 56.3462 42.7086 56.6026C42.8053 56.8541 42.8537 57.1249 42.8537 57.4151Z" fill="black" fill-opacity="0.1"/>
<path d="M53.431 55.3329C53.431 56.1116 53.3343 56.8081 53.1408 57.4224C52.9474 58.0367 52.6596 58.559 52.2775 58.9895C51.8954 59.4151 51.4214 59.7416 50.8555 59.9689C50.2944 60.1914 49.6439 60.3027 48.9038 60.3027C48.1735 60.3027 47.535 60.2084 46.9885 60.0197C46.4468 59.8263 45.9945 59.5336 45.6318 59.1419C45.269 58.7501 44.9958 58.2519 44.812 57.6473C44.633 57.0427 44.5435 56.3269 44.5435 55.4998C44.5435 54.7404 44.6403 54.0584 44.8337 53.4538C45.0272 52.8444 45.315 52.3269 45.6971 51.9012C46.0792 51.4756 46.5508 51.1491 47.1118 50.9218C47.6777 50.6945 48.3331 50.5808 49.078 50.5808C49.789 50.5808 50.4153 50.6751 50.957 50.8638C51.5036 51.0524 51.9583 51.3426 52.321 51.7344C52.6886 52.1262 52.9643 52.6219 53.1481 53.2217C53.3367 53.8166 53.431 54.5203 53.431 55.3329ZM51.4286 55.4345C51.4286 54.9411 51.3899 54.4937 51.3125 54.0923C51.2352 53.686 51.1021 53.3402 50.9135 53.0548C50.7297 52.7646 50.483 52.5421 50.1735 52.3873C49.8639 52.2277 49.477 52.1479 49.0127 52.1479C48.5435 52.1479 48.1517 52.2374 47.8373 52.4164C47.523 52.5905 47.269 52.8251 47.0756 53.1201C46.8821 53.4151 46.7442 53.761 46.662 54.1576C46.5846 54.5494 46.5459 54.9653 46.5459 55.4055C46.5459 55.9182 46.5846 56.3801 46.662 56.7912C46.7394 57.1975 46.87 57.5457 47.0538 57.8359C47.2376 58.1261 47.4843 58.3486 47.7938 58.5034C48.1034 58.6533 48.4927 58.7283 48.9619 58.7283C49.4311 58.7283 49.8228 58.6412 50.1372 58.4671C50.4516 58.293 50.7055 58.056 50.899 57.7561C51.0925 57.4562 51.2279 57.108 51.3053 56.7114C51.3875 56.3099 51.4286 55.8843 51.4286 55.4345Z" fill="#5780EA"/>
<path d="M53.431 55.3329C53.431 56.1116 53.3343 56.8081 53.1408 57.4224C52.9474 58.0367 52.6596 58.559 52.2775 58.9895C51.8954 59.4151 51.4214 59.7416 50.8555 59.9689C50.2944 60.1914 49.6439 60.3027 48.9038 60.3027C48.1735 60.3027 47.535 60.2084 46.9885 60.0197C46.4468 59.8263 45.9945 59.5336 45.6318 59.1419C45.269 58.7501 44.9958 58.2519 44.812 57.6473C44.633 57.0427 44.5435 56.3269 44.5435 55.4998C44.5435 54.7404 44.6403 54.0584 44.8337 53.4538C45.0272 52.8444 45.315 52.3269 45.6971 51.9012C46.0792 51.4756 46.5508 51.1491 47.1118 50.9218C47.6777 50.6945 48.3331 50.5808 49.078 50.5808C49.789 50.5808 50.4153 50.6751 50.957 50.8638C51.5036 51.0524 51.9583 51.3426 52.321 51.7344C52.6886 52.1262 52.9643 52.6219 53.1481 53.2217C53.3367 53.8166 53.431 54.5203 53.431 55.3329ZM51.4286 55.4345C51.4286 54.9411 51.3899 54.4937 51.3125 54.0923C51.2352 53.686 51.1021 53.3402 50.9135 53.0548C50.7297 52.7646 50.483 52.5421 50.1735 52.3873C49.8639 52.2277 49.477 52.1479 49.0127 52.1479C48.5435 52.1479 48.1517 52.2374 47.8373 52.4164C47.523 52.5905 47.269 52.8251 47.0756 53.1201C46.8821 53.4151 46.7442 53.761 46.662 54.1576C46.5846 54.5494 46.5459 54.9653 46.5459 55.4055C46.5459 55.9182 46.5846 56.3801 46.662 56.7912C46.7394 57.1975 46.87 57.5457 47.0538 57.8359C47.2376 58.1261 47.4843 58.3486 47.7938 58.5034C48.1034 58.6533 48.4927 58.7283 48.9619 58.7283C49.4311 58.7283 49.8228 58.6412 50.1372 58.4671C50.4516 58.293 50.7055 58.056 50.899 57.7561C51.0925 57.4562 51.2279 57.108 51.3053 56.7114C51.3875 56.3099 51.4286 55.8843 51.4286 55.4345Z" fill="black" fill-opacity="0.1"/>
<path d="M62.4341 57.3208C62.4341 57.6546 62.3881 57.9568 62.2962 58.2277C62.2043 58.4986 62.0761 58.738 61.9117 58.946C61.7521 59.1539 61.5586 59.3329 61.3313 59.4828C61.1088 59.6328 60.8621 59.7561 60.5913 59.8529C60.3204 59.9496 60.0302 60.0221 59.7206 60.0705C59.4159 60.114 59.0749 60.1358 58.6977 60.1358H56.2019C56.0423 60.1358 55.9069 60.0899 55.7956 59.998C55.6892 59.9012 55.636 59.7464 55.636 59.5336V51.3499C55.636 51.137 55.6892 50.9847 55.7956 50.8928C55.9069 50.796 56.0423 50.7477 56.2019 50.7477H58.5598C59.1354 50.7477 59.6215 50.796 60.0181 50.8928C60.4196 50.9895 60.7557 51.137 61.0266 51.3353C61.3023 51.5288 61.5127 51.7755 61.6578 52.0754C61.8029 52.3752 61.8754 52.7283 61.8754 53.1346C61.8754 53.3619 61.8464 53.5772 61.7884 53.7803C61.7303 53.9786 61.6457 54.16 61.5344 54.3245C61.4232 54.4889 61.2853 54.634 61.1209 54.7598C60.9613 54.8855 60.7775 54.9871 60.5695 55.0645C60.8355 55.1128 61.0798 55.1975 61.3023 55.3184C61.5296 55.4393 61.7255 55.5965 61.8899 55.79C62.0592 55.9786 62.1922 56.2011 62.289 56.4575C62.3857 56.7138 62.4341 57.0016 62.4341 57.3208ZM59.9673 53.3668C59.9673 53.1781 59.9383 53.0089 59.8803 52.8589C59.8222 52.709 59.7352 52.5856 59.6191 52.4889C59.503 52.3873 59.3555 52.3099 59.1765 52.2567C59.0024 52.2035 58.7678 52.1769 58.4728 52.1769H57.5078V54.6147H58.5743C58.85 54.6147 59.0701 54.5832 59.2346 54.5203C59.399 54.4526 59.5344 54.3631 59.6408 54.2519C59.7521 54.1358 59.8343 54.0028 59.8875 53.8529C59.9407 53.6981 59.9673 53.5361 59.9673 53.3668ZM60.4534 57.3861C60.4534 57.1685 60.4171 56.975 60.3446 56.8057C60.272 56.6316 60.1656 56.4865 60.0254 56.3704C59.8851 56.2543 59.7061 56.1648 59.4885 56.102C59.2708 56.0391 58.9879 56.0076 58.6396 56.0076H57.5078V58.6775H58.8863C59.1523 58.6775 59.3748 58.6509 59.5538 58.5977C59.7376 58.5397 59.8948 58.4575 60.0254 58.351C60.1608 58.2398 60.2648 58.1044 60.3373 57.9448C60.4147 57.7803 60.4534 57.5941 60.4534 57.3861Z" fill="#5780EA"/>
<path d="M62.4341 57.3208C62.4341 57.6546 62.3881 57.9568 62.2962 58.2277C62.2043 58.4986 62.0761 58.738 61.9117 58.946C61.7521 59.1539 61.5586 59.3329 61.3313 59.4828C61.1088 59.6328 60.8621 59.7561 60.5913 59.8529C60.3204 59.9496 60.0302 60.0221 59.7206 60.0705C59.4159 60.114 59.0749 60.1358 58.6977 60.1358H56.2019C56.0423 60.1358 55.9069 60.0899 55.7956 59.998C55.6892 59.9012 55.636 59.7464 55.636 59.5336V51.3499C55.636 51.137 55.6892 50.9847 55.7956 50.8928C55.9069 50.796 56.0423 50.7477 56.2019 50.7477H58.5598C59.1354 50.7477 59.6215 50.796 60.0181 50.8928C60.4196 50.9895 60.7557 51.137 61.0266 51.3353C61.3023 51.5288 61.5127 51.7755 61.6578 52.0754C61.8029 52.3752 61.8754 52.7283 61.8754 53.1346C61.8754 53.3619 61.8464 53.5772 61.7884 53.7803C61.7303 53.9786 61.6457 54.16 61.5344 54.3245C61.4232 54.4889 61.2853 54.634 61.1209 54.7598C60.9613 54.8855 60.7775 54.9871 60.5695 55.0645C60.8355 55.1128 61.0798 55.1975 61.3023 55.3184C61.5296 55.4393 61.7255 55.5965 61.8899 55.79C62.0592 55.9786 62.1922 56.2011 62.289 56.4575C62.3857 56.7138 62.4341 57.0016 62.4341 57.3208ZM59.9673 53.3668C59.9673 53.1781 59.9383 53.0089 59.8803 52.8589C59.8222 52.709 59.7352 52.5856 59.6191 52.4889C59.503 52.3873 59.3555 52.3099 59.1765 52.2567C59.0024 52.2035 58.7678 52.1769 58.4728 52.1769H57.5078V54.6147H58.5743C58.85 54.6147 59.0701 54.5832 59.2346 54.5203C59.399 54.4526 59.5344 54.3631 59.6408 54.2519C59.7521 54.1358 59.8343 54.0028 59.8875 53.8529C59.9407 53.6981 59.9673 53.5361 59.9673 53.3668ZM60.4534 57.3861C60.4534 57.1685 60.4171 56.975 60.3446 56.8057C60.272 56.6316 60.1656 56.4865 60.0254 56.3704C59.8851 56.2543 59.7061 56.1648 59.4885 56.102C59.2708 56.0391 58.9879 56.0076 58.6396 56.0076H57.5078V58.6775H58.8863C59.1523 58.6775 59.3748 58.6509 59.5538 58.5977C59.7376 58.5397 59.8948 58.4575 60.0254 58.351C60.1608 58.2398 60.2648 58.1044 60.3373 57.9448C60.4147 57.7803 60.4534 57.5941 60.4534 57.3861Z" fill="black" fill-opacity="0.1"/>
<path d="M72.0755 59.4248C72.1336 59.5989 72.1698 59.7368 72.1844 59.8383C72.1989 59.9399 72.1795 60.0173 72.1263 60.0705C72.0731 60.1189 71.9788 60.1479 71.8434 60.1576C71.7079 60.1721 71.5217 60.1793 71.2847 60.1793C71.038 60.1793 70.8446 60.1745 70.7043 60.1648C70.5689 60.16 70.4649 60.1479 70.3923 60.1285C70.3198 60.1044 70.269 60.0729 70.24 60.0342C70.211 59.9955 70.1868 59.9448 70.1674 59.8819L69.5362 57.9955H66.0103L65.4153 59.8311C65.396 59.8988 65.3694 59.9568 65.3355 60.0052C65.3065 60.0487 65.2557 60.085 65.1832 60.114C65.1155 60.1382 65.0163 60.1552 64.8857 60.1648C64.7599 60.1745 64.5931 60.1793 64.3851 60.1793C64.1626 60.1793 63.9885 60.1721 63.8627 60.1576C63.737 60.1431 63.6499 60.1092 63.6016 60.056C63.5532 59.998 63.5363 59.9182 63.5508 59.8166C63.5653 59.715 63.6016 59.5796 63.6596 59.4103L66.5544 51.0814C66.5834 50.9992 66.6173 50.9339 66.656 50.8855C66.6946 50.8323 66.7551 50.7936 66.8373 50.7694C66.9244 50.7404 67.0429 50.7235 67.1928 50.7187C67.3428 50.709 67.5411 50.7041 67.7878 50.7041C68.0731 50.7041 68.3005 50.709 68.4697 50.7187C68.639 50.7235 68.7696 50.7404 68.8615 50.7694C68.9582 50.7936 69.026 50.8323 69.0647 50.8855C69.1082 50.9387 69.1445 51.0113 69.1735 51.1032L72.0755 59.4248ZM67.766 52.5397H67.7587L66.431 56.53H69.0937L67.766 52.5397Z" fill="#5780EA"/>
<path d="M72.0755 59.4248C72.1336 59.5989 72.1698 59.7368 72.1844 59.8383C72.1989 59.9399 72.1795 60.0173 72.1263 60.0705C72.0731 60.1189 71.9788 60.1479 71.8434 60.1576C71.7079 60.1721 71.5217 60.1793 71.2847 60.1793C71.038 60.1793 70.8446 60.1745 70.7043 60.1648C70.5689 60.16 70.4649 60.1479 70.3923 60.1285C70.3198 60.1044 70.269 60.0729 70.24 60.0342C70.211 59.9955 70.1868 59.9448 70.1674 59.8819L69.5362 57.9955H66.0103L65.4153 59.8311C65.396 59.8988 65.3694 59.9568 65.3355 60.0052C65.3065 60.0487 65.2557 60.085 65.1832 60.114C65.1155 60.1382 65.0163 60.1552 64.8857 60.1648C64.7599 60.1745 64.5931 60.1793 64.3851 60.1793C64.1626 60.1793 63.9885 60.1721 63.8627 60.1576C63.737 60.1431 63.6499 60.1092 63.6016 60.056C63.5532 59.998 63.5363 59.9182 63.5508 59.8166C63.5653 59.715 63.6016 59.5796 63.6596 59.4103L66.5544 51.0814C66.5834 50.9992 66.6173 50.9339 66.656 50.8855C66.6946 50.8323 66.7551 50.7936 66.8373 50.7694C66.9244 50.7404 67.0429 50.7235 67.1928 50.7187C67.3428 50.709 67.5411 50.7041 67.7878 50.7041C68.0731 50.7041 68.3005 50.709 68.4697 50.7187C68.639 50.7235 68.7696 50.7404 68.8615 50.7694C68.9582 50.7936 69.026 50.8323 69.0647 50.8855C69.1082 50.9387 69.1445 51.0113 69.1735 51.1032L72.0755 59.4248ZM67.766 52.5397H67.7587L66.431 56.53H69.0937L67.766 52.5397Z" fill="black" fill-opacity="0.1"/>
<path d="M79.2212 51.5312C79.2212 51.6715 79.214 51.7924 79.1995 51.894C79.1898 51.9907 79.1729 52.0705 79.1487 52.1334C79.1245 52.1914 79.0931 52.235 79.0544 52.264C79.0205 52.293 78.9818 52.3075 78.9383 52.3075H76.5876V59.8746C76.5876 59.923 76.5707 59.9665 76.5368 60.0052C76.5078 60.0439 76.457 60.0753 76.3845 60.0995C76.3119 60.1237 76.2128 60.1431 76.087 60.1576C75.9661 60.1721 75.8138 60.1793 75.63 60.1793C75.4462 60.1793 75.2914 60.1721 75.1656 60.1576C75.0447 60.1431 74.948 60.1237 74.8754 60.0995C74.8029 60.0753 74.7497 60.0439 74.7158 60.0052C74.6868 59.9665 74.6723 59.923 74.6723 59.8746V52.3075H72.3216C72.2733 52.3075 72.2321 52.293 72.1983 52.264C72.1644 52.235 72.1354 52.1914 72.1112 52.1334C72.087 52.0705 72.0677 51.9907 72.0532 51.894C72.0435 51.7924 72.0387 51.6715 72.0387 51.5312C72.0387 51.3861 72.0435 51.2628 72.0532 51.1612C72.0677 51.0596 72.087 50.9798 72.1112 50.9218C72.1354 50.8589 72.1644 50.8154 72.1983 50.7912C72.2321 50.7622 72.2733 50.7477 72.3216 50.7477H78.9383C78.9818 50.7477 79.0205 50.7622 79.0544 50.7912C79.0931 50.8154 79.1245 50.8589 79.1487 50.9218C79.1729 50.9798 79.1898 51.0596 79.1995 51.1612C79.214 51.2628 79.2212 51.3861 79.2212 51.5312Z" fill="#5780EA"/>
<path d="M79.2212 51.5312C79.2212 51.6715 79.214 51.7924 79.1995 51.894C79.1898 51.9907 79.1729 52.0705 79.1487 52.1334C79.1245 52.1914 79.0931 52.235 79.0544 52.264C79.0205 52.293 78.9818 52.3075 78.9383 52.3075H76.5876V59.8746C76.5876 59.923 76.5707 59.9665 76.5368 60.0052C76.5078 60.0439 76.457 60.0753 76.3845 60.0995C76.3119 60.1237 76.2128 60.1431 76.087 60.1576C75.9661 60.1721 75.8138 60.1793 75.63 60.1793C75.4462 60.1793 75.2914 60.1721 75.1656 60.1576C75.0447 60.1431 74.948 60.1237 74.8754 60.0995C74.8029 60.0753 74.7497 60.0439 74.7158 60.0052C74.6868 59.9665 74.6723 59.923 74.6723 59.8746V52.3075H72.3216C72.2733 52.3075 72.2321 52.293 72.1983 52.264C72.1644 52.235 72.1354 52.1914 72.1112 52.1334C72.087 52.0705 72.0677 51.9907 72.0532 51.894C72.0435 51.7924 72.0387 51.6715 72.0387 51.5312C72.0387 51.3861 72.0435 51.2628 72.0532 51.1612C72.0677 51.0596 72.087 50.9798 72.1112 50.9218C72.1354 50.8589 72.1644 50.8154 72.1983 50.7912C72.2321 50.7622 72.2733 50.7477 72.3216 50.7477H78.9383C78.9818 50.7477 79.0205 50.7622 79.0544 50.7912C79.0931 50.8154 79.1245 50.8589 79.1487 50.9218C79.1729 50.9798 79.1898 51.0596 79.1995 51.1612C79.214 51.2628 79.2212 51.3861 79.2212 51.5312Z" fill="black" fill-opacity="0.1"/>
<path d="M86.4903 59.3885C86.4903 59.5288 86.483 59.6473 86.4685 59.744C86.4589 59.8359 86.4419 59.9109 86.4177 59.9689C86.3936 60.027 86.3621 60.0705 86.3234 60.0995C86.2896 60.1237 86.2509 60.1358 86.2073 60.1358H81.4915C81.3319 60.1358 81.1965 60.0899 81.0852 59.998C80.9788 59.9012 80.9256 59.7464 80.9256 59.5336V51.3499C80.9256 51.137 80.9788 50.9847 81.0852 50.8928C81.1965 50.796 81.3319 50.7477 81.4915 50.7477H86.1783C86.2219 50.7477 86.2605 50.7598 86.2944 50.784C86.3283 50.8081 86.3573 50.8517 86.3815 50.9145C86.4056 50.9726 86.4226 51.05 86.4323 51.1467C86.4468 51.2386 86.454 51.3571 86.454 51.5022C86.454 51.6376 86.4468 51.7537 86.4323 51.8505C86.4226 51.9424 86.4056 52.0173 86.3815 52.0754C86.3573 52.1334 86.3283 52.1769 86.2944 52.206C86.2605 52.2301 86.2219 52.2422 86.1783 52.2422H82.8265V54.5349H85.6632C85.7067 54.5349 85.7454 54.5494 85.7793 54.5784C85.818 54.6026 85.8494 54.6437 85.8736 54.7017C85.8978 54.7549 85.9147 54.8299 85.9244 54.9266C85.9389 55.0185 85.9462 55.1322 85.9462 55.2676C85.9462 55.4079 85.9389 55.524 85.9244 55.6159C85.9147 55.7078 85.8978 55.7827 85.8736 55.8408C85.8494 55.894 85.818 55.9327 85.7793 55.9569C85.7454 55.981 85.7067 55.9931 85.6632 55.9931H82.8265V58.6412H86.2073C86.2509 58.6412 86.2896 58.6558 86.3234 58.6848C86.3621 58.709 86.3936 58.7501 86.4177 58.8081C86.4419 58.8662 86.4589 58.9435 86.4685 59.0403C86.483 59.1322 86.4903 59.2483 86.4903 59.3885Z" fill="#5780EA"/>
<path d="M86.4903 59.3885C86.4903 59.5288 86.483 59.6473 86.4685 59.744C86.4589 59.8359 86.4419 59.9109 86.4177 59.9689C86.3936 60.027 86.3621 60.0705 86.3234 60.0995C86.2896 60.1237 86.2509 60.1358 86.2073 60.1358H81.4915C81.3319 60.1358 81.1965 60.0899 81.0852 59.998C80.9788 59.9012 80.9256 59.7464 80.9256 59.5336V51.3499C80.9256 51.137 80.9788 50.9847 81.0852 50.8928C81.1965 50.796 81.3319 50.7477 81.4915 50.7477H86.1783C86.2219 50.7477 86.2605 50.7598 86.2944 50.784C86.3283 50.8081 86.3573 50.8517 86.3815 50.9145C86.4056 50.9726 86.4226 51.05 86.4323 51.1467C86.4468 51.2386 86.454 51.3571 86.454 51.5022C86.454 51.6376 86.4468 51.7537 86.4323 51.8505C86.4226 51.9424 86.4056 52.0173 86.3815 52.0754C86.3573 52.1334 86.3283 52.1769 86.2944 52.206C86.2605 52.2301 86.2219 52.2422 86.1783 52.2422H82.8265V54.5349H85.6632C85.7067 54.5349 85.7454 54.5494 85.7793 54.5784C85.818 54.6026 85.8494 54.6437 85.8736 54.7017C85.8978 54.7549 85.9147 54.8299 85.9244 54.9266C85.9389 55.0185 85.9462 55.1322 85.9462 55.2676C85.9462 55.4079 85.9389 55.524 85.9244 55.6159C85.9147 55.7078 85.8978 55.7827 85.8736 55.8408C85.8494 55.894 85.818 55.9327 85.7793 55.9569C85.7454 55.981 85.7067 55.9931 85.6632 55.9931H82.8265V58.6412H86.2073C86.2509 58.6412 86.2896 58.6558 86.3234 58.6848C86.3621 58.709 86.3936 58.7501 86.4177 58.8081C86.4419 58.8662 86.4589 58.9435 86.4685 59.0403C86.483 59.1322 86.4903 59.2483 86.4903 59.3885Z" fill="black" fill-opacity="0.1"/>
<path d="M95.8923 59.8891C95.8923 59.9375 95.8778 59.981 95.8488 60.0197C95.8198 60.0536 95.769 60.0826 95.6965 60.1068C95.6239 60.131 95.5247 60.1479 95.399 60.1576C95.2781 60.1721 95.1257 60.1793 94.9419 60.1793C94.7533 60.1793 94.5985 60.1721 94.4776 60.1576C94.3567 60.1479 94.2599 60.131 94.1874 60.1068C94.1148 60.0826 94.0641 60.0536 94.035 60.0197C94.006 59.981 93.9915 59.9375 93.9915 59.8891V52.3148H91.9746C91.8391 53.4224 91.7013 54.3897 91.561 55.2168C91.4208 56.0439 91.2708 56.7525 91.1112 57.3426C90.9516 57.9327 90.7751 58.4163 90.5816 58.7936C90.393 59.1709 90.1753 59.4708 89.9286 59.6932C89.6868 59.9109 89.4111 60.0608 89.1016 60.1431C88.7968 60.2253 88.4486 60.2664 88.0568 60.2664C87.9843 60.2664 87.9214 60.2567 87.8682 60.2374C87.815 60.218 87.7714 60.1818 87.7376 60.1285C87.7086 60.0753 87.6868 60.0004 87.6723 59.9036C87.6578 59.8069 87.6505 59.6836 87.6505 59.5336C87.6505 59.3256 87.6554 59.1588 87.665 59.033C87.6747 58.9024 87.6916 58.8033 87.7158 58.7356C87.74 58.663 87.7714 58.6146 87.8101 58.5905C87.8488 58.5663 87.8948 58.5542 87.948 58.5542C88.0979 58.5542 88.2406 58.5252 88.376 58.4671C88.5163 58.4042 88.6493 58.2833 88.7751 58.1044C88.9057 57.9254 89.029 57.6739 89.1451 57.3498C89.266 57.0258 89.3821 56.6001 89.4933 56.0729C89.6094 55.5409 89.7231 54.8952 89.8343 54.1358C89.9504 53.3716 90.0665 52.4647 90.1826 51.4151C90.2116 51.1685 90.2696 50.9968 90.3567 50.9C90.4437 50.7985 90.5719 50.7477 90.7412 50.7477H95.3482C95.5223 50.7477 95.6553 50.7985 95.7472 50.9C95.844 50.9968 95.8923 51.1467 95.8923 51.3499V59.8891Z" fill="#5780EA"/>
<path d="M95.8923 59.8891C95.8923 59.9375 95.8778 59.981 95.8488 60.0197C95.8198 60.0536 95.769 60.0826 95.6965 60.1068C95.6239 60.131 95.5247 60.1479 95.399 60.1576C95.2781 60.1721 95.1257 60.1793 94.9419 60.1793C94.7533 60.1793 94.5985 60.1721 94.4776 60.1576C94.3567 60.1479 94.2599 60.131 94.1874 60.1068C94.1148 60.0826 94.0641 60.0536 94.035 60.0197C94.006 59.981 93.9915 59.9375 93.9915 59.8891V52.3148H91.9746C91.8391 53.4224 91.7013 54.3897 91.561 55.2168C91.4208 56.0439 91.2708 56.7525 91.1112 57.3426C90.9516 57.9327 90.7751 58.4163 90.5816 58.7936C90.393 59.1709 90.1753 59.4708 89.9286 59.6932C89.6868 59.9109 89.4111 60.0608 89.1016 60.1431C88.7968 60.2253 88.4486 60.2664 88.0568 60.2664C87.9843 60.2664 87.9214 60.2567 87.8682 60.2374C87.815 60.218 87.7714 60.1818 87.7376 60.1285C87.7086 60.0753 87.6868 60.0004 87.6723 59.9036C87.6578 59.8069 87.6505 59.6836 87.6505 59.5336C87.6505 59.3256 87.6554 59.1588 87.665 59.033C87.6747 58.9024 87.6916 58.8033 87.7158 58.7356C87.74 58.663 87.7714 58.6146 87.8101 58.5905C87.8488 58.5663 87.8948 58.5542 87.948 58.5542C88.0979 58.5542 88.2406 58.5252 88.376 58.4671C88.5163 58.4042 88.6493 58.2833 88.7751 58.1044C88.9057 57.9254 89.029 57.6739 89.1451 57.3498C89.266 57.0258 89.3821 56.6001 89.4933 56.0729C89.6094 55.5409 89.7231 54.8952 89.8343 54.1358C89.9504 53.3716 90.0665 52.4647 90.1826 51.4151C90.2116 51.1685 90.2696 50.9968 90.3567 50.9C90.4437 50.7985 90.5719 50.7477 90.7412 50.7477H95.3482C95.5223 50.7477 95.6553 50.7985 95.7472 50.9C95.844 50.9968 95.8923 51.1467 95.8923 51.3499V59.8891Z" fill="black" fill-opacity="0.1"/>
<path d="M105.447 57.0234C105.447 57.4683 105.379 57.877 105.244 58.2495C105.113 58.6219 104.898 58.9484 104.598 59.2289C104.303 59.5046 103.916 59.7247 103.437 59.8891C102.958 60.0536 102.303 60.1358 101.471 60.1358H99.1275C99.0453 60.1358 98.9679 60.1261 98.8954 60.1068C98.8277 60.0826 98.7672 60.0463 98.714 59.998C98.6608 59.9448 98.6173 59.8819 98.5834 59.8093C98.5544 59.7319 98.5399 59.64 98.5399 59.5336V50.9944C98.5399 50.946 98.5544 50.9049 98.5834 50.871C98.6173 50.8323 98.6705 50.8009 98.743 50.7767C98.8204 50.7525 98.9196 50.7356 99.0405 50.7259C99.1662 50.7114 99.3186 50.7041 99.4976 50.7041C99.6862 50.7041 99.841 50.7114 99.9619 50.7259C100.083 50.7356 100.18 50.7525 100.252 50.7767C100.325 50.8009 100.375 50.8323 100.404 50.871C100.433 50.9049 100.448 50.946 100.448 50.9944V54.1939H101.761C102.472 54.1939 103.038 54.2567 103.459 54.3825C103.88 54.5034 104.235 54.6848 104.525 54.9266C104.82 55.1685 105.048 55.4659 105.207 55.819C105.367 56.1721 105.447 56.5735 105.447 57.0234ZM103.488 57.183C103.488 56.946 103.454 56.7356 103.386 56.5518C103.319 56.368 103.215 56.2108 103.074 56.0802C102.934 55.9496 102.753 55.8504 102.53 55.7827C102.313 55.7102 101.986 55.6739 101.551 55.6739H100.448V58.6558H101.587C102.042 58.6558 102.38 58.6122 102.603 58.5252C102.83 58.4333 103.007 58.3172 103.132 58.1769C103.258 58.0318 103.348 57.8722 103.401 57.6981C103.459 57.524 103.488 57.3523 103.488 57.183Z" fill="#5780EA"/>
<path d="M105.447 57.0234C105.447 57.4683 105.379 57.877 105.244 58.2495C105.113 58.6219 104.898 58.9484 104.598 59.2289C104.303 59.5046 103.916 59.7247 103.437 59.8891C102.958 60.0536 102.303 60.1358 101.471 60.1358H99.1275C99.0453 60.1358 98.9679 60.1261 98.8954 60.1068C98.8277 60.0826 98.7672 60.0463 98.714 59.998C98.6608 59.9448 98.6173 59.8819 98.5834 59.8093C98.5544 59.7319 98.5399 59.64 98.5399 59.5336V50.9944C98.5399 50.946 98.5544 50.9049 98.5834 50.871C98.6173 50.8323 98.6705 50.8009 98.743 50.7767C98.8204 50.7525 98.9196 50.7356 99.0405 50.7259C99.1662 50.7114 99.3186 50.7041 99.4976 50.7041C99.6862 50.7041 99.841 50.7114 99.9619 50.7259C100.083 50.7356 100.18 50.7525 100.252 50.7767C100.325 50.8009 100.375 50.8323 100.404 50.871C100.433 50.9049 100.448 50.946 100.448 50.9944V54.1939H101.761C102.472 54.1939 103.038 54.2567 103.459 54.3825C103.88 54.5034 104.235 54.6848 104.525 54.9266C104.82 55.1685 105.048 55.4659 105.207 55.819C105.367 56.1721 105.447 56.5735 105.447 57.0234ZM103.488 57.183C103.488 56.946 103.454 56.7356 103.386 56.5518C103.319 56.368 103.215 56.2108 103.074 56.0802C102.934 55.9496 102.753 55.8504 102.53 55.7827C102.313 55.7102 101.986 55.6739 101.551 55.6739H100.448V58.6558H101.587C102.042 58.6558 102.38 58.6122 102.603 58.5252C102.83 58.4333 103.007 58.3172 103.132 58.1769C103.258 58.0318 103.348 57.8722 103.401 57.6981C103.459 57.524 103.488 57.3523 103.488 57.183Z" fill="black" fill-opacity="0.1"/>
<path d="M114.689 59.8746C114.689 59.923 114.672 59.9665 114.638 60.0052C114.609 60.0439 114.559 60.0753 114.486 60.0995C114.413 60.1237 114.317 60.1431 114.196 60.1576C114.075 60.1721 113.923 60.1793 113.739 60.1793C113.55 60.1793 113.393 60.1721 113.267 60.1576C113.146 60.1431 113.05 60.1237 112.977 60.0995C112.909 60.0753 112.858 60.0439 112.825 60.0052C112.796 59.9665 112.781 59.923 112.781 59.8746V56.0802H109.27V59.8746C109.27 59.923 109.255 59.9665 109.226 60.0052C109.197 60.0439 109.146 60.0753 109.074 60.0995C109.001 60.1237 108.904 60.1431 108.784 60.1576C108.663 60.1721 108.508 60.1793 108.319 60.1793C108.135 60.1793 107.981 60.1721 107.855 60.1576C107.734 60.1431 107.637 60.1237 107.565 60.0995C107.492 60.0753 107.439 60.0439 107.405 60.0052C107.376 59.9665 107.362 59.923 107.362 59.8746V51.0089C107.362 50.9605 107.376 50.917 107.405 50.8783C107.439 50.8396 107.492 50.8081 107.565 50.784C107.637 50.7598 107.734 50.7404 107.855 50.7259C107.981 50.7114 108.135 50.7041 108.319 50.7041C108.508 50.7041 108.663 50.7114 108.784 50.7259C108.904 50.7404 109.001 50.7598 109.074 50.784C109.146 50.8081 109.197 50.8396 109.226 50.8783C109.255 50.917 109.27 50.9605 109.27 51.0089V54.455H112.781V51.0089C112.781 50.9605 112.796 50.917 112.825 50.8783C112.858 50.8396 112.909 50.8081 112.977 50.784C113.05 50.7598 113.146 50.7404 113.267 50.7259C113.393 50.7114 113.55 50.7041 113.739 50.7041C113.923 50.7041 114.075 50.7114 114.196 50.7259C114.317 50.7404 114.413 50.7598 114.486 50.784C114.559 50.8081 114.609 50.8396 114.638 50.8783C114.672 50.917 114.689 50.9605 114.689 51.0089V59.8746Z" fill="#5780EA"/>
<path d="M114.689 59.8746C114.689 59.923 114.672 59.9665 114.638 60.0052C114.609 60.0439 114.559 60.0753 114.486 60.0995C114.413 60.1237 114.317 60.1431 114.196 60.1576C114.075 60.1721 113.923 60.1793 113.739 60.1793C113.55 60.1793 113.393 60.1721 113.267 60.1576C113.146 60.1431 113.05 60.1237 112.977 60.0995C112.909 60.0753 112.858 60.0439 112.825 60.0052C112.796 59.9665 112.781 59.923 112.781 59.8746V56.0802H109.27V59.8746C109.27 59.923 109.255 59.9665 109.226 60.0052C109.197 60.0439 109.146 60.0753 109.074 60.0995C109.001 60.1237 108.904 60.1431 108.784 60.1576C108.663 60.1721 108.508 60.1793 108.319 60.1793C108.135 60.1793 107.981 60.1721 107.855 60.1576C107.734 60.1431 107.637 60.1237 107.565 60.0995C107.492 60.0753 107.439 60.0439 107.405 60.0052C107.376 59.9665 107.362 59.923 107.362 59.8746V51.0089C107.362 50.9605 107.376 50.917 107.405 50.8783C107.439 50.8396 107.492 50.8081 107.565 50.784C107.637 50.7598 107.734 50.7404 107.855 50.7259C107.981 50.7114 108.135 50.7041 108.319 50.7041C108.508 50.7041 108.663 50.7114 108.784 50.7259C108.904 50.7404 109.001 50.7598 109.074 50.784C109.146 50.8081 109.197 50.8396 109.226 50.8783C109.255 50.917 109.27 50.9605 109.27 51.0089V54.455H112.781V51.0089C112.781 50.9605 112.796 50.917 112.825 50.8783C112.858 50.8396 112.909 50.8081 112.977 50.784C113.05 50.7598 113.146 50.7404 113.267 50.7259C113.393 50.7114 113.55 50.7041 113.739 50.7041C113.923 50.7041 114.075 50.7114 114.196 50.7259C114.317 50.7404 114.413 50.7598 114.486 50.784C114.559 50.8081 114.609 50.8396 114.638 50.8783C114.672 50.917 114.689 50.9605 114.689 51.0089V59.8746Z" fill="black" fill-opacity="0.1"/>
<path d="M125.02 59.4248C125.078 59.5989 125.114 59.7368 125.129 59.8383C125.143 59.9399 125.124 60.0173 125.071 60.0705C125.017 60.1189 124.923 60.1479 124.788 60.1576C124.652 60.1721 124.466 60.1793 124.229 60.1793C123.982 60.1793 123.789 60.1745 123.649 60.1648C123.513 60.16 123.409 60.1479 123.337 60.1285C123.264 60.1044 123.213 60.0729 123.184 60.0342C123.155 59.9955 123.131 59.9448 123.112 59.8819L122.481 57.9955H118.955L118.36 59.8311C118.34 59.8988 118.314 59.9568 118.28 60.0052C118.251 60.0487 118.2 60.085 118.128 60.114C118.06 60.1382 117.961 60.1552 117.83 60.1648C117.704 60.1745 117.537 60.1793 117.329 60.1793C117.107 60.1793 116.933 60.1721 116.807 60.1576C116.681 60.1431 116.594 60.1092 116.546 60.056C116.498 59.998 116.481 59.9182 116.495 59.8166C116.51 59.715 116.546 59.5796 116.604 59.4103L119.499 51.0814C119.528 50.9992 119.562 50.9339 119.6 50.8855C119.639 50.8323 119.699 50.7936 119.782 50.7694C119.869 50.7404 119.987 50.7235 120.137 50.7187C120.287 50.709 120.485 50.7041 120.732 50.7041C121.017 50.7041 121.245 50.709 121.414 50.7187C121.583 50.7235 121.714 50.7404 121.806 50.7694C121.903 50.7936 121.97 50.8323 122.009 50.8855C122.053 50.9387 122.089 51.0113 122.118 51.1032L125.02 59.4248ZM120.71 52.5397H120.703L119.375 56.53H122.038L120.71 52.5397Z" fill="#5780EA"/>
<path d="M125.02 59.4248C125.078 59.5989 125.114 59.7368 125.129 59.8383C125.143 59.9399 125.124 60.0173 125.071 60.0705C125.017 60.1189 124.923 60.1479 124.788 60.1576C124.652 60.1721 124.466 60.1793 124.229 60.1793C123.982 60.1793 123.789 60.1745 123.649 60.1648C123.513 60.16 123.409 60.1479 123.337 60.1285C123.264 60.1044 123.213 60.0729 123.184 60.0342C123.155 59.9955 123.131 59.9448 123.112 59.8819L122.481 57.9955H118.955L118.36 59.8311C118.34 59.8988 118.314 59.9568 118.28 60.0052C118.251 60.0487 118.2 60.085 118.128 60.114C118.06 60.1382 117.961 60.1552 117.83 60.1648C117.704 60.1745 117.537 60.1793 117.329 60.1793C117.107 60.1793 116.933 60.1721 116.807 60.1576C116.681 60.1431 116.594 60.1092 116.546 60.056C116.498 59.998 116.481 59.9182 116.495 59.8166C116.51 59.715 116.546 59.5796 116.604 59.4103L119.499 51.0814C119.528 50.9992 119.562 50.9339 119.6 50.8855C119.639 50.8323 119.699 50.7936 119.782 50.7694C119.869 50.7404 119.987 50.7235 120.137 50.7187C120.287 50.709 120.485 50.7041 120.732 50.7041C121.017 50.7041 121.245 50.709 121.414 50.7187C121.583 50.7235 121.714 50.7404 121.806 50.7694C121.903 50.7936 121.97 50.8323 122.009 50.8855C122.053 50.9387 122.089 51.0113 122.118 51.1032L125.02 59.4248ZM120.71 52.5397H120.703L119.375 56.53H122.038L120.71 52.5397Z" fill="black" fill-opacity="0.1"/>
<path d="M133.413 59.8891C133.413 59.9375 133.399 59.981 133.37 60.0197C133.341 60.0536 133.29 60.0826 133.218 60.1068C133.15 60.131 133.053 60.1479 132.927 60.1576C132.806 60.1721 132.654 60.1793 132.47 60.1793C132.282 60.1793 132.127 60.1721 132.006 60.1576C131.885 60.1479 131.786 60.131 131.709 60.1068C131.636 60.0826 131.585 60.0536 131.556 60.0197C131.527 59.981 131.513 59.9375 131.513 59.8891V56.3777H130.809C130.519 56.3777 130.296 56.4067 130.141 56.4647C129.991 56.5228 129.856 56.6122 129.735 56.7332C129.619 56.8541 129.515 57.0064 129.423 57.1902C129.331 57.3692 129.242 57.582 129.155 57.8287L128.444 59.8601C128.42 59.9182 128.388 59.9689 128.349 60.0125C128.311 60.0512 128.25 60.085 128.168 60.114C128.091 60.1382 127.987 60.1552 127.856 60.1648C127.725 60.1745 127.559 60.1793 127.355 60.1793C127.133 60.1793 126.956 60.1721 126.826 60.1576C126.7 60.1431 126.603 60.1237 126.536 60.0995C126.468 60.0705 126.424 60.0391 126.405 60.0052C126.386 59.9714 126.376 59.9351 126.376 59.8964C126.376 59.848 126.383 59.79 126.398 59.7223C126.417 59.6497 126.453 59.5433 126.507 59.403L127.21 57.5602C127.302 57.3184 127.397 57.108 127.493 56.929C127.59 56.7501 127.696 56.5905 127.813 56.4502C127.933 56.3051 128.059 56.1842 128.19 56.0874C128.325 55.9907 128.473 55.9133 128.632 55.8553C128.332 55.7731 128.066 55.6666 127.834 55.5361C127.607 55.4006 127.414 55.2386 127.254 55.05C127.099 54.8565 126.981 54.6364 126.898 54.3897C126.821 54.1382 126.782 53.8577 126.782 53.5482C126.782 53.1225 126.855 52.738 127 52.3946C127.15 52.0463 127.37 51.7513 127.66 51.5095C127.95 51.2676 128.311 51.0814 128.741 50.9508C129.176 50.8154 129.781 50.7477 130.555 50.7477H132.855C133.01 50.7477 133.14 50.796 133.247 50.8928C133.358 50.9847 133.413 51.137 133.413 51.3499V59.8891ZM131.513 52.2205H130.533C130.122 52.2205 129.815 52.2519 129.612 52.3148C129.409 52.3777 129.242 52.4696 129.111 52.5905C128.985 52.7066 128.894 52.8492 128.836 53.0185C128.777 53.183 128.748 53.3668 128.748 53.5699C128.748 53.7682 128.78 53.952 128.843 54.1213C128.906 54.2858 129.002 54.4309 129.133 54.5566C129.264 54.6775 129.43 54.7719 129.634 54.8396C129.837 54.9073 130.127 54.9411 130.504 54.9411H131.513V52.2205Z" fill="#5780EA"/>
<path d="M133.413 59.8891C133.413 59.9375 133.399 59.981 133.37 60.0197C133.341 60.0536 133.29 60.0826 133.218 60.1068C133.15 60.131 133.053 60.1479 132.927 60.1576C132.806 60.1721 132.654 60.1793 132.47 60.1793C132.282 60.1793 132.127 60.1721 132.006 60.1576C131.885 60.1479 131.786 60.131 131.709 60.1068C131.636 60.0826 131.585 60.0536 131.556 60.0197C131.527 59.981 131.513 59.9375 131.513 59.8891V56.3777H130.809C130.519 56.3777 130.296 56.4067 130.141 56.4647C129.991 56.5228 129.856 56.6122 129.735 56.7332C129.619 56.8541 129.515 57.0064 129.423 57.1902C129.331 57.3692 129.242 57.582 129.155 57.8287L128.444 59.8601C128.42 59.9182 128.388 59.9689 128.349 60.0125C128.311 60.0512 128.25 60.085 128.168 60.114C128.091 60.1382 127.987 60.1552 127.856 60.1648C127.725 60.1745 127.559 60.1793 127.355 60.1793C127.133 60.1793 126.956 60.1721 126.826 60.1576C126.7 60.1431 126.603 60.1237 126.536 60.0995C126.468 60.0705 126.424 60.0391 126.405 60.0052C126.386 59.9714 126.376 59.9351 126.376 59.8964C126.376 59.848 126.383 59.79 126.398 59.7223C126.417 59.6497 126.453 59.5433 126.507 59.403L127.21 57.5602C127.302 57.3184 127.397 57.108 127.493 56.929C127.59 56.7501 127.696 56.5905 127.813 56.4502C127.933 56.3051 128.059 56.1842 128.19 56.0874C128.325 55.9907 128.473 55.9133 128.632 55.8553C128.332 55.7731 128.066 55.6666 127.834 55.5361C127.607 55.4006 127.414 55.2386 127.254 55.05C127.099 54.8565 126.981 54.6364 126.898 54.3897C126.821 54.1382 126.782 53.8577 126.782 53.5482C126.782 53.1225 126.855 52.738 127 52.3946C127.15 52.0463 127.37 51.7513 127.66 51.5095C127.95 51.2676 128.311 51.0814 128.741 50.9508C129.176 50.8154 129.781 50.7477 130.555 50.7477H132.855C133.01 50.7477 133.14 50.796 133.247 50.8928C133.358 50.9847 133.413 51.137 133.413 51.3499V59.8891ZM131.513 52.2205H130.533C130.122 52.2205 129.815 52.2519 129.612 52.3148C129.409 52.3777 129.242 52.4696 129.111 52.5905C128.985 52.7066 128.894 52.8492 128.836 53.0185C128.777 53.183 128.748 53.3668 128.748 53.5699C128.748 53.7682 128.78 53.952 128.843 54.1213C128.906 54.2858 129.002 54.4309 129.133 54.5566C129.264 54.6775 129.43 54.7719 129.634 54.8396C129.837 54.9073 130.127 54.9411 130.504 54.9411H131.513V52.2205Z" fill="black" fill-opacity="0.1"/>
<path d="M7.39296 78.7026C7.39296 78.7558 7.37845 78.8018 7.34943 78.8405C7.32041 78.8743 7.26721 78.9033 7.18982 78.9275C7.11727 78.9517 7.01812 78.9686 6.89236 78.9783C6.76661 78.9928 6.60458 79.0001 6.40627 79.0001C6.19829 79.0001 6.029 78.9928 5.89841 78.9783C5.77266 78.9686 5.67108 78.9517 5.5937 78.9275C5.51631 78.8985 5.45827 78.8622 5.41957 78.8187C5.38088 78.7703 5.35186 78.7123 5.33251 78.6446L4.57798 76.5551C4.47157 76.2504 4.36033 75.9965 4.24424 75.7933C4.12816 75.5853 3.99999 75.4185 3.85972 75.2927C3.71946 75.1621 3.55984 75.0702 3.38088 75.017C3.20193 74.9638 3.0012 74.9372 2.77871 74.9372H2.35066V78.6954C2.35066 78.7486 2.33615 78.7945 2.30713 78.8332C2.27811 78.8671 2.22732 78.8985 2.15477 78.9275C2.08222 78.9517 1.98548 78.9686 1.86457 78.9783C1.74365 78.9928 1.58887 79.0001 1.40024 79.0001C1.21644 79.0001 1.06167 78.9928 0.93591 78.9783C0.814992 78.9686 0.718257 78.9517 0.645705 78.9275C0.573154 78.8985 0.51995 78.8671 0.486093 78.8332C0.457072 78.7945 0.442562 78.7486 0.442562 78.6954V69.8224C0.442562 69.7692 0.457072 69.7256 0.486093 69.6918C0.51995 69.6531 0.573154 69.6216 0.645705 69.5974C0.718257 69.5733 0.814992 69.5563 0.93591 69.5467C1.06167 69.5322 1.21644 69.5249 1.40024 69.5249C1.58887 69.5249 1.74365 69.5322 1.86457 69.5467C1.98548 69.5563 2.08222 69.5733 2.15477 69.5974C2.22732 69.6216 2.27811 69.6531 2.30713 69.6918C2.33615 69.7256 2.35066 69.7692 2.35066 69.8224V73.3483H2.77871C2.99636 73.3483 3.18742 73.3193 3.35186 73.2613C3.51631 73.2032 3.66383 73.1113 3.79443 72.9856C3.92986 72.8598 4.05077 72.6978 4.15718 72.4995C4.26843 72.2964 4.37484 72.0473 4.47641 71.7522L5.1076 69.8804C5.13179 69.8127 5.16081 69.7571 5.19466 69.7135C5.22852 69.6652 5.28173 69.6289 5.35428 69.6047C5.43166 69.5757 5.53082 69.5563 5.65174 69.5467C5.77749 69.5322 5.94436 69.5249 6.15234 69.5249C6.34097 69.5249 6.49575 69.5322 6.61667 69.5467C6.74242 69.5563 6.83916 69.5733 6.90687 69.5974C6.97942 69.6168 7.02779 69.6458 7.05197 69.6845C7.07616 69.7184 7.08825 69.7619 7.08825 69.8151C7.08825 69.878 7.07616 69.9554 7.05197 70.0473C7.03263 70.1392 6.99635 70.2601 6.94315 70.41L6.31195 72.0787C6.19587 72.3883 6.07979 72.6519 5.96371 72.8695C5.84762 73.0872 5.72429 73.2734 5.5937 73.4282C5.46794 73.5781 5.33251 73.7014 5.18741 73.7982C5.04714 73.8949 4.88995 73.9747 4.71583 74.0376V74.0448C4.9093 74.1271 5.08342 74.2214 5.23819 74.3278C5.39781 74.4294 5.54533 74.56 5.68076 74.7196C5.82102 74.8792 5.95403 75.0751 6.07979 75.3072C6.20554 75.5394 6.33372 75.8248 6.46431 76.1633L7.23335 78.1077C7.31074 78.306 7.35669 78.4439 7.3712 78.5212C7.38571 78.5938 7.39296 78.6543 7.39296 78.7026Z" fill="#5780EA"/>
<path d="M7.39296 78.7026C7.39296 78.7558 7.37845 78.8018 7.34943 78.8405C7.32041 78.8743 7.26721 78.9033 7.18982 78.9275C7.11727 78.9517 7.01812 78.9686 6.89236 78.9783C6.76661 78.9928 6.60458 79.0001 6.40627 79.0001C6.19829 79.0001 6.029 78.9928 5.89841 78.9783C5.77266 78.9686 5.67108 78.9517 5.5937 78.9275C5.51631 78.8985 5.45827 78.8622 5.41957 78.8187C5.38088 78.7703 5.35186 78.7123 5.33251 78.6446L4.57798 76.5551C4.47157 76.2504 4.36033 75.9965 4.24424 75.7933C4.12816 75.5853 3.99999 75.4185 3.85972 75.2927C3.71946 75.1621 3.55984 75.0702 3.38088 75.017C3.20193 74.9638 3.0012 74.9372 2.77871 74.9372H2.35066V78.6954C2.35066 78.7486 2.33615 78.7945 2.30713 78.8332C2.27811 78.8671 2.22732 78.8985 2.15477 78.9275C2.08222 78.9517 1.98548 78.9686 1.86457 78.9783C1.74365 78.9928 1.58887 79.0001 1.40024 79.0001C1.21644 79.0001 1.06167 78.9928 0.93591 78.9783C0.814992 78.9686 0.718257 78.9517 0.645705 78.9275C0.573154 78.8985 0.51995 78.8671 0.486093 78.8332C0.457072 78.7945 0.442562 78.7486 0.442562 78.6954V69.8224C0.442562 69.7692 0.457072 69.7256 0.486093 69.6918C0.51995 69.6531 0.573154 69.6216 0.645705 69.5974C0.718257 69.5733 0.814992 69.5563 0.93591 69.5467C1.06167 69.5322 1.21644 69.5249 1.40024 69.5249C1.58887 69.5249 1.74365 69.5322 1.86457 69.5467C1.98548 69.5563 2.08222 69.5733 2.15477 69.5974C2.22732 69.6216 2.27811 69.6531 2.30713 69.6918C2.33615 69.7256 2.35066 69.7692 2.35066 69.8224V73.3483H2.77871C2.99636 73.3483 3.18742 73.3193 3.35186 73.2613C3.51631 73.2032 3.66383 73.1113 3.79443 72.9856C3.92986 72.8598 4.05077 72.6978 4.15718 72.4995C4.26843 72.2964 4.37484 72.0473 4.47641 71.7522L5.1076 69.8804C5.13179 69.8127 5.16081 69.7571 5.19466 69.7135C5.22852 69.6652 5.28173 69.6289 5.35428 69.6047C5.43166 69.5757 5.53082 69.5563 5.65174 69.5467C5.77749 69.5322 5.94436 69.5249 6.15234 69.5249C6.34097 69.5249 6.49575 69.5322 6.61667 69.5467C6.74242 69.5563 6.83916 69.5733 6.90687 69.5974C6.97942 69.6168 7.02779 69.6458 7.05197 69.6845C7.07616 69.7184 7.08825 69.7619 7.08825 69.8151C7.08825 69.878 7.07616 69.9554 7.05197 70.0473C7.03263 70.1392 6.99635 70.2601 6.94315 70.41L6.31195 72.0787C6.19587 72.3883 6.07979 72.6519 5.96371 72.8695C5.84762 73.0872 5.72429 73.2734 5.5937 73.4282C5.46794 73.5781 5.33251 73.7014 5.18741 73.7982C5.04714 73.8949 4.88995 73.9747 4.71583 74.0376V74.0448C4.9093 74.1271 5.08342 74.2214 5.23819 74.3278C5.39781 74.4294 5.54533 74.56 5.68076 74.7196C5.82102 74.8792 5.95403 75.0751 6.07979 75.3072C6.20554 75.5394 6.33372 75.8248 6.46431 76.1633L7.23335 78.1077C7.31074 78.306 7.35669 78.4439 7.3712 78.5212C7.38571 78.5938 7.39296 78.6543 7.39296 78.7026Z" fill="black" fill-opacity="0.1"/>
<path d="M17.0997 78.2456C17.1578 78.4197 17.194 78.5575 17.2086 78.6591C17.2231 78.7607 17.2037 78.8381 17.1505 78.8913C17.0973 78.9396 17.003 78.9686 16.8676 78.9783C16.7321 78.9928 16.5459 79.0001 16.3089 79.0001C16.0623 79.0001 15.8688 78.9952 15.7285 78.9856C15.5931 78.9807 15.4891 78.9686 15.4165 78.9493C15.344 78.9251 15.2932 78.8937 15.2642 78.855C15.2352 78.8163 15.211 78.7655 15.1916 78.7026L14.5604 76.8163H11.0345L10.4395 78.6518C10.4202 78.7196 10.3936 78.7776 10.3597 78.826C10.3307 78.8695 10.2799 78.9058 10.2074 78.9348C10.1397 78.959 10.0405 78.9759 9.90991 78.9856C9.78416 78.9952 9.61729 79.0001 9.40931 79.0001C9.18682 79.0001 9.01269 78.9928 8.88694 78.9783C8.76118 78.9638 8.67412 78.93 8.62576 78.8767C8.57739 78.8187 8.56046 78.7389 8.57497 78.6373C8.58948 78.5358 8.62576 78.4003 8.6838 78.231L11.5786 69.9022C11.6076 69.8199 11.6415 69.7546 11.6802 69.7063C11.7189 69.6531 11.7793 69.6144 11.8615 69.5902C11.9486 69.5612 12.0671 69.5442 12.217 69.5394C12.367 69.5297 12.5653 69.5249 12.812 69.5249C13.0973 69.5249 13.3247 69.5297 13.4939 69.5394C13.6632 69.5442 13.7938 69.5612 13.8857 69.5902C13.9825 69.6144 14.0502 69.6531 14.0889 69.7063C14.1324 69.7595 14.1687 69.832 14.1977 69.9239L17.0997 78.2456ZM12.7902 71.3604H12.7829L11.4553 75.3508H14.1179L12.7902 71.3604Z" fill="#5780EA"/>
<path d="M17.0997 78.2456C17.1578 78.4197 17.194 78.5575 17.2086 78.6591C17.2231 78.7607 17.2037 78.8381 17.1505 78.8913C17.0973 78.9396 17.003 78.9686 16.8676 78.9783C16.7321 78.9928 16.5459 79.0001 16.3089 79.0001C16.0623 79.0001 15.8688 78.9952 15.7285 78.9856C15.5931 78.9807 15.4891 78.9686 15.4165 78.9493C15.344 78.9251 15.2932 78.8937 15.2642 78.855C15.2352 78.8163 15.211 78.7655 15.1916 78.7026L14.5604 76.8163H11.0345L10.4395 78.6518C10.4202 78.7196 10.3936 78.7776 10.3597 78.826C10.3307 78.8695 10.2799 78.9058 10.2074 78.9348C10.1397 78.959 10.0405 78.9759 9.90991 78.9856C9.78416 78.9952 9.61729 79.0001 9.40931 79.0001C9.18682 79.0001 9.01269 78.9928 8.88694 78.9783C8.76118 78.9638 8.67412 78.93 8.62576 78.8767C8.57739 78.8187 8.56046 78.7389 8.57497 78.6373C8.58948 78.5358 8.62576 78.4003 8.6838 78.231L11.5786 69.9022C11.6076 69.8199 11.6415 69.7546 11.6802 69.7063C11.7189 69.6531 11.7793 69.6144 11.8615 69.5902C11.9486 69.5612 12.0671 69.5442 12.217 69.5394C12.367 69.5297 12.5653 69.5249 12.812 69.5249C13.0973 69.5249 13.3247 69.5297 13.4939 69.5394C13.6632 69.5442 13.7938 69.5612 13.8857 69.5902C13.9825 69.6144 14.0502 69.6531 14.0889 69.7063C14.1324 69.7595 14.1687 69.832 14.1977 69.9239L17.0997 78.2456ZM12.7902 71.3604H12.7829L11.4553 75.3508H14.1179L12.7902 71.3604Z" fill="black" fill-opacity="0.1"/>
<path d="M25.4425 72.4197C25.4425 72.9469 25.3603 73.4136 25.1959 73.8199C25.0314 74.2262 24.792 74.5696 24.4776 74.8502C24.1632 75.1259 23.7763 75.3362 23.3168 75.4814C22.8621 75.6265 22.3253 75.699 21.7062 75.699H20.9226V78.6954C20.9226 78.7437 20.9057 78.7873 20.8718 78.826C20.8428 78.8647 20.792 78.8961 20.7195 78.9203C20.6469 78.9445 20.5502 78.9638 20.4293 78.9783C20.3083 78.9928 20.1536 79.0001 19.9649 79.0001C19.7811 79.0001 19.6264 78.9928 19.5006 78.9783C19.3797 78.9638 19.2829 78.9445 19.2104 78.9203C19.1378 78.8961 19.0871 78.8647 19.058 78.826C19.029 78.7873 19.0145 78.7437 19.0145 78.6954V70.2504C19.0145 70.0231 19.0725 69.8538 19.1886 69.7426C19.3095 69.6265 19.4667 69.5684 19.6602 69.5684H21.873C22.0955 69.5684 22.3059 69.5781 22.5042 69.5974C22.7074 69.612 22.9492 69.6482 23.2297 69.7063C23.5103 69.7595 23.7932 69.8611 24.0786 70.011C24.3688 70.1609 24.6155 70.352 24.8186 70.5841C25.0217 70.8115 25.1765 71.0799 25.2829 71.3895C25.3893 71.6942 25.4425 72.0376 25.4425 72.4197ZM23.4474 72.5575C23.4474 72.2286 23.3893 71.9578 23.2733 71.745C23.1572 71.5321 23.0145 71.375 22.8452 71.2734C22.6759 71.1718 22.497 71.1089 22.3083 71.0847C22.1245 71.0557 21.9335 71.0412 21.7352 71.0412H20.9226V74.2262H21.7787C22.0834 74.2262 22.3373 74.1851 22.5405 74.1029C22.7485 74.0207 22.9178 73.907 23.0483 73.7619C23.1789 73.6119 23.2781 73.4354 23.3458 73.2323C23.4135 73.0243 23.4474 72.7994 23.4474 72.5575Z" fill="#5780EA"/>
<path d="M25.4425 72.4197C25.4425 72.9469 25.3603 73.4136 25.1959 73.8199C25.0314 74.2262 24.792 74.5696 24.4776 74.8502C24.1632 75.1259 23.7763 75.3362 23.3168 75.4814C22.8621 75.6265 22.3253 75.699 21.7062 75.699H20.9226V78.6954C20.9226 78.7437 20.9057 78.7873 20.8718 78.826C20.8428 78.8647 20.792 78.8961 20.7195 78.9203C20.6469 78.9445 20.5502 78.9638 20.4293 78.9783C20.3083 78.9928 20.1536 79.0001 19.9649 79.0001C19.7811 79.0001 19.6264 78.9928 19.5006 78.9783C19.3797 78.9638 19.2829 78.9445 19.2104 78.9203C19.1378 78.8961 19.0871 78.8647 19.058 78.826C19.029 78.7873 19.0145 78.7437 19.0145 78.6954V70.2504C19.0145 70.0231 19.0725 69.8538 19.1886 69.7426C19.3095 69.6265 19.4667 69.5684 19.6602 69.5684H21.873C22.0955 69.5684 22.3059 69.5781 22.5042 69.5974C22.7074 69.612 22.9492 69.6482 23.2297 69.7063C23.5103 69.7595 23.7932 69.8611 24.0786 70.011C24.3688 70.1609 24.6155 70.352 24.8186 70.5841C25.0217 70.8115 25.1765 71.0799 25.2829 71.3895C25.3893 71.6942 25.4425 72.0376 25.4425 72.4197ZM23.4474 72.5575C23.4474 72.2286 23.3893 71.9578 23.2733 71.745C23.1572 71.5321 23.0145 71.375 22.8452 71.2734C22.6759 71.1718 22.497 71.1089 22.3083 71.0847C22.1245 71.0557 21.9335 71.0412 21.7352 71.0412H20.9226V74.2262H21.7787C22.0834 74.2262 22.3373 74.1851 22.5405 74.1029C22.7485 74.0207 22.9178 73.907 23.0483 73.7619C23.1789 73.6119 23.2781 73.4354 23.3458 73.2323C23.4135 73.0243 23.4474 72.7994 23.4474 72.5575Z" fill="black" fill-opacity="0.1"/>
<path d="M33.691 70.352C33.691 70.4922 33.6838 70.6132 33.6693 70.7147C33.6596 70.8115 33.6427 70.8913 33.6185 70.9542C33.5943 71.0122 33.5629 71.0557 33.5242 71.0847C33.4903 71.1138 33.4516 71.1283 33.4081 71.1283H31.0574V78.6954C31.0574 78.7437 31.0405 78.7873 31.0066 78.826C30.9776 78.8647 30.9268 78.8961 30.8543 78.9203C30.7817 78.9445 30.6826 78.9638 30.5568 78.9783C30.4359 78.9928 30.2835 79.0001 30.0997 79.0001C29.9159 79.0001 29.7612 78.9928 29.6354 78.9783C29.5145 78.9638 29.4178 78.9445 29.3452 78.9203C29.2727 78.8961 29.2195 78.8647 29.1856 78.826C29.1566 78.7873 29.1421 78.7437 29.1421 78.6954V71.1283H26.7914C26.743 71.1283 26.7019 71.1138 26.6681 71.0847C26.6342 71.0557 26.6052 71.0122 26.581 70.9542C26.5568 70.8913 26.5375 70.8115 26.523 70.7147C26.5133 70.6132 26.5085 70.4922 26.5085 70.352C26.5085 70.2069 26.5133 70.0835 26.523 69.982C26.5375 69.8804 26.5568 69.8006 26.581 69.7426C26.6052 69.6797 26.6342 69.6361 26.6681 69.612C26.7019 69.5829 26.743 69.5684 26.7914 69.5684H33.4081C33.4516 69.5684 33.4903 69.5829 33.5242 69.612C33.5629 69.6361 33.5943 69.6797 33.6185 69.7426C33.6427 69.8006 33.6596 69.8804 33.6693 69.982C33.6838 70.0835 33.691 70.2069 33.691 70.352Z" fill="#5780EA"/>
<path d="M33.691 70.352C33.691 70.4922 33.6838 70.6132 33.6693 70.7147C33.6596 70.8115 33.6427 70.8913 33.6185 70.9542C33.5943 71.0122 33.5629 71.0557 33.5242 71.0847C33.4903 71.1138 33.4516 71.1283 33.4081 71.1283H31.0574V78.6954C31.0574 78.7437 31.0405 78.7873 31.0066 78.826C30.9776 78.8647 30.9268 78.8961 30.8543 78.9203C30.7817 78.9445 30.6826 78.9638 30.5568 78.9783C30.4359 78.9928 30.2835 79.0001 30.0997 79.0001C29.9159 79.0001 29.7612 78.9928 29.6354 78.9783C29.5145 78.9638 29.4178 78.9445 29.3452 78.9203C29.2727 78.8961 29.2195 78.8647 29.1856 78.826C29.1566 78.7873 29.1421 78.7437 29.1421 78.6954V71.1283H26.7914C26.743 71.1283 26.7019 71.1138 26.6681 71.0847C26.6342 71.0557 26.6052 71.0122 26.581 70.9542C26.5568 70.8913 26.5375 70.8115 26.523 70.7147C26.5133 70.6132 26.5085 70.4922 26.5085 70.352C26.5085 70.2069 26.5133 70.0835 26.523 69.982C26.5375 69.8804 26.5568 69.8006 26.581 69.7426C26.6052 69.6797 26.6342 69.6361 26.6681 69.612C26.7019 69.5829 26.743 69.5684 26.7914 69.5684H33.4081C33.4516 69.5684 33.4903 69.5829 33.5242 69.612C33.5629 69.6361 33.5943 69.6797 33.6185 69.7426C33.6427 69.8006 33.6596 69.8804 33.6693 69.982C33.6838 70.0835 33.691 70.2069 33.691 70.352Z" fill="black" fill-opacity="0.1"/>
<path d="M42.0701 78.2456C42.1282 78.4197 42.1644 78.5575 42.1789 78.6591C42.1934 78.7607 42.1741 78.8381 42.1209 78.8913C42.0677 78.9396 41.9734 78.9686 41.8379 78.9783C41.7025 78.9928 41.5163 79.0001 41.2793 79.0001C41.0326 79.0001 40.8392 78.9952 40.6989 78.9856C40.5635 78.9807 40.4595 78.9686 40.3869 78.9493C40.3144 78.9251 40.2636 78.8937 40.2346 78.855C40.2055 78.8163 40.1814 78.7655 40.162 78.7026L39.5308 76.8163H36.0048L35.4099 78.6518C35.3906 78.7196 35.364 78.7776 35.3301 78.826C35.3011 78.8695 35.2503 78.9058 35.1777 78.9348C35.11 78.959 35.0109 78.9759 34.8803 78.9856C34.7545 78.9952 34.5877 79.0001 34.3797 79.0001C34.1572 79.0001 33.9831 78.9928 33.8573 78.9783C33.7316 78.9638 33.6445 78.93 33.5961 78.8767C33.5478 78.8187 33.5308 78.7389 33.5453 78.6373C33.5599 78.5358 33.5961 78.4003 33.6542 78.231L36.549 69.9022C36.578 69.8199 36.6118 69.7546 36.6505 69.7063C36.6892 69.6531 36.7497 69.6144 36.8319 69.5902C36.919 69.5612 37.0375 69.5442 37.1874 69.5394C37.3374 69.5297 37.5357 69.5249 37.7823 69.5249C38.0677 69.5249 38.295 69.5297 38.4643 69.5394C38.6336 69.5442 38.7642 69.5612 38.8561 69.5902C38.9528 69.6144 39.0205 69.6531 39.0592 69.7063C39.1028 69.7595 39.139 69.832 39.1681 69.9239L42.0701 78.2456ZM37.7606 71.3604H37.7533L36.4256 75.3508H39.0883L37.7606 71.3604Z" fill="#5780EA"/>
<path d="M42.0701 78.2456C42.1282 78.4197 42.1644 78.5575 42.1789 78.6591C42.1934 78.7607 42.1741 78.8381 42.1209 78.8913C42.0677 78.9396 41.9734 78.9686 41.8379 78.9783C41.7025 78.9928 41.5163 79.0001 41.2793 79.0001C41.0326 79.0001 40.8392 78.9952 40.6989 78.9856C40.5635 78.9807 40.4595 78.9686 40.3869 78.9493C40.3144 78.9251 40.2636 78.8937 40.2346 78.855C40.2055 78.8163 40.1814 78.7655 40.162 78.7026L39.5308 76.8163H36.0048L35.4099 78.6518C35.3906 78.7196 35.364 78.7776 35.3301 78.826C35.3011 78.8695 35.2503 78.9058 35.1777 78.9348C35.11 78.959 35.0109 78.9759 34.8803 78.9856C34.7545 78.9952 34.5877 79.0001 34.3797 79.0001C34.1572 79.0001 33.9831 78.9928 33.8573 78.9783C33.7316 78.9638 33.6445 78.93 33.5961 78.8767C33.5478 78.8187 33.5308 78.7389 33.5453 78.6373C33.5599 78.5358 33.5961 78.4003 33.6542 78.231L36.549 69.9022C36.578 69.8199 36.6118 69.7546 36.6505 69.7063C36.6892 69.6531 36.7497 69.6144 36.8319 69.5902C36.919 69.5612 37.0375 69.5442 37.1874 69.5394C37.3374 69.5297 37.5357 69.5249 37.7823 69.5249C38.0677 69.5249 38.295 69.5297 38.4643 69.5394C38.6336 69.5442 38.7642 69.5612 38.8561 69.5902C38.9528 69.6144 39.0205 69.6531 39.0592 69.7063C39.1028 69.7595 39.139 69.832 39.1681 69.9239L42.0701 78.2456ZM37.7606 71.3604H37.7533L36.4256 75.3508H39.0883L37.7606 71.3604Z" fill="black" fill-opacity="0.1"/>
<g clip-path="url(#clip0)">
<path d="M21.5407 0C9.64882 0 0.0071209 9.52563 0 21.2831C0.0071209 12.6656 7.07818 5.68159 15.7942 5.68159C24.5173 5.68159 31.5883 12.6727 31.5883 21.2971C31.5883 26.7886 27.0879 31.2311 21.5407 31.2311C16.1645 31.2311 11.7709 27.0562 11.5003 21.8111C11.778 30.1962 18.7351 36.9127 27.2873 36.9127C36.0033 36.9127 43.0672 29.9357 43.0815 21.3253C43.0815 21.3112 43.0815 21.3042 43.0815 21.2971C43.0815 9.53267 33.4398 0 21.5407 0Z" fill="url(#paint0_linear)"/>
<path d="M21.5407 42.5944C33.4326 42.5944 43.0743 33.0687 43.0815 21.3113C43.0743 29.9287 36.0033 36.9128 27.2873 36.9128C18.5642 36.9128 11.4931 29.9217 11.4931 21.2972C11.4931 15.8057 15.9935 11.3562 21.5407 11.3562C26.917 11.3562 31.3106 15.5311 31.5812 20.7833C31.3035 12.3982 24.3464 5.68164 15.7942 5.68164C7.0853 5.68164 0.0213627 12.6587 0 21.269C0 21.2831 0 21.2902 0 21.2972C0 33.0617 9.64882 42.5944 21.5407 42.5944Z" fill="url(#paint1_linear)"/>
<path d="M60.4776 21.2832H46.0364L59.8509 2.40088H74.2921L60.4776 21.2832Z" fill="url(#paint2_linear)"/>
<path d="M74.2921 40.1652H59.8509L46.0364 21.283H60.4776L74.2921 40.1652Z" fill="url(#paint3_linear)"/>
</g>
<defs>
<linearGradient id="paint0_linear" x1="21.5397" y1="36.9138" x2="21.5397" y2="0" gradientUnits="userSpaceOnUse">
<stop stop-color="#4E9449"/>
<stop offset="1" stop-color="#70D468"/>
</linearGradient>
<linearGradient id="paint1_linear" x1="21.5397" y1="5.67861" x2="21.5397" y2="42.5924" gradientUnits="userSpaceOnUse">
<stop stop-color="#4E9449"/>
<stop offset="1" stop-color="#70D468"/>
</linearGradient>
<linearGradient id="paint2_linear" x1="46.0365" y1="11.8407" x2="74.2921" y2="11.8407" gradientUnits="userSpaceOnUse">
<stop stop-color="#70D468"/>
<stop offset="1" stop-color="#51924B"/>
<stop offset="1" stop-color="#4E9449"/>
</linearGradient>
<linearGradient id="paint3_linear" x1="60.1643" y1="40.1681" x2="60.1643" y2="21.2842" gradientUnits="userSpaceOnUse">
<stop stop-color="#70D468"/>
<stop offset="1" stop-color="#4E9449"/>
</linearGradient>
<clipPath id="clip0">
<rect width="74.2924" height="42.5943" fill="white"/>
</clipPath>
</defs>
</svg>
