<svg width="56" height="32" viewBox="0 0 56 32" fill="none" xmlns="http://www.w3.org/2000/svg">
<g clip-path="url(#clip0)">
<path d="M16.183 0C7.24891 0 0.00534975 7.15636 0 15.9894C0.00534975 9.51537 5.31765 4.26843 11.8657 4.26843C18.4192 4.26843 23.7315 9.52066 23.7315 16C23.7315 20.1256 20.3505 23.4631 16.183 23.4631C12.1439 23.4631 8.84314 20.3266 8.63985 16.3861C8.84849 22.6856 14.0752 27.7316 20.5002 27.7316C27.0483 27.7316 32.3553 22.4899 32.366 16.0212C32.366 16.0106 32.366 16.0053 32.366 16C32.366 7.16165 25.1224 0 16.183 0Z" fill="url(#paint0_linear)"/>
<path d="M16.183 32.0001C25.1171 32.0001 32.3606 24.8438 32.366 16.0107C32.3606 22.4848 27.0483 27.7317 20.5002 27.7317C13.9468 27.7317 8.6345 22.4795 8.6345 16.0001C8.6345 11.8745 12.0155 8.5317 16.183 8.5317C20.2221 8.5317 23.5229 11.6682 23.7261 15.614C23.5175 9.31451 18.2908 4.26855 11.8657 4.26855C5.323 4.26855 0.0160493 9.51021 0 15.979C0 15.9895 0 15.9948 0 16.0001C0 24.8385 7.24891 32.0001 16.183 32.0001Z" fill="url(#paint1_linear)"/>
<path d="M45.4352 15.9895H34.586L44.9645 1.80371H55.8138L45.4352 15.9895Z" fill="url(#paint2_linear)"/>
<path d="M55.8138 30.175H44.9645L34.586 15.9893H45.4352L55.8138 30.175Z" fill="url(#paint3_linear)"/>
</g>
<defs>
<linearGradient id="paint0_linear" x1="16.1822" y1="27.7324" x2="16.1822" y2="0" gradientUnits="userSpaceOnUse">
<stop stop-color="#4E9449"/>
<stop offset="1" stop-color="#70D468"/>
</linearGradient>
<linearGradient id="paint1_linear" x1="16.1822" y1="4.26628" x2="16.1822" y2="31.9986" gradientUnits="userSpaceOnUse">
<stop stop-color="#4E9449"/>
<stop offset="1" stop-color="#70D468"/>
</linearGradient>
<linearGradient id="paint2_linear" x1="34.5861" y1="8.8956" x2="55.8138" y2="8.8956" gradientUnits="userSpaceOnUse">
<stop stop-color="#70D468"/>
<stop offset="1" stop-color="#51924B"/>
<stop offset="1" stop-color="#4E9449"/>
</linearGradient>
<linearGradient id="paint3_linear" x1="45.1999" y1="30.1771" x2="45.1999" y2="15.9902" gradientUnits="userSpaceOnUse">
<stop stop-color="#70D468"/>
<stop offset="1" stop-color="#4E9449"/>
</linearGradient>
<clipPath id="clip0">
<rect width="55.814" height="32" fill="white"/>
</clipPath>
</defs>
</svg>
